<svg width="25" height="29" viewBox="0 0 25 29" fill="none" xmlns="http://www.w3.org/2000/svg">
<mask id="mask0_18338_88773" style="mask-type:alpha" maskUnits="userSpaceOnUse" x="0" y="0" width="25" height="29">
<path d="M22.9779 28.9265H2.02206C0.905307 28.9265 0 28.0212 0 26.9044V2.6397C0 1.52295 0.905307 0.617645 2.02206 0.617645H15.625L25 9.99265V26.9044C25 28.0212 24.0947 28.9265 22.9779 28.9265Z" fill="url(#paint0_linear_18338_88773)"/>
</mask>
<g mask="url(#mask0_18338_88773)">
<path d="M22.9779 28.9265H2.02206C0.905307 28.9265 0 28.0212 0 26.9044V2.6397C0 1.52295 0.905307 0.617645 2.02206 0.617645H15.625L25 9.99265V26.9044C25 28.0212 24.0947 28.9265 22.9779 28.9265Z" fill="url(#paint1_linear_18338_88773)"/>
<g filter="url(#filter0_f_18338_88773)">
<rect x="4.31982" y="14.3124" width="16.3603" height="7.72059" fill="#3F3F46" fill-opacity="0.07" style="mix-blend-mode:darken"/>
</g>
<mask id="path-4-outside-1_18338_88773" maskUnits="userSpaceOnUse" x="4" y="14.9447" width="18" height="7" fill="black">
<rect fill="white" x="4" y="14.9447" width="18" height="7"/>
<path d="M5.32577 20.9447C5.2338 20.9447 5.15635 20.9133 5.09342 20.8503C5.03049 20.7874 4.99903 20.71 4.99903 20.618V16.2105C4.99903 16.1186 5.03049 16.0411 5.09342 15.9782C5.15635 15.9104 5.2338 15.8765 5.32577 15.8765H6.78524C7.2209 15.8765 7.59847 15.9516 7.91796 16.1016C8.23745 16.2468 8.50368 16.4429 8.71667 16.6898C8.92966 16.9318 9.08699 17.2029 9.18864 17.503C9.29514 17.8031 9.34838 18.1057 9.34838 18.4106C9.34838 18.7156 9.29514 19.0181 9.18864 19.3183C9.08699 19.6184 8.92966 19.8919 8.71667 20.1388C8.50368 20.3808 8.23745 20.5768 7.91796 20.7269C7.59847 20.8721 7.2209 20.9447 6.78524 20.9447H5.32577ZM5.65978 20.3275H6.70537C7.11199 20.3275 7.46294 20.2477 7.75822 20.0879C8.05834 19.9233 8.28827 19.6983 8.44802 19.4127C8.6126 19.1222 8.69489 18.7882 8.69489 18.4106C8.69489 18.0331 8.6126 17.7015 8.44802 17.4159C8.28827 17.1254 8.05834 16.9003 7.75822 16.7406C7.46294 16.576 7.11199 16.4937 6.70537 16.4937H5.65978V20.3275ZM13.2038 21.0173C12.6859 21.0173 12.2381 20.906 11.8605 20.6833C11.483 20.4607 11.1901 20.1533 10.9819 19.7612C10.7738 19.3691 10.6649 18.9189 10.6552 18.4106C10.6649 17.9024 10.7738 17.4522 10.9819 17.0601C11.1901 16.668 11.483 16.3606 11.8605 16.1379C12.2381 15.9153 12.6859 15.8039 13.2038 15.8039C13.7218 15.8039 14.1695 15.9153 14.5471 16.1379C14.9247 16.3606 15.2175 16.668 15.4257 17.0601C15.6338 17.4522 15.7428 17.9024 15.7524 18.4106C15.7428 18.9189 15.6338 19.3691 15.4257 19.7612C15.2175 20.1533 14.9247 20.4607 14.5471 20.6833C14.1695 20.906 13.7218 21.0173 13.2038 21.0173ZM13.2038 20.4002C13.6056 20.4002 13.9469 20.313 14.2276 20.1388C14.5084 19.9597 14.7214 19.72 14.8666 19.4199C15.0167 19.1198 15.0917 18.7834 15.0917 18.4106C15.0917 18.0379 15.0167 17.7015 14.8666 17.4014C14.7214 17.1012 14.5084 16.864 14.2276 16.6898C13.9469 16.5107 13.6056 16.4211 13.2038 16.4211C12.802 16.4211 12.4608 16.5107 12.18 16.6898C11.8993 16.864 11.6838 17.1012 11.5338 17.4014C11.3886 17.7015 11.316 18.0379 11.316 18.4106C11.316 18.7834 11.3886 19.1198 11.5338 19.4199C11.6838 19.72 11.8993 19.9597 12.18 20.1388C12.4608 20.313 12.802 20.4002 13.2038 20.4002ZM19.5973 21.0173C19.1181 21.0173 18.6849 20.9133 18.2976 20.7051C17.9152 20.4921 17.6126 20.192 17.39 19.8048C17.1673 19.4127 17.056 18.9479 17.056 18.4106C17.056 17.8685 17.1673 17.4038 17.39 17.0165C17.6126 16.6293 17.9152 16.3316 18.2976 16.1234C18.6849 15.9104 19.1181 15.8039 19.5973 15.8039C19.9555 15.8039 20.2653 15.8475 20.5267 15.9346C20.7881 16.0218 21.0302 16.1282 21.2528 16.2541C21.3012 16.2783 21.3376 16.3122 21.3618 16.3558C21.3908 16.3945 21.4077 16.4477 21.4126 16.5155C21.4174 16.593 21.3932 16.6607 21.34 16.7188C21.2867 16.7769 21.2141 16.8059 21.1221 16.8059C21.0737 16.8059 21.0302 16.7963 20.9914 16.7769C20.7978 16.6752 20.5993 16.593 20.396 16.53C20.1927 16.4671 19.9483 16.4356 19.6627 16.4356C19.2367 16.4356 18.8785 16.5228 18.588 16.697C18.2976 16.8713 18.0798 17.1085 17.9345 17.4086C17.7893 17.7039 17.7167 18.0379 17.7167 18.4106C17.7167 18.7834 17.7893 19.1198 17.9345 19.4199C18.0798 19.7152 18.2976 19.95 18.588 20.1242C18.8785 20.2985 19.2367 20.3856 19.6627 20.3856C19.9483 20.3856 20.1927 20.3542 20.396 20.2912C20.5993 20.2283 20.7978 20.146 20.9914 20.0444C21.0302 20.025 21.0737 20.0153 21.1221 20.0153C21.2141 20.0153 21.2867 20.0444 21.34 20.1025C21.3932 20.1605 21.4174 20.2283 21.4126 20.3058C21.4077 20.3735 21.3908 20.4292 21.3618 20.4728C21.3376 20.5115 21.3012 20.543 21.2528 20.5672C21.0302 20.693 20.7881 20.7995 20.5267 20.8866C20.2653 20.9738 19.9555 21.0173 19.5973 21.0173Z"/>
</mask>
<path d="M5.32577 20.9447C5.2338 20.9447 5.15635 20.9133 5.09342 20.8503C5.03049 20.7874 4.99903 20.71 4.99903 20.618V16.2105C4.99903 16.1186 5.03049 16.0411 5.09342 15.9782C5.15635 15.9104 5.2338 15.8765 5.32577 15.8765H6.78524C7.2209 15.8765 7.59847 15.9516 7.91796 16.1016C8.23745 16.2468 8.50368 16.4429 8.71667 16.6898C8.92966 16.9318 9.08699 17.2029 9.18864 17.503C9.29514 17.8031 9.34838 18.1057 9.34838 18.4106C9.34838 18.7156 9.29514 19.0181 9.18864 19.3183C9.08699 19.6184 8.92966 19.8919 8.71667 20.1388C8.50368 20.3808 8.23745 20.5768 7.91796 20.7269C7.59847 20.8721 7.2209 20.9447 6.78524 20.9447H5.32577ZM5.65978 20.3275H6.70537C7.11199 20.3275 7.46294 20.2477 7.75822 20.0879C8.05834 19.9233 8.28827 19.6983 8.44802 19.4127C8.6126 19.1222 8.69489 18.7882 8.69489 18.4106C8.69489 18.0331 8.6126 17.7015 8.44802 17.4159C8.28827 17.1254 8.05834 16.9003 7.75822 16.7406C7.46294 16.576 7.11199 16.4937 6.70537 16.4937H5.65978V20.3275ZM13.2038 21.0173C12.6859 21.0173 12.2381 20.906 11.8605 20.6833C11.483 20.4607 11.1901 20.1533 10.9819 19.7612C10.7738 19.3691 10.6649 18.9189 10.6552 18.4106C10.6649 17.9024 10.7738 17.4522 10.9819 17.0601C11.1901 16.668 11.483 16.3606 11.8605 16.1379C12.2381 15.9153 12.6859 15.8039 13.2038 15.8039C13.7218 15.8039 14.1695 15.9153 14.5471 16.1379C14.9247 16.3606 15.2175 16.668 15.4257 17.0601C15.6338 17.4522 15.7428 17.9024 15.7524 18.4106C15.7428 18.9189 15.6338 19.3691 15.4257 19.7612C15.2175 20.1533 14.9247 20.4607 14.5471 20.6833C14.1695 20.906 13.7218 21.0173 13.2038 21.0173ZM13.2038 20.4002C13.6056 20.4002 13.9469 20.313 14.2276 20.1388C14.5084 19.9597 14.7214 19.72 14.8666 19.4199C15.0167 19.1198 15.0917 18.7834 15.0917 18.4106C15.0917 18.0379 15.0167 17.7015 14.8666 17.4014C14.7214 17.1012 14.5084 16.864 14.2276 16.6898C13.9469 16.5107 13.6056 16.4211 13.2038 16.4211C12.802 16.4211 12.4608 16.5107 12.18 16.6898C11.8993 16.864 11.6838 17.1012 11.5338 17.4014C11.3886 17.7015 11.316 18.0379 11.316 18.4106C11.316 18.7834 11.3886 19.1198 11.5338 19.4199C11.6838 19.72 11.8993 19.9597 12.18 20.1388C12.4608 20.313 12.802 20.4002 13.2038 20.4002ZM19.5973 21.0173C19.1181 21.0173 18.6849 20.9133 18.2976 20.7051C17.9152 20.4921 17.6126 20.192 17.39 19.8048C17.1673 19.4127 17.056 18.9479 17.056 18.4106C17.056 17.8685 17.1673 17.4038 17.39 17.0165C17.6126 16.6293 17.9152 16.3316 18.2976 16.1234C18.6849 15.9104 19.1181 15.8039 19.5973 15.8039C19.9555 15.8039 20.2653 15.8475 20.5267 15.9346C20.7881 16.0218 21.0302 16.1282 21.2528 16.2541C21.3012 16.2783 21.3376 16.3122 21.3618 16.3558C21.3908 16.3945 21.4077 16.4477 21.4126 16.5155C21.4174 16.593 21.3932 16.6607 21.34 16.7188C21.2867 16.7769 21.2141 16.8059 21.1221 16.8059C21.0737 16.8059 21.0302 16.7963 20.9914 16.7769C20.7978 16.6752 20.5993 16.593 20.396 16.53C20.1927 16.4671 19.9483 16.4356 19.6627 16.4356C19.2367 16.4356 18.8785 16.5228 18.588 16.697C18.2976 16.8713 18.0798 17.1085 17.9345 17.4086C17.7893 17.7039 17.7167 18.0379 17.7167 18.4106C17.7167 18.7834 17.7893 19.1198 17.9345 19.4199C18.0798 19.7152 18.2976 19.95 18.588 20.1242C18.8785 20.2985 19.2367 20.3856 19.6627 20.3856C19.9483 20.3856 20.1927 20.3542 20.396 20.2912C20.5993 20.2283 20.7978 20.146 20.9914 20.0444C21.0302 20.025 21.0737 20.0153 21.1221 20.0153C21.2141 20.0153 21.2867 20.0444 21.34 20.1025C21.3932 20.1605 21.4174 20.2283 21.4126 20.3058C21.4077 20.3735 21.3908 20.4292 21.3618 20.4728C21.3376 20.5115 21.3012 20.543 21.2528 20.5672C21.0302 20.693 20.7881 20.7995 20.5267 20.8866C20.2653 20.9738 19.9555 21.0173 19.5973 21.0173Z" fill="white"/>
<path d="M5.09342 20.8503L5.2234 20.7204L5.2234 20.7204L5.09342 20.8503ZM5.09342 15.9782L5.22349 16.1083L5.22812 16.1033L5.09342 15.9782ZM7.91796 16.1016L7.8398 16.268L7.84189 16.269L7.91796 16.1016ZM8.71667 16.6898L8.57748 16.8099L8.57867 16.8112L8.71667 16.6898ZM9.18864 17.503L9.01451 17.562L9.0154 17.5645L9.18864 17.503ZM9.18864 19.3183L9.01538 19.2568L9.01453 19.2593L9.18864 19.3183ZM8.71667 20.1388L8.85468 20.2602L8.85586 20.2588L8.71667 20.1388ZM7.91796 20.7269L7.99403 20.8943L7.99611 20.8933L7.91796 20.7269ZM5.65978 20.3275H5.47596V20.5114H5.65978V20.3275ZM7.75822 20.0879L7.84569 20.2496L7.84661 20.2491L7.75822 20.0879ZM8.44802 19.4127L8.28808 19.322L8.28758 19.3229L8.44802 19.4127ZM8.44802 17.4159L8.28691 17.5045L8.28875 17.5077L8.44802 17.4159ZM7.75822 16.7406L7.6687 16.9012L7.67185 16.9029L7.75822 16.7406ZM5.65978 16.4937V16.3099H5.47596V16.4937H5.65978ZM5.32577 20.9447V20.7609C5.28073 20.7609 5.25059 20.7475 5.2234 20.7204L5.09342 20.8503L4.96344 20.9803C5.06211 21.079 5.18687 21.1286 5.32577 21.1286V20.9447ZM5.09342 20.8503L5.2234 20.7204C5.19622 20.6932 5.18285 20.663 5.18285 20.618H4.99903H4.8152C4.8152 20.7569 4.86477 20.8817 4.96344 20.9803L5.09342 20.8503ZM4.99903 20.618H5.18285V16.2105H4.99903H4.8152V20.618H4.99903ZM4.99903 16.2105H5.18285C5.18285 16.1655 5.19622 16.1354 5.2234 16.1082L5.09342 15.9782L4.96344 15.8482C4.86477 15.9469 4.8152 16.0716 4.8152 16.2105H4.99903ZM5.09342 15.9782L5.22812 16.1033C5.25649 16.0727 5.28524 16.0604 5.32577 16.0604V15.8765V15.6927C5.18236 15.6927 5.05621 15.7481 4.95871 15.8531L5.09342 15.9782ZM5.32577 15.8765V16.0604H6.78524V15.8765V15.6927H5.32577V15.8765ZM6.78524 15.8765V16.0604C7.20007 16.0604 7.54982 16.1318 7.83981 16.268L7.91796 16.1016L7.99611 15.9352C7.64713 15.7713 7.24173 15.6927 6.78524 15.6927V15.8765ZM7.91796 16.1016L7.84189 16.269C8.13905 16.404 8.38317 16.5846 8.57749 16.8098L8.71667 16.6898L8.85586 16.5697C8.6242 16.3012 8.33584 16.0897 7.99403 15.9343L7.91796 16.1016ZM8.71667 16.6898L8.57867 16.8112C8.77591 17.0353 8.92081 17.2853 9.01453 17.562L9.18864 17.503L9.36275 17.444C9.25316 17.1205 9.08342 16.8283 8.85467 16.5683L8.71667 16.6898ZM9.18864 17.503L9.0154 17.5645C9.1152 17.8457 9.16456 18.1275 9.16456 18.4106H9.34838H9.53221C9.53221 18.0838 9.47507 17.7605 9.36188 17.4415L9.18864 17.503ZM9.34838 18.4106H9.16456C9.16456 18.6937 9.1152 18.9755 9.0154 19.2568L9.18864 19.3183L9.36188 19.3797C9.47507 19.0608 9.53221 18.7375 9.53221 18.4106H9.34838ZM9.18864 19.3183L9.01453 19.2593C8.9207 19.5363 8.77547 19.7892 8.57749 20.0187L8.71667 20.1388L8.85586 20.2588C9.08386 19.9946 9.25328 19.7004 9.36275 19.3772L9.18864 19.3183ZM8.71667 20.1388L8.57867 20.0173C8.38386 20.2387 8.13865 20.4202 7.83981 20.5605L7.91796 20.7269L7.99611 20.8933C8.33624 20.7335 8.6235 20.5229 8.85467 20.2602L8.71667 20.1388ZM7.91796 20.7269L7.84189 20.5596C7.55134 20.6916 7.20082 20.7609 6.78524 20.7609V20.9447V21.1286C7.24098 21.1286 7.64561 21.0526 7.99403 20.8942L7.91796 20.7269ZM6.78524 20.9447V20.7609H5.32577V20.9447V21.1286H6.78524V20.9447ZM5.65978 20.3275V20.5114H6.70537V20.3275V20.1437H5.65978V20.3275ZM6.70537 20.3275V20.5114C7.13613 20.5114 7.51842 20.4267 7.84568 20.2496L7.75822 20.0879L7.67075 19.9263C7.40745 20.0687 7.08785 20.1437 6.70537 20.1437V20.3275ZM7.75822 20.0879L7.84661 20.2491C8.17551 20.0687 8.43107 19.8195 8.60845 19.5024L8.44802 19.4127L8.28758 19.3229C8.14547 19.577 7.94117 19.778 7.66983 19.9268L7.75822 20.0879ZM8.44802 19.4127L8.60795 19.5033C8.79015 19.1817 8.87871 18.8157 8.87871 18.4106H8.69489H8.51107C8.51107 18.7607 8.43504 19.0627 8.28808 19.322L8.44802 19.4127ZM8.69489 18.4106H8.87871C8.87871 18.0056 8.79017 17.6415 8.60729 17.3241L8.44802 17.4159L8.28875 17.5077C8.43502 17.7615 8.51107 18.0605 8.51107 18.4106H8.69489ZM8.44802 17.4159L8.60908 17.3273C8.43167 17.0047 8.17538 16.7544 7.84459 16.5783L7.75822 16.7406L7.67185 16.9029C7.9413 17.0463 8.14488 17.2462 8.28695 17.5045L8.44802 17.4159ZM7.75822 16.7406L7.84771 16.58C7.52002 16.3974 7.13698 16.3099 6.70537 16.3099V16.4937V16.6775C7.087 16.6775 7.40585 16.7546 7.66872 16.9012L7.75822 16.7406ZM6.70537 16.4937V16.3099H5.65978V16.4937V16.6775H6.70537V16.4937ZM5.65978 16.4937H5.47596V20.3275H5.65978H5.8436V16.4937H5.65978ZM11.8605 20.6833L11.9539 20.525L11.9539 20.525L11.8605 20.6833ZM10.9819 19.7612L10.8196 19.8474L10.8196 19.8474L10.9819 19.7612ZM10.6552 18.4106L10.4713 18.4071L10.4714 18.4141L10.6552 18.4106ZM10.9819 17.0601L11.1443 17.1463L11.1443 17.1463L10.9819 17.0601ZM11.8605 16.1379L11.7671 15.9796L11.7671 15.9796L11.8605 16.1379ZM14.5471 16.1379L14.6405 15.9796L14.6405 15.9796L14.5471 16.1379ZM15.4257 17.0601L15.2633 17.1463L15.2633 17.1463L15.4257 17.0601ZM15.7524 18.4106L15.9364 18.4141L15.9362 18.4071L15.7524 18.4106ZM15.4257 19.7612L15.2633 19.675L15.2633 19.675L15.4257 19.7612ZM14.5471 20.6833L14.4537 20.525L14.4537 20.525L14.5471 20.6833ZM14.2276 20.1388L14.3246 20.295L14.3265 20.2937L14.2276 20.1388ZM14.8666 19.4199L14.7022 19.3377L14.7011 19.3399L14.8666 19.4199ZM14.8666 17.4014L14.7011 17.4814L14.7022 17.4836L14.8666 17.4014ZM14.2276 16.6898L14.1288 16.8448L14.1307 16.846L14.2276 16.6898ZM12.18 16.6898L12.277 16.846L12.2789 16.8447L12.18 16.6898ZM11.5338 17.4014L11.3694 17.3191L11.3683 17.3213L11.5338 17.4014ZM11.5338 19.4199L11.3683 19.5L11.3694 19.5021L11.5338 19.4199ZM12.18 20.1388L12.0811 20.2937L12.0831 20.2949L12.18 20.1388ZM13.2038 21.0173V20.8335C12.7127 20.8335 12.2984 20.7282 11.9539 20.525L11.8605 20.6833L11.7671 20.8417C12.1778 21.0838 12.659 21.2012 13.2038 21.2012V21.0173ZM11.8605 20.6833L11.9539 20.525C11.6059 20.3198 11.3368 20.0375 11.1443 19.675L10.9819 19.7612L10.8196 19.8474C11.0434 20.269 11.36 20.6015 11.7671 20.8417L11.8605 20.6833ZM10.9819 19.7612L11.1443 19.675C10.9515 19.3119 10.8482 18.8908 10.839 18.4071L10.6552 18.4106L10.4714 18.4141C10.4816 18.9471 10.596 19.4263 10.8196 19.8474L10.9819 19.7612ZM10.6552 18.4106L10.839 18.4141C10.8482 17.9305 10.9515 17.5094 11.1443 17.1463L10.9819 17.0601L10.8196 16.9739C10.596 17.395 10.4816 17.8742 10.4714 18.4071L10.6552 18.4106ZM10.9819 17.0601L11.1443 17.1463C11.3368 16.7837 11.6059 16.5015 11.9539 16.2963L11.8605 16.1379L11.7671 15.9796C11.36 16.2197 11.0434 16.5522 10.8196 16.9739L10.9819 17.0601ZM11.8605 16.1379L11.9539 16.2963C12.2984 16.0931 12.7127 15.9877 13.2038 15.9877V15.8039V15.6201C12.659 15.6201 12.1778 15.7374 11.7671 15.9796L11.8605 16.1379ZM13.2038 15.8039V15.9877C13.6949 15.9877 14.1092 16.0931 14.4537 16.2963L14.5471 16.1379L14.6405 15.9796C14.2299 15.7374 13.7486 15.6201 13.2038 15.6201V15.8039ZM14.5471 16.1379L14.4537 16.2963C14.8017 16.5015 15.0709 16.7837 15.2633 17.1463L15.4257 17.0601L15.5881 16.9739C15.3642 16.5522 15.0477 16.2197 14.6405 15.9796L14.5471 16.1379ZM15.4257 17.0601L15.2633 17.1463C15.4561 17.5094 15.5594 17.9305 15.5687 18.4141L15.7524 18.4106L15.9362 18.4071C15.9261 17.8742 15.8116 17.395 15.5881 16.9739L15.4257 17.0601ZM15.7524 18.4106L15.5687 18.4071C15.5594 18.8908 15.4561 19.3119 15.2633 19.675L15.4257 19.7612L15.5881 19.8474C15.8116 19.4263 15.9261 18.9471 15.9362 18.4141L15.7524 18.4106ZM15.4257 19.7612L15.2633 19.675C15.0709 20.0375 14.8017 20.3198 14.4537 20.525L14.5471 20.6833L14.6405 20.8417C15.0477 20.6015 15.3642 20.269 15.5881 19.8474L15.4257 19.7612ZM14.5471 20.6833L14.4537 20.525C14.1092 20.7282 13.6949 20.8335 13.2038 20.8335V21.0173V21.2012C13.7486 21.2012 14.2299 21.0838 14.6405 20.8417L14.5471 20.6833ZM13.2038 20.4002V20.584C13.6324 20.584 14.009 20.4908 14.3246 20.2949L14.2276 20.1388L14.1307 19.9826C13.8847 20.1352 13.5788 20.2163 13.2038 20.2163V20.4002ZM14.2276 20.1388L14.3265 20.2937C14.636 20.0963 14.872 19.8307 15.0321 19.5L14.8666 19.4199L14.7011 19.3399C14.5707 19.6094 14.3808 19.823 14.1288 19.9838L14.2276 20.1388ZM14.8666 19.4199L15.031 19.5021C15.1952 19.1738 15.2755 18.8087 15.2755 18.4106H15.0917H14.9079C14.9079 18.758 14.8381 19.0658 14.7022 19.3377L14.8666 19.4199ZM15.0917 18.4106H15.2755C15.2755 18.0126 15.1952 17.6475 15.031 17.3191L14.8666 17.4014L14.7022 17.4836C14.8381 17.7554 14.9079 18.0632 14.9079 18.4106H15.0917ZM14.8666 17.4014L15.0321 17.3213C14.8718 16.9901 14.6352 16.7264 14.3246 16.5336L14.2276 16.6898L14.1307 16.846C14.3816 17.0017 14.5709 17.2123 14.7011 17.4814L14.8666 17.4014ZM14.2276 16.6898L14.3265 16.5348C14.0106 16.3333 13.6333 16.2373 13.2038 16.2373V16.4211V16.6049C13.5779 16.6049 13.8831 16.6881 14.1288 16.8447L14.2276 16.6898ZM13.2038 16.4211V16.2373C12.7743 16.2373 12.397 16.3333 12.0812 16.5348L12.18 16.6898L12.2789 16.8447C12.5245 16.6881 12.8298 16.6049 13.2038 16.6049V16.4211ZM12.18 16.6898L12.0831 16.5336C11.7729 16.7261 11.5344 16.9891 11.3694 17.3191L11.5338 17.4014L11.6982 17.4836C11.8333 17.2134 12.0256 17.002 12.277 16.846L12.18 16.6898ZM11.5338 17.4014L11.3683 17.3213C11.2097 17.6492 11.1321 18.0135 11.1321 18.4106H11.316H11.4998C11.4998 18.0623 11.5675 17.7538 11.6993 17.4814L11.5338 17.4014ZM11.316 18.4106H11.1321C11.1321 18.8078 11.2097 19.1721 11.3683 19.5L11.5338 19.4199L11.6993 19.3399C11.5675 19.0675 11.4998 18.7589 11.4998 18.4106H11.316ZM11.5338 19.4199L11.3694 19.5021C11.5342 19.8317 11.7721 20.0966 12.0812 20.2937L12.18 20.1388L12.2789 19.9838C12.0264 19.8227 11.8335 19.6083 11.6982 19.3377L11.5338 19.4199ZM12.18 20.1388L12.0831 20.2949C12.3987 20.4908 12.7752 20.584 13.2038 20.584V20.4002V20.2163C12.8289 20.2163 12.5229 20.1352 12.277 19.9826L12.18 20.1388ZM18.2976 20.7051L18.2081 20.8657L18.2106 20.867L18.2976 20.7051ZM17.39 19.8048L17.2301 19.8955L17.2306 19.8964L17.39 19.8048ZM17.39 17.0165L17.5493 17.1081L17.5493 17.1081L17.39 17.0165ZM18.2976 16.1234L18.3855 16.2849L18.3862 16.2845L18.2976 16.1234ZM20.5267 15.9346L20.5849 15.7602L20.5849 15.7602L20.5267 15.9346ZM21.2528 16.2541L21.1623 16.4143L21.1706 16.4185L21.2528 16.2541ZM21.3618 16.3558L21.2011 16.445L21.2072 16.456L21.2147 16.4661L21.3618 16.3558ZM21.4126 16.5155L21.5961 16.504L21.5959 16.5024L21.4126 16.5155ZM21.34 16.7188L21.4755 16.843L21.4755 16.843L21.34 16.7188ZM20.9914 16.7769L20.906 16.9397L20.9092 16.9413L20.9914 16.7769ZM20.396 16.53L20.4504 16.3544L20.4504 16.3544L20.396 16.53ZM18.588 16.697L18.4935 16.5394L18.4935 16.5394L18.588 16.697ZM17.9345 17.4086L18.0995 17.4897L18.1 17.4887L17.9345 17.4086ZM17.9345 19.4199L17.7691 19.5L17.7696 19.501L17.9345 19.4199ZM18.588 20.1242L18.4935 20.2819L18.4935 20.2819L18.588 20.1242ZM20.396 20.2912L20.4504 20.4668L20.4504 20.4668L20.396 20.2912ZM20.9914 20.0444L20.9092 19.8799L20.906 19.8816L20.9914 20.0444ZM21.34 20.1025L21.4755 19.9782L21.4755 19.9782L21.34 20.1025ZM21.4126 20.3058L21.5959 20.3189L21.596 20.3172L21.4126 20.3058ZM21.3618 20.4728L21.2087 20.3708L21.2059 20.3753L21.3618 20.4728ZM21.2528 20.5672L21.1705 20.4025L21.1624 20.4071L21.2528 20.5672ZM20.5267 20.8866L20.5849 21.061L20.5849 21.061L20.5267 20.8866ZM19.5973 21.0173V20.8335C19.1457 20.8335 18.7428 20.7357 18.3846 20.5432L18.2976 20.7051L18.2106 20.867C18.6269 21.0908 19.0905 21.2012 19.5973 21.2012V21.0173ZM18.2976 20.7051L18.387 20.5445C18.0344 20.3481 17.7557 20.0721 17.5493 19.7131L17.39 19.8048L17.2306 19.8964C17.4695 20.3119 17.796 20.6362 18.2082 20.8657L18.2976 20.7051ZM17.39 19.8048L17.5498 19.714C17.3456 19.3544 17.2398 18.9222 17.2398 18.4106H17.056H16.8721C16.8721 18.9737 16.989 19.4709 17.2301 19.8955L17.39 19.8048ZM17.056 18.4106H17.2398C17.2398 17.8938 17.3458 17.4621 17.5493 17.1081L17.39 17.0165L17.2306 16.9249C16.9888 17.3454 16.8721 17.8432 16.8721 18.4106H17.056ZM17.39 17.0165L17.5493 17.1081C17.7555 16.7495 18.0337 16.4763 18.3855 16.2849L18.2976 16.1234L18.2097 15.962C17.7967 16.1868 17.4697 16.509 17.2306 16.9249L17.39 17.0165ZM18.2976 16.1234L18.3862 16.2845C18.744 16.0877 19.1464 15.9877 19.5973 15.9877V15.8039V15.6201C19.0898 15.6201 18.6257 15.7332 18.209 15.9623L18.2976 16.1234ZM19.5973 15.8039V15.9877C19.9414 15.9877 20.2306 16.0297 20.4686 16.109L20.5267 15.9346L20.5849 15.7602C20.3001 15.6653 19.9697 15.6201 19.5973 15.6201V15.8039ZM20.5267 15.9346L20.4686 16.109C20.7196 16.1927 20.9508 16.2945 21.1624 16.4141L21.2528 16.2541L21.3433 16.0941C21.1096 15.962 20.8566 15.8508 20.5849 15.7602L20.5267 15.9346ZM21.2528 16.2541L21.1706 16.4185C21.1889 16.4277 21.1964 16.4367 21.2011 16.445L21.3618 16.3558L21.5224 16.2665C21.4787 16.1877 21.4136 16.129 21.335 16.0897L21.2528 16.2541ZM21.3618 16.3558L21.2147 16.4661C21.2156 16.4673 21.2259 16.4824 21.2292 16.5286L21.4126 16.5155L21.5959 16.5024C21.5896 16.4131 21.566 16.3217 21.5088 16.2455L21.3618 16.3558ZM21.4126 16.5155L21.2291 16.527C21.2308 16.5537 21.2245 16.5727 21.2045 16.5946L21.34 16.7188L21.4755 16.843C21.5619 16.7488 21.6041 16.6322 21.596 16.504L21.4126 16.5155ZM21.34 16.7188L21.2045 16.5946C21.1919 16.6083 21.172 16.6221 21.1221 16.6221V16.8059V16.9898C21.2562 16.9898 21.3815 16.9455 21.4755 16.843L21.34 16.7188ZM21.1221 16.8059V16.6221C21.0989 16.6221 21.084 16.6176 21.0737 16.6125L20.9914 16.7769L20.9092 16.9413C20.9764 16.9749 21.0486 16.9898 21.1221 16.9898V16.8059ZM20.9914 16.7769L21.0769 16.6141C20.8736 16.5074 20.6647 16.4208 20.4504 16.3544L20.396 16.53L20.3417 16.7056C20.534 16.7651 20.722 16.8431 20.906 16.9397L20.9914 16.7769ZM20.396 16.53L20.4504 16.3544C20.2246 16.2845 19.9608 16.2518 19.6627 16.2518V16.4356V16.6195C19.9357 16.6195 20.1608 16.6497 20.3417 16.7056L20.396 16.53ZM19.6627 16.4356V16.2518C19.2119 16.2518 18.819 16.3441 18.4935 16.5394L18.588 16.697L18.6826 16.8547C18.938 16.7014 19.2615 16.6195 19.6627 16.6195V16.4356ZM18.588 16.697L18.4935 16.5394C18.1729 16.7318 17.9301 16.9957 17.7691 17.3285L17.9345 17.4086L18.1 17.4887C18.2294 17.2213 18.4223 17.0108 18.6826 16.8547L18.588 16.697ZM17.9345 17.4086L17.7696 17.3275C17.6104 17.6512 17.5329 18.0135 17.5329 18.4106H17.7167H17.9005C17.9005 18.0623 17.9683 17.7566 18.0995 17.4897L17.9345 17.4086ZM17.7167 18.4106H17.5329C17.5329 18.8078 17.6104 19.1721 17.7691 19.5L17.9345 19.4199L18.1 19.3399C17.9682 19.0675 17.9005 18.7589 17.9005 18.4106H17.7167ZM17.9345 19.4199L17.7696 19.501C17.9309 19.829 18.1736 20.09 18.4935 20.2819L18.588 20.1242L18.6826 19.9666C18.4216 19.81 18.2286 19.6014 18.0995 19.3388L17.9345 19.4199ZM18.588 20.1242L18.4935 20.2819C18.819 20.4772 19.2119 20.5695 19.6627 20.5695V20.3856V20.2018C19.2615 20.2018 18.938 20.1198 18.6826 19.9666L18.588 20.1242ZM19.6627 20.3856V20.5695C19.9608 20.5695 20.2246 20.5367 20.4504 20.4668L20.396 20.2912L20.3417 20.1156C20.1608 20.1716 19.9357 20.2018 19.6627 20.2018V20.3856ZM20.396 20.2912L20.4504 20.4668C20.6647 20.4005 20.8736 20.3139 21.0769 20.2071L20.9914 20.0444L20.906 19.8816C20.722 19.9782 20.534 20.0561 20.3417 20.1156L20.396 20.2912ZM20.9914 20.0444L21.0737 20.2088C21.084 20.2036 21.0989 20.1991 21.1221 20.1991V20.0153V19.8315C21.0486 19.8315 20.9764 19.8464 20.9092 19.8799L20.9914 20.0444ZM21.1221 20.0153V20.1991C21.172 20.1991 21.1919 20.213 21.2045 20.2267L21.34 20.1025L21.4755 19.9782C21.3815 19.8757 21.2562 19.8315 21.1221 19.8315V20.0153ZM21.34 20.1025L21.2045 20.2267C21.2245 20.2486 21.2308 20.2676 21.2291 20.2943L21.4126 20.3058L21.596 20.3172C21.6041 20.189 21.5619 20.0725 21.4755 19.9782L21.34 20.1025ZM21.4126 20.3058L21.2292 20.2927C21.226 20.3379 21.2157 20.3605 21.2088 20.3708L21.3618 20.4728L21.5147 20.5747C21.5659 20.4979 21.5895 20.4092 21.5959 20.3189L21.4126 20.3058ZM21.3618 20.4728L21.2059 20.3753C21.2027 20.3805 21.1944 20.3908 21.1706 20.4027L21.2528 20.5672L21.335 20.7316C21.4081 20.6951 21.4724 20.6425 21.5176 20.5702L21.3618 20.4728ZM21.2528 20.5672L21.1624 20.4071C20.9508 20.5267 20.7196 20.6286 20.4686 20.7123L20.5267 20.8866L20.5849 21.061C20.8566 20.9705 21.1096 20.8593 21.3433 20.7272L21.2528 20.5672ZM20.5267 20.8866L20.4686 20.7123C20.2306 20.7916 19.9414 20.8335 19.5973 20.8335V21.0173V21.2012C19.9697 21.2012 20.3001 21.156 20.5849 21.061L20.5267 20.8866Z" fill="white" mask="url(#path-4-outside-1_18338_88773)"/>
<g filter="url(#filter1_d_18338_88773)">
<path d="M25 9.99252H17.6471C16.5303 9.99252 15.625 9.08722 15.625 7.97046V0.617523L25 9.99252Z" fill="url(#paint2_linear_18338_88773)"/>
</g>
</g>
<defs>
<filter id="filter0_f_18338_88773" x="0.735265" y="10.7278" width="23.5295" height="14.8897" filterUnits="userSpaceOnUse" color-interpolation-filters="sRGB">
<feFlood flood-opacity="0" result="BackgroundImageFix"/>
<feBlend mode="normal" in="SourceGraphic" in2="BackgroundImageFix" result="shape"/>
<feGaussianBlur stdDeviation="1.79228" result="effect1_foregroundBlur_18338_88773"/>
</filter>
<filter id="filter1_d_18338_88773" x="13.511" y="-1.58836" width="13.9706" height="13.9706" filterUnits="userSpaceOnUse" color-interpolation-filters="sRGB">
<feFlood flood-opacity="0" result="BackgroundImageFix"/>
<feColorMatrix in="SourceAlpha" type="matrix" values="0 0 0 0 0 0 0 0 0 0 0 0 0 0 0 0 0 0 127 0" result="hardAlpha"/>
<feOffset dx="0.183824" dy="0.0919118"/>
<feGaussianBlur stdDeviation="1.1489"/>
<feColorMatrix type="matrix" values="0 0 0 0 0 0 0 0 0 0 0 0 0 0 0 0 0 0 0.33 0"/>
<feBlend mode="normal" in2="BackgroundImageFix" result="effect1_dropShadow_18338_88773"/>
<feBlend mode="normal" in="SourceGraphic" in2="effect1_dropShadow_18338_88773" result="shape"/>
</filter>
<linearGradient id="paint0_linear_18338_88773" x1="12.5" y1="0.617645" x2="12.5" y2="28.9265" gradientUnits="userSpaceOnUse">
<stop stop-color="#FF7979"/>
<stop offset="1" stop-color="#E85555"/>
</linearGradient>
<linearGradient id="paint1_linear_18338_88773" x1="12.5" y1="0.617645" x2="12.5" y2="28.9265" gradientUnits="userSpaceOnUse">
<stop stop-color="#A28AFF"/>
<stop offset="1" stop-color="#7655FB"/>
</linearGradient>
<linearGradient id="paint2_linear_18338_88773" x1="20.3125" y1="0.617523" x2="20.3125" y2="9.99252" gradientUnits="userSpaceOnUse">
<stop stop-color="#8A71F1"/>
<stop offset="1" stop-color="#5C39E9"/>
</linearGradient>
</defs>
</svg>
