<svg width="25" height="30" viewBox="0 0 25 30" fill="none" xmlns="http://www.w3.org/2000/svg">
<mask id="mask0_18537_149001" style="mask-type:alpha" maskUnits="userSpaceOnUse" x="0" y="0" width="25" height="30">
<path d="M22.9779 29.1545H2.02206C0.905307 29.1545 0 28.2492 0 27.1325V2.86776C0 1.75101 0.905307 0.845703 2.02206 0.845703H15.625L25 10.2207V27.1325C25 28.2492 24.0947 29.1545 22.9779 29.1545Z" fill="url(#paint0_linear_18537_149001)"/>
</mask>
<g mask="url(#mask0_18537_149001)">
<path d="M22.9779 29.1545H2.02206C0.905307 29.1545 0 28.2492 0 27.1325V2.86776C0 1.75101 0.905307 0.845703 2.02206 0.845703H15.625L25 10.2207V27.1325C25 28.2492 24.0947 29.1545 22.9779 29.1545Z" fill="url(#paint1_linear_18537_149001)"/>
<g filter="url(#filter0_f_18537_149001)">
<rect x="4.32031" y="14.541" width="16.3603" height="7.72059" fill="#3F3F46" fill-opacity="0.07" style="mix-blend-mode:darken"/>
</g>
<mask id="path-4-outside-1_18537_149001" maskUnits="userSpaceOnUse" x="4" y="15.1719" width="18" height="8" fill="black">
<rect fill="white" x="4" y="15.1719" width="18" height="8"/>
<path d="M7.03004 21.2445C6.78801 21.2445 6.54356 21.2058 6.29668 21.1283C6.04981 21.0509 5.82471 20.9323 5.6214 20.7725C5.4181 20.6079 5.25351 20.4022 5.12765 20.1553C5.00664 19.9036 4.94613 19.6083 4.94613 19.2695V16.4014C4.94613 16.3094 4.97759 16.232 5.04052 16.169C5.10345 16.1013 5.1809 16.0674 5.27288 16.0674C5.36485 16.0674 5.4423 16.1013 5.50523 16.169C5.573 16.232 5.60688 16.3094 5.60688 16.4014V19.2913C5.60688 19.5914 5.67465 19.8431 5.81019 20.0464C5.95057 20.2449 6.12968 20.3949 6.34751 20.4966C6.56534 20.5934 6.79285 20.6418 7.03004 20.6418C7.26724 20.6418 7.49475 20.5934 7.71258 20.4966C7.93041 20.3949 8.1071 20.2449 8.24264 20.0464C8.38302 19.8431 8.45321 19.5914 8.45321 19.2913V16.4014C8.45321 16.3094 8.48467 16.232 8.5476 16.169C8.61053 16.1013 8.68798 16.0674 8.77995 16.0674C8.87193 16.0674 8.94938 16.1013 9.01231 16.169C9.08008 16.232 9.11396 16.3094 9.11396 16.4014V19.2695C9.11396 19.6083 9.05103 19.9036 8.92517 20.1553C8.80416 20.4022 8.64199 20.6079 8.43868 20.7725C8.23538 20.9323 8.01028 21.0509 7.76341 21.1283C7.51653 21.2058 7.27208 21.2445 7.03004 21.2445ZM11.0616 22.8782C10.9696 22.8782 10.8922 22.8443 10.8293 22.7766C10.7663 22.7136 10.7349 22.6362 10.7349 22.5442V17.7592C10.7349 17.6672 10.7663 17.5898 10.8293 17.5268C10.8922 17.4639 10.9696 17.4324 11.0616 17.4324C11.1584 17.4324 11.2383 17.4639 11.3012 17.5268C11.3642 17.5898 11.3956 17.6672 11.3956 17.7592V17.948C11.565 17.7737 11.7514 17.6382 11.9547 17.5414C12.158 17.4445 12.3855 17.3961 12.6373 17.3961C12.9325 17.3961 13.2133 17.4712 13.4795 17.6212C13.7458 17.7713 13.9636 17.9891 14.133 18.2747C14.3073 18.5603 14.3944 18.9089 14.3944 19.3203C14.3944 19.7318 14.3073 20.0803 14.133 20.3659C13.9636 20.6515 13.7458 20.8693 13.4795 21.0194C13.2133 21.1695 12.9325 21.2445 12.6373 21.2445C12.3855 21.2445 12.158 21.1961 11.9547 21.0993C11.7514 21.0025 11.565 20.8669 11.3956 20.6926V22.5442C11.3956 22.6362 11.3642 22.7136 11.3012 22.7766C11.2383 22.8443 11.1584 22.8782 11.0616 22.8782ZM12.5429 20.6273C12.8866 20.6273 13.1697 20.516 13.3924 20.2933C13.6199 20.0706 13.7337 19.7463 13.7337 19.3203C13.7337 18.8895 13.6199 18.5652 13.3924 18.3473C13.1697 18.1247 12.8866 18.0133 12.5429 18.0133C12.3057 18.0133 12.0903 18.0666 11.8966 18.1731C11.703 18.2747 11.536 18.403 11.3956 18.5579V20.0827C11.536 20.2376 11.703 20.3683 11.8966 20.4748C12.0903 20.5765 12.3057 20.6273 12.5429 20.6273ZM19.685 20.4167C19.6075 20.4167 19.5398 20.3901 19.4817 20.3369C19.4284 20.2788 19.4018 20.211 19.4018 20.1335V18.9427H18.211C18.1336 18.9427 18.0682 18.9161 18.015 18.8629C17.9617 18.8096 17.9351 18.7443 17.9351 18.6668C17.9351 18.5845 17.9617 18.5168 18.015 18.4635C18.0682 18.4103 18.1336 18.3836 18.211 18.3836H19.4018V17.1928C19.4018 17.1105 19.4284 17.0428 19.4817 16.9895C19.5398 16.9363 19.6075 16.9097 19.685 16.9097C19.7673 16.9097 19.8351 16.9363 19.8883 16.9895C19.9416 17.0428 19.9682 17.1105 19.9682 17.1928V18.3836H21.1517C21.234 18.3836 21.3018 18.4103 21.355 18.4635C21.4083 18.5168 21.4349 18.5845 21.4349 18.6668C21.4349 18.7443 21.4083 18.8096 21.355 18.8629C21.3018 18.9161 21.234 18.9427 21.1517 18.9427H19.9682V20.1335C19.9682 20.211 19.9416 20.2788 19.8883 20.3369C19.8351 20.3901 19.7673 20.4167 19.685 20.4167Z"/>
</mask>
<path d="M7.03004 21.2445C6.78801 21.2445 6.54356 21.2058 6.29668 21.1283C6.04981 21.0509 5.82471 20.9323 5.6214 20.7725C5.4181 20.6079 5.25351 20.4022 5.12765 20.1553C5.00664 19.9036 4.94613 19.6083 4.94613 19.2695V16.4014C4.94613 16.3094 4.97759 16.232 5.04052 16.169C5.10345 16.1013 5.1809 16.0674 5.27288 16.0674C5.36485 16.0674 5.4423 16.1013 5.50523 16.169C5.573 16.232 5.60688 16.3094 5.60688 16.4014V19.2913C5.60688 19.5914 5.67465 19.8431 5.81019 20.0464C5.95057 20.2449 6.12968 20.3949 6.34751 20.4966C6.56534 20.5934 6.79285 20.6418 7.03004 20.6418C7.26724 20.6418 7.49475 20.5934 7.71258 20.4966C7.93041 20.3949 8.1071 20.2449 8.24264 20.0464C8.38302 19.8431 8.45321 19.5914 8.45321 19.2913V16.4014C8.45321 16.3094 8.48467 16.232 8.5476 16.169C8.61053 16.1013 8.68798 16.0674 8.77995 16.0674C8.87193 16.0674 8.94938 16.1013 9.01231 16.169C9.08008 16.232 9.11396 16.3094 9.11396 16.4014V19.2695C9.11396 19.6083 9.05103 19.9036 8.92517 20.1553C8.80416 20.4022 8.64199 20.6079 8.43868 20.7725C8.23538 20.9323 8.01028 21.0509 7.76341 21.1283C7.51653 21.2058 7.27208 21.2445 7.03004 21.2445ZM11.0616 22.8782C10.9696 22.8782 10.8922 22.8443 10.8293 22.7766C10.7663 22.7136 10.7349 22.6362 10.7349 22.5442V17.7592C10.7349 17.6672 10.7663 17.5898 10.8293 17.5268C10.8922 17.4639 10.9696 17.4324 11.0616 17.4324C11.1584 17.4324 11.2383 17.4639 11.3012 17.5268C11.3642 17.5898 11.3956 17.6672 11.3956 17.7592V17.948C11.565 17.7737 11.7514 17.6382 11.9547 17.5414C12.158 17.4445 12.3855 17.3961 12.6373 17.3961C12.9325 17.3961 13.2133 17.4712 13.4795 17.6212C13.7458 17.7713 13.9636 17.9891 14.133 18.2747C14.3073 18.5603 14.3944 18.9089 14.3944 19.3203C14.3944 19.7318 14.3073 20.0803 14.133 20.3659C13.9636 20.6515 13.7458 20.8693 13.4795 21.0194C13.2133 21.1695 12.9325 21.2445 12.6373 21.2445C12.3855 21.2445 12.158 21.1961 11.9547 21.0993C11.7514 21.0025 11.565 20.8669 11.3956 20.6926V22.5442C11.3956 22.6362 11.3642 22.7136 11.3012 22.7766C11.2383 22.8443 11.1584 22.8782 11.0616 22.8782ZM12.5429 20.6273C12.8866 20.6273 13.1697 20.516 13.3924 20.2933C13.6199 20.0706 13.7337 19.7463 13.7337 19.3203C13.7337 18.8895 13.6199 18.5652 13.3924 18.3473C13.1697 18.1247 12.8866 18.0133 12.5429 18.0133C12.3057 18.0133 12.0903 18.0666 11.8966 18.1731C11.703 18.2747 11.536 18.403 11.3956 18.5579V20.0827C11.536 20.2376 11.703 20.3683 11.8966 20.4748C12.0903 20.5765 12.3057 20.6273 12.5429 20.6273ZM19.685 20.4167C19.6075 20.4167 19.5398 20.3901 19.4817 20.3369C19.4284 20.2788 19.4018 20.211 19.4018 20.1335V18.9427H18.211C18.1336 18.9427 18.0682 18.9161 18.015 18.8629C17.9617 18.8096 17.9351 18.7443 17.9351 18.6668C17.9351 18.5845 17.9617 18.5168 18.015 18.4635C18.0682 18.4103 18.1336 18.3836 18.211 18.3836H19.4018V17.1928C19.4018 17.1105 19.4284 17.0428 19.4817 16.9895C19.5398 16.9363 19.6075 16.9097 19.685 16.9097C19.7673 16.9097 19.8351 16.9363 19.8883 16.9895C19.9416 17.0428 19.9682 17.1105 19.9682 17.1928V18.3836H21.1517C21.234 18.3836 21.3018 18.4103 21.355 18.4635C21.4083 18.5168 21.4349 18.5845 21.4349 18.6668C21.4349 18.7443 21.4083 18.8096 21.355 18.8629C21.3018 18.9161 21.234 18.9427 21.1517 18.9427H19.9682V20.1335C19.9682 20.211 19.9416 20.2788 19.8883 20.3369C19.8351 20.3901 19.7673 20.4167 19.685 20.4167Z" fill="white"/>
<path d="M6.29668 21.1283L6.35171 20.9529H6.35171L6.29668 21.1283ZM5.6214 20.7725L5.50573 20.9154L5.50783 20.9171L5.6214 20.7725ZM5.12765 20.1553L4.96194 20.235L4.96389 20.2388L5.12765 20.1553ZM5.04052 16.169L5.17059 16.2991L5.17523 16.2941L5.04052 16.169ZM5.50523 16.169L5.37015 16.2945L5.38015 16.3037L5.50523 16.169ZM5.81019 20.0464L5.65718 20.1484L5.66012 20.1526L5.81019 20.0464ZM6.34751 20.4966L6.26976 20.6632L6.27285 20.6646L6.34751 20.4966ZM7.71258 20.4966L7.78725 20.6646L7.79032 20.6632L7.71258 20.4966ZM8.24264 20.0464L8.09137 19.942L8.09083 19.9427L8.24264 20.0464ZM8.5476 16.169L8.67767 16.2991L8.6823 16.2941L8.5476 16.169ZM9.01231 16.169L8.87723 16.2945L8.88722 16.3037L9.01231 16.169ZM8.92517 20.1553L8.76075 20.0731L8.76011 20.0744L8.92517 20.1553ZM8.43868 20.7725L8.55227 20.9171L8.55435 20.9154L8.43868 20.7725ZM7.76341 21.1283L7.81843 21.3037L7.76341 21.1283ZM7.03004 21.2445V21.0607C6.80792 21.0607 6.582 21.0252 6.35171 20.9529L6.29668 21.1283L6.24165 21.3037C6.50511 21.3864 6.7681 21.4283 7.03004 21.4283V21.2445ZM6.29668 21.1283L6.35171 20.9529C6.12604 20.8821 5.92078 20.774 5.73497 20.628L5.6214 20.7725L5.50783 20.9171C5.72864 21.0906 5.97357 21.2196 6.24165 21.3037L6.29668 21.1283ZM5.6214 20.7725L5.73707 20.6296C5.55495 20.4822 5.40629 20.2972 5.29142 20.0718L5.12765 20.1553L4.96389 20.2388C5.10073 20.5073 5.28124 20.7337 5.50574 20.9154L5.6214 20.7725ZM5.12765 20.1553L5.29333 20.0757C5.18653 19.8536 5.12995 19.5865 5.12995 19.2695H4.94613H4.76231C4.76231 19.6301 4.82674 19.9537 4.96198 20.235L5.12765 20.1553ZM4.94613 19.2695H5.12995V16.4014H4.94613H4.76231V19.2695H4.94613ZM4.94613 16.4014H5.12995C5.12995 16.3563 5.14332 16.3262 5.17051 16.299L5.04052 16.169L4.91054 16.039C4.81187 16.1377 4.76231 16.2625 4.76231 16.4014H4.94613ZM5.04052 16.169L5.17523 16.2941C5.20359 16.2636 5.23234 16.2512 5.27288 16.2512V16.0674V15.8835C5.12947 15.8835 5.00331 15.939 4.90582 16.0439L5.04052 16.169ZM5.27288 16.0674V16.2512C5.31341 16.2512 5.34216 16.2636 5.37052 16.2941L5.50523 16.169L5.63993 16.0439C5.54244 15.939 5.41628 15.8835 5.27288 15.8835V16.0674ZM5.50523 16.169L5.38015 16.3037C5.41069 16.3321 5.42306 16.3608 5.42306 16.4014H5.60688H5.79071C5.79071 16.258 5.7353 16.1318 5.63031 16.0343L5.50523 16.169ZM5.60688 16.4014H5.42306V19.2913H5.60688H5.79071V16.4014H5.60688ZM5.60688 19.2913H5.42306C5.42306 19.6193 5.49739 19.9086 5.65724 20.1484L5.81019 20.0464L5.96314 19.9444C5.85191 19.7776 5.79071 19.5634 5.79071 19.2913H5.60688ZM5.81019 20.0464L5.66012 20.1526C5.81873 20.3768 6.02264 20.5479 6.26977 20.6632L6.34751 20.4966L6.42524 20.33C6.23671 20.242 6.08241 20.113 5.96027 19.9403L5.81019 20.0464ZM6.34751 20.4966L6.27285 20.6646C6.51406 20.7718 6.767 20.8256 7.03004 20.8256V20.6418V20.458C6.8187 20.458 6.61661 20.415 6.42217 20.3286L6.34751 20.4966ZM7.03004 20.6418V20.8256C7.29309 20.8256 7.54603 20.7718 7.78724 20.6646L7.71258 20.4966L7.63792 20.3286C7.44348 20.415 7.24139 20.458 7.03004 20.458V20.6418ZM7.71258 20.4966L7.79032 20.6632C8.03803 20.5476 8.2403 20.3758 8.39444 20.1501L8.24264 20.0464L8.09083 19.9427C7.9739 20.114 7.8228 20.2423 7.63485 20.33L7.71258 20.4966ZM8.24264 20.0464L8.3939 20.1509C8.55968 19.9108 8.63703 19.6206 8.63703 19.2913H8.45321H8.26938C8.26938 19.5622 8.20635 19.7754 8.09137 19.942L8.24264 20.0464ZM8.45321 19.2913H8.63703V16.4014H8.45321H8.26938V19.2913H8.45321ZM8.45321 16.4014H8.63703C8.63703 16.3563 8.6504 16.3262 8.67758 16.299L8.5476 16.169L8.41762 16.039C8.31895 16.1377 8.26938 16.2625 8.26938 16.4014H8.45321ZM8.5476 16.169L8.6823 16.2941C8.71067 16.2636 8.73942 16.2512 8.77995 16.2512V16.0674V15.8835C8.63654 15.8835 8.51039 15.939 8.41289 16.0439L8.5476 16.169ZM8.77995 16.0674V16.2512C8.82049 16.2512 8.84924 16.2636 8.8776 16.2941L9.01231 16.169L9.14701 16.0439C9.04952 15.939 8.92336 15.8835 8.77995 15.8835V16.0674ZM9.01231 16.169L8.88722 16.3037C8.91777 16.3321 8.93014 16.3608 8.93014 16.4014H9.11396H9.29778C9.29778 16.258 9.24238 16.1318 9.13739 16.0343L9.01231 16.169ZM9.11396 16.4014H8.93014V19.2695H9.11396H9.29778V16.4014H9.11396ZM9.11396 19.2695H8.93014C8.93014 19.5856 8.8715 19.8516 8.76076 20.0731L8.92517 20.1553L9.08959 20.2375C9.23056 19.9556 9.29778 19.6311 9.29778 19.2695H9.11396ZM8.92517 20.1553L8.76011 20.0744C8.65025 20.2985 8.5045 20.4827 8.32302 20.6296L8.43868 20.7725L8.55435 20.9154C8.77949 20.7331 8.95807 20.5059 9.09023 20.2362L8.92517 20.1553ZM8.43868 20.7725L8.32511 20.628C8.13931 20.774 7.93405 20.8821 7.70838 20.9529L7.76341 21.1283L7.81843 21.3037C8.08651 21.2196 8.33145 21.0906 8.55225 20.9171L8.43868 20.7725ZM7.76341 21.1283L7.70838 20.9529C7.47809 21.0252 7.25217 21.0607 7.03004 21.0607V21.2445V21.4283C7.29199 21.4283 7.55498 21.3864 7.81843 21.3037L7.76341 21.1283ZM10.8293 22.7766L10.9641 22.6514L10.9592 22.6466L10.8293 22.7766ZM10.8293 17.5268L10.9592 17.6568V17.6568L10.8293 17.5268ZM11.3012 17.5268L11.4312 17.3969L11.3012 17.5268ZM11.3956 17.948H11.2118V18.4008L11.5274 18.0761L11.3956 17.948ZM11.9547 17.5414L12.0338 17.7073L11.9547 17.5414ZM13.4795 17.6212L13.3893 17.7814V17.7814L13.4795 17.6212ZM14.133 18.2747L13.9749 18.3685L13.9761 18.3705L14.133 18.2747ZM14.133 20.3659L13.9761 20.2701L13.9749 20.2721L14.133 20.3659ZM13.4795 21.0194L13.3893 20.8593L13.4795 21.0194ZM11.9547 21.0993L12.0338 20.9333L11.9547 21.0993ZM11.3956 20.6926L11.5274 20.5645L11.2118 20.2399V20.6926H11.3956ZM11.3012 22.7766L11.1712 22.6465L11.1665 22.6515L11.3012 22.7766ZM13.3924 20.2933L13.2638 20.1619L13.2624 20.1633L13.3924 20.2933ZM13.3924 18.3473L13.2624 18.4773L13.2653 18.4801L13.3924 18.3473ZM11.8966 18.1731L11.9821 18.3359L11.9852 18.3341L11.8966 18.1731ZM11.3956 18.5579L11.2594 18.4345L11.2118 18.487V18.5579H11.3956ZM11.3956 20.0827H11.2118V20.1536L11.2594 20.2062L11.3956 20.0827ZM11.8966 20.4748L11.808 20.6359L11.8112 20.6376L11.8966 20.4748ZM11.0616 22.8782V22.6944C11.0211 22.6944 10.9923 22.682 10.964 22.6515L10.8293 22.7766L10.6946 22.9016C10.7921 23.0066 10.9182 23.062 11.0616 23.062V22.8782ZM10.8293 22.7766L10.9592 22.6466C10.9321 22.6194 10.9187 22.5893 10.9187 22.5442H10.7349H10.551C10.551 22.6831 10.6006 22.8079 10.6993 22.9065L10.8293 22.7766ZM10.7349 22.5442H10.9187V17.7592H10.7349H10.551V22.5442H10.7349ZM10.7349 17.7592H10.9187C10.9187 17.7141 10.9321 17.684 10.9592 17.6568L10.8293 17.5268L10.6993 17.3969C10.6006 17.4955 10.551 17.6203 10.551 17.7592H10.7349ZM10.8293 17.5268L10.9592 17.6568C10.9864 17.6296 11.0166 17.6163 11.0616 17.6163V17.4324V17.2486C10.9227 17.2486 10.798 17.2982 10.6993 17.3969L10.8293 17.5268ZM11.0616 17.4324V17.6163C11.1144 17.6163 11.146 17.6316 11.1712 17.6568L11.3012 17.5268L11.4312 17.3969C11.3306 17.2963 11.2025 17.2486 11.0616 17.2486V17.4324ZM11.3012 17.5268L11.1712 17.6568C11.1984 17.684 11.2118 17.7141 11.2118 17.7592H11.3956H11.5794C11.5794 17.6203 11.5299 17.4955 11.4312 17.3969L11.3012 17.5268ZM11.3956 17.7592H11.2118V17.948H11.3956H11.5794V17.7592H11.3956ZM11.3956 17.948L11.5274 18.0761C11.6829 17.9162 11.8517 17.794 12.0338 17.7073L11.9547 17.5414L11.8757 17.3754C11.6512 17.4823 11.4472 17.6312 11.2638 17.8198L11.3956 17.948ZM11.9547 17.5414L12.0338 17.7073C12.2096 17.6236 12.4096 17.58 12.6373 17.58V17.3961V17.2123C12.3614 17.2123 12.1065 17.2655 11.8757 17.3754L11.9547 17.5414ZM12.6373 17.3961V17.58C12.8998 17.58 13.1496 17.6463 13.3893 17.7814L13.4795 17.6212L13.5698 17.4611C13.277 17.2961 12.9653 17.2123 12.6373 17.2123V17.3961ZM13.4795 17.6212L13.3893 17.7814C13.6251 17.9143 13.8205 18.1081 13.9749 18.3685L14.133 18.2747L14.2911 18.1809C14.1068 17.8701 13.8665 17.6283 13.5698 17.4611L13.4795 17.6212ZM14.133 18.2747L13.9761 18.3705C14.1291 18.6213 14.2106 18.9349 14.2106 19.3203H14.3944H14.5783C14.5783 18.8828 14.4855 18.4994 14.29 18.179L14.133 18.2747ZM14.3944 19.3203H14.2106C14.2106 19.7057 14.1291 20.0194 13.9761 20.2702L14.133 20.3659L14.29 20.4616C14.4855 20.1412 14.5783 19.7578 14.5783 19.3203H14.3944ZM14.133 20.3659L13.9749 20.2721C13.8205 20.5325 13.6251 20.7263 13.3893 20.8593L13.4795 21.0194L13.5698 21.1795C13.8665 21.0123 14.1068 20.7705 14.2911 20.4597L14.133 20.3659ZM13.4795 21.0194L13.3893 20.8593C13.1496 20.9944 12.8998 21.0607 12.6373 21.0607V21.2445V21.4283C12.9653 21.4283 13.277 21.3446 13.5698 21.1795L13.4795 21.0194ZM12.6373 21.2445V21.0607C12.4096 21.0607 12.2096 21.017 12.0338 20.9333L11.9547 21.0993L11.8757 21.2652C12.1065 21.3751 12.3614 21.4283 12.6373 21.4283V21.2445ZM11.9547 21.0993L12.0338 20.9333C11.8517 20.8466 11.6829 20.7244 11.5274 20.5645L11.3956 20.6926L11.2638 20.8208C11.4472 21.0094 11.6512 21.1583 11.8757 21.2652L11.9547 21.0993ZM11.3956 20.6926H11.2118V22.5442H11.3956H11.5794V20.6926H11.3956ZM11.3956 22.5442H11.2118C11.2118 22.5893 11.1984 22.6194 11.1712 22.6466L11.3012 22.7766L11.4312 22.9065C11.5299 22.8079 11.5794 22.6831 11.5794 22.5442H11.3956ZM11.3012 22.7766L11.1665 22.6515C11.1402 22.6799 11.11 22.6944 11.0616 22.6944V22.8782V23.062C11.2068 23.062 11.3364 23.0088 11.4359 22.9016L11.3012 22.7766ZM12.5429 20.6273V20.8111C12.9304 20.8111 13.2619 20.6837 13.5224 20.4233L13.3924 20.2933L13.2624 20.1633C13.0775 20.3482 12.8427 20.4435 12.5429 20.4435V20.6273ZM13.3924 20.2933L13.521 20.4247C13.7945 20.1569 13.9175 19.7784 13.9175 19.3203H13.7337H13.5499C13.5499 19.7142 13.4453 19.9843 13.2638 20.1619L13.3924 20.2933ZM13.7337 19.3203H13.9175C13.9175 18.8584 13.795 18.4783 13.5195 18.2146L13.3924 18.3473L13.2653 18.4801C13.4448 18.652 13.5499 18.9206 13.5499 19.3203H13.7337ZM13.3924 18.3473L13.5224 18.2174C13.2619 17.9569 12.9304 17.8295 12.5429 17.8295V18.0133V18.1972C12.8427 18.1972 13.0775 18.2924 13.2624 18.4773L13.3924 18.3473ZM12.5429 18.0133V17.8295C12.277 17.8295 12.0308 17.8895 11.808 18.012L11.8966 18.1731L11.9852 18.3341C12.1497 18.2437 12.3343 18.1972 12.5429 18.1972V18.0133ZM11.8966 18.1731L11.8112 18.0103C11.5994 18.1215 11.4149 18.2629 11.2594 18.4345L11.3956 18.5579L11.5318 18.6813C11.6571 18.5432 11.8067 18.4279 11.9821 18.3358L11.8966 18.1731ZM11.3956 18.5579H11.2118V20.0827H11.3956H11.5794V18.5579H11.3956ZM11.3956 20.0827L11.2594 20.2062C11.4142 20.377 11.5976 20.5201 11.808 20.6359L11.8966 20.4748L11.9852 20.3137C11.8084 20.2165 11.6578 20.0982 11.5318 19.9593L11.3956 20.0827ZM11.8966 20.4748L11.8112 20.6376C12.0334 20.7542 12.2785 20.8111 12.5429 20.8111V20.6273V20.4435C12.3329 20.4435 12.1472 20.3987 11.9821 20.3121L11.8966 20.4748ZM19.4817 20.3369L19.3462 20.4611L19.3516 20.467L19.3575 20.4724L19.4817 20.3369ZM19.4018 18.9427H19.5856V18.7589H19.4018V18.9427ZM18.015 18.4635L17.885 18.3335L18.015 18.4635ZM19.4018 18.3836V18.5675H19.5856V18.3836H19.4018ZM19.4817 16.9895L19.3574 16.8539L19.3517 16.8595L19.4817 16.9895ZM19.8883 16.9895L20.0183 16.8595V16.8595L19.8883 16.9895ZM19.9682 18.3836H19.7844V18.5675H19.9682V18.3836ZM21.355 18.4635L21.485 18.3335V18.3335L21.355 18.4635ZM21.355 18.8629L21.485 18.9929V18.9929L21.355 18.8629ZM19.9682 18.9427V18.7589H19.7844V18.9427H19.9682ZM19.8883 20.3369L20.0184 20.467L20.0238 20.4611L19.8883 20.3369ZM19.685 20.4167V20.2329C19.6544 20.2329 19.6307 20.2241 19.6059 20.2014L19.4817 20.3369L19.3575 20.4724C19.4488 20.5561 19.5607 20.6006 19.685 20.6006V20.4167ZM19.4817 20.3369L19.6172 20.2126C19.5944 20.1878 19.5856 20.1641 19.5856 20.1335H19.4018H19.218C19.218 20.2579 19.2625 20.3697 19.3462 20.4611L19.4817 20.3369ZM19.4018 20.1335H19.5856V18.9427H19.4018H19.218V20.1335H19.4018ZM19.4018 18.9427V18.7589H18.211V18.9427V19.1266H19.4018V18.9427ZM18.211 18.9427V18.7589C18.1808 18.7589 18.1626 18.7506 18.1449 18.7329L18.015 18.8629L17.885 18.9929C17.9738 19.0817 18.0864 19.1266 18.211 19.1266V18.9427ZM18.015 18.8629L18.1449 18.7329C18.1273 18.7152 18.1189 18.6971 18.1189 18.6668H17.9351H17.7513C17.7513 18.7915 17.7962 18.904 17.885 18.9929L18.015 18.8629ZM17.9351 18.6668H18.1189C18.1189 18.6283 18.1295 18.6089 18.1449 18.5935L18.015 18.4635L17.885 18.3335C17.7939 18.4246 17.7513 18.5408 17.7513 18.6668H17.9351ZM18.015 18.4635L18.1449 18.5935C18.1626 18.5758 18.1808 18.5675 18.211 18.5675V18.3836V18.1998C18.0864 18.1998 17.9738 18.2447 17.885 18.3335L18.015 18.4635ZM18.211 18.3836V18.5675H19.4018V18.3836V18.1998H18.211V18.3836ZM19.4018 18.3836H19.5856V17.1928H19.4018H19.218V18.3836H19.4018ZM19.4018 17.1928H19.5856C19.5856 17.1543 19.5963 17.1349 19.6117 17.1195L19.4817 16.9895L19.3517 16.8595C19.2606 16.9506 19.218 17.0668 19.218 17.1928H19.4018ZM19.4817 16.9895L19.6059 17.125C19.6307 17.1023 19.6544 17.0935 19.685 17.0935V16.9097V16.7258C19.5607 16.7258 19.4488 16.7703 19.3575 16.854L19.4817 16.9895ZM19.685 16.9097V17.0935C19.7235 17.0935 19.7429 17.1041 19.7583 17.1195L19.8883 16.9895L20.0183 16.8595C19.9272 16.7684 19.8111 16.7258 19.685 16.7258V16.9097ZM19.8883 16.9895L19.7583 17.1195C19.7737 17.1349 19.7844 17.1543 19.7844 17.1928H19.9682H20.152C20.152 17.0668 20.1094 16.9506 20.0183 16.8595L19.8883 16.9895ZM19.9682 17.1928H19.7844V18.3836H19.9682H20.152V17.1928H19.9682ZM19.9682 18.3836V18.5675H21.1517V18.3836V18.1998H19.9682V18.3836ZM21.1517 18.3836V18.5675C21.1902 18.5675 21.2096 18.5781 21.2251 18.5935L21.355 18.4635L21.485 18.3335C21.3939 18.2424 21.2778 18.1998 21.1517 18.1998V18.3836ZM21.355 18.4635L21.2251 18.5935C21.2405 18.6089 21.2511 18.6283 21.2511 18.6668H21.4349H21.6187C21.6187 18.5408 21.5761 18.4246 21.485 18.3335L21.355 18.4635ZM21.4349 18.6668H21.2511C21.2511 18.6971 21.2427 18.7152 21.2251 18.7329L21.355 18.8629L21.485 18.9929C21.5738 18.904 21.6187 18.7915 21.6187 18.6668H21.4349ZM21.355 18.8629L21.2251 18.7329C21.2096 18.7483 21.1902 18.7589 21.1517 18.7589V18.9427V19.1266C21.2778 19.1266 21.3939 19.0839 21.485 18.9929L21.355 18.8629ZM21.1517 18.9427V18.7589H19.9682V18.9427V19.1266H21.1517V18.9427ZM19.9682 18.9427H19.7844V20.1335H19.9682H20.152V18.9427H19.9682ZM19.9682 20.1335H19.7844C19.7844 20.1641 19.7756 20.1878 19.7528 20.2126L19.8883 20.3369L20.0238 20.4611C20.1075 20.3697 20.152 20.2579 20.152 20.1335H19.9682ZM19.8883 20.3369L19.7583 20.2069C19.7429 20.2223 19.7235 20.2329 19.685 20.2329V20.4167V20.6006C19.8111 20.6006 19.9272 20.5579 20.0183 20.4668L19.8883 20.3369Z" fill="white" mask="url(#path-4-outside-1_18537_149001)"/>
<g filter="url(#filter1_d_18537_149001)">
<path d="M25 10.2207H17.6471C16.5303 10.2207 15.625 9.3154 15.625 8.19864V0.845703L25 10.2207Z" fill="url(#paint2_linear_18537_149001)"/>
</g>
</g>
<defs>
<filter id="filter0_f_18537_149001" x="0.735754" y="10.9565" width="23.5285" height="14.8898" filterUnits="userSpaceOnUse" color-interpolation-filters="sRGB">
<feFlood flood-opacity="0" result="BackgroundImageFix"/>
<feBlend mode="normal" in="SourceGraphic" in2="BackgroundImageFix" result="shape"/>
<feGaussianBlur stdDeviation="1.79228" result="effect1_foregroundBlur_18537_149001"/>
</filter>
<filter id="filter1_d_18537_149001" x="13.511" y="-1.36018" width="13.9706" height="13.9706" filterUnits="userSpaceOnUse" color-interpolation-filters="sRGB">
<feFlood flood-opacity="0" result="BackgroundImageFix"/>
<feColorMatrix in="SourceAlpha" type="matrix" values="0 0 0 0 0 0 0 0 0 0 0 0 0 0 0 0 0 0 127 0" result="hardAlpha"/>
<feOffset dx="0.183824" dy="0.0919118"/>
<feGaussianBlur stdDeviation="1.1489"/>
<feColorMatrix type="matrix" values="0 0 0 0 0 0 0 0 0 0 0 0 0 0 0 0 0 0 0.33 0"/>
<feBlend mode="normal" in2="BackgroundImageFix" result="effect1_dropShadow_18537_149001"/>
<feBlend mode="normal" in="SourceGraphic" in2="effect1_dropShadow_18537_149001" result="shape"/>
</filter>
<linearGradient id="paint0_linear_18537_149001" x1="12.5" y1="0.845703" x2="12.5" y2="29.1545" gradientUnits="userSpaceOnUse">
<stop stop-color="#FF7979"/>
<stop offset="1" stop-color="#E85555"/>
</linearGradient>
<linearGradient id="paint1_linear_18537_149001" x1="12.5" y1="0.845703" x2="12.5" y2="29.1545" gradientUnits="userSpaceOnUse">
<stop stop-color="#303030" stop-opacity="0.8"/>
<stop offset="1" stop-color="#2A2A2A" stop-opacity="0.9"/>
</linearGradient>
<linearGradient id="paint2_linear_18537_149001" x1="20.3125" y1="0.845703" x2="20.3125" y2="10.2207" gradientUnits="userSpaceOnUse">
<stop offset="0.9999" stop-color="#303030" stop-opacity="0.8"/>
<stop offset="1" stop-color="#2A2A2A" stop-opacity="0.9"/>
</linearGradient>
</defs>
</svg>
