<svg width="25" height="29" viewBox="0 0 25 29" fill="none" xmlns="http://www.w3.org/2000/svg">
<mask id="mask0_18338_88763" style="mask-type:alpha" maskUnits="userSpaceOnUse" x="0" y="0" width="25" height="29">
<path d="M22.9779 28.3088H2.02206C0.905307 28.3088 0 27.4035 0 26.2868V2.02206C0 0.905307 0.905307 0 2.02206 0H15.625L25 9.375V26.2868C25 27.4035 24.0947 28.3088 22.9779 28.3088Z" fill="url(#paint0_linear_18338_88763)"/>
</mask>
<g mask="url(#mask0_18338_88763)">
<path d="M22.9779 28.3088H2.02206C0.905307 28.3088 0 27.4035 0 26.2868V2.02206C0 0.905307 0.905307 0 2.02206 0H15.625L25 9.375V26.2868C25 27.4035 24.0947 28.3088 22.9779 28.3088Z" fill="url(#paint1_linear_18338_88763)"/>
<g opacity="0.27" filter="url(#filter0_f_18338_88763)">
<rect x="4.41187" y="13.6947" width="16.3603" height="7.72059" fill="#0F7D56" fill-opacity="0.27" style="mix-blend-mode:darken"/>
</g>
<mask id="path-4-outside-1_18338_88763" maskUnits="userSpaceOnUse" x="5.00073" y="14.3271" width="16" height="7" fill="black">
<rect fill="white" x="5.00073" y="14.3271" width="16" height="7"/>
<path d="M8.17215 20.3997C7.69292 20.3997 7.25968 20.2956 6.87242 20.0875C6.49001 19.8745 6.18747 19.5744 5.96479 19.1871C5.74212 18.795 5.63079 18.3303 5.63079 17.793C5.63079 17.2508 5.74212 16.7861 5.96479 16.3989C6.18747 16.0116 6.49001 15.7139 6.87242 15.5058C7.25968 15.2928 7.69292 15.1863 8.17215 15.1863C8.53036 15.1863 8.84016 15.2298 9.10156 15.317C9.36296 15.4041 9.60499 15.5106 9.82766 15.6365C9.87607 15.6607 9.91237 15.6946 9.93658 15.7381C9.96562 15.7768 9.98256 15.8301 9.98741 15.8979C9.99225 15.9753 9.96804 16.0431 9.9148 16.1012C9.86155 16.1593 9.78894 16.1883 9.69696 16.1883C9.64856 16.1883 9.60499 16.1786 9.56627 16.1593C9.37264 16.0576 9.17417 15.9753 8.97086 15.9124C8.76755 15.8495 8.5231 15.818 8.2375 15.818C7.81152 15.818 7.45331 15.9051 7.16286 16.0794C6.87242 16.2536 6.65459 16.4908 6.50937 16.791C6.36415 17.0862 6.29154 17.4203 6.29154 17.793C6.29154 18.1657 6.36415 18.5021 6.50937 18.8023C6.65459 19.0976 6.87242 19.3323 7.16286 19.5066C7.45331 19.6809 7.81152 19.768 8.2375 19.768C8.5231 19.768 8.76755 19.7365 8.97086 19.6736C9.17417 19.6107 9.37264 19.5284 9.56627 19.4267C9.60499 19.4074 9.64856 19.3977 9.69696 19.3977C9.78894 19.3977 9.86155 19.4267 9.9148 19.4848C9.96804 19.5429 9.99225 19.6107 9.98741 19.6881C9.98256 19.7559 9.96562 19.8116 9.93658 19.8551C9.91237 19.8938 9.87607 19.9253 9.82766 19.9495C9.60499 20.0754 9.36296 20.1819 9.10156 20.269C8.84016 20.3561 8.53036 20.3997 8.17215 20.3997ZM13.0901 20.3997C12.7271 20.3997 12.4003 20.3658 12.1099 20.298C11.8243 20.2254 11.575 20.1431 11.362 20.0512C11.3088 20.027 11.2604 19.9882 11.2168 19.935C11.1781 19.8769 11.1587 19.8164 11.1587 19.7535C11.1587 19.6712 11.1853 19.601 11.2386 19.5429C11.2918 19.48 11.3644 19.4485 11.4564 19.4485C11.5048 19.4485 11.5508 19.4582 11.5944 19.4775C11.7589 19.5502 11.9598 19.6179 12.197 19.6809C12.4391 19.7438 12.715 19.7752 13.0248 19.7752C13.2668 19.7752 13.4822 19.751 13.671 19.7026C13.8646 19.6494 14.0171 19.5623 14.1285 19.4412C14.2398 19.3154 14.2955 19.1484 14.2955 18.9402C14.2955 18.7853 14.2398 18.6619 14.1285 18.5699C14.0171 18.4731 13.8695 18.3932 13.6855 18.3303C13.5016 18.2674 13.2983 18.2093 13.0756 18.156C12.8578 18.1028 12.64 18.0447 12.4221 17.9818C12.2043 17.914 12.0034 17.8269 11.8195 17.7204C11.6355 17.6139 11.4879 17.4783 11.3765 17.3138C11.2652 17.1443 11.2095 16.9313 11.2095 16.6748C11.2095 16.4037 11.2797 16.1568 11.4201 15.9342C11.5653 15.7067 11.7783 15.5251 12.0591 15.3896C12.3398 15.254 12.6835 15.1863 13.0901 15.1863C13.3757 15.1863 13.6396 15.2081 13.8816 15.2516C14.1236 15.2952 14.3415 15.3533 14.5351 15.4259C14.5883 15.4453 14.6343 15.4767 14.673 15.5203C14.7166 15.5639 14.7384 15.6292 14.7384 15.7163C14.7384 15.7889 14.7118 15.8591 14.6585 15.9269C14.6101 15.9898 14.5399 16.0213 14.4479 16.0213C14.4286 16.0213 14.4092 16.0189 14.3899 16.014C14.3705 16.0044 14.3511 15.9971 14.3318 15.9923C14.1672 15.9342 13.9857 15.8882 13.7872 15.8543C13.5936 15.8156 13.3854 15.7962 13.1627 15.7962C12.7949 15.7962 12.4875 15.8664 12.2406 16.0068C11.9937 16.1472 11.8703 16.3529 11.8703 16.624C11.8703 16.8031 11.9259 16.9459 12.0373 17.0524C12.1486 17.1589 12.2963 17.2436 12.4802 17.3065C12.6642 17.3694 12.865 17.4275 13.0829 17.4808C13.3007 17.5292 13.5185 17.5848 13.7364 17.6478C13.9542 17.7107 14.1551 17.7954 14.339 17.9019C14.523 18.0036 14.6706 18.1415 14.782 18.3158C14.8933 18.4852 14.949 18.7079 14.949 18.9838C14.949 19.2549 14.8715 19.4993 14.7166 19.7172C14.5665 19.9302 14.3511 20.0972 14.0704 20.2182C13.7945 20.3392 13.4677 20.3997 13.0901 20.3997ZM18.1681 20.3634C17.9697 20.3634 17.8196 20.2521 17.718 20.0294L15.9245 15.68C15.91 15.6413 15.9027 15.6002 15.9027 15.5566C15.9027 15.4598 15.9317 15.3799 15.9898 15.317C16.0479 15.254 16.1278 15.2226 16.2295 15.2226C16.3747 15.2226 16.4787 15.2976 16.5417 15.4477L18.248 19.7026L19.9544 15.4477C20.0173 15.2976 20.1214 15.2226 20.2666 15.2226C20.3682 15.2226 20.4481 15.254 20.5062 15.317C20.5643 15.3799 20.5933 15.4598 20.5933 15.5566C20.5933 15.6002 20.5861 15.6413 20.5715 15.68L18.7781 20.0294C18.6764 20.2521 18.5264 20.3634 18.3279 20.3634H18.1681Z"/>
</mask>
<path d="M8.17215 20.3997C7.69292 20.3997 7.25968 20.2956 6.87242 20.0875C6.49001 19.8745 6.18747 19.5744 5.96479 19.1871C5.74212 18.795 5.63079 18.3303 5.63079 17.793C5.63079 17.2508 5.74212 16.7861 5.96479 16.3989C6.18747 16.0116 6.49001 15.7139 6.87242 15.5058C7.25968 15.2928 7.69292 15.1863 8.17215 15.1863C8.53036 15.1863 8.84016 15.2298 9.10156 15.317C9.36296 15.4041 9.60499 15.5106 9.82766 15.6365C9.87607 15.6607 9.91237 15.6946 9.93658 15.7381C9.96562 15.7768 9.98256 15.8301 9.98741 15.8979C9.99225 15.9753 9.96804 16.0431 9.9148 16.1012C9.86155 16.1593 9.78894 16.1883 9.69696 16.1883C9.64856 16.1883 9.60499 16.1786 9.56627 16.1593C9.37264 16.0576 9.17417 15.9753 8.97086 15.9124C8.76755 15.8495 8.5231 15.818 8.2375 15.818C7.81152 15.818 7.45331 15.9051 7.16286 16.0794C6.87242 16.2536 6.65459 16.4908 6.50937 16.791C6.36415 17.0862 6.29154 17.4203 6.29154 17.793C6.29154 18.1657 6.36415 18.5021 6.50937 18.8023C6.65459 19.0976 6.87242 19.3323 7.16286 19.5066C7.45331 19.6809 7.81152 19.768 8.2375 19.768C8.5231 19.768 8.76755 19.7365 8.97086 19.6736C9.17417 19.6107 9.37264 19.5284 9.56627 19.4267C9.60499 19.4074 9.64856 19.3977 9.69696 19.3977C9.78894 19.3977 9.86155 19.4267 9.9148 19.4848C9.96804 19.5429 9.99225 19.6107 9.98741 19.6881C9.98256 19.7559 9.96562 19.8116 9.93658 19.8551C9.91237 19.8938 9.87607 19.9253 9.82766 19.9495C9.60499 20.0754 9.36296 20.1819 9.10156 20.269C8.84016 20.3561 8.53036 20.3997 8.17215 20.3997ZM13.0901 20.3997C12.7271 20.3997 12.4003 20.3658 12.1099 20.298C11.8243 20.2254 11.575 20.1431 11.362 20.0512C11.3088 20.027 11.2604 19.9882 11.2168 19.935C11.1781 19.8769 11.1587 19.8164 11.1587 19.7535C11.1587 19.6712 11.1853 19.601 11.2386 19.5429C11.2918 19.48 11.3644 19.4485 11.4564 19.4485C11.5048 19.4485 11.5508 19.4582 11.5944 19.4775C11.7589 19.5502 11.9598 19.6179 12.197 19.6809C12.4391 19.7438 12.715 19.7752 13.0248 19.7752C13.2668 19.7752 13.4822 19.751 13.671 19.7026C13.8646 19.6494 14.0171 19.5623 14.1285 19.4412C14.2398 19.3154 14.2955 19.1484 14.2955 18.9402C14.2955 18.7853 14.2398 18.6619 14.1285 18.5699C14.0171 18.4731 13.8695 18.3932 13.6855 18.3303C13.5016 18.2674 13.2983 18.2093 13.0756 18.156C12.8578 18.1028 12.64 18.0447 12.4221 17.9818C12.2043 17.914 12.0034 17.8269 11.8195 17.7204C11.6355 17.6139 11.4879 17.4783 11.3765 17.3138C11.2652 17.1443 11.2095 16.9313 11.2095 16.6748C11.2095 16.4037 11.2797 16.1568 11.4201 15.9342C11.5653 15.7067 11.7783 15.5251 12.0591 15.3896C12.3398 15.254 12.6835 15.1863 13.0901 15.1863C13.3757 15.1863 13.6396 15.2081 13.8816 15.2516C14.1236 15.2952 14.3415 15.3533 14.5351 15.4259C14.5883 15.4453 14.6343 15.4767 14.673 15.5203C14.7166 15.5639 14.7384 15.6292 14.7384 15.7163C14.7384 15.7889 14.7118 15.8591 14.6585 15.9269C14.6101 15.9898 14.5399 16.0213 14.4479 16.0213C14.4286 16.0213 14.4092 16.0189 14.3899 16.014C14.3705 16.0044 14.3511 15.9971 14.3318 15.9923C14.1672 15.9342 13.9857 15.8882 13.7872 15.8543C13.5936 15.8156 13.3854 15.7962 13.1627 15.7962C12.7949 15.7962 12.4875 15.8664 12.2406 16.0068C11.9937 16.1472 11.8703 16.3529 11.8703 16.624C11.8703 16.8031 11.9259 16.9459 12.0373 17.0524C12.1486 17.1589 12.2963 17.2436 12.4802 17.3065C12.6642 17.3694 12.865 17.4275 13.0829 17.4808C13.3007 17.5292 13.5185 17.5848 13.7364 17.6478C13.9542 17.7107 14.1551 17.7954 14.339 17.9019C14.523 18.0036 14.6706 18.1415 14.782 18.3158C14.8933 18.4852 14.949 18.7079 14.949 18.9838C14.949 19.2549 14.8715 19.4993 14.7166 19.7172C14.5665 19.9302 14.3511 20.0972 14.0704 20.2182C13.7945 20.3392 13.4677 20.3997 13.0901 20.3997ZM18.1681 20.3634C17.9697 20.3634 17.8196 20.2521 17.718 20.0294L15.9245 15.68C15.91 15.6413 15.9027 15.6002 15.9027 15.5566C15.9027 15.4598 15.9317 15.3799 15.9898 15.317C16.0479 15.254 16.1278 15.2226 16.2295 15.2226C16.3747 15.2226 16.4787 15.2976 16.5417 15.4477L18.248 19.7026L19.9544 15.4477C20.0173 15.2976 20.1214 15.2226 20.2666 15.2226C20.3682 15.2226 20.4481 15.254 20.5062 15.317C20.5643 15.3799 20.5933 15.4598 20.5933 15.5566C20.5933 15.6002 20.5861 15.6413 20.5715 15.68L18.7781 20.0294C18.6764 20.2521 18.5264 20.3634 18.3279 20.3634H18.1681Z" fill="white"/>
<path d="M6.87242 20.0875L6.78297 20.2481L6.78539 20.2494L6.87242 20.0875ZM5.96479 19.1871L5.80495 19.2779L5.80544 19.2787L5.96479 19.1871ZM5.96479 16.3989L6.12415 16.4905L5.96479 16.3989ZM6.87242 15.5058L6.96031 15.6672L6.96101 15.6668L6.87242 15.5058ZM9.10156 15.317L9.15969 15.1426L9.10156 15.317ZM9.82766 15.6365L9.73709 15.7967L9.74545 15.8009L9.82766 15.6365ZM9.93658 15.7381L9.77589 15.8274L9.78199 15.8384L9.78952 15.8484L9.93658 15.7381ZM9.98741 15.8979L10.1709 15.8864L10.1708 15.8848L9.98741 15.8979ZM9.9148 16.1012L10.0503 16.2254L10.0503 16.2254L9.9148 16.1012ZM9.56627 16.1593L9.4808 16.322L9.48406 16.3237L9.56627 16.1593ZM8.97086 15.9124L9.02522 15.7368L8.97086 15.9124ZM7.16286 16.0794L7.06829 15.9218L7.16286 16.0794ZM6.50937 16.791L6.67433 16.8721L6.67484 16.871L6.50937 16.791ZM6.50937 18.8023L6.3439 18.8823L6.34442 18.8834L6.50937 18.8023ZM7.16286 19.5066L7.06829 19.6642L7.16286 19.5066ZM8.97086 19.6736L9.02522 19.8492L8.97086 19.6736ZM9.56627 19.4267L9.48404 19.2623L9.48082 19.264L9.56627 19.4267ZM9.9148 19.4848L10.0503 19.3606L10.0503 19.3606L9.9148 19.4848ZM9.98741 19.6881L10.1708 19.7012L10.1709 19.6996L9.98741 19.6881ZM9.93658 19.8551L9.78356 19.7531L9.7807 19.7577L9.93658 19.8551ZM9.82766 19.9495L9.74535 19.7849L9.73721 19.7895L9.82766 19.9495ZM9.10156 20.269L9.15969 20.4434L9.10156 20.269ZM8.17215 20.3997V20.2159C7.7205 20.2159 7.31759 20.1181 6.95945 19.9256L6.87242 20.0875L6.78539 20.2494C7.20176 20.4732 7.66534 20.5835 8.17215 20.5835V20.3997ZM6.87242 20.0875L6.96187 19.9269C6.6092 19.7305 6.33056 19.4545 6.12415 19.0955L5.96479 19.1871L5.80544 19.2787C6.04437 19.6943 6.37082 20.0185 6.78298 20.2481L6.87242 20.0875ZM5.96479 19.1871L6.12464 19.0963C5.92045 18.7368 5.81461 18.3046 5.81461 17.793H5.63079H5.44696C5.44696 18.356 5.5638 18.8532 5.80495 19.2779L5.96479 19.1871ZM5.63079 17.793H5.81461C5.81461 17.2761 5.92061 16.8445 6.12415 16.4905L5.96479 16.3989L5.80544 16.3072C5.56364 16.7278 5.44696 17.2255 5.44696 17.793H5.63079ZM5.96479 16.3989L6.12415 16.4905C6.33037 16.1319 6.60851 15.8587 6.9603 15.6672L6.87242 15.5058L6.78454 15.3443C6.37151 15.5691 6.04457 15.8914 5.80544 16.3072L5.96479 16.3989ZM6.87242 15.5058L6.96101 15.6668C7.31887 15.47 7.72121 15.3701 8.17215 15.3701V15.1863V15.0025C7.66463 15.0025 7.20049 15.1155 6.78384 15.3447L6.87242 15.5058ZM8.17215 15.1863V15.3701C8.5162 15.3701 8.80544 15.412 9.04343 15.4914L9.10156 15.317L9.15969 15.1426C8.87489 15.0477 8.54452 15.0025 8.17215 15.0025V15.1863ZM9.10156 15.317L9.04343 15.4914C9.29447 15.575 9.52558 15.6769 9.73721 15.7965L9.82766 15.6365L9.91811 15.4764C9.6844 15.3443 9.43144 15.2332 9.15969 15.1426L9.10156 15.317ZM9.82766 15.6365L9.74545 15.8009C9.76371 15.81 9.77123 15.819 9.77589 15.8274L9.93658 15.7381L10.0973 15.6488C10.0535 15.5701 9.98843 15.5113 9.90987 15.472L9.82766 15.6365ZM9.93658 15.7381L9.78952 15.8484C9.79045 15.8497 9.80075 15.8648 9.80405 15.911L9.98741 15.8979L10.1708 15.8848C10.1644 15.7954 10.1408 15.704 10.0836 15.6278L9.93658 15.7381ZM9.98741 15.8979L9.80394 15.9093C9.80561 15.936 9.79936 15.9551 9.77929 15.977L9.9148 16.1012L10.0503 16.2254C10.1367 16.1311 10.1789 16.0146 10.1709 15.8864L9.98741 15.8979ZM9.9148 16.1012L9.77929 15.977C9.76676 15.9906 9.74684 16.0045 9.69696 16.0045V16.1883V16.3721C9.83103 16.3721 9.95634 16.3279 10.0503 16.2254L9.9148 16.1012ZM9.69696 16.1883V16.0045C9.67369 16.0045 9.65879 16 9.64847 15.9948L9.56627 16.1593L9.48406 16.3237C9.55119 16.3572 9.62343 16.3721 9.69696 16.3721V16.1883ZM9.56627 16.1593L9.65171 15.9965C9.44841 15.8898 9.23955 15.8031 9.02522 15.7368L8.97086 15.9124L8.91651 16.088C9.10879 16.1475 9.29687 16.2254 9.48082 16.322L9.56627 16.1593ZM8.97086 15.9124L9.02522 15.7368C8.79946 15.6669 8.53565 15.6342 8.2375 15.6342V15.818V16.0018C8.51054 16.0018 8.73565 16.032 8.91651 16.088L8.97086 15.9124ZM8.2375 15.818V15.6342C7.78669 15.6342 7.3938 15.7265 7.06829 15.9218L7.16286 16.0794L7.25744 16.237C7.51282 16.0838 7.83634 16.0018 8.2375 16.0018V15.818ZM7.16286 16.0794L7.06829 15.9218C6.74769 16.1141 6.50496 16.378 6.3439 16.7109L6.50937 16.791L6.67484 16.871C6.80422 16.6037 6.99716 16.3932 7.25744 16.237L7.16286 16.0794ZM6.50937 16.791L6.34442 16.7098C6.18523 17.0335 6.10772 17.3959 6.10772 17.793H6.29154H6.47536C6.47536 17.4446 6.54308 17.139 6.67433 16.8721L6.50937 16.791ZM6.29154 17.793H6.10772C6.10772 18.1902 6.18524 18.5544 6.3439 18.8823L6.50937 18.8023L6.67484 18.7222C6.54306 18.4499 6.47536 18.1413 6.47536 17.793H6.29154ZM6.50937 18.8023L6.34442 18.8834C6.50573 19.2114 6.74846 19.4723 7.06829 19.6642L7.16286 19.5066L7.25744 19.349C6.99639 19.1923 6.80346 18.9837 6.67433 18.7211L6.50937 18.8023ZM7.16286 19.5066L7.06829 19.6642C7.3938 19.8595 7.78669 19.9518 8.2375 19.9518V19.768V19.5842C7.83634 19.5842 7.51282 19.5022 7.25744 19.349L7.16286 19.5066ZM8.2375 19.768V19.9518C8.53565 19.9518 8.79946 19.9191 9.02522 19.8492L8.97086 19.6736L8.91651 19.498C8.73565 19.554 8.51054 19.5842 8.2375 19.5842V19.768ZM8.97086 19.6736L9.02522 19.8492C9.23955 19.7829 9.44841 19.6962 9.65171 19.5895L9.56627 19.4267L9.48082 19.264C9.29687 19.3605 9.10879 19.4385 8.91651 19.498L8.97086 19.6736ZM9.56627 19.4267L9.64847 19.5911C9.65879 19.586 9.67369 19.5815 9.69696 19.5815V19.3977V19.2139C9.62342 19.2139 9.55119 19.2287 9.48406 19.2623L9.56627 19.4267ZM9.69696 19.3977V19.5815C9.74684 19.5815 9.76676 19.5954 9.77929 19.609L9.9148 19.4848L10.0503 19.3606C9.95634 19.2581 9.83103 19.2139 9.69696 19.2139V19.3977ZM9.9148 19.4848L9.77929 19.609C9.79936 19.6309 9.80561 19.6499 9.80394 19.6767L9.98741 19.6881L10.1709 19.6996C10.1789 19.5714 10.1367 19.4549 10.0503 19.3606L9.9148 19.4848ZM9.98741 19.6881L9.80405 19.675C9.80082 19.7202 9.79051 19.7428 9.78363 19.7532L9.93658 19.8551L10.0895 19.9571C10.1407 19.8803 10.1643 19.7915 10.1708 19.7012L9.98741 19.6881ZM9.93658 19.8551L9.7807 19.7577C9.7775 19.7628 9.76926 19.7732 9.74545 19.7851L9.82766 19.9495L9.90987 20.1139C9.98287 20.0774 10.0473 20.0249 10.0925 19.9525L9.93658 19.8551ZM9.82766 19.9495L9.73721 19.7895C9.52558 19.9091 9.29447 20.0109 9.04343 20.0946L9.10156 20.269L9.15969 20.4434C9.43144 20.3528 9.6844 20.2416 9.91811 20.1095L9.82766 19.9495ZM9.10156 20.269L9.04343 20.0946C8.80544 20.1739 8.5162 20.2159 8.17215 20.2159V20.3997V20.5835C8.54452 20.5835 8.87489 20.5383 9.15969 20.4434L9.10156 20.269ZM12.1099 20.298L12.0646 20.4762L12.0681 20.4771L12.1099 20.298ZM11.362 20.0512L11.2859 20.2185L11.2891 20.2199L11.362 20.0512ZM11.2168 19.935L11.0638 20.037L11.0688 20.0444L11.0745 20.0514L11.2168 19.935ZM11.2386 19.5429L11.3742 19.6672L11.3789 19.6616L11.2386 19.5429ZM11.5944 19.4775L11.5197 19.6455L11.5202 19.6457L11.5944 19.4775ZM12.197 19.6809L12.1499 19.8585L12.1508 19.8588L12.197 19.6809ZM13.671 19.7026L13.7167 19.8807L13.7198 19.8799L13.671 19.7026ZM14.1285 19.4412L14.2638 19.5657L14.2661 19.563L14.1285 19.4412ZM14.1285 18.5699L14.0078 18.7087L14.0114 18.7116L14.1285 18.5699ZM13.6855 18.3303L13.626 18.5042H13.626L13.6855 18.3303ZM13.0756 18.156L13.032 18.3346L13.0329 18.3348L13.0756 18.156ZM12.4221 17.9818L12.3675 18.1573L12.3711 18.1584L12.4221 17.9818ZM11.8195 17.7204L11.9116 17.5613L11.8195 17.7204ZM11.3765 17.3138L11.2229 17.4147L11.2243 17.4168L11.3765 17.3138ZM11.4201 15.9342L11.2651 15.8353L11.2646 15.8361L11.4201 15.9342ZM12.0591 15.3896L12.139 15.5551L12.0591 15.3896ZM13.8816 15.2516L13.9142 15.0707L13.8816 15.2516ZM14.5351 15.4259L14.4705 15.598L14.4723 15.5986L14.5351 15.4259ZM14.673 15.5203L14.5354 15.6426L14.5431 15.6503L14.673 15.5203ZM14.6585 15.9269L14.514 15.8133L14.5128 15.8148L14.6585 15.9269ZM14.3899 16.014L14.3077 16.1785L14.3257 16.1875L14.3453 16.1924L14.3899 16.014ZM14.3318 15.9923L14.2706 16.1656L14.2788 16.1685L14.2872 16.1706L14.3318 15.9923ZM13.7872 15.8543L13.7511 16.0346L13.7563 16.0355L13.7872 15.8543ZM12.2406 16.0068L12.1497 15.847L12.2406 16.0068ZM12.0373 17.0524L12.1643 16.9195L12.0373 17.0524ZM12.4802 17.3065L12.4207 17.4804L12.4802 17.3065ZM13.0829 17.4808L13.0392 17.6594L13.043 17.6602L13.0829 17.4808ZM13.7364 17.6478L13.6853 17.8244L13.7364 17.6478ZM14.339 17.9019L14.2469 18.061L14.2501 18.0628L14.339 17.9019ZM14.782 18.3158L14.627 18.4148L14.6283 18.4167L14.782 18.3158ZM14.7166 19.7172L14.5668 19.6106L14.5663 19.6113L14.7166 19.7172ZM14.0704 20.2182L13.9976 20.0494L13.9965 20.0498L14.0704 20.2182ZM13.0901 20.3997V20.2159C12.7382 20.2159 12.4258 20.183 12.1517 20.119L12.1099 20.298L12.0681 20.4771C12.3748 20.5486 12.7159 20.5835 13.0901 20.5835V20.3997ZM12.1099 20.298L12.1552 20.1199C11.8766 20.0491 11.6369 19.9697 11.4349 19.8824L11.362 20.0512L11.2891 20.2199C11.5131 20.3166 11.772 20.4018 12.0646 20.4762L12.1099 20.298ZM11.362 20.0512L11.4381 19.8838C11.4147 19.8732 11.3879 19.8538 11.3591 19.8186L11.2168 19.935L11.0745 20.0514C11.1328 20.1227 11.2029 20.1807 11.2859 20.2185L11.362 20.0512ZM11.2168 19.935L11.3697 19.833C11.3489 19.8017 11.3425 19.7762 11.3425 19.7535H11.1587H10.9749C10.9749 19.8566 11.0073 19.9521 11.0638 20.037L11.2168 19.935ZM11.1587 19.7535H11.3425C11.3425 19.7149 11.3534 19.6897 11.3741 19.6671L11.2386 19.5429L11.1031 19.4187C11.0173 19.5123 10.9749 19.6274 10.9749 19.7535H11.1587ZM11.2386 19.5429L11.3789 19.6616C11.3929 19.6451 11.4115 19.6323 11.4564 19.6323V19.4485V19.2647C11.3174 19.2647 11.1907 19.3149 11.0982 19.4242L11.2386 19.5429ZM11.4564 19.4485V19.6323C11.4795 19.6323 11.5 19.6368 11.5197 19.6455L11.5944 19.4775L11.669 19.3096C11.6016 19.2796 11.5301 19.2647 11.4564 19.2647V19.4485ZM11.5944 19.4775L11.5202 19.6457C11.696 19.7233 11.9065 19.794 12.1499 19.8585L12.197 19.6809L12.2442 19.5032C12.0131 19.4419 11.8219 19.377 11.6686 19.3094L11.5944 19.4775ZM12.197 19.6809L12.1508 19.8588C12.411 19.9264 12.7029 19.9591 13.0248 19.9591V19.7752V19.5914C12.727 19.5914 12.4671 19.5611 12.2433 19.5029L12.197 19.6809ZM13.0248 19.7752V19.9591C13.2787 19.9591 13.5099 19.9337 13.7167 19.8807L13.671 19.7026L13.6254 19.5246C13.4546 19.5684 13.255 19.5914 13.0248 19.5914V19.7752ZM13.671 19.7026L13.7198 19.8799C13.9392 19.8195 14.1244 19.7172 14.2637 19.5657L14.1285 19.4412L13.9932 19.3168C13.9099 19.4074 13.79 19.4793 13.6223 19.5254L13.671 19.7026ZM14.1285 19.4412L14.2661 19.563C14.4138 19.3961 14.4793 19.1821 14.4793 18.9402H14.2955H14.1116C14.1116 19.1147 14.0657 19.2347 13.9908 19.3194L14.1285 19.4412ZM14.2955 18.9402H14.4793C14.4793 18.735 14.4025 18.5579 14.2455 18.4282L14.1285 18.5699L14.0114 18.7116C14.0771 18.7659 14.1116 18.8356 14.1116 18.9402H14.2955ZM14.1285 18.5699L14.2491 18.4312C14.1151 18.3147 13.9447 18.2247 13.745 18.1564L13.6855 18.3303L13.626 18.5042C13.7943 18.5618 13.9191 18.6315 14.0078 18.7086L14.1285 18.5699ZM13.6855 18.3303L13.745 18.1564C13.5547 18.0913 13.3457 18.0316 13.1184 17.9773L13.0756 18.156L13.0329 18.3348C13.2508 18.3869 13.4485 18.4435 13.626 18.5042L13.6855 18.3303ZM13.0756 18.156L13.1193 17.9775C12.9039 17.9248 12.6886 17.8674 12.4731 17.8052L12.4221 17.9818L12.3711 18.1584C12.5913 18.222 12.8116 18.2807 13.032 18.3346L13.0756 18.156ZM12.4221 17.9818L12.4767 17.8062C12.271 17.7423 12.0828 17.6604 11.9116 17.5613L11.8195 17.7204L11.7274 17.8795C11.924 17.9933 12.1376 18.0858 12.3675 18.1573L12.4221 17.9818ZM11.8195 17.7204L11.9116 17.5613C11.7499 17.4677 11.6235 17.3508 11.5288 17.2108L11.3765 17.3138L11.2243 17.4168C11.3522 17.6059 11.5211 17.76 11.7274 17.8795L11.8195 17.7204ZM11.3765 17.3138L11.5302 17.2128C11.4432 17.0804 11.3934 16.905 11.3934 16.6748H11.2095H11.0257C11.0257 16.9577 11.0872 17.2083 11.2229 17.4147L11.3765 17.3138ZM11.2095 16.6748H11.3934C11.3934 16.4373 11.4543 16.2246 11.5756 16.0322L11.4201 15.9342L11.2646 15.8361C11.1051 16.0891 11.0257 16.3701 11.0257 16.6748H11.2095ZM11.4201 15.9342L11.575 16.0331C11.6992 15.8385 11.8841 15.6782 12.139 15.5551L12.0591 15.3896L11.9792 15.224C11.6725 15.3721 11.4314 15.5748 11.2651 15.8353L11.4201 15.9342ZM12.0591 15.3896L12.139 15.5551C12.3884 15.4347 12.7031 15.3701 13.0901 15.3701V15.1863V15.0025C12.6639 15.0025 12.2912 15.0734 11.9792 15.224L12.0591 15.3896ZM13.0901 15.1863V15.3701C13.3665 15.3701 13.6193 15.3912 13.849 15.4325L13.8816 15.2516L13.9142 15.0707C13.6598 15.0249 13.385 15.0025 13.0901 15.0025V15.1863ZM13.8816 15.2516L13.849 15.4325C14.0821 15.4745 14.289 15.5299 14.4705 15.598L14.5351 15.4259L14.5996 15.2538C14.3939 15.1766 14.1651 15.1159 13.9142 15.0707L13.8816 15.2516ZM14.5351 15.4259L14.4723 15.5986C14.496 15.6073 14.5166 15.621 14.5356 15.6424L14.673 15.5203L14.8104 15.3982C14.752 15.3325 14.6807 15.2832 14.5979 15.2531L14.5351 15.4259ZM14.673 15.5203L14.5431 15.6503C14.5431 15.6503 14.5431 15.6503 14.5433 15.6505C14.5434 15.6507 14.5436 15.651 14.544 15.6516C14.5447 15.6528 14.5461 15.6554 14.5477 15.6601C14.5509 15.6698 14.5546 15.6875 14.5546 15.7163H14.7384H14.9222C14.9222 15.6009 14.8932 15.4805 14.803 15.3903L14.673 15.5203ZM14.7384 15.7163H14.5546C14.5546 15.7404 14.5467 15.7717 14.514 15.8133L14.6585 15.9269L14.8031 16.0405C14.8768 15.9466 14.9222 15.8375 14.9222 15.7163H14.7384ZM14.6585 15.9269L14.5128 15.8148C14.505 15.825 14.4931 15.8375 14.4479 15.8375V16.0213V16.2051C14.5868 16.2051 14.7152 16.1547 14.8042 16.039L14.6585 15.9269ZM14.4479 16.0213V15.8375C14.4441 15.8375 14.4397 15.837 14.4344 15.8357L14.3899 16.014L14.3453 16.1924C14.3788 16.2007 14.4131 16.2051 14.4479 16.2051V16.0213ZM14.3899 16.014L14.4721 15.8496C14.4417 15.8344 14.4098 15.8223 14.3764 15.8139L14.3318 15.9923L14.2872 16.1706C14.2925 16.1719 14.2993 16.1743 14.3077 16.1785L14.3899 16.014ZM14.3318 15.9923L14.393 15.8189C14.2172 15.7569 14.0254 15.7085 13.8181 15.6731L13.7872 15.8543L13.7563 16.0355C13.946 16.0679 14.1172 16.1115 14.2706 16.1656L14.3318 15.9923ZM13.7872 15.8543L13.8232 15.674C13.6164 15.6327 13.396 15.6124 13.1627 15.6124V15.7962V15.98C13.3748 15.98 13.5708 15.9985 13.7511 16.0345L13.7872 15.8543ZM13.1627 15.7962V15.6124C12.7722 15.6124 12.4313 15.6869 12.1497 15.847L12.2406 16.0068L12.3315 16.1666C12.5436 16.0459 12.8175 15.98 13.1627 15.98V15.7962ZM12.2406 16.0068L12.1497 15.847C11.8488 16.0181 11.6865 16.283 11.6865 16.624H11.8703H12.0541C12.0541 16.4228 12.1387 16.2762 12.3315 16.1666L12.2406 16.0068ZM11.8703 16.624H11.6865C11.6865 16.8444 11.7567 17.0383 11.9102 17.1852L12.0373 17.0524L12.1643 16.9195C12.0952 16.8534 12.0541 16.7618 12.0541 16.624H11.8703ZM12.0373 17.0524L11.9102 17.1852C12.0452 17.3143 12.2179 17.4111 12.4207 17.4804L12.4802 17.3065L12.5397 17.1326C12.3746 17.0761 12.2521 17.0034 12.1643 16.9195L12.0373 17.0524ZM12.4802 17.3065L12.4207 17.4804C12.6106 17.5454 12.8168 17.605 13.0392 17.6593L13.0829 17.4808L13.1265 17.3022C12.9133 17.2501 12.7177 17.1935 12.5397 17.1326L12.4802 17.3065ZM13.0829 17.4808L13.043 17.6602C13.257 17.7078 13.4711 17.7625 13.6853 17.8244L13.7364 17.6478L13.7874 17.4712C13.5659 17.4072 13.3444 17.3506 13.1228 17.3013L13.0829 17.4808ZM13.7364 17.6478L13.6853 17.8244C13.8898 17.8834 14.0767 17.9625 14.2469 18.061L14.339 17.9019L14.4311 17.7428C14.2334 17.6284 14.0186 17.538 13.7874 17.4712L13.7364 17.6478ZM14.339 17.9019L14.2501 18.0628C14.4077 18.1499 14.5325 18.2667 14.627 18.4148L14.782 18.3158L14.9369 18.2168C14.8088 18.0163 14.6382 17.8572 14.4279 17.741L14.339 17.9019ZM14.782 18.3158L14.6283 18.4167C14.714 18.5472 14.7651 18.7312 14.7651 18.9838H14.949H15.1328C15.1328 18.6846 15.0725 18.4233 14.9356 18.2148L14.782 18.3158ZM14.949 18.9838H14.7651C14.7651 19.2173 14.6992 19.4244 14.5668 19.6106L14.7166 19.7172L14.8664 19.8237C15.0438 19.5743 15.1328 19.2925 15.1328 18.9838H14.949ZM14.7166 19.7172L14.5663 19.6113C14.439 19.792 14.2527 19.9394 13.9976 20.0494L14.0704 20.2182L14.1431 20.387C14.4496 20.2549 14.6941 20.0683 14.8669 19.823L14.7166 19.7172ZM14.0704 20.2182L13.9965 20.0498C13.749 20.1584 13.4485 20.2159 13.0901 20.2159V20.3997V20.5835C13.4869 20.5835 13.8399 20.52 14.1442 20.3865L14.0704 20.2182ZM17.718 20.0294L17.5479 20.0995L17.5507 20.1057L17.718 20.0294ZM15.9245 15.68L15.7523 15.7446L15.7545 15.7501L15.9245 15.68ZM15.9898 15.317L15.8548 15.1923V15.1923L15.9898 15.317ZM16.5417 15.4477L16.7123 15.3792L16.7112 15.3766L16.5417 15.4477ZM18.248 19.7026L18.0774 19.7711L18.248 20.1965L18.4186 19.7711L18.248 19.7026ZM19.9544 15.4477L19.7848 15.3766L19.7837 15.3793L19.9544 15.4477ZM20.5062 15.317L20.6413 15.1923L20.6413 15.1923L20.5062 15.317ZM20.5715 15.68L20.7416 15.7501L20.7437 15.7446L20.5715 15.68ZM18.7781 20.0294L18.9454 20.1058L18.948 20.0995L18.7781 20.0294ZM18.1681 20.3634V20.1796C18.1058 20.1796 18.0576 20.1629 18.0163 20.1323C17.9727 20.1 17.927 20.0446 17.8852 19.953L17.718 20.0294L17.5507 20.1057C17.6106 20.2368 17.6907 20.3485 17.7972 20.4275C17.906 20.5082 18.0321 20.5472 18.1681 20.5472V20.3634ZM17.718 20.0294L17.8879 19.9593L16.0944 15.61L15.9245 15.68L15.7545 15.7501L17.548 20.0995L17.718 20.0294ZM15.9245 15.68L16.0966 15.6155C16.0902 15.5985 16.0865 15.5793 16.0865 15.5566H15.9027H15.7189C15.7189 15.621 15.7297 15.6841 15.7524 15.7446L15.9245 15.68ZM15.9027 15.5566H16.0865C16.0865 15.4995 16.1023 15.4661 16.1249 15.4417L15.9898 15.317L15.8548 15.1923C15.7612 15.2937 15.7189 15.4201 15.7189 15.5566H15.9027ZM15.9898 15.317L16.1249 15.4417C16.1417 15.4235 16.1687 15.4064 16.2295 15.4064V15.2226V15.0388C16.0869 15.0388 15.9541 15.0846 15.8548 15.1923L15.9898 15.317ZM16.2295 15.2226V15.4064C16.2688 15.4064 16.2922 15.4159 16.3089 15.428C16.327 15.441 16.3503 15.4667 16.3722 15.5188L16.5417 15.4477L16.7112 15.3766C16.6701 15.2786 16.6099 15.1917 16.5239 15.1297C16.4365 15.0667 16.3353 15.0388 16.2295 15.0388V15.2226ZM16.5417 15.4477L16.3711 15.5161L18.0774 19.7711L18.248 19.7026L18.4186 19.6342L16.7123 15.3793L16.5417 15.4477ZM18.248 19.7026L18.4186 19.7711L20.125 15.5161L19.9544 15.4477L19.7837 15.3793L18.0774 19.6342L18.248 19.7026ZM19.9544 15.4477L20.1239 15.5188C20.1457 15.4667 20.169 15.441 20.1871 15.428C20.2038 15.4159 20.2273 15.4064 20.2666 15.4064V15.2226V15.0388C20.1607 15.0388 20.0595 15.0667 19.9721 15.1297C19.8861 15.1917 19.8259 15.2786 19.7848 15.3766L19.9544 15.4477ZM20.2666 15.2226V15.4064C20.3274 15.4064 20.3543 15.4235 20.3711 15.4417L20.5062 15.317L20.6413 15.1923C20.5419 15.0846 20.4091 15.0388 20.2666 15.0388V15.2226ZM20.5062 15.317L20.3711 15.4417C20.3937 15.4661 20.4095 15.4995 20.4095 15.5566H20.5933H20.7772C20.7772 15.4201 20.7348 15.2937 20.6413 15.1923L20.5062 15.317ZM20.5933 15.5566H20.4095C20.4095 15.5793 20.4058 15.5985 20.3994 15.6155L20.5715 15.68L20.7437 15.7446C20.7663 15.6841 20.7772 15.621 20.7772 15.5566H20.5933ZM20.5715 15.68L20.4016 15.61L18.6081 19.9593L18.7781 20.0294L18.948 20.0995L20.7415 15.7501L20.5715 15.68ZM18.7781 20.0294L18.6109 19.953C18.569 20.0446 18.5233 20.1 18.4798 20.1323C18.4384 20.1629 18.3903 20.1796 18.3279 20.1796V20.3634V20.5472C18.464 20.5472 18.5901 20.5082 18.6988 20.4275C18.8053 20.3485 18.8854 20.2368 18.9453 20.1057L18.7781 20.0294ZM18.3279 20.3634V20.1796H18.1681V20.3634V20.5472H18.3279V20.3634Z" fill="white" mask="url(#path-4-outside-1_18338_88763)"/>
<g filter="url(#filter1_d_18338_88763)">
<path d="M25 9.37489H17.6471C16.5303 9.37489 15.625 8.46958 15.625 7.35283V-0.000114441L25 9.37489Z" fill="url(#paint2_linear_18338_88763)"/>
</g>
</g>
<defs>
<filter id="filter0_f_18338_88763" x="0.827307" y="10.1102" width="23.5295" height="14.8897" filterUnits="userSpaceOnUse" color-interpolation-filters="sRGB">
<feFlood flood-opacity="0" result="BackgroundImageFix"/>
<feBlend mode="normal" in="SourceGraphic" in2="BackgroundImageFix" result="shape"/>
<feGaussianBlur stdDeviation="1.79228" result="effect1_foregroundBlur_18338_88763"/>
</filter>
<filter id="filter1_d_18338_88763" x="13.511" y="-2.206" width="13.9706" height="13.9706" filterUnits="userSpaceOnUse" color-interpolation-filters="sRGB">
<feFlood flood-opacity="0" result="BackgroundImageFix"/>
<feColorMatrix in="SourceAlpha" type="matrix" values="0 0 0 0 0 0 0 0 0 0 0 0 0 0 0 0 0 0 127 0" result="hardAlpha"/>
<feOffset dx="0.183824" dy="0.0919118"/>
<feGaussianBlur stdDeviation="1.1489"/>
<feColorMatrix type="matrix" values="0 0 0 0 0 0 0 0 0 0 0 0 0 0 0 0 0 0 0.33 0"/>
<feBlend mode="normal" in2="BackgroundImageFix" result="effect1_dropShadow_18338_88763"/>
<feBlend mode="normal" in="SourceGraphic" in2="effect1_dropShadow_18338_88763" result="shape"/>
</filter>
<linearGradient id="paint0_linear_18338_88763" x1="12.5" y1="0" x2="12.5" y2="28.3088" gradientUnits="userSpaceOnUse">
<stop stop-color="#FF7979"/>
<stop offset="1" stop-color="#E85555"/>
</linearGradient>
<linearGradient id="paint1_linear_18338_88763" x1="12.5" y1="0" x2="12.5" y2="28.3088" gradientUnits="userSpaceOnUse">
<stop offset="0.000265127" stop-color="#83CC70"/>
<stop offset="1" stop-color="#61A850"/>
</linearGradient>
<linearGradient id="paint2_linear_18338_88763" x1="20.3125" y1="-0.000114441" x2="20.3125" y2="9.37489" gradientUnits="userSpaceOnUse">
<stop stop-color="#3FAF43"/>
<stop offset="1" stop-color="#0E8312"/>
</linearGradient>
</defs>
</svg>
