<svg width="25" height="30" viewBox="0 0 25 30" fill="none" xmlns="http://www.w3.org/2000/svg">
<mask id="mask0_18338_88805" style="mask-type:alpha" maskUnits="userSpaceOnUse" x="0" y="0" width="25" height="30">
<path d="M22.9779 29.1544H2.02206C0.905307 29.1544 0 28.2491 0 27.1324V2.86765C0 1.7509 0.905307 0.845589 2.02206 0.845589H15.625L25 10.2206V27.1324C25 28.2491 24.0947 29.1544 22.9779 29.1544Z" fill="url(#paint0_linear_18338_88805)"/>
</mask>
<g mask="url(#mask0_18338_88805)">
<path d="M22.9779 29.1544H2.02206C0.905307 29.1544 0 28.2491 0 27.1324V2.86765C0 1.7509 0.905307 0.845589 2.02206 0.845589H15.625L25 10.2206V27.1324C25 28.2491 24.0947 29.1544 22.9779 29.1544Z" fill="url(#paint1_linear_18338_88805)"/>
<g filter="url(#filter0_f_18338_88805)">
<rect x="4.31982" y="14.5403" width="16.3603" height="7.72059" fill="#3F3F46" fill-opacity="0.07" style="mix-blend-mode:darken"/>
</g>
<mask id="path-4-outside-1_18338_88805" maskUnits="userSpaceOnUse" x="6" y="15.1727" width="15" height="8" fill="black">
<rect fill="white" x="6" y="15.1727" width="15" height="8"/>
<path d="M7.39994 21.209C7.30797 21.209 7.23052 21.1775 7.16759 21.1146C7.10466 21.0517 7.07319 20.9742 7.07319 20.8822V16.4022C7.07319 16.3102 7.10466 16.2328 7.16759 16.1698C7.23052 16.1021 7.30797 16.0682 7.39994 16.0682C7.49191 16.0682 7.56937 16.1021 7.63229 16.1698C7.70006 16.2328 7.73395 16.3102 7.73395 16.4022V20.8822C7.73395 20.9742 7.70006 21.0517 7.63229 21.1146C7.56937 21.1775 7.49191 21.209 7.39994 21.209ZM9.77713 21.209C9.68516 21.209 9.60771 21.1775 9.54478 21.1146C9.48185 21.0517 9.45039 20.9742 9.45039 20.8822V17.7673C9.45039 17.6753 9.48185 17.5978 9.54478 17.5349C9.60771 17.4671 9.68516 17.4332 9.77713 17.4332C9.86911 17.4332 9.94656 17.4671 10.0095 17.5349C10.0773 17.5978 10.1111 17.6753 10.1111 17.7673V18.065C10.1789 17.9681 10.2636 17.8689 10.3653 17.7673C10.4718 17.6656 10.6049 17.5785 10.7646 17.5059C10.9244 17.4332 11.118 17.3969 11.3455 17.3969C11.636 17.3969 11.8732 17.4744 12.0571 17.6293C12.2459 17.7842 12.379 17.956 12.4565 18.1448C12.5145 18.0529 12.5968 17.9488 12.7033 17.8326C12.8098 17.7164 12.9502 17.6148 13.1245 17.5276C13.3036 17.4405 13.5262 17.3969 13.7925 17.3969C14.0781 17.3969 14.3104 17.4696 14.4895 17.6148C14.6686 17.7552 14.7993 17.9318 14.8816 18.1448C14.9639 18.3578 15.0051 18.5732 15.0051 18.7911V20.8822C15.0051 20.9742 14.9712 21.0517 14.9034 21.1146C14.8405 21.1775 14.763 21.209 14.6711 21.209C14.5791 21.209 14.5016 21.1775 14.4387 21.1146C14.3758 21.0517 14.3443 20.9742 14.3443 20.8822V18.9218C14.3443 18.6168 14.2887 18.3893 14.1773 18.2392C14.0708 18.0843 13.8796 18.0069 13.6037 18.0069C13.4198 18.0069 13.2624 18.0432 13.1317 18.1158C13.001 18.1836 12.8897 18.2707 12.7977 18.3772C12.7057 18.4837 12.6259 18.5926 12.5581 18.7039V20.8822C12.5581 20.9742 12.5242 21.0517 12.4565 21.1146C12.3935 21.1775 12.3161 21.209 12.2241 21.209C12.1321 21.209 12.0547 21.1775 11.9917 21.1146C11.9288 21.0517 11.8974 20.9742 11.8974 20.8822V18.9218C11.8974 18.6168 11.8417 18.3893 11.7304 18.2392C11.6239 18.0843 11.4326 18.0069 11.1567 18.0069C10.9728 18.0069 10.8155 18.0432 10.6848 18.1158C10.5541 18.1836 10.4427 18.2707 10.3508 18.3772C10.2588 18.4837 10.1789 18.5926 10.1111 18.7039V20.8822C10.1111 20.9742 10.0773 21.0517 10.0095 21.1146C9.94656 21.1775 9.86911 21.209 9.77713 21.209ZM18.3522 22.9153C18.0569 22.9153 17.7665 22.8766 17.4809 22.7992C17.1953 22.7217 16.9677 22.6346 16.7983 22.5378C16.7644 22.5136 16.733 22.4821 16.7039 22.4434C16.6797 22.4046 16.6676 22.3514 16.6676 22.2836C16.6676 22.211 16.6942 22.1432 16.7475 22.0803C16.8056 22.0174 16.8758 21.9859 16.9581 21.9859C16.9823 21.9859 17.0041 21.9883 17.0234 21.9932C17.0476 21.998 17.0694 22.0053 17.0888 22.015C17.2437 22.0924 17.4204 22.1578 17.6188 22.211C17.8173 22.2643 18.04 22.2909 18.2868 22.2909C19.0275 22.2909 19.3978 21.8964 19.3978 21.1073V20.6208C19.2477 20.7806 19.071 20.9137 18.8677 21.0202C18.6644 21.1219 18.4272 21.1727 18.1561 21.1727C17.9528 21.1727 17.7471 21.134 17.5389 21.0565C17.3356 20.9791 17.1469 20.8629 16.9726 20.708C16.8032 20.5531 16.6652 20.357 16.5587 20.1198C16.4522 19.8826 16.399 19.6043 16.399 19.2848C16.399 18.9653 16.4522 18.687 16.5587 18.4498C16.6652 18.2126 16.8032 18.0166 16.9726 17.8617C17.1469 17.7067 17.3356 17.5906 17.5389 17.5131C17.7471 17.4357 17.9528 17.3969 18.1561 17.3969C18.4272 17.3969 18.6644 17.4502 18.8677 17.5567C19.071 17.6583 19.2477 17.789 19.3978 17.9488V17.7673C19.3978 17.6753 19.4292 17.5978 19.4922 17.5349C19.5551 17.4671 19.6325 17.4332 19.7245 17.4332C19.8165 17.4332 19.8939 17.4671 19.9569 17.5349C20.0246 17.5978 20.0585 17.6753 20.0585 17.7673V21.0129C20.0585 21.6229 19.9109 22.0924 19.6156 22.4216C19.3203 22.7507 18.8992 22.9153 18.3522 22.9153ZM18.2941 20.57C18.5458 20.57 18.7588 20.5143 18.9331 20.403C19.1073 20.2917 19.2622 20.1682 19.3978 20.0327V18.5369C19.2622 18.3965 19.1073 18.2731 18.9331 18.1666C18.7588 18.0553 18.5458 17.9996 18.2941 17.9996C18.0666 17.9996 17.8584 18.0456 17.6696 18.1376C17.4809 18.2295 17.3308 18.3723 17.2195 18.566C17.113 18.7548 17.0597 18.9944 17.0597 19.2848C17.0597 19.5753 17.113 19.8173 17.2195 20.0109C17.3308 20.1997 17.4809 20.3401 17.6696 20.4321C17.8584 20.524 18.0666 20.57 18.2941 20.57Z"/>
</mask>
<path d="M7.39994 21.209C7.30797 21.209 7.23052 21.1775 7.16759 21.1146C7.10466 21.0517 7.07319 20.9742 7.07319 20.8822V16.4022C7.07319 16.3102 7.10466 16.2328 7.16759 16.1698C7.23052 16.1021 7.30797 16.0682 7.39994 16.0682C7.49191 16.0682 7.56937 16.1021 7.63229 16.1698C7.70006 16.2328 7.73395 16.3102 7.73395 16.4022V20.8822C7.73395 20.9742 7.70006 21.0517 7.63229 21.1146C7.56937 21.1775 7.49191 21.209 7.39994 21.209ZM9.77713 21.209C9.68516 21.209 9.60771 21.1775 9.54478 21.1146C9.48185 21.0517 9.45039 20.9742 9.45039 20.8822V17.7673C9.45039 17.6753 9.48185 17.5978 9.54478 17.5349C9.60771 17.4671 9.68516 17.4332 9.77713 17.4332C9.86911 17.4332 9.94656 17.4671 10.0095 17.5349C10.0773 17.5978 10.1111 17.6753 10.1111 17.7673V18.065C10.1789 17.9681 10.2636 17.8689 10.3653 17.7673C10.4718 17.6656 10.6049 17.5785 10.7646 17.5059C10.9244 17.4332 11.118 17.3969 11.3455 17.3969C11.636 17.3969 11.8732 17.4744 12.0571 17.6293C12.2459 17.7842 12.379 17.956 12.4565 18.1448C12.5145 18.0529 12.5968 17.9488 12.7033 17.8326C12.8098 17.7164 12.9502 17.6148 13.1245 17.5276C13.3036 17.4405 13.5262 17.3969 13.7925 17.3969C14.0781 17.3969 14.3104 17.4696 14.4895 17.6148C14.6686 17.7552 14.7993 17.9318 14.8816 18.1448C14.9639 18.3578 15.0051 18.5732 15.0051 18.7911V20.8822C15.0051 20.9742 14.9712 21.0517 14.9034 21.1146C14.8405 21.1775 14.763 21.209 14.6711 21.209C14.5791 21.209 14.5016 21.1775 14.4387 21.1146C14.3758 21.0517 14.3443 20.9742 14.3443 20.8822V18.9218C14.3443 18.6168 14.2887 18.3893 14.1773 18.2392C14.0708 18.0843 13.8796 18.0069 13.6037 18.0069C13.4198 18.0069 13.2624 18.0432 13.1317 18.1158C13.001 18.1836 12.8897 18.2707 12.7977 18.3772C12.7057 18.4837 12.6259 18.5926 12.5581 18.7039V20.8822C12.5581 20.9742 12.5242 21.0517 12.4565 21.1146C12.3935 21.1775 12.3161 21.209 12.2241 21.209C12.1321 21.209 12.0547 21.1775 11.9917 21.1146C11.9288 21.0517 11.8974 20.9742 11.8974 20.8822V18.9218C11.8974 18.6168 11.8417 18.3893 11.7304 18.2392C11.6239 18.0843 11.4326 18.0069 11.1567 18.0069C10.9728 18.0069 10.8155 18.0432 10.6848 18.1158C10.5541 18.1836 10.4427 18.2707 10.3508 18.3772C10.2588 18.4837 10.1789 18.5926 10.1111 18.7039V20.8822C10.1111 20.9742 10.0773 21.0517 10.0095 21.1146C9.94656 21.1775 9.86911 21.209 9.77713 21.209ZM18.3522 22.9153C18.0569 22.9153 17.7665 22.8766 17.4809 22.7992C17.1953 22.7217 16.9677 22.6346 16.7983 22.5378C16.7644 22.5136 16.733 22.4821 16.7039 22.4434C16.6797 22.4046 16.6676 22.3514 16.6676 22.2836C16.6676 22.211 16.6942 22.1432 16.7475 22.0803C16.8056 22.0174 16.8758 21.9859 16.9581 21.9859C16.9823 21.9859 17.0041 21.9883 17.0234 21.9932C17.0476 21.998 17.0694 22.0053 17.0888 22.015C17.2437 22.0924 17.4204 22.1578 17.6188 22.211C17.8173 22.2643 18.04 22.2909 18.2868 22.2909C19.0275 22.2909 19.3978 21.8964 19.3978 21.1073V20.6208C19.2477 20.7806 19.071 20.9137 18.8677 21.0202C18.6644 21.1219 18.4272 21.1727 18.1561 21.1727C17.9528 21.1727 17.7471 21.134 17.5389 21.0565C17.3356 20.9791 17.1469 20.8629 16.9726 20.708C16.8032 20.5531 16.6652 20.357 16.5587 20.1198C16.4522 19.8826 16.399 19.6043 16.399 19.2848C16.399 18.9653 16.4522 18.687 16.5587 18.4498C16.6652 18.2126 16.8032 18.0166 16.9726 17.8617C17.1469 17.7067 17.3356 17.5906 17.5389 17.5131C17.7471 17.4357 17.9528 17.3969 18.1561 17.3969C18.4272 17.3969 18.6644 17.4502 18.8677 17.5567C19.071 17.6583 19.2477 17.789 19.3978 17.9488V17.7673C19.3978 17.6753 19.4292 17.5978 19.4922 17.5349C19.5551 17.4671 19.6325 17.4332 19.7245 17.4332C19.8165 17.4332 19.8939 17.4671 19.9569 17.5349C20.0246 17.5978 20.0585 17.6753 20.0585 17.7673V21.0129C20.0585 21.6229 19.9109 22.0924 19.6156 22.4216C19.3203 22.7507 18.8992 22.9153 18.3522 22.9153ZM18.2941 20.57C18.5458 20.57 18.7588 20.5143 18.9331 20.403C19.1073 20.2917 19.2622 20.1682 19.3978 20.0327V18.5369C19.2622 18.3965 19.1073 18.2731 18.9331 18.1666C18.7588 18.0553 18.5458 17.9996 18.2941 17.9996C18.0666 17.9996 17.8584 18.0456 17.6696 18.1376C17.4809 18.2295 17.3308 18.3723 17.2195 18.566C17.113 18.7548 17.0597 18.9944 17.0597 19.2848C17.0597 19.5753 17.113 19.8173 17.2195 20.0109C17.3308 20.1997 17.4809 20.3401 17.6696 20.4321C17.8584 20.524 18.0666 20.57 18.2941 20.57Z" fill="white"/>
<path d="M7.16759 21.1146L7.29757 20.9846L7.16759 21.1146ZM7.16759 16.1698L7.29766 16.2999L7.30229 16.2949L7.16759 16.1698ZM7.63229 16.1698L7.49722 16.2953L7.50721 16.3045L7.63229 16.1698ZM7.63229 21.1146L7.50713 20.9798L7.50231 20.9846L7.63229 21.1146ZM7.39994 21.209V21.0252C7.3549 21.0252 7.32476 21.0118 7.29757 20.9846L7.16759 21.1146L7.03761 21.2446C7.13628 21.3432 7.26104 21.3928 7.39994 21.3928V21.209ZM7.16759 21.1146L7.29757 20.9846C7.27038 20.9574 7.25702 20.9273 7.25702 20.8822H7.07319H6.88937C6.88937 21.0211 6.93893 21.1459 7.03761 21.2446L7.16759 21.1146ZM7.07319 20.8822H7.25702V16.4022H7.07319H6.88937V20.8822H7.07319ZM7.07319 16.4022H7.25702C7.25702 16.3571 7.27038 16.327 7.29757 16.2998L7.16759 16.1698L7.03761 16.0398C6.93893 16.1385 6.88937 16.2633 6.88937 16.4022H7.07319ZM7.16759 16.1698L7.30229 16.2949C7.33066 16.2644 7.3594 16.252 7.39994 16.252V16.0682V15.8844C7.25653 15.8844 7.13038 15.9398 7.03288 16.0447L7.16759 16.1698ZM7.39994 16.0682V16.252C7.44048 16.252 7.46922 16.2644 7.49759 16.2949L7.63229 16.1698L7.767 16.0447C7.66951 15.9398 7.54335 15.8844 7.39994 15.8844V16.0682ZM7.63229 16.1698L7.50721 16.3045C7.53776 16.3329 7.55013 16.3616 7.55013 16.4022H7.73395H7.91777C7.91777 16.2588 7.86237 16.1326 7.75738 16.0351L7.63229 16.1698ZM7.73395 16.4022H7.55013V20.8822H7.73395H7.91777V16.4022H7.73395ZM7.73395 20.8822H7.55013C7.55013 20.9228 7.53776 20.9515 7.50721 20.9799L7.63229 21.1146L7.75738 21.2493C7.86237 21.1518 7.91777 21.0256 7.91777 20.8822H7.73395ZM7.63229 21.1146L7.50231 20.9846C7.47512 21.0118 7.44498 21.0252 7.39994 21.0252V21.209V21.3928C7.53884 21.3928 7.66361 21.3432 7.76228 21.2446L7.63229 21.1146ZM9.54478 21.1146L9.67476 20.9846H9.67476L9.54478 21.1146ZM9.54478 17.5349L9.67485 17.665L9.67949 17.66L9.54478 17.5349ZM10.0095 17.5349L9.87441 17.6603L9.8844 17.6696L10.0095 17.5349ZM10.1111 18.065H9.92732V18.6481L10.2617 18.1704L10.1111 18.065ZM10.3653 17.7673L10.2383 17.6343L10.2353 17.6373L10.3653 17.7673ZM10.7646 17.5059L10.8407 17.6732L10.8407 17.6732L10.7646 17.5059ZM12.0571 17.6293L11.9387 17.7699L11.9405 17.7714L12.0571 17.6293ZM12.4565 18.1448L12.2864 18.2146L12.4216 18.5442L12.6119 18.243L12.4565 18.1448ZM12.7033 17.8326L12.8388 17.9568L12.7033 17.8326ZM13.1245 17.5276L13.044 17.3623L13.0423 17.3632L13.1245 17.5276ZM14.4895 17.6148L14.3738 17.7576L14.3761 17.7595L14.4895 17.6148ZM14.8816 18.1448L14.7102 18.2111V18.2111L14.8816 18.1448ZM14.9034 21.1146L14.7783 20.9798L14.7734 20.9846L14.9034 21.1146ZM14.4387 21.1146L14.3087 21.2446L14.4387 21.1146ZM14.1773 18.2392L14.0257 18.3434L14.0297 18.3488L14.1773 18.2392ZM13.1317 18.1158L13.2164 18.279L13.221 18.2765L13.1317 18.1158ZM12.7977 18.3772L12.6586 18.257L12.7977 18.3772ZM12.5581 18.7039L12.4011 18.6084L12.3743 18.6524V18.7039H12.5581ZM12.4565 21.1146L12.3313 20.9798L12.3265 20.9846L12.4565 21.1146ZM11.9917 21.1146L11.8618 21.2446L11.9917 21.1146ZM11.7304 18.2392L11.5788 18.3434L11.5827 18.3488L11.7304 18.2392ZM10.6848 18.1158L10.7694 18.279L10.774 18.2765L10.6848 18.1158ZM10.3508 18.3772L10.2116 18.257L10.3508 18.3772ZM10.1111 18.7039L9.95412 18.6084L9.92732 18.6524V18.7039H10.1111ZM10.0095 21.1146L9.88432 20.9798L9.8795 20.9846L10.0095 21.1146ZM9.77713 21.209V21.0252C9.73209 21.0252 9.70195 21.0118 9.67476 20.9846L9.54478 21.1146L9.4148 21.2446C9.51347 21.3432 9.63823 21.3928 9.77713 21.3928V21.209ZM9.54478 21.1146L9.67476 20.9846C9.64758 20.9574 9.63421 20.9273 9.63421 20.8822H9.45039H9.26656C9.26656 21.0211 9.31613 21.1459 9.4148 21.2446L9.54478 21.1146ZM9.45039 20.8822H9.63421V17.7673H9.45039H9.26656V20.8822H9.45039ZM9.45039 17.7673H9.63421C9.63421 17.7222 9.64758 17.6921 9.67476 17.6649L9.54478 17.5349L9.4148 17.4049C9.31613 17.5036 9.26656 17.6284 9.26656 17.7673H9.45039ZM9.54478 17.5349L9.67949 17.66C9.70785 17.6294 9.7366 17.6171 9.77713 17.6171V17.4332V17.2494C9.63372 17.2494 9.50757 17.3048 9.41008 17.4098L9.54478 17.5349ZM9.77713 17.4332V17.6171C9.81767 17.6171 9.84642 17.6294 9.87478 17.66L10.0095 17.5349L10.1442 17.4098C10.0467 17.3048 9.92054 17.2494 9.77713 17.2494V17.4332ZM10.0095 17.5349L9.8844 17.6696C9.91495 17.698 9.92732 17.7267 9.92732 17.7673H10.1111H10.295C10.295 17.6238 10.2396 17.4977 10.1346 17.4002L10.0095 17.5349ZM10.1111 17.7673H9.92732V18.065H10.1111H10.295V17.7673H10.1111ZM10.1111 18.065L10.2617 18.1704C10.3222 18.084 10.3996 17.9929 10.4953 17.8972L10.3653 17.7673L10.2353 17.6373C10.1276 17.7449 10.0356 17.8523 9.96055 17.9595L10.1111 18.065ZM10.3653 17.7673L10.4922 17.9002C10.5812 17.8152 10.6962 17.7389 10.8407 17.6732L10.7646 17.5059L10.6886 17.3385C10.5136 17.4181 10.3623 17.516 10.2384 17.6343L10.3653 17.7673ZM10.7646 17.5059L10.8407 17.6732C10.9706 17.6142 11.1368 17.5808 11.3455 17.5808V17.3969V17.2131C11.0992 17.2131 10.8782 17.2523 10.6886 17.3385L10.7646 17.5059ZM11.3455 17.3969V17.5808C11.602 17.5808 11.7944 17.6484 11.9387 17.7699L12.0571 17.6293L12.1755 17.4887C11.9519 17.3004 11.6699 17.2131 11.3455 17.2131V17.3969ZM12.0571 17.6293L11.9405 17.7714C12.1104 17.9108 12.2226 18.059 12.2864 18.2146L12.4565 18.1448L12.6265 18.0751C12.5354 17.8531 12.3814 17.6576 12.1737 17.4872L12.0571 17.6293ZM12.4565 18.1448L12.6119 18.243C12.6622 18.1634 12.7368 18.0682 12.8388 17.9568L12.7033 17.8326L12.5678 17.7084C12.4569 17.8294 12.3669 17.9423 12.301 18.0467L12.4565 18.1448ZM12.7033 17.8326L12.8388 17.9568C12.9271 17.8606 13.0479 17.7714 13.2067 17.6921L13.1245 17.5276L13.0423 17.3632C12.8525 17.4581 12.6926 17.5723 12.5678 17.7084L12.7033 17.8326ZM13.1245 17.5276L13.2049 17.6929C13.352 17.6214 13.5452 17.5808 13.7925 17.5808V17.3969V17.2131C13.5073 17.2131 13.2552 17.2596 13.0441 17.3623L13.1245 17.5276ZM13.7925 17.3969V17.5808C14.0463 17.5808 14.2346 17.6447 14.3738 17.7576L14.4895 17.6148L14.6053 17.472C14.3862 17.2944 14.1099 17.2131 13.7925 17.2131V17.3969ZM14.4895 17.6148L14.3761 17.7595C14.5291 17.8793 14.6398 18.0289 14.7102 18.2111L14.8816 18.1448L15.0531 18.0786C14.9589 17.8348 14.8082 17.631 14.6029 17.4701L14.4895 17.6148ZM14.8816 18.1448L14.7102 18.2111C14.7847 18.404 14.8213 18.597 14.8213 18.7911H15.0051H15.1889C15.1889 18.5495 15.1432 18.3117 15.0531 18.0786L14.8816 18.1448ZM15.0051 18.7911H14.8213V20.8822H15.0051H15.1889V18.7911H15.0051ZM15.0051 20.8822H14.8213C14.8213 20.9228 14.8089 20.9515 14.7783 20.9799L14.9034 21.1146L15.0285 21.2493C15.1335 21.1518 15.1889 21.0256 15.1889 20.8822H15.0051ZM14.9034 21.1146L14.7734 20.9846C14.7463 21.0118 14.7161 21.0252 14.6711 21.0252V21.209V21.3928C14.81 21.3928 14.9347 21.3432 15.0334 21.2446L14.9034 21.1146ZM14.6711 21.209V21.0252C14.626 21.0252 14.5959 21.0118 14.5687 20.9846L14.4387 21.1146L14.3087 21.2446C14.4074 21.3432 14.5322 21.3928 14.6711 21.3928V21.209ZM14.4387 21.1146L14.5687 20.9846C14.5415 20.9574 14.5281 20.9273 14.5281 20.8822H14.3443H14.1605C14.1605 21.0211 14.2101 21.1459 14.3087 21.2446L14.4387 21.1146ZM14.3443 20.8822H14.5281V18.9218H14.3443H14.1605V20.8822H14.3443ZM14.3443 18.9218H14.5281C14.5281 18.6002 14.4705 18.3259 14.3249 18.1297L14.1773 18.2392L14.0297 18.3488C14.1068 18.4527 14.1605 18.6334 14.1605 18.9218H14.3443ZM14.1773 18.2392L14.3288 18.1351C14.1739 17.9098 13.9101 17.823 13.6037 17.823V18.0069V18.1907C13.8492 18.1907 13.9677 18.2588 14.0258 18.3434L14.1773 18.2392ZM13.6037 18.0069V17.823C13.3956 17.823 13.2061 17.8642 13.0425 17.9551L13.1317 18.1158L13.221 18.2765C13.3188 18.2222 13.4439 18.1907 13.6037 18.1907V18.0069ZM13.1317 18.1158L13.0471 17.9526C12.8967 18.0306 12.7665 18.132 12.6586 18.257L12.7977 18.3772L12.9368 18.4973C13.0128 18.4093 13.1054 18.3365 13.2163 18.279L13.1317 18.1158ZM12.7977 18.3772L12.6586 18.257C12.5605 18.3706 12.4745 18.4877 12.4011 18.6084L12.5581 18.7039L12.7151 18.7995C12.7772 18.6975 12.851 18.5967 12.9368 18.4973L12.7977 18.3772ZM12.5581 18.7039H12.3743V20.8822H12.5581H12.7419V18.7039H12.5581ZM12.5581 20.8822H12.3743C12.3743 20.9228 12.3619 20.9515 12.3314 20.9799L12.4565 21.1146L12.5815 21.2493C12.6865 21.1518 12.7419 21.0256 12.7419 20.8822H12.5581ZM12.4565 21.1146L12.3265 20.9846C12.2993 21.0118 12.2691 21.0252 12.2241 21.0252V21.209V21.3928C12.363 21.3928 12.4878 21.3432 12.5864 21.2446L12.4565 21.1146ZM12.2241 21.209V21.0252C12.1791 21.0252 12.1489 21.0118 12.1217 20.9846L11.9917 21.1146L11.8618 21.2446C11.9604 21.3432 12.0852 21.3928 12.2241 21.3928V21.209ZM11.9917 21.1146L12.1217 20.9846C12.0945 20.9574 12.0812 20.9273 12.0812 20.8822H11.8974H11.7135C11.7135 21.0211 11.7631 21.1459 11.8618 21.2446L11.9917 21.1146ZM11.8974 20.8822H12.0812V18.9218H11.8974H11.7135V20.8822H11.8974ZM11.8974 18.9218H12.0812C12.0812 18.6002 12.0235 18.3259 11.878 18.1297L11.7304 18.2392L11.5827 18.3488C11.6598 18.4527 11.7135 18.6334 11.7135 18.9218H11.8974ZM11.7304 18.2392L11.8818 18.1351C11.7269 17.9098 11.4631 17.823 11.1567 17.823V18.0069V18.1907C11.4022 18.1907 11.5208 18.2588 11.5789 18.3434L11.7304 18.2392ZM11.1567 18.0069V17.823C10.9487 17.823 10.7591 17.8642 10.5955 17.9551L10.6848 18.1158L10.774 18.2765C10.8718 18.2222 10.9969 18.1907 11.1567 18.1907V18.0069ZM10.6848 18.1158L10.6001 17.9526C10.4497 18.0306 10.3196 18.132 10.2116 18.257L10.3508 18.3772L10.4899 18.4973C10.5659 18.4093 10.6584 18.3365 10.7694 18.279L10.6848 18.1158ZM10.3508 18.3772L10.2116 18.257C10.1135 18.3706 10.0276 18.4877 9.95412 18.6084L10.1111 18.7039L10.2682 18.7995C10.3303 18.6975 10.404 18.5967 10.4899 18.4973L10.3508 18.3772ZM10.1111 18.7039H9.92732V20.8822H10.1111H10.295V18.7039H10.1111ZM10.1111 20.8822H9.92732C9.92732 20.9228 9.91495 20.9515 9.8844 20.9799L10.0095 21.1146L10.1346 21.2493C10.2396 21.1518 10.295 21.0256 10.295 20.8822H10.1111ZM10.0095 21.1146L9.8795 20.9846C9.85232 21.0118 9.82218 21.0252 9.77713 21.0252V21.209V21.3928C9.91604 21.3928 10.0408 21.3432 10.1395 21.2446L10.0095 21.1146ZM16.7983 22.5378L16.6915 22.6873L16.699 22.6927L16.7071 22.6974L16.7983 22.5378ZM16.7039 22.4434L16.548 22.5408L16.5522 22.5474L16.5569 22.5537L16.7039 22.4434ZM16.7475 22.0803L16.6123 21.9555L16.6072 21.9616L16.7475 22.0803ZM17.0234 21.9932L16.9788 22.1717L16.9874 22.1734L17.0234 21.9932ZM17.0888 22.015L17.0066 22.1794L17.0888 22.015ZM19.3978 20.6208H19.5816V20.1567L19.2638 20.495L19.3978 20.6208ZM18.8677 21.0202L18.9499 21.1846L18.953 21.183L18.8677 21.0202ZM17.5389 21.0565L17.4735 21.2283L17.4748 21.2288L17.5389 21.0565ZM16.9726 20.708L16.8485 20.8437L16.8505 20.8454L16.9726 20.708ZM16.5587 20.1198L16.391 20.1951L16.5587 20.1198ZM16.5587 18.4498L16.391 18.3745L16.5587 18.4498ZM16.9726 17.8617L16.8504 17.7242L16.8485 17.726L16.9726 17.8617ZM17.5389 17.5131L17.4748 17.3408L17.4735 17.3413L17.5389 17.5131ZM18.8677 17.5567L18.7824 17.7196L18.7855 17.7211L18.8677 17.5567ZM19.3978 17.9488L19.2638 18.0746L19.5816 18.4129V17.9488H19.3978ZM19.4922 17.5349L19.6222 17.665L19.6269 17.66L19.4922 17.5349ZM19.9569 17.5349L19.8218 17.6603L19.8318 17.6696L19.9569 17.5349ZM19.6156 22.4216L19.7524 22.5443L19.6156 22.4216ZM18.9331 20.403L18.8341 20.2481V20.2481L18.9331 20.403ZM19.3978 20.0327L19.5278 20.1627L19.5816 20.1088V20.0327H19.3978ZM19.3978 18.5369H19.5816V18.4627L19.53 18.4092L19.3978 18.5369ZM18.9331 18.1666L18.8341 18.3216L18.8372 18.3235L18.9331 18.1666ZM17.6696 18.1376L17.5891 17.9723L17.6696 18.1376ZM17.2195 18.566L17.0601 18.4743L17.0594 18.4757L17.2195 18.566ZM17.2195 20.0109L17.0583 20.0995L17.0611 20.1043L17.2195 20.0109ZM17.6696 20.4321L17.5891 20.5973L17.6696 20.4321ZM18.3522 22.9153V22.7315C18.0732 22.7315 17.7989 22.6949 17.529 22.6217L17.4809 22.7992L17.4327 22.9766C17.734 23.0583 18.0406 23.0992 18.3522 23.0992V22.9153ZM17.4809 22.7992L17.529 22.6217C17.2515 22.5465 17.0403 22.4643 16.8895 22.3781L16.7983 22.5378L16.7071 22.6974C16.8951 22.8048 17.139 22.8969 17.4327 22.9766L17.4809 22.7992ZM16.7983 22.5378L16.9052 22.3882C16.8889 22.3765 16.8705 22.3591 16.851 22.3331L16.7039 22.4434L16.5569 22.5537C16.5954 22.6051 16.64 22.6506 16.6915 22.6873L16.7983 22.5378ZM16.7039 22.4434L16.8598 22.3459C16.8607 22.3473 16.8514 22.3325 16.8514 22.2836H16.6676H16.4838C16.4838 22.3702 16.4988 22.462 16.548 22.5408L16.7039 22.4434ZM16.6676 22.2836H16.8514C16.8514 22.2604 16.8586 22.2336 16.8878 22.199L16.7475 22.0803L16.6072 21.9616C16.5299 22.0529 16.4838 22.1617 16.4838 22.2836H16.6676ZM16.7475 22.0803L16.8826 22.205C16.9075 22.178 16.9294 22.1697 16.9581 22.1697V21.9859V21.8021C16.8222 21.8021 16.7037 21.8567 16.6124 21.9556L16.7475 22.0803ZM16.9581 21.9859V22.1697C16.9703 22.1697 16.9767 22.171 16.9788 22.1715L17.0234 21.9932L17.068 21.8148C17.0314 21.8057 16.9942 21.8021 16.9581 21.8021V21.9859ZM17.0234 21.9932L16.9874 22.1734C16.9977 22.1755 17.0037 22.1779 17.0066 22.1794L17.0888 22.015L17.171 21.8505C17.1351 21.8326 17.0975 21.8205 17.0595 21.8129L17.0234 21.9932ZM17.0888 22.015L17.0066 22.1794C17.1743 22.2633 17.3629 22.3327 17.5712 22.3886L17.6188 22.211L17.6665 22.0335C17.4778 21.9828 17.313 21.9216 17.171 21.8505L17.0888 22.015ZM17.6188 22.211L17.5712 22.3886C17.7879 22.4467 18.027 22.4747 18.2868 22.4747V22.2909V22.1071C18.0529 22.1071 17.8466 22.0818 17.6665 22.0335L17.6188 22.211ZM18.2868 22.2909V22.4747C18.6886 22.4747 19.0228 22.3671 19.2541 22.1208C19.4832 21.8766 19.5816 21.5274 19.5816 21.1073H19.3978H19.2139C19.2139 21.4763 19.1271 21.7188 18.986 21.8692C18.8469 22.0173 18.6257 22.1071 18.2868 22.1071V22.2909ZM19.3978 21.1073H19.5816V20.6208H19.3978H19.2139V21.1073H19.3978ZM19.3978 20.6208L19.2638 20.495C19.1284 20.6391 18.9684 20.7599 18.7824 20.8574L18.8677 21.0202L18.953 21.183C19.1736 21.0675 19.367 20.9221 19.5317 20.7467L19.3978 20.6208ZM18.8677 21.0202L18.7855 20.8558C18.6122 20.9424 18.4041 20.9889 18.1561 20.9889V21.1727V21.3565C18.4503 21.3565 18.7166 21.3013 18.9499 21.1846L18.8677 21.0202ZM18.1561 21.1727V20.9889C17.9766 20.9889 17.7926 20.9547 17.6031 20.8842L17.5389 21.0565L17.4748 21.2288C17.7016 21.3132 17.929 21.3565 18.1561 21.3565V21.1727ZM17.5389 21.0565L17.6044 20.8847C17.4234 20.8158 17.2535 20.7117 17.0947 20.5706L16.9726 20.708L16.8505 20.8454C17.0402 21.014 17.2479 21.1423 17.4735 21.2283L17.5389 21.0565ZM16.9726 20.708L17.0966 20.5723C16.948 20.4364 16.824 20.2619 16.7264 20.0445L16.5587 20.1198L16.391 20.1951C16.5064 20.4522 16.6583 20.6697 16.8485 20.8436L16.9726 20.708ZM16.5587 20.1198L16.7264 20.0445C16.6327 19.8358 16.5828 19.5841 16.5828 19.2848H16.399H16.2151C16.2151 19.6245 16.2717 19.9295 16.391 20.1951L16.5587 20.1198ZM16.399 19.2848H16.5828C16.5828 18.9855 16.6327 18.7338 16.7264 18.5251L16.5587 18.4498L16.391 18.3745C16.2717 18.6401 16.2151 18.9452 16.2151 19.2848H16.399ZM16.5587 18.4498L16.7264 18.5251C16.824 18.3078 16.948 18.1332 17.0966 17.9973L16.9726 17.8617L16.8485 17.726C16.6583 17.8999 16.5064 18.1174 16.391 18.3745L16.5587 18.4498ZM16.9726 17.8617L17.0947 17.999C17.2535 17.8579 17.4234 17.7539 17.6044 17.6849L17.5389 17.5131L17.4735 17.3413C17.2479 17.4273 17.0402 17.5556 16.8505 17.7243L16.9726 17.8617ZM17.5389 17.5131L17.6031 17.6854C17.7926 17.6149 17.9766 17.5808 18.1561 17.5808V17.3969V17.2131C17.929 17.2131 17.7016 17.2565 17.4748 17.3408L17.5389 17.5131ZM18.1561 17.3969V17.5808C18.4029 17.5808 18.6098 17.6291 18.7824 17.7195L18.8677 17.5567L18.953 17.3939C18.719 17.2713 18.4516 17.2131 18.1561 17.2131V17.3969ZM18.8677 17.5567L18.7855 17.7211C18.9701 17.8134 19.1291 17.9313 19.2638 18.0746L19.3978 17.9488L19.5317 17.8229C19.3663 17.6468 19.1719 17.5033 18.9499 17.3923L18.8677 17.5567ZM19.3978 17.9488H19.5816V17.7673H19.3978H19.2139V17.9488H19.3978ZM19.3978 17.7673H19.5816C19.5816 17.7222 19.595 17.6921 19.6221 17.6649L19.4922 17.5349L19.3622 17.4049C19.2635 17.5036 19.2139 17.6284 19.2139 17.7673H19.3978ZM19.4922 17.5349L19.6269 17.66C19.6552 17.6294 19.684 17.6171 19.7245 17.6171V17.4332V17.2494C19.5811 17.2494 19.455 17.3048 19.3575 17.4098L19.4922 17.5349ZM19.7245 17.4332V17.6171C19.7651 17.6171 19.7938 17.6294 19.8222 17.66L19.9569 17.5349L20.0916 17.4098C19.9941 17.3048 19.8679 17.2494 19.7245 17.2494V17.4332ZM19.9569 17.5349L19.8318 17.6696C19.8623 17.698 19.8747 17.7267 19.8747 17.7673H20.0585H20.2423C20.2423 17.6238 20.1869 17.4977 20.082 17.4002L19.9569 17.5349ZM20.0585 17.7673H19.8747V21.0129H20.0585H20.2423V17.7673H20.0585ZM20.0585 21.0129H19.8747C19.8747 21.5948 19.734 22.0143 19.4788 22.2988L19.6156 22.4216L19.7524 22.5443C20.0878 22.1705 20.2423 21.6509 20.2423 21.0129H20.0585ZM19.6156 22.4216L19.4788 22.2988C19.2264 22.5802 18.8603 22.7315 18.3522 22.7315V22.9153V23.0992C18.938 23.0992 19.4143 22.9213 19.7524 22.5443L19.6156 22.4216ZM18.2941 20.57V20.7538C18.5732 20.7538 18.8224 20.6919 19.032 20.5579L18.9331 20.403L18.8341 20.2481C18.6952 20.3368 18.5184 20.3862 18.2941 20.3862V20.57ZM18.9331 20.403L19.032 20.5579C19.2166 20.44 19.3821 20.3083 19.5278 20.1627L19.3978 20.0327L19.2678 19.9027C19.1424 20.0281 18.998 20.1434 18.8341 20.2481L18.9331 20.403ZM19.3978 20.0327H19.5816V18.5369H19.3978H19.2139V20.0327H19.3978ZM19.3978 18.5369L19.53 18.4092C19.3831 18.2571 19.2159 18.124 19.0289 18.0098L18.9331 18.1666L18.8372 18.3235C18.9988 18.4222 19.1413 18.536 19.2655 18.6646L19.3978 18.5369ZM18.9331 18.1666L19.032 18.0117C18.8224 17.8777 18.5732 17.8158 18.2941 17.8158V17.9996V18.1834C18.5184 18.1834 18.6952 18.2328 18.8341 18.3215L18.9331 18.1666ZM18.2941 17.9996V17.8158C18.0411 17.8158 17.805 17.8671 17.5891 17.9723L17.6696 18.1376L17.7502 18.3028C17.9118 18.2241 18.0921 18.1834 18.2941 18.1834V17.9996ZM17.6696 18.1376L17.5891 17.9723C17.3651 18.0814 17.1885 18.251 17.0601 18.4743L17.2195 18.566L17.3788 18.6576C17.4731 18.4937 17.5966 18.3776 17.7502 18.3028L17.6696 18.1376ZM17.2195 18.566L17.0594 18.4757C16.9329 18.6998 16.8759 18.9731 16.8759 19.2848H17.0597H17.2435C17.2435 19.0157 17.293 18.8097 17.3796 18.6563L17.2195 18.566ZM17.0597 19.2848H16.8759C16.8759 19.5968 16.933 19.8715 17.0584 20.0995L17.2195 20.0109L17.3805 19.9223C17.2929 19.763 17.2435 19.5537 17.2435 19.2848H17.0597ZM17.2195 20.0109L17.0611 20.1043C17.1899 20.3227 17.3665 20.4888 17.5891 20.5973L17.6696 20.4321L17.7502 20.2668C17.5953 20.1913 17.4717 20.0767 17.3778 19.9175L17.2195 20.0109ZM17.6696 20.4321L17.5891 20.5973C17.805 20.7025 18.0411 20.7538 18.2941 20.7538V20.57V20.3862C18.0921 20.3862 17.9118 20.3456 17.7502 20.2668L17.6696 20.4321Z" fill="white" mask="url(#path-4-outside-1_18338_88805)"/>
<g filter="url(#filter1_d_18338_88805)">
<path d="M25 10.2205H17.6471C16.5303 10.2205 15.625 9.31517 15.625 8.19841V0.845474L25 10.2205Z" fill="url(#paint2_linear_18338_88805)"/>
</g>
</g>
<defs>
<filter id="filter0_f_18338_88805" x="0.735265" y="10.9558" width="23.5295" height="14.8897" filterUnits="userSpaceOnUse" color-interpolation-filters="sRGB">
<feFlood flood-opacity="0" result="BackgroundImageFix"/>
<feBlend mode="normal" in="SourceGraphic" in2="BackgroundImageFix" result="shape"/>
<feGaussianBlur stdDeviation="1.79228" result="effect1_foregroundBlur_18338_88805"/>
</filter>
<filter id="filter1_d_18338_88805" x="13.511" y="-1.36041" width="13.9706" height="13.9706" filterUnits="userSpaceOnUse" color-interpolation-filters="sRGB">
<feFlood flood-opacity="0" result="BackgroundImageFix"/>
<feColorMatrix in="SourceAlpha" type="matrix" values="0 0 0 0 0 0 0 0 0 0 0 0 0 0 0 0 0 0 127 0" result="hardAlpha"/>
<feOffset dx="0.183824" dy="0.0919118"/>
<feGaussianBlur stdDeviation="1.1489"/>
<feColorMatrix type="matrix" values="0 0 0 0 0 0 0 0 0 0 0 0 0 0 0 0 0 0 0.33 0"/>
<feBlend mode="normal" in2="BackgroundImageFix" result="effect1_dropShadow_18338_88805"/>
<feBlend mode="normal" in="SourceGraphic" in2="effect1_dropShadow_18338_88805" result="shape"/>
</filter>
<linearGradient id="paint0_linear_18338_88805" x1="12.5" y1="0.845589" x2="12.5" y2="29.1544" gradientUnits="userSpaceOnUse">
<stop stop-color="#FF7979"/>
<stop offset="1" stop-color="#E85555"/>
</linearGradient>
<linearGradient id="paint1_linear_18338_88805" x1="12.5" y1="0.845589" x2="12.5" y2="29.1544" gradientUnits="userSpaceOnUse">
<stop stop-color="#A28AFF"/>
<stop offset="1" stop-color="#7655FB"/>
</linearGradient>
<linearGradient id="paint2_linear_18338_88805" x1="20.3125" y1="0.845474" x2="20.3125" y2="10.2205" gradientUnits="userSpaceOnUse">
<stop stop-color="#8A71F1"/>
<stop offset="1" stop-color="#5C39E9"/>
</linearGradient>
</defs>
</svg>
