<svg width="25" height="30" viewBox="0 0 25 30" fill="none" xmlns="http://www.w3.org/2000/svg">
<mask id="mask0_18338_88774" style="mask-type:alpha" maskUnits="userSpaceOnUse" x="0" y="0" width="25" height="30">
<path d="M22.9779 29.2353H2.02206C0.905307 29.2353 0 28.33 0 27.2132V2.94853C0 1.83178 0.905307 0.926468 2.02206 0.926468H15.625L25 10.3015V27.2132C25 28.33 24.0947 29.2353 22.9779 29.2353Z" fill="url(#paint0_linear_18338_88774)"/>
</mask>
<g mask="url(#mask0_18338_88774)">
<path d="M22.9779 29.2353H2.02206C0.905307 29.2353 0 28.33 0 27.2132V2.94853C0 1.83178 0.905307 0.926468 2.02206 0.926468H15.625L25 10.3015V27.2132C25 28.33 24.0947 29.2353 22.9779 29.2353Z" fill="url(#paint1_linear_18338_88774)"/>
<g opacity="0.27" filter="url(#filter0_f_18338_88774)">
<rect x="4.41187" y="14.6212" width="16.3603" height="7.72059" fill="#0072A2" style="mix-blend-mode:darken"/>
</g>
<mask id="path-4-outside-1_18338_88774" maskUnits="userSpaceOnUse" x="4.00073" y="15.2536" width="18" height="7" fill="black">
<rect fill="white" x="4.00073" y="15.2536" width="18" height="7"/>
<path d="M5.3265 21.2536C5.23453 21.2536 5.15708 21.2221 5.09415 21.1592C5.03122 21.0962 4.99976 21.0188 4.99976 20.9268V16.5194C4.99976 16.4274 5.03122 16.3499 5.09415 16.287C5.15708 16.2192 5.23453 16.1854 5.3265 16.1854H6.78597C7.22163 16.1854 7.59921 16.2604 7.91869 16.4104C8.23818 16.5557 8.50442 16.7517 8.71741 16.9986C8.9304 17.2406 9.08772 17.5117 9.18937 17.8118C9.29587 18.1119 9.34912 18.4145 9.34912 18.7195C9.34912 19.0244 9.29587 19.327 9.18937 19.6271C9.08772 19.9272 8.9304 20.2007 8.71741 20.4476C8.50442 20.6896 8.23818 20.8857 7.91869 21.0357C7.59921 21.1809 7.22163 21.2536 6.78597 21.2536H5.3265ZM5.66051 20.6364H6.7061C7.11272 20.6364 7.46367 20.5565 7.75895 20.3968C8.05907 20.2322 8.28901 20.0071 8.44875 19.7215C8.61333 19.431 8.69562 19.097 8.69562 18.7195C8.69562 18.3419 8.61333 18.0103 8.44875 17.7247C8.28901 17.4343 8.05907 17.2092 7.75895 17.0494C7.46367 16.8848 7.11272 16.8025 6.7061 16.8025H5.66051V20.6364ZM13.2046 21.3262C12.6866 21.3262 12.2388 21.2148 11.8613 20.9922C11.4837 20.7695 11.1908 20.4621 10.9827 20.07C10.7745 19.6779 10.6656 19.2277 10.6559 18.7195C10.6656 18.2112 10.7745 17.761 10.9827 17.3689C11.1908 16.9768 11.4837 16.6694 11.8613 16.4468C12.2388 16.2241 12.6866 16.1127 13.2046 16.1127C13.7225 16.1127 14.1703 16.2241 14.5478 16.4468C14.9254 16.6694 15.2183 16.9768 15.4264 17.3689C15.6346 17.761 15.7435 18.2112 15.7532 18.7195C15.7435 19.2277 15.6346 19.6779 15.4264 20.07C15.2183 20.4621 14.9254 20.7695 14.5478 20.9922C14.1703 21.2148 13.7225 21.3262 13.2046 21.3262ZM13.2046 20.709C13.6063 20.709 13.9476 20.6218 14.2284 20.4476C14.5091 20.2685 14.7221 20.0289 14.8673 19.7287C15.0174 19.4286 15.0924 19.0922 15.0924 18.7195C15.0924 18.3467 15.0174 18.0103 14.8673 17.7102C14.7221 17.4101 14.5091 17.1729 14.2284 16.9986C13.9476 16.8195 13.6063 16.7299 13.2046 16.7299C12.8028 16.7299 12.4615 16.8195 12.1807 16.9986C11.9 17.1729 11.6846 17.4101 11.5345 17.7102C11.3893 18.0103 11.3167 18.3467 11.3167 18.7195C11.3167 19.0922 11.3893 19.4286 11.5345 19.7287C11.6846 20.0289 11.9 20.2685 12.1807 20.4476C12.4615 20.6218 12.8028 20.709 13.2046 20.709ZM19.5981 21.3262C19.1188 21.3262 18.6856 21.2221 18.2983 21.0139C17.9159 20.801 17.6134 20.5008 17.3907 20.1136C17.168 19.7215 17.0567 19.2568 17.0567 18.7195C17.0567 18.1773 17.168 17.7126 17.3907 17.3253C17.6134 16.9381 17.9159 16.6404 18.2983 16.4322C18.6856 16.2192 19.1188 16.1127 19.5981 16.1127C19.9563 16.1127 20.2661 16.1563 20.5275 16.2434C20.7889 16.3306 21.0309 16.4371 21.2536 16.5629C21.302 16.5871 21.3383 16.621 21.3625 16.6646C21.3915 16.7033 21.4085 16.7566 21.4133 16.8243C21.4182 16.9018 21.394 16.9695 21.3407 17.0276C21.2875 17.0857 21.2148 17.1148 21.1229 17.1148C21.0745 17.1148 21.0309 17.1051 20.9922 17.0857C20.7985 16.9841 20.6001 16.9018 20.3968 16.8388C20.1935 16.7759 19.949 16.7445 19.6634 16.7445C19.2374 16.7445 18.8792 16.8316 18.5888 17.0059C18.2983 17.1801 18.0805 17.4173 17.9353 17.7174C17.7901 18.0127 17.7175 18.3467 17.7175 18.7195C17.7175 19.0922 17.7901 19.4286 17.9353 19.7287C18.0805 20.024 18.2983 20.2588 18.5888 20.4331C18.8792 20.6073 19.2374 20.6945 19.6634 20.6945C19.949 20.6945 20.1935 20.663 20.3968 20.6001C20.6001 20.5371 20.7985 20.4548 20.9922 20.3532C21.0309 20.3338 21.0745 20.3241 21.1229 20.3241C21.2148 20.3241 21.2875 20.3532 21.3407 20.4113C21.394 20.4694 21.4182 20.5371 21.4133 20.6146C21.4085 20.6824 21.3915 20.738 21.3625 20.7816C21.3383 20.8203 21.302 20.8518 21.2536 20.876C21.0309 21.0018 20.7889 21.1083 20.5275 21.1955C20.2661 21.2826 19.9563 21.3262 19.5981 21.3262Z"/>
</mask>
<path d="M5.3265 21.2536C5.23453 21.2536 5.15708 21.2221 5.09415 21.1592C5.03122 21.0962 4.99976 21.0188 4.99976 20.9268V16.5194C4.99976 16.4274 5.03122 16.3499 5.09415 16.287C5.15708 16.2192 5.23453 16.1854 5.3265 16.1854H6.78597C7.22163 16.1854 7.59921 16.2604 7.91869 16.4104C8.23818 16.5557 8.50442 16.7517 8.71741 16.9986C8.9304 17.2406 9.08772 17.5117 9.18937 17.8118C9.29587 18.1119 9.34912 18.4145 9.34912 18.7195C9.34912 19.0244 9.29587 19.327 9.18937 19.6271C9.08772 19.9272 8.9304 20.2007 8.71741 20.4476C8.50442 20.6896 8.23818 20.8857 7.91869 21.0357C7.59921 21.1809 7.22163 21.2536 6.78597 21.2536H5.3265ZM5.66051 20.6364H6.7061C7.11272 20.6364 7.46367 20.5565 7.75895 20.3968C8.05907 20.2322 8.28901 20.0071 8.44875 19.7215C8.61333 19.431 8.69562 19.097 8.69562 18.7195C8.69562 18.3419 8.61333 18.0103 8.44875 17.7247C8.28901 17.4343 8.05907 17.2092 7.75895 17.0494C7.46367 16.8848 7.11272 16.8025 6.7061 16.8025H5.66051V20.6364ZM13.2046 21.3262C12.6866 21.3262 12.2388 21.2148 11.8613 20.9922C11.4837 20.7695 11.1908 20.4621 10.9827 20.07C10.7745 19.6779 10.6656 19.2277 10.6559 18.7195C10.6656 18.2112 10.7745 17.761 10.9827 17.3689C11.1908 16.9768 11.4837 16.6694 11.8613 16.4468C12.2388 16.2241 12.6866 16.1127 13.2046 16.1127C13.7225 16.1127 14.1703 16.2241 14.5478 16.4468C14.9254 16.6694 15.2183 16.9768 15.4264 17.3689C15.6346 17.761 15.7435 18.2112 15.7532 18.7195C15.7435 19.2277 15.6346 19.6779 15.4264 20.07C15.2183 20.4621 14.9254 20.7695 14.5478 20.9922C14.1703 21.2148 13.7225 21.3262 13.2046 21.3262ZM13.2046 20.709C13.6063 20.709 13.9476 20.6218 14.2284 20.4476C14.5091 20.2685 14.7221 20.0289 14.8673 19.7287C15.0174 19.4286 15.0924 19.0922 15.0924 18.7195C15.0924 18.3467 15.0174 18.0103 14.8673 17.7102C14.7221 17.4101 14.5091 17.1729 14.2284 16.9986C13.9476 16.8195 13.6063 16.7299 13.2046 16.7299C12.8028 16.7299 12.4615 16.8195 12.1807 16.9986C11.9 17.1729 11.6846 17.4101 11.5345 17.7102C11.3893 18.0103 11.3167 18.3467 11.3167 18.7195C11.3167 19.0922 11.3893 19.4286 11.5345 19.7287C11.6846 20.0289 11.9 20.2685 12.1807 20.4476C12.4615 20.6218 12.8028 20.709 13.2046 20.709ZM19.5981 21.3262C19.1188 21.3262 18.6856 21.2221 18.2983 21.0139C17.9159 20.801 17.6134 20.5008 17.3907 20.1136C17.168 19.7215 17.0567 19.2568 17.0567 18.7195C17.0567 18.1773 17.168 17.7126 17.3907 17.3253C17.6134 16.9381 17.9159 16.6404 18.2983 16.4322C18.6856 16.2192 19.1188 16.1127 19.5981 16.1127C19.9563 16.1127 20.2661 16.1563 20.5275 16.2434C20.7889 16.3306 21.0309 16.4371 21.2536 16.5629C21.302 16.5871 21.3383 16.621 21.3625 16.6646C21.3915 16.7033 21.4085 16.7566 21.4133 16.8243C21.4182 16.9018 21.394 16.9695 21.3407 17.0276C21.2875 17.0857 21.2148 17.1148 21.1229 17.1148C21.0745 17.1148 21.0309 17.1051 20.9922 17.0857C20.7985 16.9841 20.6001 16.9018 20.3968 16.8388C20.1935 16.7759 19.949 16.7445 19.6634 16.7445C19.2374 16.7445 18.8792 16.8316 18.5888 17.0059C18.2983 17.1801 18.0805 17.4173 17.9353 17.7174C17.7901 18.0127 17.7175 18.3467 17.7175 18.7195C17.7175 19.0922 17.7901 19.4286 17.9353 19.7287C18.0805 20.024 18.2983 20.2588 18.5888 20.4331C18.8792 20.6073 19.2374 20.6945 19.6634 20.6945C19.949 20.6945 20.1935 20.663 20.3968 20.6001C20.6001 20.5371 20.7985 20.4548 20.9922 20.3532C21.0309 20.3338 21.0745 20.3241 21.1229 20.3241C21.2148 20.3241 21.2875 20.3532 21.3407 20.4113C21.394 20.4694 21.4182 20.5371 21.4133 20.6146C21.4085 20.6824 21.3915 20.738 21.3625 20.7816C21.3383 20.8203 21.302 20.8518 21.2536 20.876C21.0309 21.0018 20.7889 21.1083 20.5275 21.1955C20.2661 21.2826 19.9563 21.3262 19.5981 21.3262Z" fill="white"/>
<path d="M5.09415 21.1592L5.22413 21.0292L5.09415 21.1592ZM5.09415 16.287L5.22422 16.4171L5.22886 16.4121L5.09415 16.287ZM7.91869 16.4104L7.84054 16.5768L7.84263 16.5778L7.91869 16.4104ZM8.71741 16.9986L8.57822 17.1187L8.57941 17.12L8.71741 16.9986ZM9.18937 17.8118L9.01525 17.8708L9.01613 17.8733L9.18937 17.8118ZM9.18937 19.6271L9.01611 19.5656L9.01526 19.5681L9.18937 19.6271ZM8.71741 20.4476L8.85541 20.569L8.85659 20.5677L8.71741 20.4476ZM7.91869 21.0357L7.99477 21.2031L7.99684 21.2021L7.91869 21.0357ZM5.66051 20.6364H5.47669V20.8202H5.66051V20.6364ZM7.75895 20.3968L7.84642 20.5584L7.84734 20.5579L7.75895 20.3968ZM8.44875 19.7215L8.28881 19.6308L8.28831 19.6317L8.44875 19.7215ZM8.44875 17.7247L8.28765 17.8133L8.28948 17.8165L8.44875 17.7247ZM7.75895 17.0494L7.66944 17.21L7.67258 17.2117L7.75895 17.0494ZM5.66051 16.8025V16.6187H5.47669V16.8025H5.66051ZM5.3265 21.2536V21.0697C5.28146 21.0697 5.25132 21.0564 5.22413 21.0292L5.09415 21.1592L4.96417 21.2891C5.06284 21.3878 5.1876 21.4374 5.3265 21.4374V21.2536ZM5.09415 21.1592L5.22413 21.0292C5.19695 21.002 5.18358 20.9719 5.18358 20.9268H4.99976H4.81594C4.81594 21.0657 4.8655 21.1905 4.96417 21.2891L5.09415 21.1592ZM4.99976 20.9268H5.18358V16.5194H4.99976H4.81594V20.9268H4.99976ZM4.99976 16.5194H5.18358C5.18358 16.4743 5.19695 16.4442 5.22413 16.417L5.09415 16.287L4.96417 16.157C4.8655 16.2557 4.81594 16.3805 4.81594 16.5194H4.99976ZM5.09415 16.287L5.22886 16.4121C5.25722 16.3815 5.28597 16.3692 5.3265 16.3692V16.1854V16.0015C5.1831 16.0015 5.05694 16.0569 4.95945 16.1619L5.09415 16.287ZM5.3265 16.1854V16.3692H6.78597V16.1854V16.0015H5.3265V16.1854ZM6.78597 16.1854V16.3692C7.2008 16.3692 7.55055 16.4406 7.84054 16.5768L7.91869 16.4104L7.99684 16.2441C7.64787 16.0802 7.24247 16.0015 6.78597 16.0015V16.1854ZM7.91869 16.4104L7.84263 16.5778C8.13978 16.7129 8.3839 16.8934 8.57822 17.1187L8.71741 16.9986L8.85659 16.8785C8.62493 16.61 8.33658 16.3985 7.99476 16.2431L7.91869 16.4104ZM8.71741 16.9986L8.57941 17.12C8.77664 17.3442 8.92154 17.5941 9.01526 17.8708L9.18937 17.8118L9.36348 17.7529C9.2539 17.4293 9.08415 17.1371 8.8554 16.8772L8.71741 16.9986ZM9.18937 17.8118L9.01613 17.8733C9.11594 18.1546 9.16529 18.4364 9.16529 18.7195H9.34912H9.53294C9.53294 18.3926 9.4758 18.0693 9.36261 17.7504L9.18937 17.8118ZM9.34912 18.7195H9.16529C9.16529 19.0026 9.11594 19.2843 9.01613 19.5656L9.18937 19.6271L9.36261 19.6886C9.4758 19.3696 9.53294 19.0463 9.53294 18.7195H9.34912ZM9.18937 19.6271L9.01526 19.5681C8.92143 19.8452 8.7762 20.098 8.57822 20.3275L8.71741 20.4476L8.85659 20.5677C9.08459 20.3034 9.25401 20.0093 9.36348 19.6861L9.18937 19.6271ZM8.71741 20.4476L8.57941 20.3261C8.38459 20.5475 8.13939 20.729 7.84054 20.8693L7.91869 21.0357L7.99684 21.2021C8.33697 21.0424 8.62424 20.8317 8.8554 20.569L8.71741 20.4476ZM7.91869 21.0357L7.84263 20.8684C7.55207 21.0004 7.20156 21.0697 6.78597 21.0697V21.2536V21.4374C7.24171 21.4374 7.64635 21.3614 7.99476 21.2031L7.91869 21.0357ZM6.78597 21.2536V21.0697H5.3265V21.2536V21.4374H6.78597V21.2536ZM5.66051 20.6364V20.8202H6.7061V20.6364V20.4525H5.66051V20.6364ZM6.7061 20.6364V20.8202C7.13686 20.8202 7.51915 20.7355 7.84642 20.5584L7.75895 20.3968L7.67148 20.2351C7.40818 20.3775 7.08858 20.4525 6.7061 20.4525V20.6364ZM7.75895 20.3968L7.84734 20.5579C8.17624 20.3776 8.43181 20.1283 8.60918 19.8112L8.44875 19.7215L8.28831 19.6317C8.1462 19.8858 7.9419 20.0868 7.67056 20.2356L7.75895 20.3968ZM8.44875 19.7215L8.60868 19.8121C8.79089 19.4906 8.87945 19.1246 8.87945 18.7195H8.69562H8.5118C8.5118 19.0695 8.43578 19.3715 8.28882 19.6309L8.44875 19.7215ZM8.69562 18.7195H8.87945C8.87945 18.3144 8.79091 17.9503 8.60802 17.6329L8.44875 17.7247L8.28948 17.8165C8.43576 18.0703 8.5118 18.3693 8.5118 18.7195H8.69562ZM8.44875 17.7247L8.60982 17.6361C8.4324 17.3135 8.17611 17.0632 7.84532 16.8871L7.75895 17.0494L7.67258 17.2117C7.94203 17.3551 8.14561 17.555 8.28768 17.8133L8.44875 17.7247ZM7.75895 17.0494L7.84845 16.8889C7.52075 16.7062 7.13771 16.6187 6.7061 16.6187V16.8025V16.9864C7.08773 16.9864 7.40658 17.0635 7.66945 17.21L7.75895 17.0494ZM6.7061 16.8025V16.6187H5.66051V16.8025V16.9864H6.7061V16.8025ZM5.66051 16.8025H5.47669V20.6364H5.66051H5.84434V16.8025H5.66051ZM11.8613 20.9922L11.9546 20.8338L11.8613 20.9922ZM10.9827 20.07L10.8203 20.1562H10.8203L10.9827 20.07ZM10.6559 18.7195L10.472 18.716L10.4721 18.723L10.6559 18.7195ZM10.9827 17.3689L11.145 17.4551L10.9827 17.3689ZM11.8613 16.4468L11.7679 16.2884L11.8613 16.4468ZM14.5478 16.4468L14.6412 16.2884L14.5478 16.4468ZM15.4264 17.3689L15.2641 17.4551L15.4264 17.3689ZM15.7532 18.7195L15.9371 18.723L15.937 18.716L15.7532 18.7195ZM15.4264 20.07L15.2641 19.9838L15.4264 20.07ZM14.5478 20.9922L14.4545 20.8338L14.5478 20.9922ZM14.2284 20.4476L14.3253 20.6038L14.3272 20.6026L14.2284 20.4476ZM14.8673 19.7287L14.7029 19.6465L14.7019 19.6487L14.8673 19.7287ZM14.8673 17.7102L14.7018 17.7902L14.7029 17.7924L14.8673 17.7102ZM14.2284 16.9986L14.1295 17.1536L14.1314 17.1548L14.2284 16.9986ZM12.1807 16.9986L12.2777 17.1548L12.2796 17.1536L12.1807 16.9986ZM11.5345 17.7102L11.3701 17.628L11.369 17.6301L11.5345 17.7102ZM11.5345 19.7287L11.369 19.8088L11.3701 19.8109L11.5345 19.7287ZM12.1807 20.4476L12.0819 20.6026L12.0838 20.6038L12.1807 20.4476ZM13.2046 21.3262V21.1423C12.7134 21.1423 12.2992 21.037 11.9546 20.8338L11.8613 20.9922L11.7679 21.1505C12.1785 21.3927 12.6598 21.51 13.2046 21.51V21.3262ZM11.8613 20.9922L11.9546 20.8338C11.6067 20.6286 11.3375 20.3464 11.145 19.9838L10.9827 20.07L10.8203 20.1562C11.0441 20.5778 11.3607 20.9104 11.7679 21.1505L11.8613 20.9922ZM10.9827 20.07L11.145 19.9838C10.9523 19.6207 10.8489 19.1996 10.8397 18.716L10.6559 18.7195L10.4721 18.723C10.4823 19.2559 10.5968 19.7351 10.8203 20.1562L10.9827 20.07ZM10.6559 18.7195L10.8397 18.723C10.8489 18.2393 10.9523 17.8182 11.145 17.4551L10.9827 17.3689L10.8203 17.2827C10.5968 17.7038 10.4823 18.183 10.4721 18.716L10.6559 18.7195ZM10.9827 17.3689L11.145 17.4551C11.3375 17.0926 11.6067 16.8103 11.9546 16.6051L11.8613 16.4468L11.7679 16.2884C11.3607 16.5285 11.0441 16.8611 10.8203 17.2827L10.9827 17.3689ZM11.8613 16.4468L11.9546 16.6051C12.2992 16.4019 12.7134 16.2966 13.2046 16.2966V16.1127V15.9289C12.6598 15.9289 12.1785 16.0462 11.7679 16.2884L11.8613 16.4468ZM13.2046 16.1127V16.2966C13.6957 16.2966 14.1099 16.4019 14.4545 16.6051L14.5478 16.4468L14.6412 16.2884C14.2306 16.0462 13.7493 15.9289 13.2046 15.9289V16.1127ZM14.5478 16.4468L14.4545 16.6051C14.8024 16.8103 15.0716 17.0926 15.2641 17.4551L15.4264 17.3689L15.5888 17.2827C15.365 16.8611 15.0484 16.5285 14.6412 16.2884L14.5478 16.4468ZM15.4264 17.3689L15.2641 17.4551C15.4568 17.8182 15.5602 18.2393 15.5694 18.723L15.7532 18.7195L15.937 18.716C15.9268 18.183 15.8123 17.7038 15.5888 17.2827L15.4264 17.3689ZM15.7532 18.7195L15.5694 18.716C15.5602 19.1996 15.4568 19.6207 15.2641 19.9838L15.4264 20.07L15.5888 20.1562C15.8123 19.7351 15.9268 19.2559 15.937 18.723L15.7532 18.7195ZM15.4264 20.07L15.2641 19.9838C15.0716 20.3464 14.8024 20.6286 14.4545 20.8338L14.5478 20.9922L14.6412 21.1505C15.0484 20.9104 15.365 20.5778 15.5888 20.1562L15.4264 20.07ZM14.5478 20.9922L14.4545 20.8338C14.1099 21.037 13.6957 21.1423 13.2046 21.1423V21.3262V21.51C13.7493 21.51 14.2306 21.3927 14.6412 21.1505L14.5478 20.9922ZM13.2046 20.709V20.8928C13.6332 20.8928 14.0097 20.7996 14.3253 20.6038L14.2284 20.4476L14.1314 20.2914C13.8855 20.444 13.5795 20.5252 13.2046 20.5252V20.709ZM14.2284 20.4476L14.3272 20.6026C14.6367 20.4051 14.8728 20.1395 15.0328 19.8088L14.8673 19.7287L14.7019 19.6487C14.5715 19.9182 14.3815 20.1318 14.1295 20.2926L14.2284 20.4476ZM14.8673 19.7287L15.0317 19.8109C15.1959 19.4826 15.2762 19.1175 15.2762 18.7195H15.0924H14.9086C14.9086 19.0669 14.8389 19.3747 14.7029 19.6465L14.8673 19.7287ZM15.0924 18.7195H15.2762C15.2762 18.3214 15.1959 17.9563 15.0317 17.628L14.8673 17.7102L14.7029 17.7924C14.8389 18.0643 14.9086 18.3721 14.9086 18.7195H15.0924ZM14.8673 17.7102L15.0328 17.6301C14.8726 17.2989 14.6359 17.0352 14.3253 16.8424L14.2284 16.9986L14.1314 17.1548C14.3823 17.3105 14.5717 17.5212 14.7019 17.7902L14.8673 17.7102ZM14.2284 16.9986L14.3272 16.8436C14.0113 16.6421 13.6341 16.5461 13.2046 16.5461V16.7299V16.9138C13.5786 16.9138 13.8839 16.9969 14.1295 17.1536L14.2284 16.9986ZM13.2046 16.7299V16.5461C12.775 16.5461 12.3978 16.6421 12.0819 16.8436L12.1807 16.9986L12.2796 17.1536C12.5252 16.9969 12.8305 16.9138 13.2046 16.9138V16.7299ZM12.1807 16.9986L12.0838 16.8424C11.7737 17.0349 11.5351 17.2979 11.3701 17.628L11.5345 17.7102L11.6989 17.7924C11.834 17.5222 12.0263 17.3108 12.2777 17.1548L12.1807 16.9986ZM11.5345 17.7102L11.369 17.6301C11.2104 17.958 11.1329 18.3223 11.1329 18.7195H11.3167H11.5005C11.5005 18.3712 11.5682 18.0626 11.7 17.7902L11.5345 17.7102ZM11.3167 18.7195H11.1329C11.1329 19.1166 11.2104 19.4809 11.369 19.8088L11.5345 19.7287L11.7 19.6487C11.5682 19.3763 11.5005 19.0678 11.5005 18.7195H11.3167ZM11.5345 19.7287L11.3701 19.8109C11.5349 20.1406 11.7729 20.4054 12.0819 20.6026L12.1807 20.4476L12.2796 20.2926C12.0271 20.1315 11.8342 19.9172 11.6989 19.6465L11.5345 19.7287ZM12.1807 20.4476L12.0838 20.6038C12.3994 20.7996 12.7759 20.8928 13.2046 20.8928V20.709V20.5252C12.8296 20.5252 12.5236 20.444 12.2777 20.2914L12.1807 20.4476ZM18.2983 21.0139L18.2089 21.1746L18.2113 21.1759L18.2983 21.0139ZM17.3907 20.1136L17.2309 20.2044L17.2313 20.2052L17.3907 20.1136ZM17.3907 17.3253L17.5501 17.417L17.3907 17.3253ZM18.2983 16.4322L18.3862 16.5937L18.3869 16.5933L18.2983 16.4322ZM20.5275 16.2434L20.5856 16.0691L20.5275 16.2434ZM21.2536 16.5629L21.163 16.7232L21.1714 16.7273L21.2536 16.5629ZM21.3625 16.6646L21.2018 16.7539L21.2079 16.7648L21.2154 16.7749L21.3625 16.6646ZM21.4133 16.8243L21.5968 16.8129L21.5967 16.8112L21.4133 16.8243ZM21.3407 17.0276L21.4762 17.1519V17.1518L21.3407 17.0276ZM20.9922 17.0857L20.9067 17.2485L20.91 17.2501L20.9922 17.0857ZM20.3968 16.8388L20.4511 16.6632L20.3968 16.8388ZM18.5888 17.0059L18.4942 16.8482L18.5888 17.0059ZM17.9353 17.7174L18.1002 17.7986L18.1008 17.7975L17.9353 17.7174ZM17.9353 19.7287L17.7698 19.8088L17.7703 19.8099L17.9353 19.7287ZM18.5888 20.4331L18.4942 20.5907L18.5888 20.4331ZM20.3968 20.6001L20.4511 20.7757L20.3968 20.6001ZM20.9922 20.3532L20.91 20.1887L20.9067 20.1904L20.9922 20.3532ZM21.3407 20.4113L21.4762 20.2871V20.2871L21.3407 20.4113ZM21.4133 20.6146L21.5967 20.6277L21.5968 20.6261L21.4133 20.6146ZM21.3625 20.7816L21.2095 20.6796L21.2066 20.6842L21.3625 20.7816ZM21.2536 20.876L21.1713 20.7114L21.1631 20.716L21.2536 20.876ZM20.5275 21.1955L20.5856 21.3699L20.5275 21.1955ZM19.5981 21.3262V21.1423C19.1464 21.1423 18.7435 21.0445 18.3854 20.852L18.2983 21.0139L18.2113 21.1759C18.6277 21.3997 19.0913 21.51 19.5981 21.51V21.3262ZM18.2983 21.0139L18.3878 20.8533C18.0351 20.6569 17.7565 20.3809 17.5501 20.0219L17.3907 20.1136L17.2313 20.2052C17.4703 20.6207 17.7967 20.945 18.2089 21.1745L18.2983 21.0139ZM17.3907 20.1136L17.5506 20.0228C17.3464 19.6632 17.2405 19.2311 17.2405 18.7195H17.0567H16.8729C16.8729 19.2825 16.9897 19.7797 17.2309 20.2044L17.3907 20.1136ZM17.0567 18.7195H17.2405C17.2405 18.2026 17.3465 17.771 17.5501 17.417L17.3907 17.3253L17.2313 17.2337C16.9895 17.6542 16.8729 18.152 16.8729 18.7195H17.0567ZM17.3907 17.3253L17.5501 17.417C17.7563 17.0583 18.0344 16.7852 18.3862 16.5937L18.2983 16.4322L18.2105 16.2708C17.7974 16.4956 17.4705 16.8178 17.2313 17.2337L17.3907 17.3253ZM18.2983 16.4322L18.3869 16.5933C18.7448 16.3965 19.1471 16.2966 19.5981 16.2966V16.1127V15.9289C19.0905 15.9289 18.6264 16.042 18.2097 16.2712L18.2983 16.4322ZM19.5981 16.1127V16.2966C19.9421 16.2966 20.2313 16.3385 20.4693 16.4178L20.5275 16.2434L20.5856 16.0691C20.3008 15.9741 19.9704 15.9289 19.5981 15.9289V16.1127ZM20.5275 16.2434L20.4693 16.4178C20.7204 16.5015 20.9515 16.6033 21.1631 16.723L21.2536 16.5629L21.344 16.4029C21.1103 16.2708 20.8574 16.1596 20.5856 16.0691L20.5275 16.2434ZM21.2536 16.5629L21.1714 16.7273C21.1896 16.7365 21.1971 16.7455 21.2018 16.7539L21.3625 16.6646L21.5232 16.5753C21.4794 16.4966 21.4143 16.4378 21.3358 16.3985L21.2536 16.5629ZM21.3625 16.6646L21.2154 16.7749C21.2164 16.7761 21.2267 16.7912 21.23 16.8374L21.4133 16.8243L21.5967 16.8112C21.5903 16.7219 21.5667 16.6305 21.5095 16.5543L21.3625 16.6646ZM21.4133 16.8243L21.2299 16.8358C21.2315 16.8625 21.2253 16.8815 21.2052 16.9034L21.3407 17.0276L21.4762 17.1518C21.5626 17.0576 21.6048 16.941 21.5968 16.8129L21.4133 16.8243ZM21.3407 17.0276L21.2052 16.9034C21.1927 16.9171 21.1728 16.9309 21.1229 16.9309V17.1148V17.2986C21.2569 17.2986 21.3822 17.2544 21.4762 17.1519L21.3407 17.0276ZM21.1229 17.1148V16.9309C21.0996 16.9309 21.0847 16.9265 21.0744 16.9213L20.9922 17.0857L20.91 17.2501C20.9771 17.2837 21.0493 17.2986 21.1229 17.2986V17.1148ZM20.9922 17.0857L21.0776 16.923C20.8743 16.8162 20.6655 16.7296 20.4511 16.6632L20.3968 16.8388L20.3424 17.0145C20.5347 17.074 20.7228 17.1519 20.9067 17.2485L20.9922 17.0857ZM20.3968 16.8388L20.4511 16.6632C20.2254 16.5934 19.9616 16.5606 19.6634 16.5606V16.7445V16.9283C19.9365 16.9283 20.1616 16.9585 20.3424 17.0145L20.3968 16.8388ZM19.6634 16.7445V16.5606C19.2126 16.5606 18.8197 16.6529 18.4942 16.8482L18.5888 17.0059L18.6834 17.1635C18.9387 17.0103 19.2622 16.9283 19.6634 16.9283V16.7445ZM18.5888 17.0059L18.4942 16.8482C18.1736 17.0406 17.9309 17.3045 17.7698 17.6374L17.9353 17.7174L18.1008 17.7975C18.2301 17.5301 18.4231 17.3197 18.6834 17.1635L18.5888 17.0059ZM17.9353 17.7174L17.7703 17.6363C17.6111 17.96 17.5336 18.3223 17.5336 18.7195H17.7175H17.9013C17.9013 18.3711 17.969 18.0654 18.1002 17.7986L17.9353 17.7174ZM17.7175 18.7195H17.5336C17.5336 19.1166 17.6112 19.4809 17.7698 19.8088L17.9353 19.7287L18.1008 19.6487C17.969 19.3763 17.9013 19.0678 17.9013 18.7195H17.7175ZM17.9353 19.7287L17.7703 19.8099C17.9316 20.1379 18.1744 20.3988 18.4942 20.5907L18.5888 20.4331L18.6834 20.2754C18.4223 20.1188 18.2294 19.9102 18.1002 19.6476L17.9353 19.7287ZM18.5888 20.4331L18.4942 20.5907C18.8197 20.786 19.2126 20.8783 19.6634 20.8783V20.6945V20.5106C19.2622 20.5106 18.9387 20.4287 18.6834 20.2754L18.5888 20.4331ZM19.6634 20.6945V20.8783C19.9616 20.8783 20.2254 20.8455 20.4511 20.7757L20.3968 20.6001L20.3424 20.4245C20.1616 20.4804 19.9365 20.5106 19.6634 20.5106V20.6945ZM20.3968 20.6001L20.4511 20.7757C20.6655 20.7093 20.8743 20.6227 21.0776 20.5159L20.9922 20.3532L20.9067 20.1904C20.7228 20.287 20.5347 20.3649 20.3424 20.4245L20.3968 20.6001ZM20.9922 20.3532L21.0744 20.5176C21.0847 20.5124 21.0996 20.508 21.1229 20.508V20.3241V20.1403C21.0493 20.1403 20.9771 20.1552 20.91 20.1888L20.9922 20.3532ZM21.1229 20.3241V20.508C21.1728 20.508 21.1927 20.5218 21.2052 20.5355L21.3407 20.4113L21.4762 20.2871C21.3822 20.1846 21.2569 20.1403 21.1229 20.1403V20.3241ZM21.3407 20.4113L21.2052 20.5355C21.2253 20.5574 21.2315 20.5764 21.2299 20.6031L21.4133 20.6146L21.5968 20.6261C21.6048 20.4979 21.5626 20.3813 21.4762 20.2871L21.3407 20.4113ZM21.4133 20.6146L21.23 20.6015C21.2267 20.6467 21.2164 20.6693 21.2095 20.6796L21.3625 20.7816L21.5154 20.8836C21.5666 20.8068 21.5902 20.718 21.5967 20.6277L21.4133 20.6146ZM21.3625 20.7816L21.2066 20.6842C21.2034 20.6893 21.1952 20.6997 21.1714 20.7116L21.2536 20.876L21.3358 21.0404C21.4088 21.0039 21.4732 20.9514 21.5184 20.879L21.3625 20.7816ZM21.2536 20.876L21.1631 20.716C20.9515 20.8356 20.7204 20.9374 20.4693 21.0211L20.5275 21.1955L20.5856 21.3699C20.8574 21.2793 21.1103 21.1681 21.344 21.036L21.2536 20.876ZM20.5275 21.1955L20.4693 21.0211C20.2313 21.1004 19.9421 21.1423 19.5981 21.1423V21.3262V21.51C19.9704 21.51 20.3008 21.4648 20.5856 21.3699L20.5275 21.1955Z" fill="white" mask="url(#path-4-outside-1_18338_88774)"/>
<g filter="url(#filter1_d_18338_88774)">
<path d="M25 10.3013H17.6471C16.5303 10.3013 15.625 9.39604 15.625 8.27929V0.926346L25 10.3013Z" fill="url(#paint2_linear_18338_88774)"/>
</g>
</g>
<defs>
<filter id="filter0_f_18338_88774" x="0.827307" y="11.0366" width="23.5295" height="14.8897" filterUnits="userSpaceOnUse" color-interpolation-filters="sRGB">
<feFlood flood-opacity="0" result="BackgroundImageFix"/>
<feBlend mode="normal" in="SourceGraphic" in2="BackgroundImageFix" result="shape"/>
<feGaussianBlur stdDeviation="1.79228" result="effect1_foregroundBlur_18338_88774"/>
</filter>
<filter id="filter1_d_18338_88774" x="13.511" y="-1.27954" width="13.9706" height="13.9706" filterUnits="userSpaceOnUse" color-interpolation-filters="sRGB">
<feFlood flood-opacity="0" result="BackgroundImageFix"/>
<feColorMatrix in="SourceAlpha" type="matrix" values="0 0 0 0 0 0 0 0 0 0 0 0 0 0 0 0 0 0 127 0" result="hardAlpha"/>
<feOffset dx="0.183824" dy="0.0919118"/>
<feGaussianBlur stdDeviation="1.1489"/>
<feColorMatrix type="matrix" values="0 0 0 0 0 0 0 0 0 0 0 0 0 0 0 0 0 0 0.33 0"/>
<feBlend mode="normal" in2="BackgroundImageFix" result="effect1_dropShadow_18338_88774"/>
<feBlend mode="normal" in="SourceGraphic" in2="effect1_dropShadow_18338_88774" result="shape"/>
</filter>
<linearGradient id="paint0_linear_18338_88774" x1="12.5" y1="0.926468" x2="12.5" y2="29.2353" gradientUnits="userSpaceOnUse">
<stop stop-color="#FF7979"/>
<stop offset="1" stop-color="#E85555"/>
</linearGradient>
<linearGradient id="paint1_linear_18338_88774" x1="12.5" y1="0.926468" x2="12.5" y2="29.2353" gradientUnits="userSpaceOnUse">
<stop stop-color="#6ABDF8"/>
<stop offset="1" stop-color="#008BD6"/>
</linearGradient>
<linearGradient id="paint2_linear_18338_88774" x1="20.3125" y1="0.926346" x2="20.3125" y2="10.3013" gradientUnits="userSpaceOnUse">
<stop stop-color="#009FE3"/>
<stop offset="1" stop-color="#0087C1"/>
</linearGradient>
</defs>
</svg>
