<svg width="25" height="29" viewBox="0 0 25 29" fill="none" xmlns="http://www.w3.org/2000/svg">
<mask id="mask0_18338_88790" style="mask-type:alpha" maskUnits="userSpaceOnUse" x="0" y="0" width="25" height="29">
<path d="M22.9779 28.6176H2.02206C0.905307 28.6176 0 27.7123 0 26.5956V2.33088C0 1.21413 0.905307 0.308823 2.02206 0.308823H15.625L25 9.68382V26.5956C25 27.7123 24.0947 28.6176 22.9779 28.6176Z" fill="url(#paint0_linear_18338_88790)"/>
</mask>
<g mask="url(#mask0_18338_88790)">
<path d="M22.9779 28.6176H2.02206C0.905307 28.6176 0 27.7123 0 26.5956V2.33088C0 1.21413 0.905307 0.308823 2.02206 0.308823H15.625L25 9.68382V26.5956C25 27.7123 24.0947 28.6176 22.9779 28.6176Z" fill="url(#paint1_linear_18338_88790)"/>
<g filter="url(#filter0_f_18338_88790)">
<rect x="4.31982" y="14.0036" width="16.3603" height="7.72059" fill="#3F3F46" fill-opacity="0.07" style="mix-blend-mode:darken"/>
</g>
<mask id="path-4-outside-1_18338_88790" maskUnits="userSpaceOnUse" x="5" y="14.6359" width="16" height="7" fill="black">
<rect fill="white" x="5" y="14.6359" width="16" height="7"/>
<path d="M6.14831 20.6722C6.05634 20.6722 5.97889 20.6408 5.91596 20.5778C5.85303 20.5149 5.82157 20.4374 5.82157 20.3455V15.9017C5.82157 15.8097 5.85303 15.7323 5.91596 15.6694C5.97889 15.6016 6.05634 15.5677 6.14831 15.5677H7.80383C8.17172 15.5677 8.4791 15.6161 8.72598 15.7129C8.97769 15.8049 9.17616 15.9308 9.32138 16.0905C9.47144 16.2454 9.57794 16.4173 9.64087 16.606C9.70864 16.7948 9.74252 16.986 9.74252 17.1797C9.74252 17.3733 9.70864 17.5645 9.64087 17.7533C9.57794 17.9421 9.47144 18.1163 9.32138 18.2761C9.17616 18.431 8.97769 18.5568 8.72598 18.6536C8.4791 18.7456 8.17172 18.7916 7.80383 18.7916H6.48232V20.3455C6.48232 20.4374 6.44843 20.5149 6.38066 20.5778C6.31774 20.6408 6.24028 20.6722 6.14831 20.6722ZM6.48232 18.1672H7.73848C8.10153 18.1672 8.37987 18.1188 8.5735 18.0219C8.76712 17.9203 8.90024 17.7944 8.97285 17.6444C9.04546 17.4895 9.08177 17.3346 9.08177 17.1797C9.08177 17.0199 9.04546 16.865 8.97285 16.715C8.90024 16.5649 8.76712 16.4415 8.5735 16.3446C8.37987 16.243 8.10153 16.1922 7.73848 16.1922H6.48232V18.1672ZM11.5351 20.6359C11.4431 20.6359 11.3657 20.6044 11.3027 20.5415C11.2398 20.4786 11.2083 20.4011 11.2083 20.3092V15.9017C11.2083 15.8097 11.2398 15.7323 11.3027 15.6694C11.3657 15.6016 11.4431 15.5677 11.5351 15.5677H12.9946C13.4302 15.5677 13.8078 15.6427 14.1273 15.7928C14.4468 15.938 14.713 16.1341 14.926 16.3809C15.139 16.623 15.2963 16.8941 15.398 17.1942C15.5045 17.4943 15.5577 17.7968 15.5577 18.1018C15.5577 18.4068 15.5045 18.7093 15.398 19.0094C15.2963 19.3096 15.139 19.5831 14.926 19.8299C14.713 20.072 14.4468 20.268 14.1273 20.4181C13.8078 20.5633 13.4302 20.6359 12.9946 20.6359H11.5351ZM11.8691 20.0187H12.9147C13.3213 20.0187 13.6723 19.9389 13.9675 19.7791C14.2677 19.6145 14.4976 19.3894 14.6573 19.1038C14.8219 18.8134 14.9042 18.4794 14.9042 18.1018C14.9042 17.7242 14.8219 17.3927 14.6573 17.107C14.4976 16.8166 14.2677 16.5915 13.9675 16.4318C13.6723 16.2672 13.3213 16.1849 12.9147 16.1849H11.8691V20.0187ZM17.4962 20.6722C17.4042 20.6722 17.3268 20.6408 17.2639 20.5778C17.2009 20.5149 17.1695 20.4374 17.1695 20.3455V15.9017C17.1695 15.8097 17.2009 15.7323 17.2639 15.6694C17.3268 15.6016 17.4042 15.5677 17.4962 15.5677H20.3208C20.4079 15.5677 20.4805 15.5992 20.5386 15.6621C20.6015 15.7202 20.633 15.7928 20.633 15.8799C20.633 15.9671 20.6015 16.0397 20.5386 16.0978C20.4805 16.1559 20.4079 16.1849 20.3208 16.1849H17.8302V17.7896H20.0666C20.1538 17.7896 20.2264 17.8211 20.2845 17.884C20.3474 17.9421 20.3789 18.0147 20.3789 18.1018C20.3789 18.1889 20.3474 18.2616 20.2845 18.3196C20.2264 18.3777 20.1538 18.4068 20.0666 18.4068H17.8302V20.3455C17.8302 20.4374 17.7963 20.5149 17.7286 20.5778C17.6656 20.6408 17.5882 20.6722 17.4962 20.6722Z"/>
</mask>
<path d="M6.14831 20.6722C6.05634 20.6722 5.97889 20.6408 5.91596 20.5778C5.85303 20.5149 5.82157 20.4374 5.82157 20.3455V15.9017C5.82157 15.8097 5.85303 15.7323 5.91596 15.6694C5.97889 15.6016 6.05634 15.5677 6.14831 15.5677H7.80383C8.17172 15.5677 8.4791 15.6161 8.72598 15.7129C8.97769 15.8049 9.17616 15.9308 9.32138 16.0905C9.47144 16.2454 9.57794 16.4173 9.64087 16.606C9.70864 16.7948 9.74252 16.986 9.74252 17.1797C9.74252 17.3733 9.70864 17.5645 9.64087 17.7533C9.57794 17.9421 9.47144 18.1163 9.32138 18.2761C9.17616 18.431 8.97769 18.5568 8.72598 18.6536C8.4791 18.7456 8.17172 18.7916 7.80383 18.7916H6.48232V20.3455C6.48232 20.4374 6.44843 20.5149 6.38066 20.5778C6.31774 20.6408 6.24028 20.6722 6.14831 20.6722ZM6.48232 18.1672H7.73848C8.10153 18.1672 8.37987 18.1188 8.5735 18.0219C8.76712 17.9203 8.90024 17.7944 8.97285 17.6444C9.04546 17.4895 9.08177 17.3346 9.08177 17.1797C9.08177 17.0199 9.04546 16.865 8.97285 16.715C8.90024 16.5649 8.76712 16.4415 8.5735 16.3446C8.37987 16.243 8.10153 16.1922 7.73848 16.1922H6.48232V18.1672ZM11.5351 20.6359C11.4431 20.6359 11.3657 20.6044 11.3027 20.5415C11.2398 20.4786 11.2083 20.4011 11.2083 20.3092V15.9017C11.2083 15.8097 11.2398 15.7323 11.3027 15.6694C11.3657 15.6016 11.4431 15.5677 11.5351 15.5677H12.9946C13.4302 15.5677 13.8078 15.6427 14.1273 15.7928C14.4468 15.938 14.713 16.1341 14.926 16.3809C15.139 16.623 15.2963 16.8941 15.398 17.1942C15.5045 17.4943 15.5577 17.7968 15.5577 18.1018C15.5577 18.4068 15.5045 18.7093 15.398 19.0094C15.2963 19.3096 15.139 19.5831 14.926 19.8299C14.713 20.072 14.4468 20.268 14.1273 20.4181C13.8078 20.5633 13.4302 20.6359 12.9946 20.6359H11.5351ZM11.8691 20.0187H12.9147C13.3213 20.0187 13.6723 19.9389 13.9675 19.7791C14.2677 19.6145 14.4976 19.3894 14.6573 19.1038C14.8219 18.8134 14.9042 18.4794 14.9042 18.1018C14.9042 17.7242 14.8219 17.3927 14.6573 17.107C14.4976 16.8166 14.2677 16.5915 13.9675 16.4318C13.6723 16.2672 13.3213 16.1849 12.9147 16.1849H11.8691V20.0187ZM17.4962 20.6722C17.4042 20.6722 17.3268 20.6408 17.2639 20.5778C17.2009 20.5149 17.1695 20.4374 17.1695 20.3455V15.9017C17.1695 15.8097 17.2009 15.7323 17.2639 15.6694C17.3268 15.6016 17.4042 15.5677 17.4962 15.5677H20.3208C20.4079 15.5677 20.4805 15.5992 20.5386 15.6621C20.6015 15.7202 20.633 15.7928 20.633 15.8799C20.633 15.9671 20.6015 16.0397 20.5386 16.0978C20.4805 16.1559 20.4079 16.1849 20.3208 16.1849H17.8302V17.7896H20.0666C20.1538 17.7896 20.2264 17.8211 20.2845 17.884C20.3474 17.9421 20.3789 18.0147 20.3789 18.1018C20.3789 18.1889 20.3474 18.2616 20.2845 18.3196C20.2264 18.3777 20.1538 18.4068 20.0666 18.4068H17.8302V20.3455C17.8302 20.4374 17.7963 20.5149 17.7286 20.5778C17.6656 20.6408 17.5882 20.6722 17.4962 20.6722Z" fill="white"/>
<path d="M5.91596 20.5778L6.04594 20.4478L5.91596 20.5778ZM5.91596 15.6694L6.04603 15.7994L6.05066 15.7944L5.91596 15.6694ZM8.72598 15.7129L8.65885 15.8841L8.66289 15.8856L8.72598 15.7129ZM9.32138 16.0905L9.18529 16.2142L9.18935 16.2184L9.32138 16.0905ZM9.64087 16.606L9.46643 16.6642L9.46785 16.6681L9.64087 16.606ZM9.64087 17.7533L9.46781 17.6912L9.46648 17.6952L9.64087 17.7533ZM9.32138 18.2761L9.1874 18.1502L9.18728 18.1504L9.32138 18.2761ZM8.72598 18.6536L8.79015 18.8259L8.79197 18.8252L8.72598 18.6536ZM6.48232 18.7916V18.6078H6.2985V18.7916H6.48232ZM6.38066 20.5778L6.2555 20.443L6.25068 20.4478L6.38066 20.5778ZM6.48232 18.1672H6.2985V18.351H6.48232V18.1672ZM8.5735 18.0219L8.65572 18.1864L8.65894 18.1847L8.5735 18.0219ZM8.97285 17.6444L9.13833 17.7244L9.1393 17.7224L8.97285 17.6444ZM8.5735 16.3446L8.48803 16.5074L8.49129 16.5091L8.5735 16.3446ZM6.48232 16.1922V16.0083H6.2985V16.1922H6.48232ZM6.14831 20.6722V20.4884C6.10327 20.4884 6.07313 20.475 6.04594 20.4478L5.91596 20.5778L5.78598 20.7078C5.88465 20.8065 6.00941 20.856 6.14831 20.856V20.6722ZM5.91596 20.5778L6.04594 20.4478C6.01875 20.4207 6.00539 20.3905 6.00539 20.3455H5.82157H5.63774C5.63774 20.4844 5.6873 20.6091 5.78598 20.7078L5.91596 20.5778ZM5.82157 20.3455H6.00539V15.9017H5.82157H5.63774V20.3455H5.82157ZM5.82157 15.9017H6.00539C6.00539 15.8567 6.01875 15.8265 6.04594 15.7993L5.91596 15.6694L5.78598 15.5394C5.6873 15.6381 5.63774 15.7628 5.63774 15.9017H5.82157ZM5.91596 15.6694L6.05066 15.7944C6.07903 15.7639 6.10777 15.7515 6.14831 15.7515V15.5677V15.3839C6.0049 15.3839 5.87875 15.4393 5.78125 15.5443L5.91596 15.6694ZM6.14831 15.5677V15.7515H7.80383V15.5677V15.3839H6.14831V15.5677ZM7.80383 15.5677V15.7515C8.15702 15.7515 8.43991 15.7982 8.65887 15.8841L8.72598 15.7129L8.79309 15.5418C8.51829 15.434 8.18642 15.3839 7.80383 15.3839V15.5677ZM8.72598 15.7129L8.66289 15.8856C8.89331 15.9698 9.06439 16.0811 9.18536 16.2142L9.32138 16.0905L9.4574 15.9669C9.28793 15.7804 9.06207 15.64 8.78906 15.5403L8.72598 15.7129ZM9.32138 16.0905L9.18935 16.2184C9.32188 16.3552 9.41297 16.5037 9.46648 16.6642L9.64087 16.606L9.81526 16.5479C9.7429 16.3308 9.62101 16.1356 9.45341 15.9626L9.32138 16.0905ZM9.64087 16.606L9.46785 16.6681C9.52873 16.8377 9.5587 17.008 9.5587 17.1797H9.74252H9.92634C9.92634 16.9641 9.88854 16.7519 9.81388 16.5439L9.64087 16.606ZM9.74252 17.1797H9.5587C9.5587 17.3514 9.52873 17.5216 9.46785 17.6912L9.64087 17.7533L9.81388 17.8154C9.88854 17.6074 9.92634 17.3952 9.92634 17.1797H9.74252ZM9.64087 17.7533L9.46648 17.6952C9.41278 17.8562 9.32112 18.0079 9.1874 18.1502L9.32138 18.2761L9.45536 18.4019C9.62177 18.2248 9.7431 18.0279 9.81526 17.8114L9.64087 17.7533ZM9.32138 18.2761L9.18728 18.1504C9.06542 18.2803 8.89261 18.3926 8.65999 18.4821L8.72598 18.6536L8.79197 18.8252C9.06278 18.7211 9.2869 18.5816 9.45549 18.4018L9.32138 18.2761ZM8.72598 18.6536L8.6618 18.4814C8.44184 18.5633 8.15784 18.6078 7.80383 18.6078V18.7916V18.9754C8.18559 18.9754 8.51637 18.9279 8.79015 18.8259L8.72598 18.6536ZM7.80383 18.7916V18.6078H6.48232V18.7916V18.9754H7.80383V18.7916ZM6.48232 18.7916H6.2985V20.3455H6.48232H6.66614V18.7916H6.48232ZM6.48232 20.3455H6.2985C6.2985 20.386 6.28613 20.4148 6.25558 20.4431L6.38066 20.5778L6.50575 20.7125C6.61074 20.615 6.66614 20.4889 6.66614 20.3455H6.48232ZM6.38066 20.5778L6.25068 20.4478C6.22349 20.475 6.19335 20.4884 6.14831 20.4884V20.6722V20.856C6.28721 20.856 6.41198 20.8065 6.51065 20.7078L6.38066 20.5778ZM6.48232 18.1672V18.351H7.73848V18.1672V17.9833H6.48232V18.1672ZM7.73848 18.1672V18.351C8.11316 18.351 8.42482 18.3018 8.6557 18.1864L8.5735 18.0219L8.49129 17.8575C8.33491 17.9357 8.0899 17.9833 7.73848 17.9833V18.1672ZM8.5735 18.0219L8.65894 18.1847C8.87658 18.0704 9.04392 17.9195 9.13832 17.7244L8.97285 17.6444L8.80738 17.5643C8.75656 17.6693 8.65767 17.7701 8.48805 17.8592L8.5735 18.0219ZM8.97285 17.6444L9.1393 17.7224C9.22215 17.5456 9.26559 17.3642 9.26559 17.1797H9.08177H8.89794C8.89794 17.3049 8.86878 17.4333 8.80641 17.5663L8.97285 17.6444ZM9.08177 17.1797H9.26559C9.26559 16.991 9.22247 16.8088 9.13832 16.6349L8.97285 16.715L8.80738 16.795C8.86845 16.9212 8.89794 17.0489 8.89794 17.1797H9.08177ZM8.97285 16.715L9.13832 16.6349C9.04337 16.4387 8.87474 16.2897 8.6557 16.1802L8.5735 16.3446L8.49129 16.5091C8.65951 16.5932 8.75711 16.6911 8.80738 16.795L8.97285 16.715ZM8.5735 16.3446L8.65894 16.1819C8.427 16.0601 8.11397 16.0083 7.73848 16.0083V16.1922V16.376C8.08909 16.376 8.33273 16.4259 8.48805 16.5074L8.5735 16.3446ZM7.73848 16.1922V16.0083H6.48232V16.1922V16.376H7.73848V16.1922ZM6.48232 16.1922H6.2985V18.1672H6.48232H6.66614V16.1922H6.48232ZM11.3027 20.5415L11.4327 20.4115L11.3027 20.5415ZM11.3027 15.6694L11.4328 15.7994L11.4374 15.7944L11.3027 15.6694ZM14.1273 15.7928L14.0491 15.9592L14.0512 15.9601L14.1273 15.7928ZM14.926 16.3809L14.7868 16.501L14.788 16.5024L14.926 16.3809ZM15.398 17.1942L15.2238 17.2532L15.2247 17.2557L15.398 17.1942ZM15.398 19.0094L15.2247 18.948L15.2238 18.9505L15.398 19.0094ZM14.926 19.8299L15.064 19.9514L15.0652 19.95L14.926 19.8299ZM14.1273 20.4181L14.2033 20.5854L14.2054 20.5845L14.1273 20.4181ZM11.8691 20.0187H11.6853V20.2025H11.8691V20.0187ZM13.9675 19.7791L14.055 19.9408L14.0559 19.9403L13.9675 19.7791ZM14.6573 19.1038L14.4974 19.0132L14.4969 19.0141L14.6573 19.1038ZM14.6573 17.107L14.4962 17.1957L14.4981 17.1988L14.6573 17.107ZM13.9675 16.4318L13.878 16.5924L13.8812 16.594L13.9675 16.4318ZM11.8691 16.1849V16.0011H11.6853V16.1849H11.8691ZM11.5351 20.6359V20.4521C11.49 20.4521 11.4599 20.4387 11.4327 20.4115L11.3027 20.5415L11.1728 20.6715C11.2714 20.7702 11.3962 20.8197 11.5351 20.8197V20.6359ZM11.3027 20.5415L11.4327 20.4115C11.4055 20.3843 11.3922 20.3542 11.3922 20.3092H11.2083H11.0245C11.0245 20.4481 11.0741 20.5728 11.1728 20.6715L11.3027 20.5415ZM11.2083 20.3092H11.3922V15.9017H11.2083H11.0245V20.3092H11.2083ZM11.2083 15.9017H11.3922C11.3922 15.8567 11.4055 15.8265 11.4327 15.7993L11.3027 15.6694L11.1728 15.5394C11.0741 15.6381 11.0245 15.7628 11.0245 15.9017H11.2083ZM11.3027 15.6694L11.4374 15.7944C11.4658 15.7639 11.4946 15.7515 11.5351 15.7515V15.5677V15.3839C11.3917 15.3839 11.2655 15.4393 11.168 15.5443L11.3027 15.6694ZM11.5351 15.5677V15.7515H12.9946V15.5677V15.3839H11.5351V15.5677ZM12.9946 15.5677V15.7515C13.4094 15.7515 13.7591 15.823 14.0491 15.9592L14.1273 15.7928L14.2054 15.6264C13.8564 15.4625 13.451 15.3839 12.9946 15.3839V15.5677ZM14.1273 15.7928L14.0512 15.9601C14.3484 16.0952 14.5925 16.2758 14.7868 16.501L14.926 16.3809L15.0652 16.2609C14.8335 15.9924 14.5452 15.7808 14.2033 15.6255L14.1273 15.7928ZM14.926 16.3809L14.788 16.5024C14.9852 16.7265 15.1301 16.9764 15.2238 17.2532L15.398 17.1942L15.5721 17.1352C15.4625 16.8117 15.2927 16.5194 15.064 16.2595L14.926 16.3809ZM15.398 17.1942L15.2247 17.2557C15.3245 17.5369 15.3739 17.8187 15.3739 18.1018H15.5577H15.7415C15.7415 17.775 15.6844 17.4517 15.5712 17.1327L15.398 17.1942ZM15.5577 18.1018H15.3739C15.3739 18.3849 15.3245 18.6667 15.2247 18.948L15.398 19.0094L15.5712 19.0709C15.6844 18.7519 15.7415 18.4286 15.7415 18.1018H15.5577ZM15.398 19.0094L15.2238 18.9505C15.13 19.2275 14.9848 19.4804 14.7868 19.7099L14.926 19.8299L15.0652 19.95C15.2932 19.6857 15.4626 19.3916 15.5721 19.0684L15.398 19.0094ZM14.926 19.8299L14.788 19.7085C14.5932 19.9299 14.348 20.1113 14.0491 20.2517L14.1273 20.4181L14.2054 20.5845C14.5456 20.4247 14.8328 20.2141 15.064 19.9514L14.926 19.8299ZM14.1273 20.4181L14.0512 20.2507C13.7606 20.3828 13.4101 20.4521 12.9946 20.4521V20.6359V20.8197C13.4503 20.8197 13.8549 20.7438 14.2033 20.5854L14.1273 20.4181ZM12.9946 20.6359V20.4521H11.5351V20.6359V20.8197H12.9946V20.6359ZM11.8691 20.0187V20.2025H12.9147V20.0187V19.8349H11.8691V20.0187ZM12.9147 20.0187V20.2025C13.3454 20.2025 13.7277 20.1178 14.055 19.9408L13.9675 19.7791L13.8801 19.6174C13.6168 19.7599 13.2972 19.8349 12.9147 19.8349V20.0187ZM13.9675 19.7791L14.0559 19.9403C14.3848 19.7599 14.6404 19.5107 14.8178 19.1936L14.6573 19.1038L14.4969 19.0141C14.3548 19.2682 14.1505 19.4691 13.8791 19.6179L13.9675 19.7791ZM14.6573 19.1038L14.8173 19.1945C14.9995 18.8729 15.088 18.5069 15.088 18.1018H14.9042H14.7204C14.7204 18.4519 14.6444 18.7539 14.4974 19.0132L14.6573 19.1038ZM14.9042 18.1018H15.088C15.088 17.6968 14.9995 17.3326 14.8166 17.0153L14.6573 17.107L14.4981 17.1988C14.6443 17.4527 14.7204 17.7517 14.7204 18.1018H14.9042ZM14.6573 17.107L14.8184 17.0185C14.641 16.6959 14.3847 16.4456 14.0539 16.2695L13.9675 16.4318L13.8812 16.594C14.1506 16.7375 14.3542 16.9373 14.4963 17.1956L14.6573 17.107ZM13.9675 16.4318L14.057 16.2712C13.7293 16.0886 13.3463 16.0011 12.9147 16.0011V16.1849V16.3687C13.2963 16.3687 13.6152 16.4458 13.878 16.5923L13.9675 16.4318ZM12.9147 16.1849V16.0011H11.8691V16.1849V16.3687H12.9147V16.1849ZM11.8691 16.1849H11.6853V20.0187H11.8691H12.0529V16.1849H11.8691ZM17.2639 20.5778L17.3939 20.4478L17.2639 20.5778ZM17.2639 15.6694L17.3939 15.7994L17.3986 15.7944L17.2639 15.6694ZM20.5386 15.6621L20.4035 15.7868L20.4085 15.7922L20.4139 15.7972L20.5386 15.6621ZM20.5386 16.0978L20.4138 15.9626L20.4086 15.9678L20.5386 16.0978ZM17.8302 16.1849V16.0011H17.6464V16.1849H17.8302ZM17.8302 17.7896H17.6464V17.9734H17.8302V17.7896ZM20.2845 17.884L20.1494 18.0087L20.1544 18.0141L20.1598 18.0191L20.2845 17.884ZM20.2845 18.3196L20.1597 18.1845L20.1545 18.1897L20.2845 18.3196ZM17.8302 18.4068V18.223H17.6464V18.4068H17.8302ZM17.7286 20.5778L17.6034 20.443L17.5986 20.4478L17.7286 20.5778ZM17.4962 20.6722V20.4884C17.4512 20.4884 17.421 20.475 17.3939 20.4478L17.2639 20.5778L17.1339 20.7078C17.2326 20.8065 17.3573 20.856 17.4962 20.856V20.6722ZM17.2639 20.5778L17.3939 20.4478C17.3667 20.4207 17.3533 20.3905 17.3533 20.3455H17.1695H16.9857C16.9857 20.4844 17.0352 20.6091 17.1339 20.7078L17.2639 20.5778ZM17.1695 20.3455H17.3533V15.9017H17.1695H16.9857V20.3455H17.1695ZM17.1695 15.9017H17.3533C17.3533 15.8567 17.3667 15.8265 17.3939 15.7993L17.2639 15.6694L17.1339 15.5394C17.0352 15.6381 16.9857 15.7628 16.9857 15.9017H17.1695ZM17.2639 15.6694L17.3986 15.7944C17.4269 15.7639 17.4557 15.7515 17.4962 15.7515V15.5677V15.3839C17.3528 15.3839 17.2267 15.4393 17.1292 15.5443L17.2639 15.6694ZM17.4962 15.5677V15.7515H20.3208V15.5677V15.3839H17.4962V15.5677ZM20.3208 15.5677V15.7515C20.3576 15.7515 20.3809 15.7623 20.4035 15.7868L20.5386 15.6621L20.6737 15.5374C20.5801 15.4361 20.4582 15.3839 20.3208 15.3839V15.5677ZM20.5386 15.6621L20.4139 15.7972C20.4384 15.8198 20.4492 15.8431 20.4492 15.8799H20.633H20.8168C20.8168 15.7425 20.7646 15.6206 20.6633 15.527L20.5386 15.6621ZM20.633 15.8799H20.4492C20.4492 15.9168 20.4384 15.9401 20.4139 15.9627L20.5386 16.0978L20.6633 16.2328C20.7646 16.1393 20.8168 16.0174 20.8168 15.8799H20.633ZM20.5386 16.0978L20.4086 15.9678C20.3873 15.9891 20.3624 16.0011 20.3208 16.0011V16.1849V16.3687C20.4534 16.3687 20.5738 16.3226 20.6686 16.2277L20.5386 16.0978ZM20.3208 16.1849V16.0011H17.8302V16.1849V16.3687H20.3208V16.1849ZM17.8302 16.1849H17.6464V17.7896H17.8302H18.0141V16.1849H17.8302ZM17.8302 17.7896V17.9734H20.0666V17.7896V17.6058H17.8302V17.7896ZM20.0666 17.7896V17.9734C20.1035 17.9734 20.1268 17.9842 20.1494 18.0087L20.2845 17.884L20.4195 17.7593C20.326 17.6579 20.204 17.6058 20.0666 17.6058V17.7896ZM20.2845 17.884L20.1598 18.0191C20.1843 18.0417 20.195 18.065 20.195 18.1018H20.3789H20.5627C20.5627 17.9644 20.5105 17.8425 20.4091 17.7489L20.2845 17.884ZM20.3789 18.1018H20.195C20.195 18.1387 20.1843 18.162 20.1598 18.1846L20.2845 18.3196L20.4091 18.4547C20.5105 18.3611 20.5627 18.2392 20.5627 18.1018H20.3789ZM20.2845 18.3196L20.1545 18.1897C20.1331 18.211 20.1083 18.223 20.0666 18.223V18.4068V18.5906C20.1992 18.5906 20.3196 18.5444 20.4144 18.4496L20.2845 18.3196ZM20.0666 18.4068V18.223H17.8302V18.4068V18.5906H20.0666V18.4068ZM17.8302 18.4068H17.6464V20.3455H17.8302H18.0141V18.4068H17.8302ZM17.8302 20.3455H17.6464C17.6464 20.386 17.634 20.4148 17.6035 20.4431L17.7286 20.5778L17.8537 20.7125C17.9586 20.615 18.0141 20.4889 18.0141 20.3455H17.8302ZM17.7286 20.5778L17.5986 20.4478C17.5714 20.475 17.5413 20.4884 17.4962 20.4884V20.6722V20.856C17.6351 20.856 17.7599 20.8065 17.8586 20.7078L17.7286 20.5778Z" fill="white" mask="url(#path-4-outside-1_18338_88790)"/>
<g filter="url(#filter1_d_18338_88790)">
<path d="M25 9.68371H17.6471C16.5303 9.68371 15.625 8.7784 15.625 7.66165V0.308708L25 9.68371Z" fill="url(#paint2_linear_18338_88790)"/>
</g>
</g>
<defs>
<filter id="filter0_f_18338_88790" x="0.735265" y="10.419" width="23.5295" height="14.8897" filterUnits="userSpaceOnUse" color-interpolation-filters="sRGB">
<feFlood flood-opacity="0" result="BackgroundImageFix"/>
<feBlend mode="normal" in="SourceGraphic" in2="BackgroundImageFix" result="shape"/>
<feGaussianBlur stdDeviation="1.79228" result="effect1_foregroundBlur_18338_88790"/>
</filter>
<filter id="filter1_d_18338_88790" x="13.511" y="-1.89717" width="13.9706" height="13.9706" filterUnits="userSpaceOnUse" color-interpolation-filters="sRGB">
<feFlood flood-opacity="0" result="BackgroundImageFix"/>
<feColorMatrix in="SourceAlpha" type="matrix" values="0 0 0 0 0 0 0 0 0 0 0 0 0 0 0 0 0 0 127 0" result="hardAlpha"/>
<feOffset dx="0.183824" dy="0.0919118"/>
<feGaussianBlur stdDeviation="1.1489"/>
<feColorMatrix type="matrix" values="0 0 0 0 0 0 0 0 0 0 0 0 0 0 0 0 0 0 0.33 0"/>
<feBlend mode="normal" in2="BackgroundImageFix" result="effect1_dropShadow_18338_88790"/>
<feBlend mode="normal" in="SourceGraphic" in2="effect1_dropShadow_18338_88790" result="shape"/>
</filter>
<linearGradient id="paint0_linear_18338_88790" x1="12.5" y1="0.308823" x2="12.5" y2="28.6176" gradientUnits="userSpaceOnUse">
<stop stop-color="#FF7979"/>
<stop offset="1" stop-color="#E85555"/>
</linearGradient>
<linearGradient id="paint1_linear_18338_88790" x1="12.5" y1="0.308823" x2="12.5" y2="28.6176" gradientUnits="userSpaceOnUse">
<stop stop-color="#FF7981"/>
<stop offset="1" stop-color="#E85567"/>
</linearGradient>
<linearGradient id="paint2_linear_18338_88790" x1="20.3125" y1="0.308708" x2="20.3125" y2="9.68371" gradientUnits="userSpaceOnUse">
<stop stop-color="#D03954"/>
<stop offset="1" stop-color="#C02A3C"/>
</linearGradient>
</defs>
</svg>
