<svg width="20" height="20" viewBox="0 0 20 20" fill="none" xmlns="http://www.w3.org/2000/svg">
<path fill-rule="evenodd" clip-rule="evenodd" d="M2.93652 8.20388C2.93652 7.88525 3.19482 7.62695 3.51345 7.62695H15.853C16.1716 7.62695 16.4299 7.88525 16.4299 8.20388C16.4299 8.52252 16.1716 8.78083 15.853 8.78083H3.51345C3.19482 8.78083 2.93652 8.52252 2.93652 8.20388Z" fill="#403C44"/>
<path fill-rule="evenodd" clip-rule="evenodd" d="M2.93652 8.20388C2.93652 7.88525 3.19482 7.62695 3.51345 7.62695H15.853C16.1716 7.62695 16.4299 7.88525 16.4299 8.20388C16.4299 8.52252 16.1716 8.78083 15.853 8.78083H3.51345C3.19482 8.78083 2.93652 8.52252 2.93652 8.20388Z" fill="black" fill-opacity="0.2"/>
<path fill-rule="evenodd" clip-rule="evenodd" d="M2.93652 8.20388C2.93652 7.88525 3.19482 7.62695 3.51345 7.62695H15.853C16.1716 7.62695 16.4299 7.88525 16.4299 8.20388C16.4299 8.52252 16.1716 8.78083 15.853 8.78083H3.51345C3.19482 8.78083 2.93652 8.52252 2.93652 8.20388Z" fill="black" fill-opacity="0.2"/>
<path fill-rule="evenodd" clip-rule="evenodd" d="M12.4793 2.5C12.7979 2.5 13.0562 2.7583 13.0562 3.07692V5.35518C13.0562 5.67381 12.7979 5.93211 12.4793 5.93211C12.1606 5.93211 11.9023 5.67381 11.9023 5.35518V3.07692C11.9023 2.7583 12.1606 2.5 12.4793 2.5Z" fill="#403C44"/>
<path fill-rule="evenodd" clip-rule="evenodd" d="M12.4793 2.5C12.7979 2.5 13.0562 2.7583 13.0562 3.07692V5.35518C13.0562 5.67381 12.7979 5.93211 12.4793 5.93211C12.1606 5.93211 11.9023 5.67381 11.9023 5.35518V3.07692C11.9023 2.7583 12.1606 2.5 12.4793 2.5Z" fill="black" fill-opacity="0.2"/>
<path fill-rule="evenodd" clip-rule="evenodd" d="M12.4793 2.5C12.7979 2.5 13.0562 2.7583 13.0562 3.07692V5.35518C13.0562 5.67381 12.7979 5.93211 12.4793 5.93211C12.1606 5.93211 11.9023 5.67381 11.9023 5.35518V3.07692C11.9023 2.7583 12.1606 2.5 12.4793 2.5Z" fill="black" fill-opacity="0.2"/>
<path fill-rule="evenodd" clip-rule="evenodd" d="M6.88649 2.5C7.20512 2.5 7.46342 2.7583 7.46342 3.07692V5.35518C7.46342 5.67381 7.20512 5.93211 6.88649 5.93211C6.56786 5.93211 6.30957 5.67381 6.30957 5.35518V3.07692C6.30957 2.7583 6.56786 2.5 6.88649 2.5Z" fill="#403C44"/>
<path fill-rule="evenodd" clip-rule="evenodd" d="M6.88649 2.5C7.20512 2.5 7.46342 2.7583 7.46342 3.07692V5.35518C7.46342 5.67381 7.20512 5.93211 6.88649 5.93211C6.56786 5.93211 6.30957 5.67381 6.30957 5.35518V3.07692C6.30957 2.7583 6.56786 2.5 6.88649 2.5Z" fill="black" fill-opacity="0.2"/>
<path fill-rule="evenodd" clip-rule="evenodd" d="M6.88649 2.5C7.20512 2.5 7.46342 2.7583 7.46342 3.07692V5.35518C7.46342 5.67381 7.20512 5.93211 6.88649 5.93211C6.56786 5.93211 6.30957 5.67381 6.30957 5.35518V3.07692C6.30957 2.7583 6.56786 2.5 6.88649 2.5Z" fill="black" fill-opacity="0.2"/>
<path fill-rule="evenodd" clip-rule="evenodd" d="M3.94135 4.5789C4.64829 3.9069 5.63221 3.59375 6.75285 3.59375H12.6147C13.7378 3.59375 14.7223 3.90666 15.4282 4.57941C16.1384 5.25637 16.4917 6.22615 16.4884 7.38563C16.4884 7.38546 16.4884 7.3858 16.4884 7.38563V13.7028C16.4884 14.8625 16.1336 15.8331 15.4233 16.5112C14.7171 17.1854 13.7327 17.5003 12.6087 17.5003H6.75285C5.62875 17.5003 4.64359 17.1786 3.93732 16.4941C3.22818 15.8068 2.87305 14.8243 2.87305 13.6505V7.38449C2.87305 6.22436 3.22995 5.25513 3.94135 4.5789ZM4.73632 5.4152C4.30465 5.82551 4.02689 6.46319 4.02689 7.38449V13.6505C4.02689 14.591 4.30643 15.245 4.74035 15.6655C5.17715 16.0889 5.84342 16.3465 6.75285 16.3465H12.6087C13.5241 16.3465 14.1912 16.0921 14.6265 15.6766C15.0578 15.265 15.3346 14.6254 15.3346 13.7028V7.38449V7.38283C15.3373 6.46111 15.0618 5.82418 14.6321 5.41467C14.198 5.00088 13.531 4.7476 12.6147 4.7476H6.75285C5.83996 4.7476 5.17244 5.00063 4.73632 5.4152Z" fill="#403C44"/>
<path fill-rule="evenodd" clip-rule="evenodd" d="M3.94135 4.5789C4.64829 3.9069 5.63221 3.59375 6.75285 3.59375H12.6147C13.7378 3.59375 14.7223 3.90666 15.4282 4.57941C16.1384 5.25637 16.4917 6.22615 16.4884 7.38563C16.4884 7.38546 16.4884 7.3858 16.4884 7.38563V13.7028C16.4884 14.8625 16.1336 15.8331 15.4233 16.5112C14.7171 17.1854 13.7327 17.5003 12.6087 17.5003H6.75285C5.62875 17.5003 4.64359 17.1786 3.93732 16.4941C3.22818 15.8068 2.87305 14.8243 2.87305 13.6505V7.38449C2.87305 6.22436 3.22995 5.25513 3.94135 4.5789ZM4.73632 5.4152C4.30465 5.82551 4.02689 6.46319 4.02689 7.38449V13.6505C4.02689 14.591 4.30643 15.245 4.74035 15.6655C5.17715 16.0889 5.84342 16.3465 6.75285 16.3465H12.6087C13.5241 16.3465 14.1912 16.0921 14.6265 15.6766C15.0578 15.265 15.3346 14.6254 15.3346 13.7028V7.38449V7.38283C15.3373 6.46111 15.0618 5.82418 14.6321 5.41467C14.198 5.00088 13.531 4.7476 12.6147 4.7476H6.75285C5.83996 4.7476 5.17244 5.00063 4.73632 5.4152Z" fill="black" fill-opacity="0.2"/>
<path fill-rule="evenodd" clip-rule="evenodd" d="M3.94135 4.5789C4.64829 3.9069 5.63221 3.59375 6.75285 3.59375H12.6147C13.7378 3.59375 14.7223 3.90666 15.4282 4.57941C16.1384 5.25637 16.4917 6.22615 16.4884 7.38563C16.4884 7.38546 16.4884 7.3858 16.4884 7.38563V13.7028C16.4884 14.8625 16.1336 15.8331 15.4233 16.5112C14.7171 17.1854 13.7327 17.5003 12.6087 17.5003H6.75285C5.62875 17.5003 4.64359 17.1786 3.93732 16.4941C3.22818 15.8068 2.87305 14.8243 2.87305 13.6505V7.38449C2.87305 6.22436 3.22995 5.25513 3.94135 4.5789ZM4.73632 5.4152C4.30465 5.82551 4.02689 6.46319 4.02689 7.38449V13.6505C4.02689 14.591 4.30643 15.245 4.74035 15.6655C5.17715 16.0889 5.84342 16.3465 6.75285 16.3465H12.6087C13.5241 16.3465 14.1912 16.0921 14.6265 15.6766C15.0578 15.265 15.3346 14.6254 15.3346 13.7028V7.38449V7.38283C15.3373 6.46111 15.0618 5.82418 14.6321 5.41467C14.198 5.00088 13.531 4.7476 12.6147 4.7476H6.75285C5.83996 4.7476 5.17244 5.00063 4.73632 5.4152Z" fill="black" fill-opacity="0.2"/>
<path fill-rule="evenodd" clip-rule="evenodd" d="M8.81316 10.7446C9.09924 10.8849 9.21739 11.2306 9.07708 11.5166L7.97685 13.7598C7.83655 14.0458 7.4909 14.1639 7.20483 14.0236C6.91876 13.8833 6.80061 13.5377 6.94091 13.2516L8.04116 11.0085C8.18147 10.7225 8.52708 10.6043 8.81316 10.7446Z" fill="#403C44"/>
<path fill-rule="evenodd" clip-rule="evenodd" d="M8.81316 10.7446C9.09924 10.8849 9.21739 11.2306 9.07708 11.5166L7.97685 13.7598C7.83655 14.0458 7.4909 14.1639 7.20483 14.0236C6.91876 13.8833 6.80061 13.5377 6.94091 13.2516L8.04116 11.0085C8.18147 10.7225 8.52708 10.6043 8.81316 10.7446Z" fill="black" fill-opacity="0.2"/>
<path fill-rule="evenodd" clip-rule="evenodd" d="M8.81316 10.7446C9.09924 10.8849 9.21739 11.2306 9.07708 11.5166L7.97685 13.7598C7.83655 14.0458 7.4909 14.1639 7.20483 14.0236C6.91876 13.8833 6.80061 13.5377 6.94091 13.2516L8.04116 11.0085C8.18147 10.7225 8.52708 10.6043 8.81316 10.7446Z" fill="black" fill-opacity="0.2"/>
<path fill-rule="evenodd" clip-rule="evenodd" d="M11.9606 10.7446C12.2467 10.8849 12.3648 11.2306 12.2245 11.5166L11.1243 13.7598C10.984 14.0458 10.6384 14.1639 10.3523 14.0236C10.0662 13.8833 9.94807 13.5377 10.0884 13.2516L11.1886 11.0085C11.3289 10.7225 11.6745 10.6043 11.9606 10.7446Z" fill="#403C44"/>
<path fill-rule="evenodd" clip-rule="evenodd" d="M11.9606 10.7446C12.2467 10.8849 12.3648 11.2306 12.2245 11.5166L11.1243 13.7598C10.984 14.0458 10.6384 14.1639 10.3523 14.0236C10.0662 13.8833 9.94807 13.5377 10.0884 13.2516L11.1886 11.0085C11.3289 10.7225 11.6745 10.6043 11.9606 10.7446Z" fill="black" fill-opacity="0.2"/>
<path fill-rule="evenodd" clip-rule="evenodd" d="M11.9606 10.7446C12.2467 10.8849 12.3648 11.2306 12.2245 11.5166L11.1243 13.7598C10.984 14.0458 10.6384 14.1639 10.3523 14.0236C10.0662 13.8833 9.94807 13.5377 10.0884 13.2516L11.1886 11.0085C11.3289 10.7225 11.6745 10.6043 11.9606 10.7446Z" fill="black" fill-opacity="0.2"/>
</svg>
