<svg width="21" height="20" viewBox="0 0 21 20" fill="none" xmlns="http://www.w3.org/2000/svg">
<path d="M15.0527 18.1194C13.0819 18.1194 10.5186 16.5544 7.43194 13.4678C4.33194 10.3703 2.76528 7.80107 2.77694 5.82523C2.76868 5.40609 2.84938 4.98995 3.01371 4.60427C3.17803 4.21859 3.42224 3.87213 3.73026 3.58773C3.75368 3.56096 3.77843 3.53537 3.80442 3.51107C4.94108 2.3744 5.72108 1.92773 6.47608 1.92773C7.36942 1.9394 7.99944 2.6019 8.79694 3.44107C8.99194 3.6469 9.20441 3.87023 9.44024 4.10773C9.84774 4.47719 10.1164 4.97508 10.2015 5.51851C10.2865 6.06193 10.1829 6.6181 9.90774 7.0944C9.56608 7.96773 9.27108 8.72194 10.7269 10.1778C12.1827 11.6336 12.9394 11.3378 13.8102 10.9953C14.2862 10.7195 14.8423 10.6153 15.3858 10.6999C15.9292 10.7845 16.4273 11.0529 16.7969 11.4603C17.0311 11.6936 17.2511 11.9044 17.4552 12.0978C18.2969 12.8986 18.9619 13.5319 18.9736 14.4311C18.9836 15.1928 18.5244 15.9653 17.3902 17.0978L17.3136 17.1728C17.0288 17.4808 16.6821 17.725 16.2962 17.8895C15.9102 18.0539 15.4938 18.1349 15.0744 18.1269L15.0527 18.1194ZM4.69192 4.39107C4.69192 4.39107 4.65444 4.4319 4.60861 4.48107C4.41988 4.65068 4.27043 4.85941 4.17068 5.09272C4.07094 5.32603 4.02333 5.57829 4.03112 5.8319C4.02528 6.95023 4.76443 9.03028 8.32026 12.5819C11.8586 16.1203 13.9344 16.8669 15.0569 16.8669H15.0702C15.3241 16.8762 15.5768 16.8292 15.8103 16.7294C16.0439 16.6295 16.2524 16.4793 16.4211 16.2894C16.465 16.2429 16.5114 16.1989 16.5602 16.1578C17.3327 15.3803 17.7311 14.8019 17.7269 14.4361C17.7227 14.0703 17.2502 13.6178 16.5961 12.9953C16.3861 12.7953 16.1577 12.5786 15.9169 12.3369C15.3194 11.7403 14.9919 11.8686 14.2694 12.1519C13.2619 12.5478 11.8836 13.0886 9.85274 11.0544C7.81858 9.02028 8.35859 7.63773 8.75193 6.6319C9.03358 5.91107 9.16358 5.5819 8.56608 4.9844C8.32191 4.74023 8.10192 4.5094 7.89942 4.2969C7.28108 3.6469 6.83524 3.1769 6.46774 3.1719H6.46108C6.09524 3.1719 5.51776 3.57107 4.69609 4.3919L4.69192 4.39107Z" fill="#403C44"/>
<path d="M15.0527 18.1194C13.0819 18.1194 10.5186 16.5544 7.43194 13.4678C4.33194 10.3703 2.76528 7.80107 2.77694 5.82523C2.76868 5.40609 2.84938 4.98995 3.01371 4.60427C3.17803 4.21859 3.42224 3.87213 3.73026 3.58773C3.75368 3.56096 3.77843 3.53537 3.80442 3.51107C4.94108 2.3744 5.72108 1.92773 6.47608 1.92773C7.36942 1.9394 7.99944 2.6019 8.79694 3.44107C8.99194 3.6469 9.20441 3.87023 9.44024 4.10773C9.84774 4.47719 10.1164 4.97508 10.2015 5.51851C10.2865 6.06193 10.1829 6.6181 9.90774 7.0944C9.56608 7.96773 9.27108 8.72194 10.7269 10.1778C12.1827 11.6336 12.9394 11.3378 13.8102 10.9953C14.2862 10.7195 14.8423 10.6153 15.3858 10.6999C15.9292 10.7845 16.4273 11.0529 16.7969 11.4603C17.0311 11.6936 17.2511 11.9044 17.4552 12.0978C18.2969 12.8986 18.9619 13.5319 18.9736 14.4311C18.9836 15.1928 18.5244 15.9653 17.3902 17.0978L17.3136 17.1728C17.0288 17.4808 16.6821 17.725 16.2962 17.8895C15.9102 18.0539 15.4938 18.1349 15.0744 18.1269L15.0527 18.1194ZM4.69192 4.39107C4.69192 4.39107 4.65444 4.4319 4.60861 4.48107C4.41988 4.65068 4.27043 4.85941 4.17068 5.09272C4.07094 5.32603 4.02333 5.57829 4.03112 5.8319C4.02528 6.95023 4.76443 9.03028 8.32026 12.5819C11.8586 16.1203 13.9344 16.8669 15.0569 16.8669H15.0702C15.3241 16.8762 15.5768 16.8292 15.8103 16.7294C16.0439 16.6295 16.2524 16.4793 16.4211 16.2894C16.465 16.2429 16.5114 16.1989 16.5602 16.1578C17.3327 15.3803 17.7311 14.8019 17.7269 14.4361C17.7227 14.0703 17.2502 13.6178 16.5961 12.9953C16.3861 12.7953 16.1577 12.5786 15.9169 12.3369C15.3194 11.7403 14.9919 11.8686 14.2694 12.1519C13.2619 12.5478 11.8836 13.0886 9.85274 11.0544C7.81858 9.02028 8.35859 7.63773 8.75193 6.6319C9.03358 5.91107 9.16358 5.5819 8.56608 4.9844C8.32191 4.74023 8.10192 4.5094 7.89942 4.2969C7.28108 3.6469 6.83524 3.1769 6.46774 3.1719H6.46108C6.09524 3.1719 5.51776 3.57107 4.69609 4.3919L4.69192 4.39107Z" fill="black" fill-opacity="0.2"/>
<path d="M15.0527 18.1194C13.0819 18.1194 10.5186 16.5544 7.43194 13.4678C4.33194 10.3703 2.76528 7.80107 2.77694 5.82523C2.76868 5.40609 2.84938 4.98995 3.01371 4.60427C3.17803 4.21859 3.42224 3.87213 3.73026 3.58773C3.75368 3.56096 3.77843 3.53537 3.80442 3.51107C4.94108 2.3744 5.72108 1.92773 6.47608 1.92773C7.36942 1.9394 7.99944 2.6019 8.79694 3.44107C8.99194 3.6469 9.20441 3.87023 9.44024 4.10773C9.84774 4.47719 10.1164 4.97508 10.2015 5.51851C10.2865 6.06193 10.1829 6.6181 9.90774 7.0944C9.56608 7.96773 9.27108 8.72194 10.7269 10.1778C12.1827 11.6336 12.9394 11.3378 13.8102 10.9953C14.2862 10.7195 14.8423 10.6153 15.3858 10.6999C15.9292 10.7845 16.4273 11.0529 16.7969 11.4603C17.0311 11.6936 17.2511 11.9044 17.4552 12.0978C18.2969 12.8986 18.9619 13.5319 18.9736 14.4311C18.9836 15.1928 18.5244 15.9653 17.3902 17.0978L17.3136 17.1728C17.0288 17.4808 16.6821 17.725 16.2962 17.8895C15.9102 18.0539 15.4938 18.1349 15.0744 18.1269L15.0527 18.1194ZM4.69192 4.39107C4.69192 4.39107 4.65444 4.4319 4.60861 4.48107C4.41988 4.65068 4.27043 4.85941 4.17068 5.09272C4.07094 5.32603 4.02333 5.57829 4.03112 5.8319C4.02528 6.95023 4.76443 9.03028 8.32026 12.5819C11.8586 16.1203 13.9344 16.8669 15.0569 16.8669H15.0702C15.3241 16.8762 15.5768 16.8292 15.8103 16.7294C16.0439 16.6295 16.2524 16.4793 16.4211 16.2894C16.465 16.2429 16.5114 16.1989 16.5602 16.1578C17.3327 15.3803 17.7311 14.8019 17.7269 14.4361C17.7227 14.0703 17.2502 13.6178 16.5961 12.9953C16.3861 12.7953 16.1577 12.5786 15.9169 12.3369C15.3194 11.7403 14.9919 11.8686 14.2694 12.1519C13.2619 12.5478 11.8836 13.0886 9.85274 11.0544C7.81858 9.02028 8.35859 7.63773 8.75193 6.6319C9.03358 5.91107 9.16358 5.5819 8.56608 4.9844C8.32191 4.74023 8.10192 4.5094 7.89942 4.2969C7.28108 3.6469 6.83524 3.1769 6.46774 3.1719H6.46108C6.09524 3.1719 5.51776 3.57107 4.69609 4.3919L4.69192 4.39107Z" fill="black" fill-opacity="0.2"/>
<path d="M14.5078 8.15503C14.4271 8.15781 14.3466 8.14438 14.2711 8.11553C14.1956 8.08668 14.1268 8.04299 14.0686 7.98706C14.0103 7.93112 13.9638 7.86406 13.9319 7.78986C13.9 7.71565 13.8833 7.6358 13.8828 7.55503V7.50586C13.8828 7.3401 13.9486 7.18113 14.0658 7.06392C14.1831 6.94671 14.3421 6.88086 14.5078 6.88086C14.6736 6.88086 14.8326 6.94671 14.9497 7.06392C15.067 7.18113 15.1328 7.3401 15.1328 7.50586C15.1336 7.67411 15.0686 7.83603 14.952 7.95723C14.8353 8.07843 14.676 8.14939 14.5078 8.15503Z" fill="#403C44"/>
<path d="M14.5078 8.15503C14.4271 8.15781 14.3466 8.14438 14.2711 8.11553C14.1956 8.08668 14.1268 8.04299 14.0686 7.98706C14.0103 7.93112 13.9638 7.86406 13.9319 7.78986C13.9 7.71565 13.8833 7.6358 13.8828 7.55503V7.50586C13.8828 7.3401 13.9486 7.18113 14.0658 7.06392C14.1831 6.94671 14.3421 6.88086 14.5078 6.88086C14.6736 6.88086 14.8326 6.94671 14.9497 7.06392C15.067 7.18113 15.1328 7.3401 15.1328 7.50586C15.1336 7.67411 15.0686 7.83603 14.952 7.95723C14.8353 8.07843 14.676 8.14939 14.5078 8.15503Z" fill="black" fill-opacity="0.2"/>
<path d="M14.5078 8.15503C14.4271 8.15781 14.3466 8.14438 14.2711 8.11553C14.1956 8.08668 14.1268 8.04299 14.0686 7.98706C14.0103 7.93112 13.9638 7.86406 13.9319 7.78986C13.9 7.71565 13.8833 7.6358 13.8828 7.55503V7.50586C13.8828 7.3401 13.9486 7.18113 14.0658 7.06392C14.1831 6.94671 14.3421 6.88086 14.5078 6.88086C14.6736 6.88086 14.8326 6.94671 14.9497 7.06392C15.067 7.18113 15.1328 7.3401 15.1328 7.50586C15.1336 7.67411 15.0686 7.83603 14.952 7.95723C14.8353 8.07843 14.676 8.14939 14.5078 8.15503Z" fill="black" fill-opacity="0.2"/>
<path d="M14.5029 5.94276C14.3372 5.94276 14.1782 5.87692 14.061 5.7597C13.9438 5.64249 13.8779 5.48353 13.8779 5.31776V2.49609C13.8779 2.33034 13.9438 2.17137 14.061 2.05415C14.1782 1.93694 14.3372 1.87109 14.5029 1.87109C14.6687 1.87109 14.8277 1.93694 14.9449 2.05415C15.0621 2.17137 15.1279 2.33034 15.1279 2.49609V5.31776C15.1279 5.48353 15.0621 5.64249 14.9449 5.7597C14.8277 5.87692 14.6687 5.94276 14.5029 5.94276Z" fill="#403C44"/>
<path d="M14.5029 5.94276C14.3372 5.94276 14.1782 5.87692 14.061 5.7597C13.9438 5.64249 13.8779 5.48353 13.8779 5.31776V2.49609C13.8779 2.33034 13.9438 2.17137 14.061 2.05415C14.1782 1.93694 14.3372 1.87109 14.5029 1.87109C14.6687 1.87109 14.8277 1.93694 14.9449 2.05415C15.0621 2.17137 15.1279 2.33034 15.1279 2.49609V5.31776C15.1279 5.48353 15.0621 5.64249 14.9449 5.7597C14.8277 5.87692 14.6687 5.94276 14.5029 5.94276Z" fill="black" fill-opacity="0.2"/>
<path d="M14.5029 5.94276C14.3372 5.94276 14.1782 5.87692 14.061 5.7597C13.9438 5.64249 13.8779 5.48353 13.8779 5.31776V2.49609C13.8779 2.33034 13.9438 2.17137 14.061 2.05415C14.1782 1.93694 14.3372 1.87109 14.5029 1.87109C14.6687 1.87109 14.8277 1.93694 14.9449 2.05415C15.0621 2.17137 15.1279 2.33034 15.1279 2.49609V5.31776C15.1279 5.48353 15.0621 5.64249 14.9449 5.7597C14.8277 5.87692 14.6687 5.94276 14.5029 5.94276Z" fill="black" fill-opacity="0.2"/>
</svg>
