<svg width="20" height="20" viewBox="0 0 20 20" fill="none" xmlns="http://www.w3.org/2000/svg">
<path fill-rule="evenodd" clip-rule="evenodd" d="M10.8369 9.32174C10.8369 8.86486 11.2072 8.49414 11.6644 8.49414C12.1212 8.49414 12.4921 8.86438 12.4921 9.32174C12.4921 9.7791 12.1212 10.1493 11.6644 10.1493C11.2072 10.1493 10.8369 9.77862 10.8369 9.32174Z" fill="#403C44"/>
<path fill-rule="evenodd" clip-rule="evenodd" d="M10.8369 9.32174C10.8369 8.86486 11.2072 8.49414 11.6644 8.49414C12.1212 8.49414 12.4921 8.86438 12.4921 9.32174C12.4921 9.7791 12.1212 10.1493 11.6644 10.1493C11.2072 10.1493 10.8369 9.77862 10.8369 9.32174Z" fill="black" fill-opacity="0.2"/>
<path fill-rule="evenodd" clip-rule="evenodd" d="M10.8369 9.32174C10.8369 8.86486 11.2072 8.49414 11.6644 8.49414C12.1212 8.49414 12.4921 8.86438 12.4921 9.32174C12.4921 9.7791 12.1212 10.1493 11.6644 10.1493C11.2072 10.1493 10.8369 9.77862 10.8369 9.32174Z" fill="black" fill-opacity="0.2"/>
<path fill-rule="evenodd" clip-rule="evenodd" d="M7.11816 9.32174C7.11816 8.86486 7.48844 8.49414 7.94571 8.49414C8.40252 8.49414 8.7734 8.86438 8.7734 9.32174C8.7734 9.7791 8.40252 10.1493 7.94571 10.1493C7.48844 10.1493 7.11816 9.77862 7.11816 9.32174Z" fill="#403C44"/>
<path fill-rule="evenodd" clip-rule="evenodd" d="M7.11816 9.32174C7.11816 8.86486 7.48844 8.49414 7.94571 8.49414C8.40252 8.49414 8.7734 8.86438 8.7734 9.32174C8.7734 9.7791 8.40252 10.1493 7.94571 10.1493C7.48844 10.1493 7.11816 9.77862 7.11816 9.32174Z" fill="black" fill-opacity="0.2"/>
<path fill-rule="evenodd" clip-rule="evenodd" d="M7.11816 9.32174C7.11816 8.86486 7.48844 8.49414 7.94571 8.49414C8.40252 8.49414 8.7734 8.86438 8.7734 9.32174C8.7734 9.7791 8.40252 10.1493 7.94571 10.1493C7.48844 10.1493 7.11816 9.77862 7.11816 9.32174Z" fill="black" fill-opacity="0.2"/>
<path d="M9.90783 17.6332C9.99983 17.6327 10.0913 17.6198 10.1798 17.5948C13.6774 16.6004 17.115 13.3628 16.9166 9.09962C16.8756 8.0597 16.6224 7.03903 16.1725 6.1005C15.7227 5.16198 15.0857 4.32534 14.3006 3.64201C13.5715 3.01871 12.7209 2.55364 11.8026 2.27629C10.8843 1.99894 9.91847 1.91538 8.96623 2.03083C7.35063 2.22638 5.84999 2.96712 4.71231 4.13073C3.57455 5.29434 2.86775 6.81123 2.70863 8.43082C2.30463 12.5308 5.49423 15.1164 8.90383 15.5948V16.6132C8.90423 16.7709 8.94103 16.9263 9.01135 17.0675C9.08175 17.2087 9.18375 17.3316 9.30943 17.4268C9.48087 17.5593 9.69111 17.6318 9.90783 17.6332ZM9.78623 3.18439C11.1556 3.17846 12.4815 3.66482 13.5222 4.5548C14.1824 5.13158 14.7178 5.83722 15.0954 6.62838C15.4731 7.41956 15.685 8.27954 15.7182 9.15562C15.8782 12.654 12.9918 15.4348 10.1038 16.3636V15.4276C10.1025 15.1803 10.0108 14.9421 9.84583 14.7579C9.68095 14.5736 9.45423 14.4562 9.20863 14.4276C6.40863 14.0908 3.55263 12.1076 3.90223 8.55162C4.03319 7.20434 4.61991 5.942 5.56535 4.97326C6.51087 4.00452 7.75847 3.38732 9.10223 3.2236C9.32935 3.19896 9.55775 3.18696 9.78623 3.18762V3.18439Z" fill="#403C44"/>
<path d="M9.90783 17.6332C9.99983 17.6327 10.0913 17.6198 10.1798 17.5948C13.6774 16.6004 17.115 13.3628 16.9166 9.09962C16.8756 8.0597 16.6224 7.03903 16.1725 6.1005C15.7227 5.16198 15.0857 4.32534 14.3006 3.64201C13.5715 3.01871 12.7209 2.55364 11.8026 2.27629C10.8843 1.99894 9.91847 1.91538 8.96623 2.03083C7.35063 2.22638 5.84999 2.96712 4.71231 4.13073C3.57455 5.29434 2.86775 6.81123 2.70863 8.43082C2.30463 12.5308 5.49423 15.1164 8.90383 15.5948V16.6132C8.90423 16.7709 8.94103 16.9263 9.01135 17.0675C9.08175 17.2087 9.18375 17.3316 9.30943 17.4268C9.48087 17.5593 9.69111 17.6318 9.90783 17.6332ZM9.78623 3.18439C11.1556 3.17846 12.4815 3.66482 13.5222 4.5548C14.1824 5.13158 14.7178 5.83722 15.0954 6.62838C15.4731 7.41956 15.685 8.27954 15.7182 9.15562C15.8782 12.654 12.9918 15.4348 10.1038 16.3636V15.4276C10.1025 15.1803 10.0108 14.9421 9.84583 14.7579C9.68095 14.5736 9.45423 14.4562 9.20863 14.4276C6.40863 14.0908 3.55263 12.1076 3.90223 8.55162C4.03319 7.20434 4.61991 5.942 5.56535 4.97326C6.51087 4.00452 7.75847 3.38732 9.10223 3.2236C9.32935 3.19896 9.55775 3.18696 9.78623 3.18762V3.18439Z" fill="black" fill-opacity="0.2"/>
<path d="M9.90783 17.6332C9.99983 17.6327 10.0913 17.6198 10.1798 17.5948C13.6774 16.6004 17.115 13.3628 16.9166 9.09962C16.8756 8.0597 16.6224 7.03903 16.1725 6.1005C15.7227 5.16198 15.0857 4.32534 14.3006 3.64201C13.5715 3.01871 12.7209 2.55364 11.8026 2.27629C10.8843 1.99894 9.91847 1.91538 8.96623 2.03083C7.35063 2.22638 5.84999 2.96712 4.71231 4.13073C3.57455 5.29434 2.86775 6.81123 2.70863 8.43082C2.30463 12.5308 5.49423 15.1164 8.90383 15.5948V16.6132C8.90423 16.7709 8.94103 16.9263 9.01135 17.0675C9.08175 17.2087 9.18375 17.3316 9.30943 17.4268C9.48087 17.5593 9.69111 17.6318 9.90783 17.6332ZM9.78623 3.18439C11.1556 3.17846 12.4815 3.66482 13.5222 4.5548C14.1824 5.13158 14.7178 5.83722 15.0954 6.62838C15.4731 7.41956 15.685 8.27954 15.7182 9.15562C15.8782 12.654 12.9918 15.4348 10.1038 16.3636V15.4276C10.1025 15.1803 10.0108 14.9421 9.84583 14.7579C9.68095 14.5736 9.45423 14.4562 9.20863 14.4276C6.40863 14.0908 3.55263 12.1076 3.90223 8.55162C4.03319 7.20434 4.61991 5.942 5.56535 4.97326C6.51087 4.00452 7.75847 3.38732 9.10223 3.2236C9.32935 3.19896 9.55775 3.18696 9.78623 3.18762V3.18439Z" fill="black" fill-opacity="0.2"/>
</svg>
