<svg width="21" height="20" viewBox="0 0 21 20" fill="none" xmlns="http://www.w3.org/2000/svg">
<path fill-rule="evenodd" clip-rule="evenodd" d="M6.36909 5.13623C7.05937 4.22382 8.16401 3.49414 9.75586 3.49414C11.3477 3.49414 12.4523 4.22382 13.1426 5.13623C13.6649 5.82654 13.9532 6.62326 14.0559 7.29563C14.856 7.39603 15.5891 7.724 16.1556 8.2666C16.85 8.93186 17.2559 9.88332 17.2559 11.0241C17.2559 12.5508 16.3461 13.8639 15.0424 14.453C14.7521 14.5842 14.4103 14.4552 14.2791 14.1649C14.1479 13.8745 14.2769 13.5328 14.5672 13.4015C15.4729 12.9922 16.102 12.081 16.102 11.0241C16.102 10.168 15.8039 9.52755 15.3574 9.09986C14.9066 8.66809 14.2662 8.4167 13.5226 8.41639C13.204 8.41625 12.9459 8.15799 12.9459 7.83946C12.9459 7.33264 12.7379 6.51374 12.2225 5.83239C11.7248 5.17457 10.9459 4.64799 9.75586 4.64799C8.56578 4.64799 7.78694 5.17457 7.28926 5.83239C6.77378 6.51374 6.56588 7.33264 6.56588 7.83946C6.56588 8.15616 6.31059 8.41365 5.99391 8.41636C5.24807 8.42276 4.60582 8.67516 4.15437 9.10593C3.70783 9.53209 3.40971 10.1687 3.40971 11.0241C3.40971 12.0812 4.03816 12.9922 4.94432 13.4015C5.23471 13.5326 5.36381 13.8743 5.23267 14.1647C5.10154 14.4551 4.75982 14.5842 4.46944 14.4531C3.16471 13.8639 2.25586 12.5506 2.25586 11.0241C2.25586 9.88255 2.66277 8.9344 3.35779 8.27119C3.92464 7.73025 4.65731 7.40323 5.45528 7.29892C5.55759 6.62586 5.84597 5.82767 6.36909 5.13623Z" fill="#403C44"/>
<path fill-rule="evenodd" clip-rule="evenodd" d="M6.36909 5.13623C7.05937 4.22382 8.16401 3.49414 9.75586 3.49414C11.3477 3.49414 12.4523 4.22382 13.1426 5.13623C13.6649 5.82654 13.9532 6.62326 14.0559 7.29563C14.856 7.39603 15.5891 7.724 16.1556 8.2666C16.85 8.93186 17.2559 9.88332 17.2559 11.0241C17.2559 12.5508 16.3461 13.8639 15.0424 14.453C14.7521 14.5842 14.4103 14.4552 14.2791 14.1649C14.1479 13.8745 14.2769 13.5328 14.5672 13.4015C15.4729 12.9922 16.102 12.081 16.102 11.0241C16.102 10.168 15.8039 9.52755 15.3574 9.09986C14.9066 8.66809 14.2662 8.4167 13.5226 8.41639C13.204 8.41625 12.9459 8.15799 12.9459 7.83946C12.9459 7.33264 12.7379 6.51374 12.2225 5.83239C11.7248 5.17457 10.9459 4.64799 9.75586 4.64799C8.56578 4.64799 7.78694 5.17457 7.28926 5.83239C6.77378 6.51374 6.56588 7.33264 6.56588 7.83946C6.56588 8.15616 6.31059 8.41365 5.99391 8.41636C5.24807 8.42276 4.60582 8.67516 4.15437 9.10593C3.70783 9.53209 3.40971 10.1687 3.40971 11.0241C3.40971 12.0812 4.03816 12.9922 4.94432 13.4015C5.23471 13.5326 5.36381 13.8743 5.23267 14.1647C5.10154 14.4551 4.75982 14.5842 4.46944 14.4531C3.16471 13.8639 2.25586 12.5506 2.25586 11.0241C2.25586 9.88255 2.66277 8.9344 3.35779 8.27119C3.92464 7.73025 4.65731 7.40323 5.45528 7.29892C5.55759 6.62586 5.84597 5.82767 6.36909 5.13623Z" fill="black" fill-opacity="0.2"/>
<path fill-rule="evenodd" clip-rule="evenodd" d="M6.36909 5.13623C7.05937 4.22382 8.16401 3.49414 9.75586 3.49414C11.3477 3.49414 12.4523 4.22382 13.1426 5.13623C13.6649 5.82654 13.9532 6.62326 14.0559 7.29563C14.856 7.39603 15.5891 7.724 16.1556 8.2666C16.85 8.93186 17.2559 9.88332 17.2559 11.0241C17.2559 12.5508 16.3461 13.8639 15.0424 14.453C14.7521 14.5842 14.4103 14.4552 14.2791 14.1649C14.1479 13.8745 14.2769 13.5328 14.5672 13.4015C15.4729 12.9922 16.102 12.081 16.102 11.0241C16.102 10.168 15.8039 9.52755 15.3574 9.09986C14.9066 8.66809 14.2662 8.4167 13.5226 8.41639C13.204 8.41625 12.9459 8.15799 12.9459 7.83946C12.9459 7.33264 12.7379 6.51374 12.2225 5.83239C11.7248 5.17457 10.9459 4.64799 9.75586 4.64799C8.56578 4.64799 7.78694 5.17457 7.28926 5.83239C6.77378 6.51374 6.56588 7.33264 6.56588 7.83946C6.56588 8.15616 6.31059 8.41365 5.99391 8.41636C5.24807 8.42276 4.60582 8.67516 4.15437 9.10593C3.70783 9.53209 3.40971 10.1687 3.40971 11.0241C3.40971 12.0812 4.03816 12.9922 4.94432 13.4015C5.23471 13.5326 5.36381 13.8743 5.23267 14.1647C5.10154 14.4551 4.75982 14.5842 4.46944 14.4531C3.16471 13.8639 2.25586 12.5506 2.25586 11.0241C2.25586 9.88255 2.66277 8.9344 3.35779 8.27119C3.92464 7.73025 4.65731 7.40323 5.45528 7.29892C5.55759 6.62586 5.84597 5.82767 6.36909 5.13623Z" fill="black" fill-opacity="0.2"/>
<path fill-rule="evenodd" clip-rule="evenodd" d="M7.6238 10.8477C7.94242 10.8477 8.20071 11.1059 8.20071 11.4246V12.087H8.86994C9.18855 12.087 9.44686 12.3453 9.44686 12.664C9.44686 12.9826 9.18855 13.2409 8.86994 13.2409H7.6238C7.30517 13.2409 7.04688 12.9826 7.04688 12.664V11.4246C7.04688 11.1059 7.30517 10.8477 7.6238 10.8477Z" fill="#403C44"/>
<path fill-rule="evenodd" clip-rule="evenodd" d="M7.6238 10.8477C7.94242 10.8477 8.20071 11.1059 8.20071 11.4246V12.087H8.86994C9.18855 12.087 9.44686 12.3453 9.44686 12.664C9.44686 12.9826 9.18855 13.2409 8.86994 13.2409H7.6238C7.30517 13.2409 7.04688 12.9826 7.04688 12.664V11.4246C7.04688 11.1059 7.30517 10.8477 7.6238 10.8477Z" fill="black" fill-opacity="0.2"/>
<path fill-rule="evenodd" clip-rule="evenodd" d="M7.6238 10.8477C7.94242 10.8477 8.20071 11.1059 8.20071 11.4246V12.087H8.86994C9.18855 12.087 9.44686 12.3453 9.44686 12.664C9.44686 12.9826 9.18855 13.2409 8.86994 13.2409H7.6238C7.30517 13.2409 7.04688 12.9826 7.04688 12.664V11.4246C7.04688 11.1059 7.30517 10.8477 7.6238 10.8477Z" fill="black" fill-opacity="0.2"/>
<path fill-rule="evenodd" clip-rule="evenodd" d="M7.10864 12.4053C7.57338 11.4823 8.53017 10.8477 9.63648 10.8477C11.1982 10.8477 12.4647 12.1132 12.4647 13.6759C12.4647 15.2377 11.1982 16.5041 9.63648 16.5041C8.6094 16.5041 7.71056 15.9569 7.21579 15.1401C7.05071 14.8676 7.13781 14.5128 7.41034 14.3477C7.68286 14.1827 8.03763 14.2697 8.20271 14.5423C8.49679 15.0277 9.02894 15.3503 9.63648 15.3503C10.561 15.3503 11.3109 14.6004 11.3109 13.6759C11.3109 12.7507 10.5612 12.0015 9.63648 12.0015C8.98248 12.0015 8.4154 12.3757 8.13917 12.9242C7.9959 13.2088 7.64903 13.3233 7.36445 13.18C7.07987 13.0367 6.96534 12.6898 7.10864 12.4053Z" fill="#403C44"/>
<path fill-rule="evenodd" clip-rule="evenodd" d="M7.10864 12.4053C7.57338 11.4823 8.53017 10.8477 9.63648 10.8477C11.1982 10.8477 12.4647 12.1132 12.4647 13.6759C12.4647 15.2377 11.1982 16.5041 9.63648 16.5041C8.6094 16.5041 7.71056 15.9569 7.21579 15.1401C7.05071 14.8676 7.13781 14.5128 7.41034 14.3477C7.68286 14.1827 8.03763 14.2697 8.20271 14.5423C8.49679 15.0277 9.02894 15.3503 9.63648 15.3503C10.561 15.3503 11.3109 14.6004 11.3109 13.6759C11.3109 12.7507 10.5612 12.0015 9.63648 12.0015C8.98248 12.0015 8.4154 12.3757 8.13917 12.9242C7.9959 13.2088 7.64903 13.3233 7.36445 13.18C7.07987 13.0367 6.96534 12.6898 7.10864 12.4053Z" fill="black" fill-opacity="0.2"/>
<path fill-rule="evenodd" clip-rule="evenodd" d="M7.10864 12.4053C7.57338 11.4823 8.53017 10.8477 9.63648 10.8477C11.1982 10.8477 12.4647 12.1132 12.4647 13.6759C12.4647 15.2377 11.1982 16.5041 9.63648 16.5041C8.6094 16.5041 7.71056 15.9569 7.21579 15.1401C7.05071 14.8676 7.13781 14.5128 7.41034 14.3477C7.68286 14.1827 8.03763 14.2697 8.20271 14.5423C8.49679 15.0277 9.02894 15.3503 9.63648 15.3503C10.561 15.3503 11.3109 14.6004 11.3109 13.6759C11.3109 12.7507 10.5612 12.0015 9.63648 12.0015C8.98248 12.0015 8.4154 12.3757 8.13917 12.9242C7.9959 13.2088 7.64903 13.3233 7.36445 13.18C7.07987 13.0367 6.96534 12.6898 7.10864 12.4053Z" fill="black" fill-opacity="0.2"/>
</svg>
