<svg width="21" height="20" viewBox="0 0 21 20" fill="none" xmlns="http://www.w3.org/2000/svg">
<path fill-rule="evenodd" clip-rule="evenodd" d="M3.23255 4.76537C3.88085 4.06986 4.80196 3.68359 5.88193 3.68359H13.629C14.7116 3.68359 15.6332 4.06959 16.2812 4.76559C16.925 5.45694 17.2559 6.40729 17.2559 7.46534V12.533C17.2559 13.5914 16.925 14.5419 16.2811 15.2332C15.6329 15.9291 14.711 16.3148 13.6283 16.3148H5.88193C4.79947 16.3148 3.87801 15.929 3.23006 15.233C2.58646 14.5417 2.25586 13.5913 2.25586 12.533V7.46534C2.25586 6.40662 2.58844 5.45638 3.23255 4.76537ZM4.07659 5.55212C3.66464 5.99406 3.40971 6.64622 3.40971 7.46534V12.533C3.40971 13.3533 3.66364 14.0054 4.07459 14.4468C4.4812 14.8835 5.08431 15.1609 5.88193 15.1609H13.6283C14.4264 15.1609 15.0299 14.8835 15.4368 14.4467C15.8479 14.0052 16.102 13.3532 16.102 12.533V7.46534C16.102 6.64555 15.848 5.99349 15.4368 5.55189C15.0299 5.11494 14.4266 4.83744 13.629 4.83744H5.88193C5.08781 4.83744 4.48434 5.11467 4.07659 5.55212Z" fill="#403C44"/>
<path fill-rule="evenodd" clip-rule="evenodd" d="M3.23255 4.76537C3.88085 4.06986 4.80196 3.68359 5.88193 3.68359H13.629C14.7116 3.68359 15.6332 4.06959 16.2812 4.76559C16.925 5.45694 17.2559 6.40729 17.2559 7.46534V12.533C17.2559 13.5914 16.925 14.5419 16.2811 15.2332C15.6329 15.9291 14.711 16.3148 13.6283 16.3148H5.88193C4.79947 16.3148 3.87801 15.929 3.23006 15.233C2.58646 14.5417 2.25586 13.5913 2.25586 12.533V7.46534C2.25586 6.40662 2.58844 5.45638 3.23255 4.76537ZM4.07659 5.55212C3.66464 5.99406 3.40971 6.64622 3.40971 7.46534V12.533C3.40971 13.3533 3.66364 14.0054 4.07459 14.4468C4.4812 14.8835 5.08431 15.1609 5.88193 15.1609H13.6283C14.4264 15.1609 15.0299 14.8835 15.4368 14.4467C15.8479 14.0052 16.102 13.3532 16.102 12.533V7.46534C16.102 6.64555 15.848 5.99349 15.4368 5.55189C15.0299 5.11494 14.4266 4.83744 13.629 4.83744H5.88193C5.08781 4.83744 4.48434 5.11467 4.07659 5.55212Z" fill="black" fill-opacity="0.2"/>
<path fill-rule="evenodd" clip-rule="evenodd" d="M3.23255 4.76537C3.88085 4.06986 4.80196 3.68359 5.88193 3.68359H13.629C14.7116 3.68359 15.6332 4.06959 16.2812 4.76559C16.925 5.45694 17.2559 6.40729 17.2559 7.46534V12.533C17.2559 13.5914 16.925 14.5419 16.2811 15.2332C15.6329 15.9291 14.711 16.3148 13.6283 16.3148H5.88193C4.79947 16.3148 3.87801 15.929 3.23006 15.233C2.58646 14.5417 2.25586 13.5913 2.25586 12.533V7.46534C2.25586 6.40662 2.58844 5.45638 3.23255 4.76537ZM4.07659 5.55212C3.66464 5.99406 3.40971 6.64622 3.40971 7.46534V12.533C3.40971 13.3533 3.66364 14.0054 4.07459 14.4468C4.4812 14.8835 5.08431 15.1609 5.88193 15.1609H13.6283C14.4264 15.1609 15.0299 14.8835 15.4368 14.4467C15.8479 14.0052 16.102 13.3532 16.102 12.533V7.46534C16.102 6.64555 15.848 5.99349 15.4368 5.55189C15.0299 5.11494 14.4266 4.83744 13.629 4.83744H5.88193C5.08781 4.83744 4.48434 5.11467 4.07659 5.55212Z" fill="black" fill-opacity="0.2"/>
<path fill-rule="evenodd" clip-rule="evenodd" d="M2.25586 8.33278C2.25586 8.01416 2.51416 7.75586 2.83278 7.75586H16.6789C16.9976 7.75586 17.2559 8.01416 17.2559 8.33278C17.2559 8.65137 16.9976 8.90968 16.6789 8.90968H2.83278C2.51416 8.90968 2.25586 8.65137 2.25586 8.33278Z" fill="#403C44"/>
<path fill-rule="evenodd" clip-rule="evenodd" d="M2.25586 8.33278C2.25586 8.01416 2.51416 7.75586 2.83278 7.75586H16.6789C16.9976 7.75586 17.2559 8.01416 17.2559 8.33278C17.2559 8.65137 16.9976 8.90968 16.6789 8.90968H2.83278C2.51416 8.90968 2.25586 8.65137 2.25586 8.33278Z" fill="black" fill-opacity="0.2"/>
<path fill-rule="evenodd" clip-rule="evenodd" d="M2.25586 8.33278C2.25586 8.01416 2.51416 7.75586 2.83278 7.75586H16.6789C16.9976 7.75586 17.2559 8.01416 17.2559 8.33278C17.2559 8.65137 16.9976 8.90968 16.6789 8.90968H2.83278C2.51416 8.90968 2.25586 8.65137 2.25586 8.33278Z" fill="black" fill-opacity="0.2"/>
<path fill-rule="evenodd" clip-rule="evenodd" d="M5.46875 12.4363C5.46875 12.1177 5.72704 11.8594 6.04567 11.8594H8.32917C8.64778 11.8594 8.90609 12.1177 8.90609 12.4363C8.90609 12.7549 8.64778 13.0132 8.32917 13.0132H6.04567C5.72704 13.0132 5.46875 12.7549 5.46875 12.4363Z" fill="#403C44"/>
<path fill-rule="evenodd" clip-rule="evenodd" d="M5.46875 12.4363C5.46875 12.1177 5.72704 11.8594 6.04567 11.8594H8.32917C8.64778 11.8594 8.90609 12.1177 8.90609 12.4363C8.90609 12.7549 8.64778 13.0132 8.32917 13.0132H6.04567C5.72704 13.0132 5.46875 12.7549 5.46875 12.4363Z" fill="black" fill-opacity="0.2"/>
<path fill-rule="evenodd" clip-rule="evenodd" d="M5.46875 12.4363C5.46875 12.1177 5.72704 11.8594 6.04567 11.8594H8.32917C8.64778 11.8594 8.90609 12.1177 8.90609 12.4363C8.90609 12.7549 8.64778 13.0132 8.32917 13.0132H6.04567C5.72704 13.0132 5.46875 12.7549 5.46875 12.4363Z" fill="black" fill-opacity="0.2"/>
</svg>
