<svg width="21" height="20" viewBox="0 0 21 20" fill="none" xmlns="http://www.w3.org/2000/svg">
<path fill-rule="evenodd" clip-rule="evenodd" d="M10.0898 3.65385C6.58468 3.65385 3.74369 6.49484 3.74369 10C3.74369 13.5045 6.58473 16.3462 10.0898 16.3462C13.595 16.3462 16.436 13.5045 16.436 10C16.436 6.49484 13.595 3.65385 10.0898 3.65385ZM2.58984 10C2.58984 5.85759 5.94744 2.5 10.0898 2.5C14.2322 2.5 17.5898 5.85759 17.5898 10C17.5898 14.1416 14.2323 17.5 10.0898 17.5C5.94739 17.5 2.58984 14.1416 2.58984 10Z" fill="#403C44"/>
<path fill-rule="evenodd" clip-rule="evenodd" d="M10.0898 3.65385C6.58468 3.65385 3.74369 6.49484 3.74369 10C3.74369 13.5045 6.58473 16.3462 10.0898 16.3462C13.595 16.3462 16.436 13.5045 16.436 10C16.436 6.49484 13.595 3.65385 10.0898 3.65385ZM2.58984 10C2.58984 5.85759 5.94744 2.5 10.0898 2.5C14.2322 2.5 17.5898 5.85759 17.5898 10C17.5898 14.1416 14.2323 17.5 10.0898 17.5C5.94739 17.5 2.58984 14.1416 2.58984 10Z" fill="black" fill-opacity="0.2"/>
<path fill-rule="evenodd" clip-rule="evenodd" d="M10.0898 3.65385C6.58468 3.65385 3.74369 6.49484 3.74369 10C3.74369 13.5045 6.58473 16.3462 10.0898 16.3462C13.595 16.3462 16.436 13.5045 16.436 10C16.436 6.49484 13.595 3.65385 10.0898 3.65385ZM2.58984 10C2.58984 5.85759 5.94744 2.5 10.0898 2.5C14.2322 2.5 17.5898 5.85759 17.5898 10C17.5898 14.1416 14.2323 17.5 10.0898 17.5C5.94739 17.5 2.58984 14.1416 2.58984 10Z" fill="black" fill-opacity="0.2"/>
<path fill-rule="evenodd" clip-rule="evenodd" d="M10.0496 12.6504C10.3682 12.6504 10.6265 12.9087 10.6265 13.2273V13.249C10.6265 13.5676 10.3682 13.8259 10.0496 13.8259C9.73096 13.8259 9.47266 13.5676 9.47266 13.249V13.2273C9.47266 12.9087 9.73096 12.6504 10.0496 12.6504Z" fill="#403C44"/>
<path fill-rule="evenodd" clip-rule="evenodd" d="M10.0496 12.6504C10.3682 12.6504 10.6265 12.9087 10.6265 13.2273V13.249C10.6265 13.5676 10.3682 13.8259 10.0496 13.8259C9.73096 13.8259 9.47266 13.5676 9.47266 13.249V13.2273C9.47266 12.9087 9.73096 12.6504 10.0496 12.6504Z" fill="black" fill-opacity="0.2"/>
<path fill-rule="evenodd" clip-rule="evenodd" d="M10.0496 12.6504C10.3682 12.6504 10.6265 12.9087 10.6265 13.2273V13.249C10.6265 13.5676 10.3682 13.8259 10.0496 13.8259C9.73096 13.8259 9.47266 13.5676 9.47266 13.249V13.2273C9.47266 12.9087 9.73096 12.6504 10.0496 12.6504Z" fill="black" fill-opacity="0.2"/>
<path fill-rule="evenodd" clip-rule="evenodd" d="M7.82324 8.60963C7.82324 7.27165 8.8996 6.19531 10.2376 6.19531C11.5678 6.19531 12.6512 7.27058 12.6512 8.60963C12.6512 9.55294 12.1111 10.2199 11.409 10.6082C11.3653 10.6331 11.3236 10.6566 11.2837 10.679C11.0802 10.7935 10.9242 10.8812 10.7966 10.996C10.6713 11.1088 10.6241 11.2043 10.6258 11.3376C10.6301 11.6562 10.3751 11.9179 10.0565 11.9221C9.73791 11.9262 9.4763 11.6714 9.47214 11.3528C9.46491 10.8006 9.72491 10.4081 10.0249 10.1382C10.2574 9.92894 10.5464 9.76817 10.7471 9.65647C10.7811 9.63755 10.8127 9.62001 10.8409 9.60386L10.8483 9.5997C11.2745 9.36486 11.4974 9.04024 11.4974 8.60963C11.4974 7.90997 10.9327 7.34916 10.2376 7.34916C9.53683 7.34916 8.97707 7.90891 8.97707 8.60963C8.97707 8.92824 8.71876 9.18655 8.40014 9.18655C8.08154 9.18655 7.82324 8.92824 7.82324 8.60963Z" fill="#403C44"/>
<path fill-rule="evenodd" clip-rule="evenodd" d="M7.82324 8.60963C7.82324 7.27165 8.8996 6.19531 10.2376 6.19531C11.5678 6.19531 12.6512 7.27058 12.6512 8.60963C12.6512 9.55294 12.1111 10.2199 11.409 10.6082C11.3653 10.6331 11.3236 10.6566 11.2837 10.679C11.0802 10.7935 10.9242 10.8812 10.7966 10.996C10.6713 11.1088 10.6241 11.2043 10.6258 11.3376C10.6301 11.6562 10.3751 11.9179 10.0565 11.9221C9.73791 11.9262 9.4763 11.6714 9.47214 11.3528C9.46491 10.8006 9.72491 10.4081 10.0249 10.1382C10.2574 9.92894 10.5464 9.76817 10.7471 9.65647C10.7811 9.63755 10.8127 9.62001 10.8409 9.60386L10.8483 9.5997C11.2745 9.36486 11.4974 9.04024 11.4974 8.60963C11.4974 7.90997 10.9327 7.34916 10.2376 7.34916C9.53683 7.34916 8.97707 7.90891 8.97707 8.60963C8.97707 8.92824 8.71876 9.18655 8.40014 9.18655C8.08154 9.18655 7.82324 8.92824 7.82324 8.60963Z" fill="black" fill-opacity="0.2"/>
<path fill-rule="evenodd" clip-rule="evenodd" d="M7.82324 8.60963C7.82324 7.27165 8.8996 6.19531 10.2376 6.19531C11.5678 6.19531 12.6512 7.27058 12.6512 8.60963C12.6512 9.55294 12.1111 10.2199 11.409 10.6082C11.3653 10.6331 11.3236 10.6566 11.2837 10.679C11.0802 10.7935 10.9242 10.8812 10.7966 10.996C10.6713 11.1088 10.6241 11.2043 10.6258 11.3376C10.6301 11.6562 10.3751 11.9179 10.0565 11.9221C9.73791 11.9262 9.4763 11.6714 9.47214 11.3528C9.46491 10.8006 9.72491 10.4081 10.0249 10.1382C10.2574 9.92894 10.5464 9.76817 10.7471 9.65647C10.7811 9.63755 10.8127 9.62001 10.8409 9.60386L10.8483 9.5997C11.2745 9.36486 11.4974 9.04024 11.4974 8.60963C11.4974 7.90997 10.9327 7.34916 10.2376 7.34916C9.53683 7.34916 8.97707 7.90891 8.97707 8.60963C8.97707 8.92824 8.71876 9.18655 8.40014 9.18655C8.08154 9.18655 7.82324 8.92824 7.82324 8.60963Z" fill="black" fill-opacity="0.2"/>
</svg>
