<svg width="21" height="20" viewBox="0 0 21 20" fill="none" xmlns="http://www.w3.org/2000/svg">
<path fill-rule="evenodd" clip-rule="evenodd" d="M12.6238 13.7476C14.591 12.7186 15.8168 10.4528 15.3102 8.00916C14.8942 6.00917 13.2851 4.41718 11.291 4.00917C7.94063 3.32917 4.97656 5.87319 4.97656 9.11316C4.97656 11.1284 6.11679 12.872 7.78515 13.7399V14.8972C7.78515 16.2252 8.87343 17.3132 10.2047 17.3132C11.5355 17.3132 12.6238 16.2252 12.6238 14.8972V13.7476ZM8.54414 12.7692H11.882C13.4977 12.0384 14.541 10.233 14.1355 8.25724C13.8172 6.72922 12.5766 5.49716 11.0516 5.18515C8.45586 4.65715 6.17656 6.61718 6.17656 9.11316C6.17656 10.7482 7.14804 12.1516 8.54414 12.7692ZM11.4238 13.9692H8.98511V14.8972C8.98511 15.5612 9.53551 16.1132 10.2047 16.1132C10.8734 16.1132 11.4238 15.5612 11.4238 14.8972V13.9692Z" fill="#403C44"/>
<path fill-rule="evenodd" clip-rule="evenodd" d="M12.6238 13.7476C14.591 12.7186 15.8168 10.4528 15.3102 8.00916C14.8942 6.00917 13.2851 4.41718 11.291 4.00917C7.94063 3.32917 4.97656 5.87319 4.97656 9.11316C4.97656 11.1284 6.11679 12.872 7.78515 13.7399V14.8972C7.78515 16.2252 8.87343 17.3132 10.2047 17.3132C11.5355 17.3132 12.6238 16.2252 12.6238 14.8972V13.7476ZM8.54414 12.7692H11.882C13.4977 12.0384 14.541 10.233 14.1355 8.25724C13.8172 6.72922 12.5766 5.49716 11.0516 5.18515C8.45586 4.65715 6.17656 6.61718 6.17656 9.11316C6.17656 10.7482 7.14804 12.1516 8.54414 12.7692ZM11.4238 13.9692H8.98511V14.8972C8.98511 15.5612 9.53551 16.1132 10.2047 16.1132C10.8734 16.1132 11.4238 15.5612 11.4238 14.8972V13.9692Z" fill="black" fill-opacity="0.2"/>
<path fill-rule="evenodd" clip-rule="evenodd" d="M12.6238 13.7476C14.591 12.7186 15.8168 10.4528 15.3102 8.00916C14.8942 6.00917 13.2851 4.41718 11.291 4.00917C7.94063 3.32917 4.97656 5.87319 4.97656 9.11316C4.97656 11.1284 6.11679 12.872 7.78515 13.7399V14.8972C7.78515 16.2252 8.87343 17.3132 10.2047 17.3132C11.5355 17.3132 12.6238 16.2252 12.6238 14.8972V13.7476ZM8.54414 12.7692H11.882C13.4977 12.0384 14.541 10.233 14.1355 8.25724C13.8172 6.72922 12.5766 5.49716 11.0516 5.18515C8.45586 4.65715 6.17656 6.61718 6.17656 9.11316C6.17656 10.7482 7.14804 12.1516 8.54414 12.7692ZM11.4238 13.9692H8.98511V14.8972C8.98511 15.5612 9.53551 16.1132 10.2047 16.1132C10.8734 16.1132 11.4238 15.5612 11.4238 14.8972V13.9692Z" fill="black" fill-opacity="0.2"/>
<path d="M2.89551 9.08047C2.89551 8.74447 3.16425 8.48047 3.49551 8.48047H3.57246C3.90332 8.48047 4.17246 8.74447 4.17246 9.08047C4.17246 9.40847 3.90332 9.68047 3.57246 9.68047H3.49551C3.16425 9.68047 2.89551 9.40847 2.89551 9.08047Z" fill="#403C44"/>
<path d="M2.89551 9.08047C2.89551 8.74447 3.16425 8.48047 3.49551 8.48047H3.57246C3.90332 8.48047 4.17246 8.74447 4.17246 9.08047C4.17246 9.40847 3.90332 9.68047 3.57246 9.68047H3.49551C3.16425 9.68047 2.89551 9.40847 2.89551 9.08047Z" fill="black" fill-opacity="0.2"/>
<path d="M2.89551 9.08047C2.89551 8.74447 3.16425 8.48047 3.49551 8.48047H3.57246C3.90332 8.48047 4.17246 8.74447 4.17246 9.08047C4.17246 9.40847 3.90332 9.68047 3.57246 9.68047H3.49551C3.16425 9.68047 2.89551 9.40847 2.89551 9.08047Z" fill="black" fill-opacity="0.2"/>
<path d="M17.6219 9.08047C17.6219 9.40847 17.3539 9.68047 17.0219 9.68047H16.9633C16.6313 9.68047 16.3633 9.40847 16.3633 9.08047C16.3633 8.74447 16.6313 8.48047 16.9633 8.48047H17.0219C17.3539 8.48047 17.6219 8.74447 17.6219 9.08047Z" fill="#403C44"/>
<path d="M17.6219 9.08047C17.6219 9.40847 17.3539 9.68047 17.0219 9.68047H16.9633C16.6313 9.68047 16.3633 9.40847 16.3633 9.08047C16.3633 8.74447 16.6313 8.48047 16.9633 8.48047H17.0219C17.3539 8.48047 17.6219 8.74447 17.6219 9.08047Z" fill="black" fill-opacity="0.2"/>
<path d="M17.6219 9.08047C17.6219 9.40847 17.3539 9.68047 17.0219 9.68047H16.9633C16.6313 9.68047 16.3633 9.40847 16.3633 9.08047C16.3633 8.74447 16.6313 8.48047 16.9633 8.48047H17.0219C17.3539 8.48047 17.6219 8.74447 17.6219 9.08047Z" fill="black" fill-opacity="0.2"/>
<path d="M5.05176 3.87335C5.28652 3.63336 5.66621 3.63336 5.90058 3.87335L5.95527 3.92139C6.18965 4.16139 6.18965 4.53734 5.95527 4.76935C5.72089 5.00934 5.34082 5.00934 5.10645 4.76935L5.05176 4.72139C4.81738 4.48141 4.81738 4.10535 5.05176 3.87335Z" fill="black"/>
<path d="M15.4654 14.2807C15.2311 14.5207 14.851 14.5207 14.6166 14.2807L14.5752 14.2408C14.3408 14.0088 14.3408 13.6247 14.5752 13.3927C14.8095 13.1608 15.1888 13.1608 15.4232 13.3927L15.4654 13.4327C15.699 13.6648 15.699 14.0487 15.4654 14.2807Z" fill="black"/>
<path d="M15.4656 3.87335C15.7 4.10535 15.7 4.48141 15.4656 4.72139L15.4113 4.76935C15.1769 5.00934 14.7969 5.00934 14.5625 4.76935C14.3281 4.53734 14.3281 4.16139 14.5625 3.92139L14.6168 3.87335C14.8512 3.63336 15.2313 3.63336 15.4656 3.87335Z" fill="black"/>
<path d="M5.05176 14.2807C4.81738 14.0487 4.81738 13.6648 5.05176 13.4327L5.09433 13.3927C5.32871 13.1608 5.70801 13.1608 5.94238 13.3927C6.17676 13.6247 6.17676 14.0088 5.94238 14.2408L5.90058 14.2807C5.66621 14.5207 5.28652 14.5207 5.05176 14.2807Z" fill="black"/>
<path d="M10.2592 1.71289C10.5905 1.71289 10.8592 1.98489 10.8592 2.31289V2.39287C10.8592 2.72087 10.5905 2.99287 10.2592 2.99287C9.92798 2.99287 9.65918 2.72087 9.65918 2.39287V2.31289C9.65918 1.98489 9.92798 1.71289 10.2592 1.71289Z" fill="black"/>
</svg>
