<svg width="20" height="20" viewBox="0 0 20 20" fill="none" xmlns="http://www.w3.org/2000/svg">
<path d="M9.79972 14.8359C9.42092 14.8351 9.05084 14.722 8.73628 14.511C8.42164 14.2999 8.17668 14.0004 8.03228 13.6502C7.88793 13.2999 7.85062 12.9148 7.92506 12.5434C7.99951 12.1719 8.18236 11.8309 8.4506 11.5634C8.71876 11.2959 9.06028 11.1139 9.43188 11.0403C9.80348 10.9668 10.1885 11.0051 10.5384 11.1503C10.8883 11.2956 11.1872 11.5413 11.3975 11.8564C11.6077 12.1715 11.7199 12.5419 11.7197 12.9207C11.7184 13.4291 11.5156 13.9162 11.1556 14.2752C10.7957 14.6343 10.3081 14.8359 9.79972 14.8359ZM9.79972 12.2047C9.65844 12.2055 9.5206 12.248 9.4034 12.3271C9.28628 12.406 9.19516 12.5179 9.14148 12.6486C9.08772 12.7792 9.07388 12.9228 9.10164 13.0614C9.1294 13.1999 9.19756 13.3271 9.2974 13.427C9.39732 13.5269 9.52452 13.595 9.66308 13.6227C9.80156 13.6505 9.94516 13.6367 10.0759 13.583C10.2065 13.5293 10.3184 13.4381 10.3973 13.321C10.4764 13.2039 10.5189 13.0659 10.5197 12.9247C10.5197 12.7338 10.4438 12.5506 10.3088 12.4156C10.1738 12.2806 9.99068 12.2047 9.79972 12.2047Z" fill="#403C44"/>
<path d="M9.79972 14.8359C9.42092 14.8351 9.05084 14.722 8.73628 14.511C8.42164 14.2999 8.17668 14.0004 8.03228 13.6502C7.88793 13.2999 7.85062 12.9148 7.92506 12.5434C7.99951 12.1719 8.18236 11.8309 8.4506 11.5634C8.71876 11.2959 9.06028 11.1139 9.43188 11.0403C9.80348 10.9668 10.1885 11.0051 10.5384 11.1503C10.8883 11.2956 11.1872 11.5413 11.3975 11.8564C11.6077 12.1715 11.7199 12.5419 11.7197 12.9207C11.7184 13.4291 11.5156 13.9162 11.1556 14.2752C10.7957 14.6343 10.3081 14.8359 9.79972 14.8359ZM9.79972 12.2047C9.65844 12.2055 9.5206 12.248 9.4034 12.3271C9.28628 12.406 9.19516 12.5179 9.14148 12.6486C9.08772 12.7792 9.07388 12.9228 9.10164 13.0614C9.1294 13.1999 9.19756 13.3271 9.2974 13.427C9.39732 13.5269 9.52452 13.595 9.66308 13.6227C9.80156 13.6505 9.94516 13.6367 10.0759 13.583C10.2065 13.5293 10.3184 13.4381 10.3973 13.321C10.4764 13.2039 10.5189 13.0659 10.5197 12.9247C10.5197 12.7338 10.4438 12.5506 10.3088 12.4156C10.1738 12.2806 9.99068 12.2047 9.79972 12.2047Z" fill="black" fill-opacity="0.2"/>
<path d="M9.79972 14.8359C9.42092 14.8351 9.05084 14.722 8.73628 14.511C8.42164 14.2999 8.17668 14.0004 8.03228 13.6502C7.88793 13.2999 7.85062 12.9148 7.92506 12.5434C7.99951 12.1719 8.18236 11.8309 8.4506 11.5634C8.71876 11.2959 9.06028 11.1139 9.43188 11.0403C9.80348 10.9668 10.1885 11.0051 10.5384 11.1503C10.8883 11.2956 11.1872 11.5413 11.3975 11.8564C11.6077 12.1715 11.7199 12.5419 11.7197 12.9207C11.7184 13.4291 11.5156 13.9162 11.1556 14.2752C10.7957 14.6343 10.3081 14.8359 9.79972 14.8359ZM9.79972 12.2047C9.65844 12.2055 9.5206 12.248 9.4034 12.3271C9.28628 12.406 9.19516 12.5179 9.14148 12.6486C9.08772 12.7792 9.07388 12.9228 9.10164 13.0614C9.1294 13.1999 9.19756 13.3271 9.2974 13.427C9.39732 13.5269 9.52452 13.595 9.66308 13.6227C9.80156 13.6505 9.94516 13.6367 10.0759 13.583C10.2065 13.5293 10.3184 13.4381 10.3973 13.321C10.4764 13.2039 10.5189 13.0659 10.5197 12.9247C10.5197 12.7338 10.4438 12.5506 10.3088 12.4156C10.1738 12.2806 9.99068 12.2047 9.79972 12.2047Z" fill="black" fill-opacity="0.2"/>
<path d="M13.3598 8.93502C13.2007 8.93502 13.0481 8.87182 12.9356 8.75926C12.823 8.64678 12.7598 8.49414 12.7598 8.33502V6.65503C12.7478 5.87792 12.4307 5.1367 11.8769 4.59141C11.3231 4.04613 10.577 3.74054 9.79984 3.74062H9.76224C8.99128 3.74665 8.25352 4.05475 7.70723 4.59877C7.16096 5.14279 6.84982 5.87934 6.84063 6.65023V8.33022C6.84063 8.48934 6.77742 8.64198 6.6649 8.75446C6.55237 8.86702 6.39975 8.93022 6.24062 8.93022C6.0815 8.93022 5.92888 8.86702 5.81636 8.75446C5.70383 8.64198 5.64062 8.48934 5.64062 8.33022V6.64222C5.6517 5.5571 6.08824 4.51967 6.85632 3.75308C7.62441 2.98649 8.66272 2.55198 9.74784 2.54302C10.8494 2.53742 11.9097 2.96127 12.7038 3.72463C13.096 4.1051 13.4088 4.55958 13.6242 5.06176C13.8394 5.56394 13.953 6.10386 13.9582 6.65023V8.33502C13.9582 8.4939 13.8952 8.64622 13.783 8.7587C13.6709 8.87118 13.5187 8.93462 13.3598 8.93502Z" fill="#403C44"/>
<path d="M13.3598 8.93502C13.2007 8.93502 13.0481 8.87182 12.9356 8.75926C12.823 8.64678 12.7598 8.49414 12.7598 8.33502V6.65503C12.7478 5.87792 12.4307 5.1367 11.8769 4.59141C11.3231 4.04613 10.577 3.74054 9.79984 3.74062H9.76224C8.99128 3.74665 8.25352 4.05475 7.70723 4.59877C7.16096 5.14279 6.84982 5.87934 6.84063 6.65023V8.33022C6.84063 8.48934 6.77742 8.64198 6.6649 8.75446C6.55237 8.86702 6.39975 8.93022 6.24062 8.93022C6.0815 8.93022 5.92888 8.86702 5.81636 8.75446C5.70383 8.64198 5.64062 8.48934 5.64062 8.33022V6.64222C5.6517 5.5571 6.08824 4.51967 6.85632 3.75308C7.62441 2.98649 8.66272 2.55198 9.74784 2.54302C10.8494 2.53742 11.9097 2.96127 12.7038 3.72463C13.096 4.1051 13.4088 4.55958 13.6242 5.06176C13.8394 5.56394 13.953 6.10386 13.9582 6.65023V8.33502C13.9582 8.4939 13.8952 8.64622 13.783 8.7587C13.6709 8.87118 13.5187 8.93462 13.3598 8.93502Z" fill="black" fill-opacity="0.2"/>
<path d="M13.3598 8.93502C13.2007 8.93502 13.0481 8.87182 12.9356 8.75926C12.823 8.64678 12.7598 8.49414 12.7598 8.33502V6.65503C12.7478 5.87792 12.4307 5.1367 11.8769 4.59141C11.3231 4.04613 10.577 3.74054 9.79984 3.74062H9.76224C8.99128 3.74665 8.25352 4.05475 7.70723 4.59877C7.16096 5.14279 6.84982 5.87934 6.84063 6.65023V8.33022C6.84063 8.48934 6.77742 8.64198 6.6649 8.75446C6.55237 8.86702 6.39975 8.93022 6.24062 8.93022C6.0815 8.93022 5.92888 8.86702 5.81636 8.75446C5.70383 8.64198 5.64062 8.48934 5.64062 8.33022V6.64222C5.6517 5.5571 6.08824 4.51967 6.85632 3.75308C7.62441 2.98649 8.66272 2.55198 9.74784 2.54302C10.8494 2.53742 11.9097 2.96127 12.7038 3.72463C13.096 4.1051 13.4088 4.55958 13.6242 5.06176C13.8394 5.56394 13.953 6.10386 13.9582 6.65023V8.33502C13.9582 8.4939 13.8952 8.64622 13.783 8.7587C13.6709 8.87118 13.5187 8.93462 13.3598 8.93502Z" fill="black" fill-opacity="0.2"/>
<path d="M11.9604 18.1564H7.64038C6.7407 18.2537 5.83065 18.1529 4.97401 17.8612C4.35926 17.5658 3.86348 17.0698 3.56839 16.4548C3.27585 15.5984 3.17481 14.6882 3.27239 13.7884V12.0836C3.17495 11.1836 3.27598 10.2732 3.56839 9.4164C3.8642 8.80224 4.3598 8.30664 4.97401 8.0108C5.83063 7.71912 6.7407 7.61836 7.64038 7.71562H11.9604C12.8601 7.61836 13.7702 7.71912 14.6268 8.0108C15.241 8.30664 15.7366 8.80224 16.0324 9.4164C16.3248 10.2732 16.4258 11.1836 16.3284 12.0836V13.7884C16.4259 14.6885 16.3249 15.5989 16.0324 16.4556C15.7372 17.07 15.2418 17.5656 14.6276 17.8612C13.7706 18.1528 12.8604 18.2535 11.9604 18.1564ZM7.64038 8.9156C6.91955 8.84272 6.19146 8.90288 5.49239 9.0932C5.12402 9.2708 4.82677 9.56808 4.6492 9.9364C4.45957 10.6354 4.39964 11.3631 4.47239 12.0836V13.7884C4.39973 14.5092 4.45966 15.2372 4.6492 15.9364C4.82708 16.3049 5.1246 16.6021 5.49319 16.7796C6.19213 16.9692 6.91986 17.0291 7.64038 16.9564H11.9604C12.6812 17.029 13.4092 16.9691 14.1084 16.7796C14.4766 16.6018 14.7738 16.3046 14.9516 15.9364C15.1411 15.2372 15.201 14.5092 15.1284 13.7884V12.0836C15.2011 11.3631 15.1412 10.6354 14.9516 9.9364C14.774 9.56808 14.4768 9.2708 14.1084 9.0932C13.4094 8.90288 12.6813 8.84272 11.9604 8.9156H7.64038Z" fill="#403C44"/>
<path d="M11.9604 18.1564H7.64038C6.7407 18.2537 5.83065 18.1529 4.97401 17.8612C4.35926 17.5658 3.86348 17.0698 3.56839 16.4548C3.27585 15.5984 3.17481 14.6882 3.27239 13.7884V12.0836C3.17495 11.1836 3.27598 10.2732 3.56839 9.4164C3.8642 8.80224 4.3598 8.30664 4.97401 8.0108C5.83063 7.71912 6.7407 7.61836 7.64038 7.71562H11.9604C12.8601 7.61836 13.7702 7.71912 14.6268 8.0108C15.241 8.30664 15.7366 8.80224 16.0324 9.4164C16.3248 10.2732 16.4258 11.1836 16.3284 12.0836V13.7884C16.4259 14.6885 16.3249 15.5989 16.0324 16.4556C15.7372 17.07 15.2418 17.5656 14.6276 17.8612C13.7706 18.1528 12.8604 18.2535 11.9604 18.1564ZM7.64038 8.9156C6.91955 8.84272 6.19146 8.90288 5.49239 9.0932C5.12402 9.2708 4.82677 9.56808 4.6492 9.9364C4.45957 10.6354 4.39964 11.3631 4.47239 12.0836V13.7884C4.39973 14.5092 4.45966 15.2372 4.6492 15.9364C4.82708 16.3049 5.1246 16.6021 5.49319 16.7796C6.19213 16.9692 6.91986 17.0291 7.64038 16.9564H11.9604C12.6812 17.029 13.4092 16.9691 14.1084 16.7796C14.4766 16.6018 14.7738 16.3046 14.9516 15.9364C15.1411 15.2372 15.201 14.5092 15.1284 13.7884V12.0836C15.2011 11.3631 15.1412 10.6354 14.9516 9.9364C14.774 9.56808 14.4768 9.2708 14.1084 9.0932C13.4094 8.90288 12.6813 8.84272 11.9604 8.9156H7.64038Z" fill="black" fill-opacity="0.2"/>
<path d="M11.9604 18.1564H7.64038C6.7407 18.2537 5.83065 18.1529 4.97401 17.8612C4.35926 17.5658 3.86348 17.0698 3.56839 16.4548C3.27585 15.5984 3.17481 14.6882 3.27239 13.7884V12.0836C3.17495 11.1836 3.27598 10.2732 3.56839 9.4164C3.8642 8.80224 4.3598 8.30664 4.97401 8.0108C5.83063 7.71912 6.7407 7.61836 7.64038 7.71562H11.9604C12.8601 7.61836 13.7702 7.71912 14.6268 8.0108C15.241 8.30664 15.7366 8.80224 16.0324 9.4164C16.3248 10.2732 16.4258 11.1836 16.3284 12.0836V13.7884C16.4259 14.6885 16.3249 15.5989 16.0324 16.4556C15.7372 17.07 15.2418 17.5656 14.6276 17.8612C13.7706 18.1528 12.8604 18.2535 11.9604 18.1564ZM7.64038 8.9156C6.91955 8.84272 6.19146 8.90288 5.49239 9.0932C5.12402 9.2708 4.82677 9.56808 4.6492 9.9364C4.45957 10.6354 4.39964 11.3631 4.47239 12.0836V13.7884C4.39973 14.5092 4.45966 15.2372 4.6492 15.9364C4.82708 16.3049 5.1246 16.6021 5.49319 16.7796C6.19213 16.9692 6.91986 17.0291 7.64038 16.9564H11.9604C12.6812 17.029 13.4092 16.9691 14.1084 16.7796C14.4766 16.6018 14.7738 16.3046 14.9516 15.9364C15.1411 15.2372 15.201 14.5092 15.1284 13.7884V12.0836C15.2011 11.3631 15.1412 10.6354 14.9516 9.9364C14.774 9.56808 14.4768 9.2708 14.1084 9.0932C13.4094 8.90288 12.6813 8.84272 11.9604 8.9156H7.64038Z" fill="black" fill-opacity="0.2"/>
</svg>
