<svg width="21" height="20" viewBox="0 0 21 20" fill="none" xmlns="http://www.w3.org/2000/svg">
<path fill-rule="evenodd" clip-rule="evenodd" d="M7.32139 1.87503H12.0293C12.6639 1.87503 13.2722 2.13266 13.7126 2.59176C13.7125 2.59168 13.7127 2.59185 13.7126 2.59176L16.873 5.88363C17.2885 6.31786 17.5224 6.89641 17.5224 7.49866V14.3009C17.5357 16.3502 15.9225 18.0411 13.875 18.1245C13.8703 18.1247 13.8656 18.1248 13.8608 18.1249C13.857 18.125 13.8533 18.125 13.8495 18.125L7.2447 18.1242L7.23091 18.124C5.16124 18.0783 3.51957 16.3653 3.56133 14.2964V5.54705L3.56151 5.53214C3.61015 3.49294 5.28124 1.86702 7.32139 1.87503ZM13.8362 16.875C15.2054 16.8128 16.2822 15.6796 16.2724 14.3074L16.2723 14.303V7.49866C16.2723 7.22056 16.1643 6.95118 15.9703 6.74817C15.9701 6.74803 15.9703 6.7483 15.9703 6.74817L12.8108 3.45747C12.6075 3.24539 12.3253 3.12503 12.0293 3.12503H7.31743C5.96002 3.1192 4.84743 4.19897 4.81133 5.55491V14.303L4.81118 14.3167C4.78073 15.6965 5.87308 16.8402 7.25198 16.8742L13.8362 16.875Z" fill="#403C44"/>
<path fill-rule="evenodd" clip-rule="evenodd" d="M7.32139 1.87503H12.0293C12.6639 1.87503 13.2722 2.13266 13.7126 2.59176C13.7125 2.59168 13.7127 2.59185 13.7126 2.59176L16.873 5.88363C17.2885 6.31786 17.5224 6.89641 17.5224 7.49866V14.3009C17.5357 16.3502 15.9225 18.0411 13.875 18.1245C13.8703 18.1247 13.8656 18.1248 13.8608 18.1249C13.857 18.125 13.8533 18.125 13.8495 18.125L7.2447 18.1242L7.23091 18.124C5.16124 18.0783 3.51957 16.3653 3.56133 14.2964V5.54705L3.56151 5.53214C3.61015 3.49294 5.28124 1.86702 7.32139 1.87503ZM13.8362 16.875C15.2054 16.8128 16.2822 15.6796 16.2724 14.3074L16.2723 14.303V7.49866C16.2723 7.22056 16.1643 6.95118 15.9703 6.74817C15.9701 6.74803 15.9703 6.7483 15.9703 6.74817L12.8108 3.45747C12.6075 3.24539 12.3253 3.12503 12.0293 3.12503H7.31743C5.96002 3.1192 4.84743 4.19897 4.81133 5.55491V14.303L4.81118 14.3167C4.78073 15.6965 5.87308 16.8402 7.25198 16.8742L13.8362 16.875Z" fill="black" fill-opacity="0.2"/>
<path fill-rule="evenodd" clip-rule="evenodd" d="M7.32139 1.87503H12.0293C12.6639 1.87503 13.2722 2.13266 13.7126 2.59176C13.7125 2.59168 13.7127 2.59185 13.7126 2.59176L16.873 5.88363C17.2885 6.31786 17.5224 6.89641 17.5224 7.49866V14.3009C17.5357 16.3502 15.9225 18.0411 13.875 18.1245C13.8703 18.1247 13.8656 18.1248 13.8608 18.1249C13.857 18.125 13.8533 18.125 13.8495 18.125L7.2447 18.1242L7.23091 18.124C5.16124 18.0783 3.51957 16.3653 3.56133 14.2964V5.54705L3.56151 5.53214C3.61015 3.49294 5.28124 1.86702 7.32139 1.87503ZM13.8362 16.875C15.2054 16.8128 16.2822 15.6796 16.2724 14.3074L16.2723 14.303V7.49866C16.2723 7.22056 16.1643 6.95118 15.9703 6.74817C15.9701 6.74803 15.9703 6.7483 15.9703 6.74817L12.8108 3.45747C12.6075 3.24539 12.3253 3.12503 12.0293 3.12503H7.31743C5.96002 3.1192 4.84743 4.19897 4.81133 5.55491V14.303L4.81118 14.3167C4.78073 15.6965 5.87308 16.8402 7.25198 16.8742L13.8362 16.875Z" fill="black" fill-opacity="0.2"/>
<path fill-rule="evenodd" clip-rule="evenodd" d="M7.35156 9.72656C7.35156 9.3814 7.63138 9.10156 7.97656 9.10156H10.7195C11.0647 9.10156 11.3445 9.3814 11.3445 9.72656C11.3445 10.0717 11.0647 10.3516 10.7195 10.3516H7.97656C7.63138 10.3516 7.35156 10.0717 7.35156 9.72656ZM7.35275 12.794C7.35275 12.4488 7.63257 12.169 7.97775 12.169H12.391C12.7362 12.169 13.016 12.4488 13.016 12.794C13.016 13.1391 12.7362 13.419 12.391 13.419H7.97775C7.63257 13.419 7.35275 13.1391 7.35275 12.794Z" fill="#403C44"/>
<path fill-rule="evenodd" clip-rule="evenodd" d="M7.35156 9.72656C7.35156 9.3814 7.63138 9.10156 7.97656 9.10156H10.7195C11.0647 9.10156 11.3445 9.3814 11.3445 9.72656C11.3445 10.0717 11.0647 10.3516 10.7195 10.3516H7.97656C7.63138 10.3516 7.35156 10.0717 7.35156 9.72656ZM7.35275 12.794C7.35275 12.4488 7.63257 12.169 7.97775 12.169H12.391C12.7362 12.169 13.016 12.4488 13.016 12.794C13.016 13.1391 12.7362 13.419 12.391 13.419H7.97775C7.63257 13.419 7.35275 13.1391 7.35275 12.794Z" fill="black" fill-opacity="0.2"/>
<path fill-rule="evenodd" clip-rule="evenodd" d="M7.35156 9.72656C7.35156 9.3814 7.63138 9.10156 7.97656 9.10156H10.7195C11.0647 9.10156 11.3445 9.3814 11.3445 9.72656C11.3445 10.0717 11.0647 10.3516 10.7195 10.3516H7.97656C7.63138 10.3516 7.35156 10.0717 7.35156 9.72656ZM7.35275 12.794C7.35275 12.4488 7.63257 12.169 7.97775 12.169H12.391C12.7362 12.169 13.016 12.4488 13.016 12.794C13.016 13.1391 12.7362 13.419 12.391 13.419H7.97775C7.63257 13.419 7.35275 13.1391 7.35275 12.794Z" fill="black" fill-opacity="0.2"/>
<path fill-rule="evenodd" clip-rule="evenodd" d="M12.4326 1.92773C12.7778 1.92773 13.0576 2.20756 13.0576 2.55273V4.96327C13.057 5.79435 13.73 6.4695 14.5618 6.47151H16.8435C17.1886 6.47151 17.4685 6.75133 17.4685 7.09651C17.4685 7.44168 17.1886 7.72151 16.8435 7.72151H14.5597C13.039 7.71837 11.8069 6.48478 11.8076 4.96327C11.8076 4.9632 11.8076 4.96333 11.8076 4.96327V2.55273C11.8076 2.20756 12.0875 1.92773 12.4326 1.92773Z" fill="#403C44"/>
<path fill-rule="evenodd" clip-rule="evenodd" d="M12.4326 1.92773C12.7778 1.92773 13.0576 2.20756 13.0576 2.55273V4.96327C13.057 5.79435 13.73 6.4695 14.5618 6.47151H16.8435C17.1886 6.47151 17.4685 6.75133 17.4685 7.09651C17.4685 7.44168 17.1886 7.72151 16.8435 7.72151H14.5597C13.039 7.71837 11.8069 6.48478 11.8076 4.96327C11.8076 4.9632 11.8076 4.96333 11.8076 4.96327V2.55273C11.8076 2.20756 12.0875 1.92773 12.4326 1.92773Z" fill="black" fill-opacity="0.2"/>
<path fill-rule="evenodd" clip-rule="evenodd" d="M12.4326 1.92773C12.7778 1.92773 13.0576 2.20756 13.0576 2.55273V4.96327C13.057 5.79435 13.73 6.4695 14.5618 6.47151H16.8435C17.1886 6.47151 17.4685 6.75133 17.4685 7.09651C17.4685 7.44168 17.1886 7.72151 16.8435 7.72151H14.5597C13.039 7.71837 11.8069 6.48478 11.8076 4.96327C11.8076 4.9632 11.8076 4.96333 11.8076 4.96327V2.55273C11.8076 2.20756 12.0875 1.92773 12.4326 1.92773Z" fill="black" fill-opacity="0.2"/>
</svg>
