<svg width="20" height="20" viewBox="0 0 20 20" fill="none" xmlns="http://www.w3.org/2000/svg">
<path d="M6.79188 12.618C6.86709 12.5447 6.97026 12.5 7.08402 12.5H8.74996C8.98022 12.5 9.16699 12.6831 9.16699 12.9167C9.16699 13.0463 9.10644 13.1635 9.01169 13.2403C8.94002 13.2983 8.84905 13.3333 8.74996 13.3333H7.08402C6.85379 13.3333 6.66699 13.1442 6.66699 12.9167C6.66699 12.7984 6.71478 12.6931 6.79188 12.618Z" fill="#403C44"/>
<path fill-rule="evenodd" clip-rule="evenodd" d="M3.68726 6.30479L4.26585 4.86033C4.63244 3.93623 5.52253 3.33398 6.51111 3.33398H13.4923C14.4792 3.33398 15.3676 3.93623 15.7359 4.85364L16.3158 6.29777C16.5482 6.87261 16.667 7.48856 16.6663 8.11154L16.657 13.3887C16.655 14.2647 16.4607 15.0862 15.9816 15.6954C15.4864 16.3251 14.7409 16.6673 13.7965 16.6673L6.20095 16.6536C5.25644 16.6536 4.50857 16.3114 4.01111 15.6748C3.528 15.0658 3.33102 14.2443 3.33302 13.3614L3.34171 8.09784C3.34237 7.48188 3.46023 6.87963 3.68726 6.30479ZM5.21838 5.23665L5.21804 5.24366L4.63945 6.6878C4.63043 6.71052 4.62175 6.73358 4.61307 6.75631H9.48685V4.36068H6.51111C5.94153 4.36068 5.42904 4.70993 5.21838 5.23665ZM10.5125 4.36068V6.75631H15.394C15.3843 6.73124 15.3746 6.70617 15.3646 6.68111L14.7844 5.23665C14.5723 4.70993 14.0612 4.36068 13.4923 4.36068H10.5125ZM15.627 7.78301H4.3807C4.37202 7.88728 4.36735 7.99222 4.36735 8.09784L4.35866 13.3614V13.368C4.357 14.1073 4.52593 14.6758 4.8164 15.0384C5.09184 15.3944 5.5242 15.6269 6.20295 15.6269L13.7991 15.6406C14.4778 15.6406 14.9035 15.408 15.175 15.0658C15.4621 14.6962 15.6297 14.1347 15.6314 13.3887L15.6407 8.11154C15.6407 8.00158 15.6364 7.89196 15.627 7.78301Z" fill="#403C44"/>
</svg>
