<svg width="20" height="20" viewBox="0 0 20 20" fill="none" xmlns="http://www.w3.org/2000/svg">
<path d="M13.1636 11.832C13.1636 12.177 12.8837 12.457 12.5386 12.457H7.82422C7.47917 12.457 7.19922 12.177 7.19922 11.832C7.19922 11.4869 7.47917 11.207 7.82422 11.207H12.5386C12.773 11.207 12.9772 11.3356 13.0842 11.526C13.1347 11.6172 13.1636 11.7214 13.1636 11.832Z" fill="#403C44"/>
<path d="M13.1636 11.832C13.1636 12.177 12.8837 12.457 12.5386 12.457H7.82422C7.47917 12.457 7.19922 12.177 7.19922 11.832C7.19922 11.4869 7.47917 11.207 7.82422 11.207H12.5386C12.773 11.207 12.9772 11.3356 13.0842 11.526C13.1347 11.6172 13.1636 11.7214 13.1636 11.832Z" fill="black" fill-opacity="0.2"/>
<path d="M13.1636 11.832C13.1636 12.177 12.8837 12.457 12.5386 12.457H7.82422C7.47917 12.457 7.19922 12.177 7.19922 11.832C7.19922 11.4869 7.47917 11.207 7.82422 11.207H12.5386C12.773 11.207 12.9772 11.3356 13.0842 11.526C13.1347 11.6172 13.1636 11.7214 13.1636 11.832Z" fill="black" fill-opacity="0.2"/>
<path d="M13.1636 8.16797C13.1636 8.51303 12.8837 8.79294 12.5386 8.79294H7.82422C7.47917 8.79294 7.19922 8.51303 7.19922 8.16797C7.19922 7.82292 7.47917 7.54297 7.82422 7.54297H12.5386C12.6806 7.54297 12.8116 7.59018 12.9166 7.66993C13.0667 7.78386 13.1636 7.96452 13.1636 8.16797Z" fill="#403C44"/>
<path d="M13.1636 8.16797C13.1636 8.51303 12.8837 8.79294 12.5386 8.79294H7.82422C7.47917 8.79294 7.19922 8.51303 7.19922 8.16797C7.19922 7.82292 7.47917 7.54297 7.82422 7.54297H12.5386C12.6806 7.54297 12.8116 7.59018 12.9166 7.66993C13.0667 7.78386 13.1636 7.96452 13.1636 8.16797Z" fill="black" fill-opacity="0.2"/>
<path d="M13.1636 8.16797C13.1636 8.51303 12.8837 8.79294 12.5386 8.79294H7.82422C7.47917 8.79294 7.19922 8.51303 7.19922 8.16797C7.19922 7.82292 7.47917 7.54297 7.82422 7.54297H12.5386C12.6806 7.54297 12.8116 7.59018 12.9166 7.66993C13.0667 7.78386 13.1636 7.96452 13.1636 8.16797Z" fill="black" fill-opacity="0.2"/>
<path fill-rule="evenodd" clip-rule="evenodd" d="M14.0285 17.1484C13.81 17.0443 13.5577 17.0362 13.3318 17.1289L11.5436 17.8581C10.6707 18.2145 9.69333 18.2145 8.82099 17.8581L7.03508 17.1289C6.81006 17.0362 6.55656 17.0443 6.33846 17.1484L5.70492 17.4528C4.62418 17.9704 3.37337 17.181 3.375 15.9831L3.38354 5.77148C3.38354 4.64843 3.69686 3.66048 4.36662 2.94922C5.04248 2.23308 6.00684 1.875 7.14657 1.875H13.2293C14.3715 1.875 15.3334 2.23307 16.0032 2.95247C16.6685 3.66537 16.9732 4.65169 16.9732 5.76986L16.9882 15.9814C16.9891 17.1793 15.7391 17.9688 14.6576 17.4512L14.0293 17.1501L14.0285 17.1484ZM5.16496 16.3248L5.7985 16.0222C6.33602 15.765 6.95654 15.7454 7.5083 15.9717L9.29341 16.7008C9.58516 16.8197 9.89474 16.8783 10.2044 16.875C10.499 16.8733 10.7932 16.8148 11.0707 16.7008L12.8598 15.9717C13.4108 15.7454 14.0326 15.7633 14.5692 16.0222L15.1975 16.3233C15.4482 16.4437 15.7382 16.2614 15.7382 15.9814L15.7232 5.77148C15.7232 4.86979 15.4791 4.22201 15.0892 3.80371C14.706 3.39356 14.1074 3.125 13.2293 3.125H7.14657C6.27173 3.125 5.66667 3.39356 5.27685 3.80697C4.88175 4.22526 4.63354 4.87305 4.63354 5.77148L4.625 15.9831C4.625 16.2614 4.91512 16.4437 5.16496 16.3248Z" fill="#403C44"/>
<path fill-rule="evenodd" clip-rule="evenodd" d="M14.0285 17.1484C13.81 17.0443 13.5577 17.0362 13.3318 17.1289L11.5436 17.8581C10.6707 18.2145 9.69333 18.2145 8.82099 17.8581L7.03508 17.1289C6.81006 17.0362 6.55656 17.0443 6.33846 17.1484L5.70492 17.4528C4.62418 17.9704 3.37337 17.181 3.375 15.9831L3.38354 5.77148C3.38354 4.64843 3.69686 3.66048 4.36662 2.94922C5.04248 2.23308 6.00684 1.875 7.14657 1.875H13.2293C14.3715 1.875 15.3334 2.23307 16.0032 2.95247C16.6685 3.66537 16.9732 4.65169 16.9732 5.76986L16.9882 15.9814C16.9891 17.1793 15.7391 17.9688 14.6576 17.4512L14.0293 17.1501L14.0285 17.1484ZM5.16496 16.3248L5.7985 16.0222C6.33602 15.765 6.95654 15.7454 7.5083 15.9717L9.29341 16.7008C9.58516 16.8197 9.89474 16.8783 10.2044 16.875C10.499 16.8733 10.7932 16.8148 11.0707 16.7008L12.8598 15.9717C13.4108 15.7454 14.0326 15.7633 14.5692 16.0222L15.1975 16.3233C15.4482 16.4437 15.7382 16.2614 15.7382 15.9814L15.7232 5.77148C15.7232 4.86979 15.4791 4.22201 15.0892 3.80371C14.706 3.39356 14.1074 3.125 13.2293 3.125H7.14657C6.27173 3.125 5.66667 3.39356 5.27685 3.80697C4.88175 4.22526 4.63354 4.87305 4.63354 5.77148L4.625 15.9831C4.625 16.2614 4.91512 16.4437 5.16496 16.3248Z" fill="black" fill-opacity="0.2"/>
<path fill-rule="evenodd" clip-rule="evenodd" d="M14.0285 17.1484C13.81 17.0443 13.5577 17.0362 13.3318 17.1289L11.5436 17.8581C10.6707 18.2145 9.69333 18.2145 8.82099 17.8581L7.03508 17.1289C6.81006 17.0362 6.55656 17.0443 6.33846 17.1484L5.70492 17.4528C4.62418 17.9704 3.37337 17.181 3.375 15.9831L3.38354 5.77148C3.38354 4.64843 3.69686 3.66048 4.36662 2.94922C5.04248 2.23308 6.00684 1.875 7.14657 1.875H13.2293C14.3715 1.875 15.3334 2.23307 16.0032 2.95247C16.6685 3.66537 16.9732 4.65169 16.9732 5.76986L16.9882 15.9814C16.9891 17.1793 15.7391 17.9688 14.6576 17.4512L14.0293 17.1501L14.0285 17.1484ZM5.16496 16.3248L5.7985 16.0222C6.33602 15.765 6.95654 15.7454 7.5083 15.9717L9.29341 16.7008C9.58516 16.8197 9.89474 16.8783 10.2044 16.875C10.499 16.8733 10.7932 16.8148 11.0707 16.7008L12.8598 15.9717C13.4108 15.7454 14.0326 15.7633 14.5692 16.0222L15.1975 16.3233C15.4482 16.4437 15.7382 16.2614 15.7382 15.9814L15.7232 5.77148C15.7232 4.86979 15.4791 4.22201 15.0892 3.80371C14.706 3.39356 14.1074 3.125 13.2293 3.125H7.14657C6.27173 3.125 5.66667 3.39356 5.27685 3.80697C4.88175 4.22526 4.63354 4.87305 4.63354 5.77148L4.625 15.9831C4.625 16.2614 4.91512 16.4437 5.16496 16.3248Z" fill="black" fill-opacity="0.2"/>
</svg>
