<svg width="21" height="20" viewBox="0 0 21 20" fill="none" xmlns="http://www.w3.org/2000/svg">
<path fill-rule="evenodd" clip-rule="evenodd" d="M9.82717 4.42338C8.15225 4.42338 6.79447 5.78116 6.79447 7.45607C6.79447 9.13099 8.15225 10.4888 9.82717 10.4888C11.5021 10.4888 12.8599 9.13099 12.8599 7.45607C12.8599 5.78116 11.5021 4.42338 9.82717 4.42338ZM5.64062 7.45607C5.64062 5.14391 7.515 3.26953 9.82717 3.26953C12.1393 3.26953 14.0137 5.14391 14.0137 7.45607C14.0137 9.76822 12.1393 11.6426 9.82717 11.6426C7.515 11.6426 5.64062 9.76822 5.64062 7.45607Z" fill="#403C44"/>
<path fill-rule="evenodd" clip-rule="evenodd" d="M9.82717 4.42338C8.15225 4.42338 6.79447 5.78116 6.79447 7.45607C6.79447 9.13099 8.15225 10.4888 9.82717 10.4888C11.5021 10.4888 12.8599 9.13099 12.8599 7.45607C12.8599 5.78116 11.5021 4.42338 9.82717 4.42338ZM5.64062 7.45607C5.64062 5.14391 7.515 3.26953 9.82717 3.26953C12.1393 3.26953 14.0137 5.14391 14.0137 7.45607C14.0137 9.76822 12.1393 11.6426 9.82717 11.6426C7.515 11.6426 5.64062 9.76822 5.64062 7.45607Z" fill="black" fill-opacity="0.2"/>
<path fill-rule="evenodd" clip-rule="evenodd" d="M9.82717 4.42338C8.15225 4.42338 6.79447 5.78116 6.79447 7.45607C6.79447 9.13099 8.15225 10.4888 9.82717 10.4888C11.5021 10.4888 12.8599 9.13099 12.8599 7.45607C12.8599 5.78116 11.5021 4.42338 9.82717 4.42338ZM5.64062 7.45607C5.64062 5.14391 7.515 3.26953 9.82717 3.26953C12.1393 3.26953 14.0137 5.14391 14.0137 7.45607C14.0137 9.76822 12.1393 11.6426 9.82717 11.6426C7.515 11.6426 5.64062 9.76822 5.64062 7.45607Z" fill="black" fill-opacity="0.2"/>
<path fill-rule="evenodd" clip-rule="evenodd" d="M4.27201 14.6617C4.27201 12.4776 6.04259 10.707 8.2267 10.707H11.5159C13.6999 10.707 15.4705 12.4776 15.4705 14.6617C15.4705 14.7536 15.4722 14.8524 15.4739 14.9562C15.4805 15.3491 15.4883 15.8143 15.412 16.2533C15.3575 16.5673 15.0589 16.7776 14.7449 16.723C14.4309 16.6685 14.2207 16.3699 14.2752 16.056C14.331 15.7348 14.3262 15.417 14.3205 15.0435C14.3186 14.9227 14.3166 14.7961 14.3166 14.6617C14.3166 13.1148 13.0627 11.8609 11.5159 11.8609H8.2267C6.67983 11.8609 5.42586 13.1148 5.42586 14.6617C5.42586 14.7961 5.42393 14.9227 5.42208 15.0435C5.41638 15.417 5.41153 15.7348 5.46731 16.056C5.52183 16.3699 5.31155 16.6685 4.99763 16.723C4.6837 16.7776 4.38501 16.5673 4.33048 16.2533C4.25421 15.8143 4.26202 15.3491 4.26861 14.9562C4.27036 14.8524 4.27201 14.7536 4.27201 14.6617Z" fill="#403C44"/>
<path fill-rule="evenodd" clip-rule="evenodd" d="M4.27201 14.6617C4.27201 12.4776 6.04259 10.707 8.2267 10.707H11.5159C13.6999 10.707 15.4705 12.4776 15.4705 14.6617C15.4705 14.7536 15.4722 14.8524 15.4739 14.9562C15.4805 15.3491 15.4883 15.8143 15.412 16.2533C15.3575 16.5673 15.0589 16.7776 14.7449 16.723C14.4309 16.6685 14.2207 16.3699 14.2752 16.056C14.331 15.7348 14.3262 15.417 14.3205 15.0435C14.3186 14.9227 14.3166 14.7961 14.3166 14.6617C14.3166 13.1148 13.0627 11.8609 11.5159 11.8609H8.2267C6.67983 11.8609 5.42586 13.1148 5.42586 14.6617C5.42586 14.7961 5.42393 14.9227 5.42208 15.0435C5.41638 15.417 5.41153 15.7348 5.46731 16.056C5.52183 16.3699 5.31155 16.6685 4.99763 16.723C4.6837 16.7776 4.38501 16.5673 4.33048 16.2533C4.25421 15.8143 4.26202 15.3491 4.26861 14.9562C4.27036 14.8524 4.27201 14.7536 4.27201 14.6617Z" fill="black" fill-opacity="0.2"/>
<path fill-rule="evenodd" clip-rule="evenodd" d="M4.27201 14.6617C4.27201 12.4776 6.04259 10.707 8.2267 10.707H11.5159C13.6999 10.707 15.4705 12.4776 15.4705 14.6617C15.4705 14.7536 15.4722 14.8524 15.4739 14.9562C15.4805 15.3491 15.4883 15.8143 15.412 16.2533C15.3575 16.5673 15.0589 16.7776 14.7449 16.723C14.4309 16.6685 14.2207 16.3699 14.2752 16.056C14.331 15.7348 14.3262 15.417 14.3205 15.0435C14.3186 14.9227 14.3166 14.7961 14.3166 14.6617C14.3166 13.1148 13.0627 11.8609 11.5159 11.8609H8.2267C6.67983 11.8609 5.42586 13.1148 5.42586 14.6617C5.42586 14.7961 5.42393 14.9227 5.42208 15.0435C5.41638 15.417 5.41153 15.7348 5.46731 16.056C5.52183 16.3699 5.31155 16.6685 4.99763 16.723C4.6837 16.7776 4.38501 16.5673 4.33048 16.2533C4.25421 15.8143 4.26202 15.3491 4.26861 14.9562C4.27036 14.8524 4.27201 14.7536 4.27201 14.6617Z" fill="black" fill-opacity="0.2"/>
</svg>
