<svg width="24" height="24" viewBox="0 0 24 24" fill="none" xmlns="http://www.w3.org/2000/svg">
<path fill-rule="evenodd" clip-rule="evenodd" d="M12.7614 13.2834C12.7614 13.6974 12.4254 14.0334 12.0114 14.0334C11.5974 14.0334 11.2614 13.6974 11.2614 13.2834V10.2714C11.2614 9.85744 11.5974 9.52144 12.0114 9.52144C12.4254 9.52144 12.7614 9.85744 12.7614 10.2714V13.2834ZM12.0094 17.0544C11.5954 17.0544 11.2594 16.7424 11.2594 16.3284V16.2794C11.2594 15.8654 11.5954 15.5294 12.0094 15.5294C12.4234 15.5294 12.7594 15.8654 12.7594 16.2794C12.7594 16.6934 12.4234 17.0544 12.0094 17.0544ZM21.1704 16.8734L14.2104 4.65744C13.7614 3.87144 12.9534 3.40044 12.0484 3.39844H12.0434C11.1424 3.39844 10.3354 3.86544 9.8854 4.64644L2.8374 16.8614C2.3864 17.6414 2.3864 18.5744 2.8364 19.3544C3.2864 20.1354 4.0944 20.6004 4.9954 20.6004H19.0034C19.9024 20.6004 20.7074 20.1374 21.1594 19.3594C21.6114 18.5834 21.6154 17.6534 21.1704 16.8734Z" fill="#EE5353"/>
</svg>
