<svg width="22" height="22" viewBox="0 0 22 22" fill="none" xmlns="http://www.w3.org/2000/svg">
<path fill-rule="evenodd" clip-rule="evenodd" d="M14.0327 4.72528C12.6691 3.3618 10.4582 3.3618 9.09478 4.72528L5.07484 8.74522C2.88964 10.9304 2.88964 14.4733 5.07484 16.6585C7.26004 18.8437 10.8029 18.8437 12.9881 16.6585L18.761 10.8856C19.0232 10.6234 19.4484 10.6234 19.7106 10.8856C19.9728 11.1478 19.9728 11.573 19.7106 11.8352L13.9377 17.6081C11.2281 20.3177 6.83489 20.3177 4.12525 17.6081C1.41561 14.8984 1.41561 10.5052 4.12525 7.79562L8.14519 3.77568C10.0331 1.88776 13.0943 1.88776 14.9823 3.77568C16.8701 5.66361 16.8701 8.72483 14.9823 10.6128L11.061 14.534C9.97864 15.6164 8.22219 15.6175 7.13926 14.5345C6.05582 13.4511 6.05672 11.6947 7.13926 10.6121L10.8395 6.91187C11.1017 6.64965 11.5269 6.64965 11.7891 6.91187C12.0513 7.1741 12.0513 7.59925 11.7891 7.86147L8.08885 11.5617C7.53049 12.12 7.53012 13.0262 8.08885 13.585C8.64681 14.1429 9.55303 14.1428 10.1115 13.5843L14.0327 9.66318C15.3961 8.29968 15.3961 6.08876 14.0327 4.72528Z" fill="#0F0F10"/>
</svg>
