<svg width="24" height="24" viewBox="0 0 24 24" fill="none" xmlns="http://www.w3.org/2000/svg">
<path d="M15.3988 20.1696H7.21658C6.59312 20.1783 5.97425 20.0617 5.39663 19.8269C4.81901 19.5922 4.29439 19.2438 3.85382 18.8026C3.34784 18.2791 2.95072 17.6604 2.68547 16.9824C2.42024 16.3044 2.29213 15.5806 2.30858 14.8527V9.15087C2.26801 8.47504 2.36458 7.79798 2.59248 7.16044C2.82038 6.5229 3.17489 5.93804 3.63469 5.44108C4.09449 4.94411 4.65008 4.5453 5.26802 4.26862C5.88596 3.99196 6.55349 3.84316 7.23043 3.83118H15.3868C16.0636 3.84316 16.7312 3.99196 17.3491 4.26862C17.9671 4.5453 18.5226 4.94411 18.9825 5.44108C19.4423 5.93804 19.7968 6.5229 20.0247 7.16044C20.2526 7.79798 20.3491 8.47504 20.3086 9.15087V14.8527C20.3246 15.5799 20.1962 16.3032 19.931 16.9805C19.6658 17.6578 19.2688 18.2759 18.7634 18.7989C18.3229 19.2409 17.798 19.59 17.2201 19.8255C16.6421 20.061 16.0228 20.178 15.3988 20.1696ZM7.22858 18.785H15.3969C15.8392 18.7927 16.2784 18.7115 16.6887 18.546C17.0989 18.3807 17.4716 18.1345 17.7849 17.8223C18.1615 17.4271 18.4562 16.9612 18.6517 16.4515C18.8472 15.9418 18.9398 15.3984 18.924 14.8527V9.15087C18.924 6.87087 17.4369 5.21579 15.3868 5.21579H7.23043C5.18027 5.21579 3.6932 6.87087 3.6932 9.15087V14.8527C3.67791 15.3978 3.77069 15.9405 3.9662 16.4496C4.16169 16.9585 4.45605 17.4239 4.83227 17.8186C5.14526 18.1307 5.51775 18.3767 5.92765 18.5421C6.33754 18.7075 6.77649 18.7888 7.21843 18.7813L7.22858 18.785Z" fill="black"/>
<path d="M11.332 13.4947C10.7445 13.4943 10.1746 13.2946 9.71566 12.9279L5.98826 9.92328C5.84528 9.80798 5.75397 9.64059 5.73441 9.45796C5.71485 9.27533 5.76864 9.09241 5.88395 8.94943C5.99926 8.80646 6.16664 8.71515 6.34927 8.69559C6.5319 8.67602 6.71482 8.72982 6.85779 8.84512L10.5806 11.847C10.7949 12.0183 11.0612 12.1117 11.3357 12.1117C11.6101 12.1117 11.8764 12.0183 12.0907 11.847L15.7757 8.85066C15.9181 8.73474 16.1009 8.68017 16.2835 8.69895C16.4662 8.71774 16.634 8.80834 16.75 8.95082C16.8659 9.0933 16.9205 9.276 16.9016 9.45871C16.8829 9.64143 16.7922 9.8092 16.6498 9.92512L12.9575 12.927C12.4954 13.2946 11.9224 13.4947 11.332 13.4947Z" fill="black"/>
</svg>
