<svg width="24" height="24" viewBox="0 0 24 24" fill="none" xmlns="http://www.w3.org/2000/svg">
<path fill-rule="evenodd" clip-rule="evenodd" d="M2 7.7422C2 5.12497 4.15143 3 6.80982 3H17.1912C19.8498 3 22 5.12521 22 7.7422V14.7409C22 17.3577 19.8501 19.4841 17.1912 19.4841H16.0955C15.713 19.4841 15.3463 19.6336 15.0756 19.9007L13.617 21.3387C12.7243 22.2204 11.2763 22.2202 10.3834 21.3392L8.92543 19.9007C8.6547 19.6336 8.28795 19.4841 7.90553 19.4841H6.80982C4.15118 19.4841 2 17.3579 2 14.7409V7.7422ZM6.80982 4.51285C5.0055 4.51285 3.53846 5.95616 3.53846 7.7422V14.7409C3.53846 16.5272 5.00574 17.9712 6.80982 17.9712H7.90553C8.69667 17.9712 9.45558 18.2807 10.0151 18.8328L11.4731 20.2713C11.7654 20.5598 12.2357 20.5591 12.5265 20.2718L13.9858 18.8328C13.9858 18.8329 13.9859 18.8327 13.9858 18.8328C14.5454 18.2808 15.3044 17.9712 16.0955 17.9712H17.1912C18.995 17.9712 20.4615 16.5275 20.4615 14.7409V7.7422C20.4615 5.95592 18.9953 4.51285 17.1912 4.51285H6.80982Z" fill="black"/>
<path fill-rule="evenodd" clip-rule="evenodd" d="M8.83842 9C9.30146 9 9.67686 9.38391 9.67686 9.85751V13.1425C9.67686 13.6161 9.30146 14 8.83842 14C8.37537 14 8 13.6161 8 13.1425V9.85751C8 9.38391 8.37537 9 8.83842 9ZM15.1616 9C15.6246 9 16 9.38391 16 9.85751V13.1425C16 13.6161 15.6246 14 15.1616 14C14.6985 14 14.3232 13.6161 14.3232 13.1425V9.85751C14.3232 9.38391 14.6985 9 15.1616 9Z" fill="black"/>
</svg>
