<svg width="24" height="24" viewBox="0 0 24 24" fill="none" xmlns="http://www.w3.org/2000/svg">
<path d="M20 10.5C20 14.6421 16.6421 18 12.5 18C10.4243 18 5.88263 17.5588 5 18C6 17 5 12.5664 5 10.5C5 6.35786 8.35786 3 12.5 3C16.6421 3 20 6.35786 20 10.5Z" fill="#7283F3"/>
<path d="M12.4986 18.2857C14.2245 18.2875 15.9019 17.7153 17.2669 16.6591C18.6319 15.603 19.607 14.1229 20.0388 12.4518C20.4705 10.7806 20.3343 9.01339 19.6517 7.42815C18.9691 5.8429 17.7788 4.52966 16.2681 3.69512C14.7574 2.86057 13.0121 2.55212 11.3069 2.8183C9.60175 3.08449 8.03348 3.9102 6.84896 5.16546C5.66443 6.42073 4.9309 8.03428 4.7638 9.75216C4.59672 11.4698 5.00542 13.1943 5.9256 14.6543C5.93387 14.6676 5.9391 14.6826 5.94093 14.6982C5.94279 14.714 5.9411 14.73 5.936 14.7451L5.93526 14.7473L5.04772 17.4096L4.76841 18.2475L5.63054 18.0558L8.76366 17.3594L8.76371 17.3594C8.78866 17.3539 8.81478 17.3575 8.83734 17.3695L8.83759 17.3696C9.96444 17.9704 11.2217 18.285 12.4986 18.2857ZM12.4986 18.2857L12.4992 17.7857L12.4989 18.2857C12.4988 18.2857 12.4987 18.2857 12.4986 18.2857ZM12.4986 2.50001L12.4993 2.50001C13.7059 2.49975 14.8969 2.77251 15.9832 3.29785C17.0695 3.82319 18.0229 4.58751 18.7719 5.53357C19.521 6.47964 20.0464 7.58293 20.3087 8.76084C20.571 9.93875 20.5635 11.1608 20.2867 12.3353C20.0098 13.5099 19.4709 14.6067 18.7102 15.5434C17.9495 16.4802 16.9868 17.2327 15.8941 17.7446C14.8014 18.2565 13.6071 18.5145 12.4006 18.4994C11.1941 18.4842 10.0066 18.1963 8.92715 17.6572L8.76845 17.5779L8.59528 17.6164L4.63048 18.4973L4.63031 18.4974C4.61183 18.5015 4.59258 18.5006 4.57455 18.4949C4.5565 18.4891 4.5403 18.4787 4.52761 18.4646L4.15666 18.7993L4.5276 18.4646C4.51491 18.4505 4.50616 18.4333 4.50227 18.4147C4.4984 18.3963 4.49949 18.3771 4.50542 18.3591C4.50544 18.3591 4.50547 18.359 4.50549 18.3589L5.64308 14.9464L5.71489 14.7309L5.59992 14.5351C4.88696 13.3207 4.5076 11.9394 4.50029 10.5312C4.49298 9.1229 4.85798 7.73773 5.5583 6.51599C6.25862 5.29425 7.26938 4.27935 8.48817 3.5741C9.70696 2.86885 11.0905 2.4983 12.4986 2.50001ZM16.2009 2.84772C15.0467 2.28954 13.7812 1.99974 12.4992 2.00001L4.1564 18.7996C4.22837 18.8793 4.32021 18.9385 4.42255 18.9712C4.5249 19.0039 4.63407 19.0088 4.73893 18.9854L8.70373 18.1045C9.85071 18.6773 11.1124 18.9832 12.3943 18.9993C13.6763 19.0154 14.9453 18.7412 16.1062 18.1973C17.2672 17.6534 18.2901 16.8539 19.0984 15.8586C19.9066 14.8633 20.4792 13.698 20.7733 12.45C21.0674 11.202 21.0754 9.90368 20.7967 8.65216C20.518 7.40063 19.9598 6.22839 19.1639 5.22319C18.368 4.218 17.3551 3.40591 16.2009 2.84772Z" fill="#7283F3" stroke="#7283F3"/>
<path d="M14.95 9.20093L13.6037 10.7394L11.7457 9.14745C11.6865 9.09692 11.6154 9.05774 11.5372 9.0325C11.4589 9.00725 11.3753 8.99652 11.2919 9.001C11.2084 9.00623 11.1273 9.0268 11.0539 9.0613C10.9805 9.09579 10.9167 9.14342 10.8667 9.20093L9.11667 11.2003C9.0707 11.2528 9.03726 11.3125 9.01825 11.3761C8.99924 11.4397 8.99503 11.5059 9.00586 11.5709C9.0167 11.6358 9.04236 11.6983 9.08139 11.7548C9.12042 11.8113 9.17205 11.8606 9.23333 11.9C9.29462 11.9394 9.36435 11.9681 9.43856 11.9844C9.51277 12.0007 9.58999 12.0043 9.66583 11.995C9.74166 11.9857 9.81462 11.9637 9.88054 11.9303C9.94645 11.8968 10.004 11.8526 10.05 11.8001L11.3963 10.2616L13.2542 11.8535C13.3138 11.9037 13.385 11.9425 13.4631 11.9676C13.5413 11.9926 13.6248 12.0033 13.7081 11.999C13.7916 11.9938 13.8727 11.9732 13.9461 11.9387C14.0195 11.9042 14.0833 11.8566 14.1333 11.7991L15.8833 9.79973C15.9762 9.69368 16.016 9.56038 15.9941 9.42915C15.9723 9.29791 15.8904 9.1795 15.7667 9.09997C15.7054 9.06058 15.6356 9.03193 15.5614 9.01564C15.4872 8.99935 15.41 8.99574 15.3342 9.00502C15.181 9.02377 15.0428 9.09388 14.95 9.19993V9.20093Z" fill="white"/>
</svg>
