<svg width="26" height="26" viewBox="0 0 26 26" fill="none" xmlns="http://www.w3.org/2000/svg">
<path d="M19.5 5.6875H9.75C9.10758 5.6875 8.47918 5.9475 8.02635 6.40141L3.15135 11.2764C2.69093 11.7368 2.4375 12.3489 2.4375 13C2.4375 13.6511 2.69093 14.2632 3.15135 14.7236L8.02635 19.5986C8.47918 20.0525 9.10758 20.3125 9.75 20.3125H19.5C22.1195 20.3125 23.5625 18.8695 23.5625 16.25V9.75C23.5625 7.1305 22.1195 5.6875 19.5 5.6875ZM21.9375 16.25C21.9375 17.9584 21.2084 18.6875 19.5 18.6875H9.75C9.53658 18.6875 9.32639 18.6008 9.1758 18.4492L4.3008 13.5742C4.14697 13.4203 4.0625 13.2167 4.0625 13C4.0625 12.7833 4.14697 12.5797 4.3008 12.4258L9.1758 7.55083C9.32747 7.40025 9.53658 7.31359 9.75 7.31359H19.5C21.2084 7.31359 21.9375 8.04267 21.9375 9.75109V16.25ZM17.9075 11.4075L16.3151 13L17.9075 14.5925C18.2249 14.9099 18.2249 15.4245 17.9075 15.7419C17.7494 15.9001 17.5413 15.9803 17.3333 15.9803C17.1253 15.9803 16.9173 15.9012 16.7591 15.7419L15.1667 14.1494L13.5742 15.7419C13.416 15.9001 13.208 15.9803 13 15.9803C12.792 15.9803 12.584 15.9012 12.4258 15.7419C12.1084 15.4245 12.1084 14.9099 12.4258 14.5925L14.0183 13L12.4258 11.4075C12.1084 11.0901 12.1084 10.5755 12.4258 10.2581C12.7432 9.94066 13.2578 9.94066 13.5753 10.2581L15.1677 11.8506L16.7602 10.2581C17.0776 9.94066 17.5922 9.94066 17.9096 10.2581C18.2249 10.5755 18.2249 11.0912 17.9075 11.4075Z" fill="#79746D"/>
</svg>
