<svg width="20" height="21" viewBox="0 0 20 21" fill="none" xmlns="http://www.w3.org/2000/svg">
<path fill-rule="evenodd" clip-rule="evenodd" d="M9.99884 4.04199C10.344 4.04199 10.6238 4.32182 10.6238 4.66699V11.922L13.1718 9.36583C13.4155 9.12133 13.8112 9.12066 14.0557 9.36441C14.3002 9.60808 14.3008 10.0038 14.0571 10.2482L10.4604 13.8565C10.3694 13.9562 10.2466 14.0262 10.1081 14.0507C10.0718 14.0572 10.0348 14.0605 9.99751 14.0605C9.83134 14.0604 9.67201 13.9942 9.55476 13.8765L5.94187 10.248C5.69832 10.0034 5.69917 9.60766 5.94377 9.36416C6.18837 9.12057 6.5841 9.12141 6.82766 9.36599L9.37384 11.9232V4.66699C9.37384 4.32182 9.65367 4.04199 9.99884 4.04199Z" fill="#403C44"/>
<path fill-rule="evenodd" clip-rule="evenodd" d="M4.98828 16.333C4.98828 15.9878 5.2681 15.708 5.61328 15.708H14.3846C14.7298 15.708 15.0096 15.9878 15.0096 16.333C15.0096 16.6782 14.7298 16.958 14.3846 16.958H5.61328C5.2681 16.958 4.98828 16.6782 4.98828 16.333Z" fill="#403C44"/>
</svg>
