<svg width="98" height="91" viewBox="0 0 98 91" fill="none" xmlns="http://www.w3.org/2000/svg">
<g opacity="0.5">
<path d="M93.2461 81.3004C93.3402 82.6758 91.8905 83.6215 90.6685 82.9824L84.4537 79.7323C80.3202 82.19 75.4929 83.6033 70.3331 83.6033C63.2136 83.6033 56.7225 80.9149 51.8193 76.4959C67.0663 68.8694 77.5346 53.1062 77.5346 34.8991C77.5346 32.9424 77.4147 31.0145 77.1779 29.12C89.149 32.1651 98.0006 43.016 98.0006 55.9328C98.0006 62.061 96.0089 67.7248 92.6374 72.3092L93.2461 81.2974V81.3004Z" fill="url(#paint0_linear_13277_47635)"/>
<path d="M74.4085 36.855C74.4085 51.2913 66.1083 63.7897 54.0191 69.8368C49.0638 72.315 43.473 73.71 37.5547 73.71C30.6844 73.71 24.2523 71.83 18.7469 68.5549L10.4683 72.8843C8.84103 73.7353 6.91042 72.4751 7.03439 70.642L7.84563 58.6683C3.3549 52.5611 0.699707 45.0192 0.699707 36.855C0.699707 16.5005 17.2002 0 37.5547 0C56.3578 0 71.8713 14.08 74.1269 32.2728C74.3147 33.7737 74.4097 35.3035 74.4097 36.855H74.4085Z" fill="url(#paint1_linear_13277_47635)"/>
<g opacity="0.5">
<path d="M5.91068 35.6803C5.7219 35.6803 5.56859 35.5142 5.56745 35.3082C5.5663 35.0947 5.55715 30.0241 7.81107 23.9983C9.13596 20.456 10.9723 17.3307 13.2697 14.7087C16.1414 11.4311 19.7408 8.94008 23.9706 7.30191C24.1491 7.23199 24.3459 7.33437 24.4088 7.52915C24.4718 7.72394 24.3791 7.9387 24.2006 8.00737C14.8692 11.6208 10.4883 18.8366 8.4575 24.2543C6.2482 30.1452 6.25392 35.252 6.25507 35.302C6.25621 35.5092 6.10404 35.6778 5.91412 35.679H5.91183L5.91068 35.6803ZM37.1715 71.8887C36.1555 71.8887 35.2048 71.8325 34.3421 71.7476C29.9922 71.3156 26.9831 70.0795 26.8573 70.0283C26.6799 69.9546 26.5918 69.7386 26.6582 69.545C26.7246 69.3515 26.9236 69.2541 27.101 69.3278C27.1307 69.3403 30.1638 70.5839 34.4245 71.0034C38.3408 71.3905 44.1278 71.1408 49.4605 67.757C49.6242 67.6534 49.8347 67.7133 49.9296 67.8931C50.0246 68.0717 49.9697 68.3014 49.8049 68.4051C45.487 71.1445 40.8922 71.8899 37.1704 71.8899L37.1715 71.8887Z" fill="white"/>
</g>
<path opacity="0.5" d="M80.7109 21.89L81.8631 23.0421C82.2471 23.4262 82.8695 23.4262 83.2521 23.0421L86.2866 20.0091L89.3196 23.0421C89.7036 23.4262 90.326 23.4262 90.7086 23.0421L91.8608 21.89C92.2448 21.5059 92.2448 20.8835 91.8608 20.4995L88.8277 17.468L91.8608 14.4335C92.2448 14.0494 92.2448 13.4285 91.8608 13.0445L90.7086 11.8923C90.3245 11.5082 89.7021 11.5082 89.3196 11.8923L86.2866 14.9268L83.2521 11.8923C82.8695 11.5082 82.2471 11.5082 81.8631 11.8923L80.7109 13.0445C80.3268 13.4285 80.3268 14.0509 80.7109 14.4335L83.7439 17.468L80.7109 20.4995C80.3268 20.8835 80.3268 21.5059 80.7109 21.89Z" fill="url(#paint2_linear_13277_47635)"/>
<path opacity="0.5" d="M10.5774 87.52L12.3777 85.7196C12.6054 85.4919 12.6054 85.123 12.3777 84.8953L11.6931 84.2107C11.4654 83.983 11.0965 83.983 10.8688 84.2107L9.06844 86.0111L7.26807 84.2107C7.04037 83.983 6.67148 83.983 6.44378 84.2107L5.75916 84.8953C5.53145 85.123 5.53145 85.4919 5.75916 85.7196L7.55953 87.52L5.75916 89.3204C5.53145 89.5481 5.53145 89.9169 5.75916 90.1462L6.44378 90.8293C6.67148 91.057 7.04037 91.057 7.26807 90.8293L9.06844 89.0289L10.8688 90.8293C11.0965 91.057 11.4654 91.057 11.6931 90.8293L12.3777 90.1462C12.6054 89.9185 12.6054 89.5481 12.3777 89.3204L10.5774 87.52Z" fill="url(#paint3_linear_13277_47635)"/>
<path d="M45.1992 34.2185L41.1737 38.4185L35.6185 34.0725C35.4413 33.9345 35.2288 33.8276 34.9948 33.7586C34.7609 33.6897 34.511 33.6604 34.2615 33.6727C34.0119 33.6869 33.7692 33.7431 33.5498 33.8373C33.3304 33.9314 33.1395 34.0615 32.99 34.2185L27.7575 39.6767C27.6201 39.82 27.5201 39.9831 27.4633 40.1567C27.4064 40.3303 27.3938 40.511 27.4262 40.6884C27.4586 40.8657 27.5353 41.0364 27.652 41.1906C27.7687 41.3448 27.9231 41.4795 28.1064 41.587C28.2896 41.6945 28.4981 41.7728 28.72 41.8172C28.9419 41.8617 29.1728 41.8716 29.3995 41.8462C29.6263 41.8209 29.8444 41.7608 30.0415 41.6695C30.2386 41.5782 30.4108 41.4575 30.5482 41.3141L34.5737 37.114L40.1289 41.4601C40.3069 41.5969 40.5197 41.703 40.7535 41.7714C40.9872 41.8398 41.2367 41.869 41.4859 41.8572C41.7354 41.8429 41.9782 41.7868 42.1976 41.6926C42.417 41.5984 42.6079 41.4684 42.7574 41.3114L47.9899 35.8532C48.2674 35.5637 48.3866 35.1998 48.3212 34.8415C48.2557 34.4832 48.0111 34.16 47.641 33.9428C47.4578 33.8353 47.2493 33.7571 47.0274 33.7126C46.8055 33.6681 46.5746 33.6583 46.3479 33.6836C45.8899 33.7348 45.4767 33.9262 45.1992 34.2157V34.2185Z" fill="white"/>
</g>
<defs>
<linearGradient id="paint0_linear_13277_47635" x1="74.9099" y1="29.12" x2="74.9099" y2="83.6033" gradientUnits="userSpaceOnUse">
<stop stop-color="#97A5F2" stop-opacity="0.3"/>
<stop offset="1" stop-color="#526AF2" stop-opacity="0.7"/>
</linearGradient>
<linearGradient id="paint1_linear_13277_47635" x1="37.5547" y1="0" x2="37.5547" y2="73.71" gradientUnits="userSpaceOnUse">
<stop stop-color="#97A5F2" stop-opacity="0.3"/>
<stop offset="1" stop-color="#526AF2" stop-opacity="0.7"/>
</linearGradient>
<linearGradient id="paint2_linear_13277_47635" x1="86.2858" y1="11.6042" x2="86.2858" y2="23.3302" gradientUnits="userSpaceOnUse">
<stop stop-color="#97A5F2" stop-opacity="0.3"/>
<stop offset="1" stop-color="#526AF2" stop-opacity="0.7"/>
</linearGradient>
<linearGradient id="paint3_linear_13277_47635" x1="9.06844" y1="84.0399" x2="9.06844" y2="91" gradientUnits="userSpaceOnUse">
<stop stop-color="#97A5F2" stop-opacity="0.3"/>
<stop offset="1" stop-color="#526AF2" stop-opacity="0.7"/>
</linearGradient>
</defs>
</svg>
