<svg width="24" height="24" viewBox="0 0 24 24" fill="none" xmlns="http://www.w3.org/2000/svg">
<path fill-rule="evenodd" clip-rule="evenodd" d="M3.98931 3.89767C4.97307 2.8415 6.37404 2.25 8.02798 2.25H16.4663C18.1256 2.25 19.5283 2.84093 20.511 3.89828C21.4879 4.94942 21.9935 6.40013 21.9884 8.02731V15.9692C21.9884 17.596 21.482 19.0464 20.5051 20.0974C19.5224 21.1546 18.1208 21.7452 16.4604 21.7452H8.02798C6.37068 21.7452 4.96934 21.1543 3.98612 20.0976C3.00856 19.047 2.5 17.5967 2.5 15.9692V8.02602C2.5 6.3981 3.01103 4.94797 3.98931 3.89767ZM5.08693 4.92004C4.41013 5.64665 4 6.70953 4 8.02602V15.9692C4 17.2871 4.40871 18.3498 5.08428 19.0758C5.75419 19.7958 6.74183 20.2452 8.02798 20.2452H16.4604C17.7504 20.2452 18.7377 19.7956 19.4064 19.0761C20.081 18.3504 20.4884 17.2878 20.4884 15.9692V8.02602V8.02354C20.4928 6.7068 20.0865 5.64495 19.4122 4.91943C18.7435 4.19988 17.7552 3.75 16.4663 3.75H8.02798C6.74626 3.75 5.75824 4.19931 5.08693 4.92004Z" fill="#6C6C7A"/>
<path fill-rule="evenodd" clip-rule="evenodd" d="M9.20675 7.83594C8.62738 7.83594 8.15723 8.306 8.15723 8.88643C8.15723 9.46686 8.62738 9.93693 9.20675 9.93693C9.78665 9.93693 10.2572 9.46633 10.2572 8.88643V8.88481C10.2565 8.30562 9.78664 7.83594 9.20675 7.83594ZM6.65723 8.88643C6.65723 7.47863 7.79789 6.33594 9.20675 6.33594C10.615 6.33594 11.7559 7.47685 11.7572 8.88375V8.88643C11.7572 10.2948 10.6151 11.4369 9.20675 11.4369C7.79789 11.4369 6.65723 10.2942 6.65723 8.88643Z" fill="#6C6C7A"/>
<path fill-rule="evenodd" clip-rule="evenodd" d="M14.926 12.2111C15.3755 11.7704 15.9763 11.3516 16.7368 11.3516C17.9183 11.3516 18.9822 11.9327 19.811 12.5524C20.5786 13.1263 21.2319 13.8016 21.6726 14.2572C21.7129 14.2989 21.7514 14.3387 21.7881 14.3764C22.0767 14.6735 22.0699 15.1483 21.7728 15.437C21.4757 15.7256 21.0009 15.7188 20.7123 15.4217C20.6758 15.3842 20.6385 15.3457 20.6002 15.3061C20.1527 14.8441 19.5791 14.2519 18.9128 13.7537C18.1804 13.2062 17.4375 12.8516 16.7368 12.8516C16.5566 12.8516 16.3162 12.9488 15.9762 13.2821C15.6382 13.6136 15.3083 14.0711 14.9326 14.6C14.9199 14.6179 14.9072 14.6358 14.8943 14.6539C14.5486 15.1409 14.1592 15.6894 13.7357 16.1142C13.3008 16.5504 12.711 16.9798 11.9588 16.9798C11.381 16.9798 10.8445 16.8312 10.3773 16.662C10.1425 16.5769 9.91443 16.4825 9.70317 16.3937C9.67028 16.3799 9.6379 16.3663 9.60597 16.3528C9.42763 16.2777 9.2631 16.2085 9.10019 16.1454C8.32644 15.8458 7.92633 15.824 7.55206 16.1223C6.49733 17.1333 5.59785 18.2941 4.88007 19.5677C4.6767 19.9285 4.21931 20.0562 3.85846 19.8528C3.49761 19.6495 3.36995 19.1921 3.57332 18.8312C4.36817 17.4209 5.36602 16.1355 6.53744 15.0171C6.55031 15.0048 6.56361 14.993 6.57732 14.9817C7.64402 14.0993 8.79068 14.417 9.64185 14.7466C9.8269 14.8183 10.0144 14.8972 10.192 14.972C10.223 14.9851 10.2537 14.998 10.2841 15.0108C10.4935 15.0987 10.6916 15.1804 10.8882 15.2516C11.284 15.395 11.632 15.4798 11.9588 15.4798C12.1117 15.4798 12.3365 15.3931 12.6734 15.0552C13.0058 14.7218 13.3318 14.2634 13.7097 13.7314L13.7136 13.7258C14.0701 13.224 14.4763 12.652 14.926 12.2111Z" fill="#6C6C7A"/>
</svg>
