<svg width="24" height="24" viewBox="0 0 24 24" fill="none" xmlns="http://www.w3.org/2000/svg">
<path fill-rule="evenodd" clip-rule="evenodd" d="M13.2031 11.1751C13.2031 10.604 13.666 10.1406 14.2375 10.1406C14.8085 10.1406 15.2721 10.6034 15.2721 11.1751C15.2721 11.7468 14.8085 12.2096 14.2375 12.2096C13.6659 12.2096 13.2031 11.7462 13.2031 11.1751Z" fill="black"/>
<path fill-rule="evenodd" clip-rule="evenodd" d="M8.55469 11.1751C8.55469 10.604 9.01754 10.1406 9.58912 10.1406C10.1601 10.1406 10.6237 10.6034 10.6237 11.1751C10.6237 11.7468 10.1601 12.2096 9.58912 12.2096C9.01754 12.2096 8.55469 11.7462 8.55469 11.1751Z" fill="black"/>
<path d="M11.7712 21.5659C11.6562 21.5653 11.5419 21.5491 11.4312 21.5179C7.05922 20.2749 2.76224 16.2279 3.01024 10.8989C3.06149 9.59903 3.37802 8.3232 3.94035 7.15004C4.50268 5.97688 5.29894 4.93109 6.28022 4.07692C7.19163 3.2978 8.25493 2.71646 9.40275 2.36977C10.5506 2.02308 11.7579 1.91863 12.9482 2.06295C14.9677 2.30739 16.8435 3.23331 18.2656 4.68782C19.6878 6.14234 20.5713 8.03845 20.7702 10.0629C21.2752 15.1879 17.2882 18.4199 13.0262 19.0179V20.2909C13.0257 20.488 12.9797 20.6823 12.8918 20.8588C12.8038 21.0352 12.6763 21.1889 12.5192 21.3079C12.3049 21.4735 12.0421 21.5641 11.7712 21.5659ZM11.9232 3.5049C10.2115 3.49749 8.55417 4.10544 7.25325 5.21791C6.42797 5.93888 5.75877 6.82093 5.28672 7.80989C4.81468 8.79886 4.54977 9.87383 4.50825 10.9689C4.30825 15.3419 7.91623 18.8179 11.5262 19.9789V18.8089C11.5278 18.4998 11.6425 18.202 11.8487 17.9717C12.0548 17.7414 12.3382 17.5946 12.6452 17.5589C16.1452 17.1379 19.7152 14.6589 19.2782 10.2139C19.1145 8.52983 18.3811 6.95191 17.1993 5.74099C16.0174 4.53006 14.4579 3.75856 12.7782 3.55391C12.4943 3.52311 12.2088 3.50811 11.9232 3.50893V3.5049Z" fill="black"/>
</svg>
