<svg width="24" height="24" viewBox="0 0 24 24" fill="none" xmlns="http://www.w3.org/2000/svg">
<path d="M15.2858 11.5C15.3808 11.596 15.5088 11.646 15.6398 11.646C15.6978 11.646 15.7568 11.636 15.8138 11.615C15.9968 11.547 16.1238 11.378 16.1378 11.183L16.138 11.1802C16.1479 11.0422 16.1578 10.905 16.1578 10.758V6.532C16.1578 4.24 14.2918 2.375 11.9998 2.375C10.6228 2.375 9.33676 3.056 8.55876 4.197C8.42376 4.396 8.44876 4.662 8.61876 4.832L15.2858 11.5Z" fill="#DF1C41"/>
<path d="M15.2858 11.5C15.3808 11.596 15.5088 11.646 15.6398 11.646C15.6978 11.646 15.7568 11.636 15.8138 11.615C15.9968 11.547 16.1238 11.378 16.1378 11.183L16.138 11.1802C16.1479 11.0422 16.1578 10.905 16.1578 10.758V6.532C16.1578 4.24 14.2918 2.375 11.9998 2.375C10.6228 2.375 9.33676 3.056 8.55876 4.197C8.42376 4.396 8.44876 4.662 8.61876 4.832L15.2858 11.5Z" fill="url(#paint0_linear_27953_139025)" fill-opacity="0.12"/>
<path d="M5.3225 4.16213C5.0295 3.86913 4.5545 3.86913 4.2615 4.16213C3.9685 4.45513 3.9685 4.93013 4.2615 5.22313L7.8415 8.80213V10.7551C7.8315 13.0491 9.6955 14.9231 11.9995 14.9331C12.5585 14.9331 13.1105 14.8121 13.6285 14.5891L15.3535 16.3141C14.3485 16.9301 13.1935 17.2761 12.0115 17.2781L12.0083 17.2777L12.0058 17.277L12.0015 17.2761C11.9995 17.2761 11.9975 17.2769 11.9955 17.2776C11.9935 17.2784 11.9915 17.2791 11.9895 17.2791C8.4335 17.2651 5.5415 14.3631 5.5415 10.8051V10.7861C5.5415 10.3711 5.2055 10.0451 4.7915 10.0451C4.3775 10.0451 4.0415 10.3911 4.0415 10.8051C4.0415 14.9401 7.2125 18.3521 11.2515 18.7401V20.8751C11.2515 21.2891 11.5875 21.6251 12.0015 21.6251C12.4155 21.6251 12.7515 21.2891 12.7515 20.8751V18.7401C14.0725 18.6131 15.3495 18.1571 16.4505 17.4111L18.6775 19.6391C18.8245 19.7851 19.0165 19.8581 19.2085 19.8581C19.4005 19.8581 19.5925 19.7851 19.7385 19.6391C20.0315 19.3461 20.0315 18.8711 19.7385 18.5781L5.3225 4.16213Z" fill="#DF1C41"/>
<path d="M5.3225 4.16213C5.0295 3.86913 4.5545 3.86913 4.2615 4.16213C3.9685 4.45513 3.9685 4.93013 4.2615 5.22313L7.8415 8.80213V10.7551C7.8315 13.0491 9.6955 14.9231 11.9995 14.9331C12.5585 14.9331 13.1105 14.8121 13.6285 14.5891L15.3535 16.3141C14.3485 16.9301 13.1935 17.2761 12.0115 17.2781L12.0083 17.2777L12.0058 17.277L12.0015 17.2761C11.9995 17.2761 11.9975 17.2769 11.9955 17.2776C11.9935 17.2784 11.9915 17.2791 11.9895 17.2791C8.4335 17.2651 5.5415 14.3631 5.5415 10.8051V10.7861C5.5415 10.3711 5.2055 10.0451 4.7915 10.0451C4.3775 10.0451 4.0415 10.3911 4.0415 10.8051C4.0415 14.9401 7.2125 18.3521 11.2515 18.7401V20.8751C11.2515 21.2891 11.5875 21.6251 12.0015 21.6251C12.4155 21.6251 12.7515 21.2891 12.7515 20.8751V18.7401C14.0725 18.6131 15.3495 18.1571 16.4505 17.4111L18.6775 19.6391C18.8245 19.7851 19.0165 19.8581 19.2085 19.8581C19.4005 19.8581 19.5925 19.7851 19.7385 19.6391C20.0315 19.3461 20.0315 18.8711 19.7385 18.5781L5.3225 4.16213Z" fill="url(#paint1_linear_27953_139025)" fill-opacity="0.12"/>
<path d="M18.4699 14.7237C18.3579 14.7237 18.2439 14.6987 18.1369 14.6457C17.7659 14.4617 17.6139 14.0127 17.7979 13.6407C18.2359 12.7557 18.4579 11.7947 18.4579 10.7847C18.4579 10.3707 18.7939 10.0347 19.2079 10.0347C19.6219 10.0347 19.9579 10.3707 19.9579 10.7847C19.9579 12.0277 19.6839 13.2127 19.1419 14.3067C19.0119 14.5707 18.7449 14.7237 18.4699 14.7237Z" fill="#DF1C41"/>
<path d="M18.4699 14.7237C18.3579 14.7237 18.2439 14.6987 18.1369 14.6457C17.7659 14.4617 17.6139 14.0127 17.7979 13.6407C18.2359 12.7557 18.4579 11.7947 18.4579 10.7847C18.4579 10.3707 18.7939 10.0347 19.2079 10.0347C19.6219 10.0347 19.9579 10.3707 19.9579 10.7847C19.9579 12.0277 19.6839 13.2127 19.1419 14.3067C19.0119 14.5707 18.7449 14.7237 18.4699 14.7237Z" fill="url(#paint2_linear_27953_139025)" fill-opacity="0.12"/>
<defs>
<linearGradient id="paint0_linear_27953_139025" x1="12.315" y1="2.375" x2="12.315" y2="11.646" gradientUnits="userSpaceOnUse">
<stop stop-color="white"/>
<stop offset="1" stop-color="white" stop-opacity="0"/>
</linearGradient>
<linearGradient id="paint1_linear_27953_139025" x1="11.9999" y1="3.94238" x2="11.9999" y2="21.6251" gradientUnits="userSpaceOnUse">
<stop stop-color="white"/>
<stop offset="1" stop-color="white" stop-opacity="0"/>
</linearGradient>
<linearGradient id="paint2_linear_27953_139025" x1="18.8388" y1="10.0347" x2="18.8388" y2="14.7237" gradientUnits="userSpaceOnUse">
<stop stop-color="white"/>
<stop offset="1" stop-color="white" stop-opacity="0"/>
</linearGradient>
</defs>
</svg>
