<svg width="28" height="28" viewBox="0 0 28 28" fill="none" xmlns="http://www.w3.org/2000/svg">
<path fill-rule="evenodd" clip-rule="evenodd" d="M23.2832 12.5826C23.282 12.0996 22.8912 11.71 22.4082 11.71H22.4058C21.9228 11.7111 21.532 12.1031 21.5332 12.5873C21.5425 16.75 18.1638 20.145 14.0058 20.1578C14.0035 20.1578 14.0023 20.1566 14 20.1566H13.9965C11.9805 20.1496 10.0882 19.361 8.66599 17.9318C7.24266 16.5026 6.46216 14.6033 6.46682 12.5873C6.46799 12.1043 6.07716 11.7111 5.59416 11.71H5.59182C5.10999 11.71 4.71799 12.0996 4.71682 12.5826C4.71099 15.0665 5.67232 17.4056 7.42582 19.1673C8.97166 20.7201 10.969 21.657 13.125 21.8623V24.3543C13.125 24.8373 13.517 25.2293 14 25.2293C14.4842 25.2293 14.875 24.8373 14.875 24.3543V21.8611C19.5953 21.4073 23.2948 17.4173 23.2832 12.5826Z" fill="white"/>
<path fill-rule="evenodd" clip-rule="evenodd" d="M13.9977 17.4208H14.0036C16.6822 17.4138 18.8581 15.2287 18.8522 12.55V7.62316C18.8522 4.948 16.6752 2.771 13.9989 2.771C11.3237 2.771 9.14674 4.948 9.14674 7.62316V12.5488C9.1444 13.8473 9.64724 15.0688 10.5631 15.9893C11.4789 16.9098 12.6992 17.4185 13.9977 17.4208Z" fill="white"/>
</svg>
