<svg width="18" height="18" viewBox="0 0 18 18" fill="none" xmlns="http://www.w3.org/2000/svg">
<path d="M10.5863 5.82053C10.5635 5.87422 10.5315 5.92345 10.4919 5.96604L10.4757 5.98188L4.17574 12.1694L4.17571 12.1694C4.08219 12.2614 3.95626 12.313 3.82508 12.313C3.6939 12.313 3.56798 12.2614 3.47446 12.1694L3.47442 12.1694L0.774452 9.51792C0.727627 9.47188 0.69033 9.41706 0.66469 9.3566C0.63905 9.29614 0.625569 9.23122 0.625018 9.16555C0.624466 9.09988 0.636855 9.03475 0.661476 8.97386C0.686097 8.91298 0.722469 8.85755 0.768515 8.81072C0.814561 8.7639 0.869378 8.7266 0.929838 8.70096C0.990298 8.67532 1.05522 8.66184 1.12089 8.66129C1.18656 8.66074 1.25169 8.67312 1.31257 8.69774C1.37345 8.72237 1.42889 8.75874 1.47572 8.80478L1.47575 8.80481L3.78129 11.0689L3.82509 11.1119L3.86888 11.0689L9.77513 5.26809L9.77514 5.26808C9.86979 5.17509 9.99751 5.1235 10.1302 5.12467C10.1959 5.12525 10.2609 5.13877 10.3213 5.16445C10.3818 5.19012 10.4366 5.22747 10.4827 5.27433C10.5287 5.3212 10.5651 5.37668 10.5897 5.43761L10.6477 5.4142L10.5897 5.43761C10.6143 5.49853 10.6267 5.5637 10.6261 5.6294C10.6255 5.69511 10.612 5.76005 10.5863 5.82053ZM17.232 5.27431L17.232 5.27432C17.278 5.32121 17.3144 5.37671 17.3389 5.43765C17.3635 5.4986 17.3758 5.56379 17.3752 5.6295C17.3745 5.69521 17.361 5.76014 17.3352 5.8206C17.3095 5.88105 17.272 5.93584 17.2251 5.98182L17.225 5.98188L10.925 12.1694L10.925 12.1694C10.8315 12.2614 10.7056 12.313 10.5744 12.313C10.4432 12.313 10.3173 12.2614 10.2238 12.1694L10.2237 12.1694L8.50599 10.4819L8.50598 10.4819C8.41132 10.389 8.35746 10.2623 8.35623 10.1296C8.355 9.997 8.4065 9.86932 8.49941 9.77467C8.59232 9.68002 8.71903 9.62615 8.85165 9.62492C8.98427 9.62369 9.11195 9.67519 9.20659 9.76808C9.2066 9.76809 9.20661 9.7681 9.20661 9.7681L10.5306 11.0689L10.5744 11.1119L10.6182 11.0689L16.5244 5.26809L16.5245 5.26806C16.5713 5.22198 16.6268 5.18558 16.6877 5.16096C16.7486 5.13633 16.8138 5.12395 16.8795 5.12453C16.9452 5.12511 17.0102 5.13864 17.0706 5.16434C17.1311 5.19004 17.1859 5.22741 17.232 5.27431Z" fill="#7283F3" stroke="#AAAAB3" stroke-width="0.125"/>
</svg>
