<svg width="18" height="18" viewBox="0 0 18 18" fill="none" xmlns="http://www.w3.org/2000/svg">
<path d="M14.8639 6.81248H15.0247L14.9062 6.70389L13.0371 4.99157L13.0209 4.97609C13.0208 4.97594 13.0207 4.9758 13.0205 4.97565C12.2301 4.18567 11.2244 3.64607 10.1291 3.42422C9.0336 3.20232 7.89701 3.30815 6.86131 3.72846C5.8256 4.14878 4.9367 4.86496 4.30566 5.78752C3.67461 6.71009 3.3294 7.79815 3.31314 8.91578C3.29688 10.0334 3.61029 11.131 4.21423 12.0716C4.81817 13.0121 5.68585 13.7539 6.70889 14.2041C7.73193 14.6544 8.86496 14.7932 9.96645 14.6033C11.0679 14.4134 12.089 13.9031 12.9022 13.1362L12.9023 13.1362C12.9987 13.045 13.1273 12.9958 13.26 12.9995C13.3926 13.0032 13.5183 13.0595 13.6095 13.1559C13.7007 13.2523 13.7498 13.3809 13.7461 13.5135C13.7424 13.6462 13.6862 13.7719 13.5898 13.8631L13.5898 13.8631C12.3509 15.0381 10.7074 15.6913 9.00002 15.6875H8.99988H8.90751C7.81239 15.6724 6.73774 15.3886 5.77797 14.861C4.81808 14.3333 4.00249 13.578 3.4029 12.6613C2.80331 11.7446 2.43806 10.6947 2.33927 9.60378C2.24048 8.51288 2.41116 7.41441 2.83631 6.40493C3.26146 5.39544 3.92808 4.50584 4.77755 3.81431C5.62703 3.12278 6.63337 2.65051 7.70811 2.43898C8.78286 2.22746 9.89311 2.28317 10.9413 2.60122C11.9895 2.91927 12.9435 3.48991 13.7194 4.263L13.7194 4.26305L13.7214 4.26488L15.7077 6.07894L15.8124 6.17451V6.03279V3.93748C15.8124 3.80487 15.8651 3.67769 15.9588 3.58392C16.0526 3.49016 16.1798 3.43748 16.3124 3.43748C16.445 3.43748 16.5722 3.49016 16.6659 3.58392C16.7597 3.67769 16.8124 3.80487 16.8124 3.93748V7.31248C16.8124 7.44509 16.7597 7.57226 16.6659 7.66603C16.5722 7.7598 16.445 7.81248 16.3124 7.81248H12.9374C12.8048 7.81248 12.6776 7.7598 12.5838 7.66603C12.4901 7.57226 12.4374 7.44509 12.4374 7.31248C12.4374 7.17987 12.4901 7.05269 12.5838 6.95893C12.6776 6.86516 12.8048 6.81248 12.9374 6.81248H14.8639Z" fill="#7283F3" stroke="#858593" stroke-width="0.125"/>
</svg>
