<svg width="17" height="17" viewBox="0 0 17 17" fill="none" xmlns="http://www.w3.org/2000/svg">
<path fill-rule="evenodd" clip-rule="evenodd" d="M13.6052 7.75041C12.4739 6.4464 10.8094 5.75224 8.6532 5.68424L8.65178 3.92615C8.65107 3.53374 8.42937 3.18807 8.07307 3.02303C7.71537 2.85728 7.30807 2.91324 7.00913 3.16753L2.12446 7.30699C1.90346 7.49328 1.77455 7.76528 1.76959 8.05287C1.76463 8.33903 1.88434 8.61245 2.09684 8.8037L6.99 13.2272C7.28612 13.4943 7.69482 13.5602 8.05962 13.3994C8.42582 13.2372 8.6532 12.8865 8.6532 12.4856V10.2515C11.5602 10.3365 13.4224 11.4904 14.4969 13.8626C14.5543 13.9908 14.6818 14.0709 14.8192 14.0709C14.8355 14.0709 14.8525 14.0695 14.8688 14.0673C15.0254 14.0447 15.1479 13.9221 15.1699 13.767C15.1904 13.619 15.6622 10.1219 13.6052 7.75041Z" fill="#7283F3"/>
</svg>
