<svg width="26" height="26" viewBox="0 0 26 26" fill="none" xmlns="http://www.w3.org/2000/svg">
<path fill-rule="evenodd" clip-rule="evenodd" d="M13.5135 4.69682C13.547 4.7174 13.5806 4.73907 13.611 4.76398C15.0754 5.91429 15.1829 8.0527 15.1881 12.3231L15.1883 12.7297C15.1883 17.2732 15.1211 19.5103 13.611 20.6976C13.5806 20.7215 13.547 20.7442 13.5124 20.7637C13.0639 21.0194 12.6078 21.1277 12.1528 21.1277C10.6459 21.1277 9.15195 19.9415 7.98845 19.0185C7.46304 18.6014 6.66896 17.9709 6.39487 17.9427C6.08396 17.9189 5.81529 17.9091 5.57804 17.9026C4.71354 17.8712 4.02996 17.8485 3.22612 17.1855C2.25892 16.3889 2.1701 14.8105 2.16675 13.4192L2.16771 12.9637L2.16879 12.7297L2.16771 12.4957L2.16675 12.0403C2.1701 10.6492 2.25892 9.07164 3.22612 8.27507C4.03104 7.61207 4.71571 7.58823 5.58237 7.55898C5.81854 7.55032 6.08612 7.54165 6.39704 7.5189C6.66896 7.48965 7.46304 6.85915 7.98845 6.44207C9.50404 5.23848 11.5797 3.59507 13.5135 4.69682ZM22.1536 5.66293C25.0927 9.89227 25.0927 15.5722 22.1536 19.7983C21.9954 20.0247 21.743 20.146 21.4862 20.146C21.3259 20.146 21.1645 20.0983 21.0226 19.9998C20.6542 19.7441 20.5632 19.2382 20.82 18.8688C23.4124 15.1421 23.4124 10.3223 20.82 6.58918C20.5632 6.22085 20.6542 5.71493 21.0237 5.45818C21.392 5.20143 21.8968 5.29352 22.1536 5.66293ZM12.142 5.9654C11.2016 5.9654 9.99912 6.91982 8.99812 7.71498C8.03504 8.47873 7.27454 9.08323 6.51621 9.13957C6.18037 9.1634 5.89221 9.17423 5.63871 9.1829C4.82946 9.20998 4.62471 9.2284 4.25962 9.52957C3.84064 9.87366 3.79408 11.1467 3.79189 12.1019L3.79271 12.4881L3.79379 12.7276V12.7319L3.79271 12.9713L3.79189 13.3579C3.79408 14.3138 3.84064 15.5869 4.25962 15.931C4.62362 16.2321 4.82837 16.2495 5.63546 16.2787C5.89004 16.2863 6.17929 16.2971 6.51621 16.3221C7.27454 16.3773 8.03504 16.9818 8.99812 17.7456C10.193 18.6935 11.6729 19.8689 12.6544 19.3803C13.449 18.6915 13.5569 16.9019 13.563 13.1151L13.5633 12.7297C13.5633 8.67807 13.4755 6.79198 12.6544 6.07915C12.4951 6.00007 12.3229 5.9654 12.142 5.9654ZM19.4799 8.33324C21.0345 11.0502 21.0345 14.4194 19.4799 17.1277C19.3293 17.3899 19.0563 17.5362 18.7747 17.5362C18.6371 17.5362 18.4984 17.5015 18.3706 17.4278C17.9817 17.2047 17.8473 16.7074 18.0705 16.3196C19.3391 14.1085 19.3391 11.359 18.0705 9.14141C17.8473 8.75141 17.9827 8.25524 18.3717 8.03207C18.7617 7.81324 19.2567 7.94432 19.4799 8.33324Z" fill="white"/>
</svg>
