<svg width="26" height="26" viewBox="0 0 26 26" fill="none" xmlns="http://www.w3.org/2000/svg">
<path d="M11.6509 4.25H11.6538C12.2747 4.25 12.9757 4.70373 13.2534 5.63184C13.3693 6.08993 13.4211 6.55956 13.4761 7.09082V7.09375L13.5269 7.57324L13.5288 7.58887C13.6175 8.31491 13.6685 10.6092 13.6685 12.9961C13.6685 15.3825 13.6176 17.6805 13.5288 18.4131L13.5278 18.4229L13.5269 18.4316L13.4761 18.9277L13.4751 18.9336C13.426 19.4376 13.3808 19.8762 13.2622 20.3369C12.9771 21.2943 12.2962 21.75 11.6802 21.75C11.6428 21.75 11.6198 21.7497 11.5952 21.749H11.5669C11.4421 21.749 11.2578 21.7069 11.0376 21.6045C10.8227 21.5045 10.6302 21.3729 10.5034 21.2627L10.4878 21.249L6.66748 18.0635L6.38916 17.832H4.06494C3.15006 17.832 2.3869 17.2113 2.23389 15.9199L2.23193 15.9023L2.19385 15.5898C2.01978 13.9622 2.06661 11.4007 2.23291 10.0156C2.39869 8.8225 3.20596 8.16797 4.06494 8.16797H6.39014L6.66846 7.93457L10.4165 4.7959L10.4302 4.78418C10.5701 4.66251 10.7937 4.51882 11.0474 4.4082C11.308 4.29453 11.5227 4.24953 11.6509 4.25Z" fill="white" stroke="white" stroke-width="2"/>
<path d="M22.1536 5.66293C25.0927 9.89227 25.0927 15.5722 22.1536 19.7983C21.9954 20.0247 21.743 20.146 21.4862 20.146C21.3259 20.146 21.1645 20.0983 21.0226 19.9998C20.6542 19.7441 20.5632 19.2382 20.82 18.8688C23.4124 15.1421 23.4124 10.3223 20.82 6.58918C20.5632 6.22085 20.6542 5.71493 21.0237 5.45818C21.392 5.20143 21.8968 5.29352 22.1536 5.66293Z" fill="white"/>
<path d="M19.4799 8.33324C21.0345 11.0502 21.0345 14.4194 19.4799 17.1277C19.3293 17.3899 19.0563 17.5362 18.7747 17.5362C18.6371 17.5362 18.4984 17.5015 18.3706 17.4278C17.9817 17.2047 17.8473 16.7074 18.0705 16.3196C19.3391 14.1085 19.3391 11.359 18.0705 9.14141C17.8473 8.75141 17.9827 8.25524 18.3717 8.03207C18.7617 7.81324 19.2567 7.94432 19.4799 8.33324Z" fill="white"/>
</svg>
