<svg width="26" height="26" viewBox="0 0 26 26" fill="none" xmlns="http://www.w3.org/2000/svg">
<path d="M11.6509 4.25H11.6538C12.2747 4.25 12.9757 4.70373 13.2534 5.63184C13.3693 6.08993 13.4211 6.55956 13.4761 7.09082V7.09375L13.5269 7.57324L13.5288 7.58887C13.6175 8.31491 13.6685 10.6092 13.6685 12.9961C13.6685 15.3825 13.6176 17.6805 13.5288 18.4131L13.5278 18.4229L13.5269 18.4316L13.4761 18.9277L13.4751 18.9336C13.426 19.4376 13.3808 19.8762 13.2622 20.3369C12.9771 21.2943 12.2962 21.75 11.6802 21.75C11.6428 21.75 11.6198 21.7497 11.5952 21.749H11.5669C11.4421 21.749 11.2578 21.7069 11.0376 21.6045C10.8227 21.5045 10.6302 21.3729 10.5034 21.2627L10.4878 21.249L6.66748 18.0635L6.38916 17.832H4.06494C3.15006 17.832 2.3869 17.2113 2.23389 15.9199L2.23193 15.9023L2.19385 15.5898C2.01978 13.9622 2.06661 11.4007 2.23291 10.0156C2.39869 8.8225 3.20596 8.16797 4.06494 8.16797H6.39014L6.66846 7.93457L10.4165 4.7959L10.4302 4.78418C10.5701 4.66251 10.7937 4.51882 11.0474 4.4082C11.308 4.29453 11.5227 4.24953 11.6509 4.25ZM21.7573 21.2207C21.6653 21.3709 21.5715 21.5188 21.4741 21.6631C21.4747 21.6607 21.4748 21.6584 21.4761 21.6562C21.5728 21.5138 21.6661 21.3683 21.7573 21.2207ZM18.0522 18.3652C18.1116 18.2778 18.1682 18.188 18.2241 18.0977C18.2179 18.1079 18.2128 18.1187 18.2065 18.1289L18.0522 18.3652ZM18.0483 7.62598C18.1087 7.71582 18.167 7.80781 18.2241 7.90137C18.1683 7.81123 18.1114 7.72193 18.0522 7.63477V7.63379L18.0483 7.62598ZM21.4731 4.33594C21.5704 4.48002 21.6644 4.62745 21.7563 4.77734C21.6656 4.63062 21.5722 4.48637 21.4761 4.34473H21.4771C21.4754 4.34225 21.4739 4.33945 21.4731 4.33594Z" fill="white" stroke="white" stroke-width="2"/>
</svg>
