<svg width="10" height="10" viewBox="0 0 10 10" fill="none" xmlns="http://www.w3.org/2000/svg">
<g id="Star">
<path id="Vector" d="M9.34386 3.80469C9.30474 3.68163 9.22936 3.57327 9.12759 3.4938C9.02582 3.41434 8.90241 3.36748 8.77354 3.35938L6.45323 3.19922L5.59386 1.03125C5.54693 0.911876 5.46525 0.809337 5.35939 0.736908C5.25353 0.664478 5.12837 0.625493 5.00011 0.625C4.87184 0.625493 4.74668 0.664478 4.64082 0.736908C4.53496 0.809337 4.45328 0.911876 4.40636 1.03125L3.53136 3.21094L1.22667 3.35938C1.09796 3.36801 0.974801 3.41506 0.873127 3.49445C0.771452 3.57384 0.695939 3.68191 0.656356 3.80469C0.615707 3.92934 0.613332 4.06332 0.649537 4.18934C0.685742 4.31536 0.758866 4.42765 0.859481 4.51172L2.63292 6.01172L2.10557 8.08594C2.06909 8.22626 2.07565 8.37431 2.12442 8.51085C2.17318 8.64739 2.26189 8.7661 2.37901 8.85156C2.4927 8.93316 2.62814 8.97897 2.76801 8.98315C2.90788 8.98732 3.04582 8.94967 3.16417 8.875L4.9962 7.71484H5.00401L6.97667 8.96094C7.07786 9.0267 7.19583 9.06195 7.31651 9.0625C7.41505 9.06173 7.51209 9.03837 7.60019 8.99422C7.68829 8.95008 7.76509 8.88633 7.82469 8.80786C7.8843 8.72939 7.92512 8.6383 7.94401 8.54159C7.96291 8.44489 7.95938 8.34513 7.9337 8.25L7.37511 5.98047L9.14073 4.51172C9.24135 4.42765 9.31447 4.31536 9.35068 4.18934C9.38688 4.06332 9.3845 3.92934 9.34386 3.80469Z" fill="#F79009"/>
</g>
</svg>
