<svg width="105" height="77" viewBox="0 0 105 77" fill="none" xmlns="http://www.w3.org/2000/svg">
  <rect width="105" height="77" rx="8" fill="#7283F3"/>
  <g transform="translate(22.5, 15)">
    <!-- Support/Help icon -->
    <circle cx="30" cy="30" r="25" fill="white" opacity="0.1"/>
    <circle cx="30" cy="30" r="20" fill="none" stroke="white" stroke-width="2"/>
    <!-- Question mark -->
    <path d="M30 15C34.4183 15 38 18.5817 38 23C38 25.7614 36.2386 28.5228 34 29.5V32H26V29C26 26.7909 27.7909 25 30 25C31.1046 25 32 24.1046 32 23C32 21.8954 31.1046 21 30 21C28.8954 21 28 21.8954 28 23H22C22 18.5817 25.5817 15 30 15Z" fill="white"/>
    <circle cx="30" cy="38" r="2" fill="white"/>
  </g>
</svg>
