<svg width="25" height="29" viewBox="0 0 25 29" fill="none" xmlns="http://www.w3.org/2000/svg">
<mask id="mask0_10018_63365" style="mask-type:alpha" maskUnits="userSpaceOnUse" x="0" y="0" width="25" height="29">
<path d="M22.9779 28.3088H2.02206C0.905307 28.3088 0 27.4035 0 26.2868V2.02206C0 0.905307 0.905307 0 2.02206 0H15.625L25 9.375V26.2868C25 27.4035 24.0947 28.3088 22.9779 28.3088Z" fill="url(#paint0_linear_10018_63365)"/>
</mask>
<g mask="url(#mask0_10018_63365)">
<path d="M22.9779 28.3088H2.02206C0.905307 28.3088 0 27.4035 0 26.2868V2.02206C0 0.905307 0.905307 0 2.02206 0H15.625L25 9.375V26.2868C25 27.4035 24.0947 28.3088 22.9779 28.3088Z" fill="url(#paint1_linear_10018_63365)"/>
<g filter="url(#filter0_f_10018_63365)">
<rect x="4.32031" y="13.6943" width="16.3603" height="7.72059" fill="#3F3F46" fill-opacity="0.07" style="mix-blend-mode:darken"/>
</g>
<g filter="url(#filter1_d_10018_63365)">
<path d="M25 9.375H17.6471C16.5303 9.375 15.625 8.46969 15.625 7.35294V0L25 9.375Z" fill="url(#paint2_linear_10018_63365)"/>
</g>
</g>
<defs>
<filter id="filter0_f_10018_63365" x="0.735754" y="10.1098" width="23.5285" height="14.8898" filterUnits="userSpaceOnUse" color-interpolation-filters="sRGB">
<feFlood flood-opacity="0" result="BackgroundImageFix"/>
<feBlend mode="normal" in="SourceGraphic" in2="BackgroundImageFix" result="shape"/>
<feGaussianBlur stdDeviation="1.79228" result="effect1_foregroundBlur_10018_63365"/>
</filter>
<filter id="filter1_d_10018_63365" x="13.511" y="-2.20588" width="13.9706" height="13.9706" filterUnits="userSpaceOnUse" color-interpolation-filters="sRGB">
<feFlood flood-opacity="0" result="BackgroundImageFix"/>
<feColorMatrix in="SourceAlpha" type="matrix" values="0 0 0 0 0 0 0 0 0 0 0 0 0 0 0 0 0 0 127 0" result="hardAlpha"/>
<feOffset dx="0.183824" dy="0.0919118"/>
<feGaussianBlur stdDeviation="1.1489"/>
<feColorMatrix type="matrix" values="0 0 0 0 0 0 0 0 0 0 0 0 0 0 0 0 0 0 0.33 0"/>
<feBlend mode="normal" in2="BackgroundImageFix" result="effect1_dropShadow_10018_63365"/>
<feBlend mode="normal" in="SourceGraphic" in2="effect1_dropShadow_10018_63365" result="shape"/>
</filter>
<linearGradient id="paint0_linear_10018_63365" x1="12.5" y1="0" x2="12.5" y2="28.3088" gradientUnits="userSpaceOnUse">
<stop stop-color="#FF7979"/>
<stop offset="1" stop-color="#E85555"/>
</linearGradient>
<linearGradient id="paint1_linear_10018_63365" x1="12.5" y1="0" x2="12.5" y2="28.3088" gradientUnits="userSpaceOnUse">
<stop stop-color="#B4B6BC"/>
<stop offset="0.0730828" stop-color="#B1B3B9"/>
<stop offset="1" stop-color="#8D8F94"/>
</linearGradient>
<linearGradient id="paint2_linear_10018_63365" x1="20.3125" y1="0" x2="20.3125" y2="9.375" gradientUnits="userSpaceOnUse">
<stop stop-color="#979CAB"/>
<stop offset="1" stop-color="#797C88"/>
</linearGradient>
</defs>
</svg>
