<svg width="20" height="20" viewBox="0 0 20 20" fill="none" xmlns="http://www.w3.org/2000/svg">
<path fill-rule="evenodd" clip-rule="evenodd" d="M8.2658 3.76885C9.14815 2.23929 11.3573 2.24482 12.2319 3.77889L18.0319 13.9582C18.8997 15.4822 17.7993 17.3761 16.0456 17.3761H4.37205C2.61272 17.3761 1.5133 15.472 2.3922 13.9481L8.2658 3.76885ZM11.1459 4.39784C10.7495 3.70272 9.74849 3.7002 9.34857 4.39343L3.47501 14.5726C3.475 14.5727 3.47503 14.5725 3.47501 14.5726C3.07668 15.2633 3.5751 16.1261 4.37205 16.1261H16.0456C16.84 16.1261 17.3392 15.2677 16.9457 14.5769L11.1459 4.39784C11.1459 4.39788 11.1458 4.3978 11.1459 4.39784Z" fill="#403C44"/>
<path fill-rule="evenodd" clip-rule="evenodd" d="M8.2658 3.76885C9.14815 2.23929 11.3573 2.24482 12.2319 3.77889L18.0319 13.9582C18.8997 15.4822 17.7993 17.3761 16.0456 17.3761H4.37205C2.61272 17.3761 1.5133 15.472 2.3922 13.9481L8.2658 3.76885ZM11.1459 4.39784C10.7495 3.70272 9.74849 3.7002 9.34857 4.39343L3.47501 14.5726C3.475 14.5727 3.47503 14.5725 3.47501 14.5726C3.07668 15.2633 3.5751 16.1261 4.37205 16.1261H16.0456C16.84 16.1261 17.3392 15.2677 16.9457 14.5769L11.1459 4.39784C11.1459 4.39788 11.1458 4.3978 11.1459 4.39784Z" fill="black" fill-opacity="0.2"/>
<path fill-rule="evenodd" clip-rule="evenodd" d="M8.2658 3.76885C9.14815 2.23929 11.3573 2.24482 12.2319 3.77889L18.0319 13.9582C18.8997 15.4822 17.7993 17.3761 16.0456 17.3761H4.37205C2.61272 17.3761 1.5133 15.472 2.3922 13.9481L8.2658 3.76885ZM11.1459 4.39784C10.7495 3.70272 9.74849 3.7002 9.34857 4.39343L3.47501 14.5726C3.475 14.5727 3.47503 14.5725 3.47501 14.5726C3.07668 15.2633 3.5751 16.1261 4.37205 16.1261H16.0456C16.84 16.1261 17.3392 15.2677 16.9457 14.5769L11.1459 4.39784C11.1459 4.39788 11.1458 4.3978 11.1459 4.39784Z" fill="black" fill-opacity="0.2"/>
<path fill-rule="evenodd" clip-rule="evenodd" d="M10.2184 7.93359C10.5635 7.93359 10.8434 8.21342 10.8434 8.55861V11.0679C10.8434 11.4132 10.5635 11.6929 10.2184 11.6929C9.87313 11.6929 9.59338 11.4132 9.59338 11.0679V8.55861C9.59338 8.21342 9.87313 7.93359 10.2184 7.93359ZM10.2168 12.9402C10.562 12.9402 10.8418 13.22 10.8418 13.5652V13.6057C10.8418 13.9509 10.562 14.2307 10.2168 14.2307C9.87163 14.2307 9.5918 13.9509 9.5918 13.6057V13.5652C9.5918 13.22 9.87163 12.9402 10.2168 12.9402Z" fill="#403C44"/>
<path fill-rule="evenodd" clip-rule="evenodd" d="M10.2184 7.93359C10.5635 7.93359 10.8434 8.21342 10.8434 8.55861V11.0679C10.8434 11.4132 10.5635 11.6929 10.2184 11.6929C9.87313 11.6929 9.59338 11.4132 9.59338 11.0679V8.55861C9.59338 8.21342 9.87313 7.93359 10.2184 7.93359ZM10.2168 12.9402C10.562 12.9402 10.8418 13.22 10.8418 13.5652V13.6057C10.8418 13.9509 10.562 14.2307 10.2168 14.2307C9.87163 14.2307 9.5918 13.9509 9.5918 13.6057V13.5652C9.5918 13.22 9.87163 12.9402 10.2168 12.9402Z" fill="black" fill-opacity="0.2"/>
<path fill-rule="evenodd" clip-rule="evenodd" d="M10.2184 7.93359C10.5635 7.93359 10.8434 8.21342 10.8434 8.55861V11.0679C10.8434 11.4132 10.5635 11.6929 10.2184 11.6929C9.87313 11.6929 9.59338 11.4132 9.59338 11.0679V8.55861C9.59338 8.21342 9.87313 7.93359 10.2184 7.93359ZM10.2168 12.9402C10.562 12.9402 10.8418 13.22 10.8418 13.5652V13.6057C10.8418 13.9509 10.562 14.2307 10.2168 14.2307C9.87163 14.2307 9.5918 13.9509 9.5918 13.6057V13.5652C9.5918 13.22 9.87163 12.9402 10.2168 12.9402Z" fill="black" fill-opacity="0.2"/>
</svg>
